<?xml version="1.0" encoding="utf-8"?>
<!-- Generator: Adobe Illustrator 28.0.0, SVG Export Plug-In . SVG Version: 6.00 Build 0)  -->
<svg version="1.1" id="Layer_1" xmlns="http://www.w3.org/2000/svg" xmlns:xlink="http://www.w3.org/1999/xlink" x="0px" y="0px"
	 viewBox="0 0 1030 133.5" style="enable-background:new 0 0 1030 133.5;" xml:space="preserve">
<style type="text/css">
	.st0{fill:#003C71;}
	.st1{fill-rule:evenodd;clip-rule:evenodd;fill:#003C71;}
	.st2{fill:#0140BE;}
	.st3{fill:none;stroke:#414042;stroke-miterlimit:10;}
</style>
<g>
	<path class="st0" d="M552.8,42c2.5,0,4.6-2.1,4.6-4.6c0-2.6-2.1-4.6-4.6-4.6c-2.5,0-4.6,2.1-4.6,4.6C548.2,39.9,550.3,42,552.8,42"
		/>
	<path class="st0" d="M539.2,59.4c3.6,0,6-2.4,6-6c0-3.7-2.5-6.2-6.2-6.2c-3.4,0-5.8,2.4-5.8,6.3C533.2,57.2,535.4,59.4,539.2,59.4"
		/>
	<path class="st0" d="M543.2,78.4l-8.2-0.4c-2.6,1.2-3.8,2.4-3.8,3.9c0,2.4,2.7,4.2,7.3,4.2c6.2,0,9.7-2,9.7-4.7
		C548.2,79.3,546.6,78.5,543.2,78.4"/>
	<path class="st0" d="M558,40.2c-1,1.8-3,3.1-5.2,3.1c-3.3,0-5.9-2.7-5.9-6c0-0.7,0.1-1.4,0.3-2c-2.4-0.6-4.9-0.9-7.5-0.9
		c-17.7,0-32.1,14.5-32.1,32.4c0,17.9,14.4,32.4,32.1,32.4s32.1-14.5,32.1-32.4C571.8,55.8,566.4,46,558,40.2 M538.7,92.4
		c-10.4,0-15.8-3.3-15.8-9.4c0-3.5,2.1-5.4,6.5-6.9c-3.3-1.6-4.9-3.2-4.9-5.7c0-2.7,1.9-5.2,5.5-7.1c-3.4-2.1-5.2-5.5-5.2-9.8
		c0-7.7,5.7-13.1,14.1-13.1c3.5,0,6.9,1.1,9.6,3.4c1.8,1.5,3.1,3.5,3.9,5.7c0.5,1.5,0.7,3.1,0.7,4.7c0,7.2-5.3,12-13.9,12
		c-1.6,0-2.9-0.1-4-0.4c-1.6,0.7-2.4,1.5-2.4,2.5c0,2.5,3.4,2.3,9.8,2.8c9.6,0.7,13.7,2.6,13.7,9.8
		C556.2,88.2,550.1,92.4,538.7,92.4"/>
	<path class="st1" d="M632.4,80.3h-7.7V35.5h7.7V80.3z M620.9,45.7c0,2.2-1.8,4-4,4c-2.2,0-4-1.8-4-4c0-2.2,1.8-4,4-4
		C619.1,41.6,620.9,43.4,620.9,45.7 M606,63.6c3.2,0,5.3-2,5.3-5.2c0-3.1-2.2-5.3-5.4-5.3c-3,0-5.1,2.1-5.1,5.4
		C600.8,61.8,602.7,63.6,606,63.6 M599.2,82.9c0,2.1,2.3,3.6,6.3,3.6c5.4,0,8.4-1.7,8.4-4c0-1.8-1.4-2.5-4.3-2.6l-7.1-0.4
		C600.2,80.6,599.2,81.6,599.2,82.9 M593.2,73c0-2.3,1.7-4.5,4.8-6.1c-3-1.8-4.5-4.7-4.5-8.4c0-6.6,4.9-11.2,12.3-11.2
		c3,0,6,1,8.3,2.9c1.5,1.3,2.7,3,3.4,4.9c0.4,1.3,0.6,2.7,0.6,4c0,6.2-4.6,10.3-12.1,10.3c-1.4,0-2.5-0.1-3.5-0.4
		c-1.4,0.6-2.1,1.3-2.1,2.2c0,1.8,2.1,2,6.2,2.2c0.7,0,1.5,0.1,2.3,0.2c8.3,0.6,11.9,2.2,11.9,8.4c0,6.3-5.3,10-15.2,10
		c-9.1,0-13.7-2.8-13.7-8.1c0-3,1.8-4.7,5.6-5.9C594.6,76.5,593.2,75.3,593.2,73 M650.6,74.4c4.2,0,6.1-3.4,6.1-10.2
		c0-6.9-2-10.2-6.1-10.2c-4.1,0-6.1,3.3-6.1,10.2C644.4,71,646.5,74.4,650.6,74.4 M650.6,47.4c8.7,0,13.9,6.2,13.9,16.8
		c0,10.6-5.3,16.8-13.9,16.8c-8.6,0-13.9-6.2-13.9-16.8C636.7,53.6,641.9,47.4,650.6,47.4 M688.9,64.2c0,6.7-2.6,10.4-6.9,10.4
		c-2.1,0-3.8-0.9-5.8-2.8V56.4c2-1.8,3.7-2.7,5.8-2.7C686.2,53.7,688.9,57.4,688.9,64.2 M668.7,35.5v37.3c0,1.5-0.1,4.1-0.4,7.5h6
		l0.8-3.5c2.7,2.8,5.3,4.1,8.8,4.1c7.4,0,12.7-6.7,12.7-16.8c0-10.4-5.4-16.8-12.4-16.8c-3.3,0-5.6,1.1-7.9,3.7V35.5H668.7z
		 M706.4,71.5c0,2.2,1.2,3.5,3.5,3.5c2.4,0,4.8-1.1,7.1-3.4v-6.9C709.9,65.6,706.4,67.6,706.4,71.5 M717.2,77.5
		c-3,2.2-6.2,3.2-9.7,3.2c-5.5,0-8.7-3.3-8.7-8.6c0-7.2,6-11,18.4-12.6V57c0-2.3-1.6-3.7-4.6-3.7c-3,0-5.4,1.3-7.1,3.7l-5.2-3.3
		c2.7-4.2,6.9-6.3,12.5-6.3c7.6,0,11.9,3.6,11.9,9.6v19c0,1.1,0.2,2.6,0.5,4.4h-7.3L717.2,77.5z M738.9,80.3h-7.7V35.5h7.7V80.3z
		 M750.1,71.7c3.2,4.1,6.1,6.1,9.7,6.1c5.3,0,8.5-4.8,8.5-13.6s-3.2-13.6-8.5-13.6c-3.6,0-6.5,2-9.7,6V71.7z M746.2,48.1h2.9l1,4.2
		h0.3c3-3.2,6.3-4.8,9.7-4.8c7.1,0,12,6.1,12,16.7c0,10.6-5,16.7-12,16.7c-3.5,0-6.7-1.5-9.7-4.8h-0.3v15.9h-3.8V48.1z M778.5,72.1
		c0-5.5,5-7.5,15.9-9.9v9.9c-3.8,3.8-7,5.7-10.5,5.7C780.5,77.9,778.5,75.7,778.5,72.1 M783.4,81c4,0,7.5-1.6,11-4.9
		c0.1,1.4,0.3,2.8,0.6,4.3h3.8c-0.4-2-0.6-3.5-0.6-4.3V56c0-4.8-4.3-8.5-10.4-8.5c-5.6,0-9,2.2-11.5,6.6l3,1.7
		c1.9-3.5,4.5-5.2,8.1-5.2c4.5,0,7.1,2.2,7.1,5.3v3.1c-13.6,2.4-19.8,5.7-19.8,13.2C774.6,77.3,778,81,783.4,81 M801.7,48.1h3.8
		l9.6,27.5l9.5-27.5h3.7L816,82.9c-2.2,6.4-4.8,9.1-10.4,9.1c-1,0-2.1-0.1-3.3-0.2v-3.1c1,0.2,1.9,0.2,2.7,0.2c4.6,0,6.8-2.6,8-8.7
		L801.7,48.1z M835.6,48.1h-3.5v32.3h3.7V56.8c3.2-4,6.4-6,9.4-6c4.6,0,5.6,2.7,5.6,8.4v21.1h3.7V56.8c3.2-4,6.4-6,9.4-6
		c4.6,0,5.6,2.7,5.6,8.4v21.1h3.7V57.9c0-6.9-2.7-10.4-8.2-10.4c-3.5,0-6.9,1.9-10.4,5.6H854c-1.5-3.7-4.1-5.6-7.8-5.6
		c-3.4,0-7,1.9-10.4,5.6h-0.2V48.1z M891.2,50.6c-5.1,0-8.7,3.8-9.3,10.7h17.8C899.5,54.4,896.2,50.6,891.2,50.6 M903.4,72.6
		c-2.9,5.8-6.5,8.3-12.2,8.3c-8.1,0-13.2-6.4-13.2-16.5c0-10.7,5.3-17,13.1-17c7.8,0,12.2,5.4,12.2,15.6v1h-21.4
		c0.1,8.9,3.5,13.7,9.6,13.7c4.2,0,6.8-2,9.1-6.8L903.4,72.6z M912.1,48.1h-3.8v32.3h3.8V56.8c3.5-4,6.9-6,10.1-6
		c5,0,6.1,2.7,6.1,8.4v21.1h3.8V57.9c0-6.9-2.9-10.4-8.7-10.4c-3.6,0-7.4,1.9-11.2,5.6V48.1z M947.9,77.9c0.9,0,2-0.2,3.4-0.6v3.1
		c-1.4,0.4-2.9,0.6-4.3,0.6c-4.5,0-6.4-2.2-6.4-6.9V51.2h-4.8v-3.1h4.8v-9.6h3.8v9.6h6.8v3.1h-6.8v23.1
		C944.4,76.8,945.5,77.9,947.9,77.9 M971.7,71.9c0,3.4-2.7,5.9-6.7,5.9c-3.8,0-7-1.9-9.8-5.6l-2.9,2.3c3.2,4.3,7.1,6.4,12.2,6.4
		c6.7,0,11-3.9,11-9.3c0-5.1-3.3-7.1-9.7-9.5c-0.5-0.2-1-0.4-1.5-0.6c-4.5-1.7-7.1-2.6-7.1-5.7c0-3.1,2.3-5.3,5.8-5.3
		c3.6,0,6.3,1.5,8.7,4.8l2.7-2c-2.9-3.9-6.6-5.9-10.8-5.9c-6.4,0-10.5,3.6-10.5,8.6c0,4.9,3.4,6.8,10,9.2c0.3,0.1,0.6,0.2,1,0.4
		C969,67.3,971.7,68.3,971.7,71.9"/>
	<path class="st2" d="M178.1,61.1c-2.1-8.2-8-11.9-14.9-11.9c-6.9,0-12.4,3.8-14.7,11.9H178.1z M148,65.6c0.2,9.1,6.4,15.8,15,15.8
		c8.5,0,12.3-4.7,15.2-9.5l4.3,2.2c-4,7.9-10.3,11.9-18.9,11.9c-13.2,0-20.7-10.1-20.7-20.7c0-10.6,8-21,20.4-21
		c11.3,0,20.4,8.2,20.6,21.3L148,65.6L148,65.6z"/>
	<path class="st2" d="M263.1,61.1c-2.1-8.2-8-11.9-14.9-11.9c-6.9,0-12.4,3.8-14.7,11.9H263.1z M232.9,65.6
		c0.2,9.1,6.4,15.8,15,15.8c8.5,0,12.3-4.7,15.2-9.5l4.3,2.2c-4,7.9-10.3,11.9-18.9,11.9c-13.2,0-20.7-10.1-20.7-20.7
		c0-10.6,8-21,20.4-21c11.3,0,20.4,8.2,20.6,21.3L232.9,65.6L232.9,65.6z"/>
	<polygon class="st2" points="301.5,45.3 307,45.3 320.3,74.2 333.5,45.3 338.9,45.3 320.7,85.1 319.8,85.1 301.5,45.3 	"/>
	<rect x="346.2" y="45.3" class="st2" width="5.1" height="39.8"/>
	<path class="st2" d="M400.7,77c-3.9,5.9-10.6,9-18.6,9c-13.1,0-21.9-9.4-21.9-20.5c0-11.7,9.1-21.3,22.2-21.3
		c7.6,0,14.6,3.1,18.3,9.3l-4.1,2.5c-3.5-4.6-8.4-6.9-14.4-6.9c-10.1,0-16.8,7.4-16.8,16c0,8.5,6.6,16.3,16.8,16.3
		c5.8,0,10.6-2.3,14.3-7L400.7,77z"/>
	<path class="st2" d="M442.4,61.1c-2.1-8.2-8-11.9-14.9-11.9c-6.9,0-12.4,3.8-14.7,11.9H442.4z M412.2,65.6
		c0.2,9.1,6.4,15.8,15,15.8c8.5,0,12.3-4.7,15.2-9.5l4.3,2.2c-4,7.9-10.3,11.9-18.9,11.9C414.5,86,407,75.9,407,65.3
		c0-10.6,8-21,20.4-21c11.3,0,20.4,8.2,20.6,21.3L412.2,65.6L412.2,65.6z"/>
	<path class="st2" d="M193.8,76.7c3.4,2.9,7.3,4.7,11.2,4.7c6.2,0,10.5-2.9,10.5-6.8c0-2.9-2.7-4.5-5.2-5.6
		c-11.6-5.1-17.5-7.1-17.5-14.1c0-6.5,5.7-10.5,13.8-10.5c5.8,0,9.8,2.1,13.9,5.4l-3.3,3.4c-3-2.3-6.5-3.8-11-3.8
		c-4.9,0-8.7,2.2-8.7,5.3c0,2.5,1.8,4,4.8,5.4c11.6,5.2,18.2,7.3,18.2,14.4c0,6.2-5.5,11.7-15.1,11.7c-5.6,0-11.1-2-14.7-5.7
		L193.8,76.7L193.8,76.7z"/>
	<path class="st2" d="M282.2,51.1c3-4.3,6.4-6.8,10.5-6.8c2.3,0,3.6,0.8,4.6,1.4l-2.6,4.2c-0.6-0.3-1.7-0.7-2.8-0.7
		c-3.5,0-7.3,3.4-8.8,8.7c-0.7,2.5-0.9,6.7-0.9,12.1v15.1H277V45.3h5.2V51.1z"/>
	<path class="st2" d="M79.1,27.8c-19,0-34.8,13.9-37.7,32.1c5.9,3.8,13,6.1,20.6,6.1c5.5,0,10-0.9,15.5-3.3c7.1-3.1,12.7-4.3,19-4.6
		c-3-6.6-9.7-11.2-17.4-11.2c-9,0-16.6,6.3-18.6,14.7c-2.7-0.1-5.3-0.5-7.9-1.3c2.6-12.2,13.5-21.4,26.4-21.4
		c14.9,0,26.9,12,27,26.8c-1.4-0.1-2.8-0.1-4.2-0.2c-1.2,0-2.5,0-3.7,0.1c-6.2,0.3-12.3,1.8-19.8,5C72.7,73,65.7,74,61.8,73.9
		c3.1,6.6,9.9,11.1,17.7,11.1c7.9,0,14.5-4.5,17.6-11l7.3,3.2C100.1,86.6,90.5,93,79.5,93c-12.6,0-23.2-8.3-26.4-19.7
		c-4.5-1.9-8.5-4.6-11.9-8c-0.1-0.1-0.1-0.1-0.2-0.2c0,0.3,0,0.6,0,0.9c0,21.1,17.1,38.2,38.2,38.2c21.1,0,38.2-17.1,38.2-38.2
		C117.3,44.9,100.2,27.8,79.1,27.8"/>
	<line class="st3" x1="478.1" y1="27.8" x2="478.1" y2="104.1"/>
</g>
</svg>
