<?xml version="1.0" encoding="utf-8"?>
<!-- Generator: Adobe Illustrator 23.1.1, SVG Export Plug-In . SVG Version: 6.00 Build 0)  -->
<svg version="1.1" id="Layer_1" xmlns="http://www.w3.org/2000/svg" xmlns:xlink="http://www.w3.org/1999/xlink" x="0px" y="0px"
	 viewBox="0 0 113 66.953" style="enable-background:new 0 0 113 66.953;" xml:space="preserve">
<style type="text/css">
	.st0{fill:#0140BE;}
</style>
<g>
	<g>
		<path class="st0" d="M107.435,3.528c0-1.533,1.249-2.782,2.783-2.782c1.533,0,2.782,1.248,2.782,2.782s-1.248,2.782-2.782,2.782
			C108.685,6.31,107.435,5.062,107.435,3.528z M112.32,3.528c0-1.302-0.939-2.242-2.102-2.242c-1.164,0-2.103,0.939-2.103,2.242
			s0.939,2.242,2.103,2.242C111.381,5.77,112.32,4.83,112.32,3.528z M109.147,1.941h1.171c0.755,0,1.164,0.261,1.164,0.923
			c0,0.541-0.309,0.802-0.823,0.848l0.846,1.38h-0.601l-0.816-1.357h-0.356v1.357h-0.585V1.941z M109.731,3.29h0.518
			c0.346,0,0.647-0.046,0.647-0.472c0-0.369-0.34-0.43-0.64-0.43h-0.525V3.29z"/>
	</g>
	<polygon class="st0" points="30.581,40.717 12.048,40.717 12.048,26.774 23.171,26.774 19.249,19.394 12.048,19.388 12.048,8.266 
		35.894,8.27 35.894,0.727 0,0.72 0,48.266 34.593,48.266 	"/>
	<polygon class="st0" points="55.416,66.926 81.612,19.388 68.799,19.388 51.896,50.988 35.894,19.388 22.662,19.388 47.926,66.926 
			"/>
	<path class="st0" d="M77.482,0.026c-17.443,0-29.944,10.039-29.944,24.481c0,6.63,2.065,12.328,6.245,16.557l6.598-12.334
		c-0.243-1.335-0.368-2.745-0.368-4.223c0-10.142,6.184-17.193,17.469-17.193c11.284,0,17.468,6.095,17.468,17.193
		c0,10.537-7.82,17.194-17.468,17.194c-1.617,0-3.116-0.137-4.505-0.393l-3.867,7.018c2.56,0.433,5.346,0.663,8.372,0.663
		c16.537,0,29.943-8.243,29.943-24.481C107.425,8.27,94.924,0.026,77.482,0.026z"/>
</g>
</svg>
