<svg xmlns="http://www.w3.org/2000/svg" width="98.502" height="88.5" viewBox="0 0 98.502 88.5"><defs><style>.a{fill:#e5ebf9;}.b,.c{fill:#0140be;stroke:#0140be;}.b{stroke-width:0.5px;}</style></defs><g transform="translate(-954.5 -4248.5)"><g transform="translate(987.857 4270.79)"><g transform="translate(2.618 3.296)"><path class="a" d="M36.11,62.777c1.852-.257,3.635-2.335,2.864-4.3-1.066-2.708-1.907-6.226-3.782-8.444a1.65,1.65,0,0,0-2.732.724c-.825,2.592-.288,5.946-.249,8.639a3.448,3.448,0,0,0,3.9,3.386Z" transform="translate(-9.713 -14.309)"/><path class="a" d="M16.062,46.157A33.848,33.848,0,0,1,13.128,40.2a10.631,10.631,0,0,0,3.837,1.012c4.374.374,6.226-5.448,3.44-8.3-.864-.9-1.915-1.922-2.817-3.059a7.684,7.684,0,0,1,.093-1.557,6.008,6.008,0,0,0-1.728-5.113c.965-2.335,3.479-4.366,5.355-5.689C26.693,13.687,34.251,11.2,40.57,14.1a14.009,14.009,0,0,1,3.113,1.953,2.148,2.148,0,0,0-.646,1.876,23.722,23.722,0,0,1,.42,6.958,10.452,10.452,0,0,1-2.047,6.405c-1.658,3.113.934,5.728,3.627,6.032-.319,3.409.778,7.363,1.144,10.678.506,4.467,6.024,6.491,8.678,2.335a36.8,36.8,0,0,0,5.814-19.045c.07-2.6-.125-5.362-2.055-7.184a18.842,18.842,0,0,0-.872-3.214A25.931,25.931,0,0,0,37.146,4.55a30.244,30.244,0,0,0-26.337,9.16C7.54,17.174,5.361,21.431,5.758,26.3a5.308,5.308,0,0,0,.078.615,12.99,12.99,0,0,0-2.467,8.009C3.446,40.81,8.038,45.5,11.844,49.41,13.976,51.527,17.759,48.757,16.062,46.157Z" transform="translate(-3.363 -4.235)"/><path class="a" d="M49.763,29.074A8.476,8.476,0,0,0,46.907,23.2a.817.817,0,0,0-1.354.778,8.46,8.46,0,0,1-3.386,8.359c-2.42,1.821-5.121,1.969-7.868,2.716-4,1.082-2.708,6.289.911,6.732,4.67.568,9.775-2.335,12.554-6.351A10.452,10.452,0,0,0,49.763,29.074Z" transform="translate(-9.676 -8.407)"/><path class="a" d="M64.726,58.908a3.5,3.5,0,0,0,.4-1.2c4.1-8.047,3.308-18.679,1.23-27.03a1.074,1.074,0,0,0-2.094.288c-.311,5.253-.381,10.445-1.953,15.566a44.663,44.663,0,0,1-5.448,10.818,37.42,37.42,0,0,1-11.736,6.1,4.141,4.141,0,0,0,1.144-1.02c3.074-4.039.615-16.344-5.253-17.325-.95-.163-2.2.638-1.759,1.751a17.325,17.325,0,0,1,1.02,6.576c0,1.72-.374,3.572-.428,5.347a31.4,31.4,0,0,1-9.69,2.638c-1.455.226-1.02,2.117,0,2.545,3.627,1.557,8.156,1.152,12.017-.179a3.207,3.207,0,0,0,1.3.2c-1.79.521-3.642.973-5.541,1.362a27.357,27.357,0,0,1-12.452-.3c-4.234-1.082-7.23-3.666-11.059-5.448a.864.864,0,0,0-1.245.965C15.6,70.053,28.544,73.8,37,72.707,46.164,71.485,59.87,67.71,64.726,58.908Z" transform="translate(-5.532 -9.975)"/></g><g transform="translate(0 0)"><path class="b" d="M7.821,10.748a1.16,1.16,0,0,1-.887.4,1.1,1.1,0,0,1-.319-.054A29.757,29.757,0,0,0,0,28.948a31.1,31.1,0,0,0,8.382,21.5c5.892,6.222,14.009,9.489,23.426,9.489,18.741,0,31.334-12.988,31.334-32.331a28.573,28.573,0,0,0-1.712-9.279C59.095,11.511,54,7.2,48.572,4.48l-.132.241a1.16,1.16,0,0,1-1.035.638,1.215,1.215,0,0,1-.537-.132,1.174,1.174,0,0,1-.506-1.555,1.556,1.556,0,0,0,.086-.156A48.388,48.388,0,0,0,35.427.4,30.9,30.9,0,0,0,30.469,0C20.445,0,13.013,4.021,7.993,9.489a1.174,1.174,0,0,1-.171,1.26ZM30.469,2.333a28.932,28.932,0,0,1,4.553.366c7.339,1.19,20.235,4.9,24.166,16.372a26.427,26.427,0,0,1,1.557,8.555c0,11.915-5.144,21.233-13.682,26.148a1.152,1.152,0,0,1-1.058.7h-.195a30.876,30.876,0,0,1-14.064,3.173A31.655,31.655,0,0,1,17.6,54.536a1.3,1.3,0,0,0,.054.451,1.175,1.175,0,0,1-1.012,1.307h-.148a1.175,1.175,0,0,1-1.1-1.073c-.086-.723-.156-1.439-.218-2.139C6.7,47.73,2.335,38.3,2.335,28.948A27.484,27.484,0,0,1,30.469,2.333Z" transform="translate(0.001 0)"/><path class="b" d="M29.809,38.038a1.167,1.167,0,0,1-.778,1.471l-.288.1a12.538,12.538,0,0,0,2.849.879l.117-.428A1.167,1.167,0,0,1,33.942,40c.086.241.148.49.218.732h.062A15.566,15.566,0,0,0,42,38.637a1.167,1.167,0,0,1,1.16-1.837,9.573,9.573,0,0,1,1.082.28,13.8,13.8,0,0,0,5.16-10.561,11.254,11.254,0,0,0-3.658-8.561,17.807,17.807,0,0,0-5.386-2.88c-.5-.195-1-.389-1.5-.6a11.02,11.02,0,0,0-4.319-.879c-8.047,0-12.982,8.156-12.982,14.009a13.324,13.324,0,0,0,4.8,10.468,11.814,11.814,0,0,1,1.977-.817,1.167,1.167,0,0,1,1.471.778ZM23.894,27.664c0-4.755,4.148-11.674,10.647-11.674a8.787,8.787,0,0,1,3.417.693c.521.218,1.035.42,1.557.623a16.048,16.048,0,0,1,4.724,2.475,8.95,8.95,0,0,1,2.841,6.771c0,6.3-5.993,11.845-12.818,11.845-8.2-.031-10.367-7.059-10.367-10.771Z" transform="translate(-4.779 -3.027)"/><path class="b" d="M28.276,46.318l.288-.1a1.174,1.174,0,0,0-.724-2.234,11.814,11.814,0,0,0-1.977.848c-4.3,2.335-6.553,7.37-6.553,14.647,0,1.082.054,2.226.148,3.409.062.7.132,1.416.218,2.14a1.175,1.175,0,0,0,1.16,1.027h.148A1.175,1.175,0,0,0,22,64.748a1.263,1.263,0,0,0-.054-.451,42.564,42.564,0,0,1-.3-4.81C21.645,52.3,23.879,47.875,28.276,46.318Z" transform="translate(-4.28 -9.78)"/><path class="b" d="M57.849,60.986c0-5.643-1.058-15.122-7.837-17.3a9.573,9.573,0,0,0-1.082-.28,1.188,1.188,0,0,0-.436,2.335c6.11,1.16,7,10.118,7,15.285a16.93,16.93,0,0,1-.07,1.9,1.16,1.16,0,0,0,.981,1.175H56.6a1.152,1.152,0,0,0,1.058-.7,1.207,1.207,0,0,0,.109-.381C57.818,62.348,57.849,61.67,57.849,60.986Z" transform="translate(-10.536 -9.649)"/><path class="b" d="M34.937,46.44a1.183,1.183,0,0,0-1.1.864l-.117.428c-2.716,9.993-3.549,13.589-1.7,15.34a3.16,3.16,0,0,0,2.265.778,14.009,14.009,0,0,0,4.125-.887,1.167,1.167,0,0,0,.778-1.37c-.4-1.743-.716-3.518-1.02-5.238a69.033,69.033,0,0,0-1.868-8.39c-.07-.241-.132-.49-.218-.732A1.175,1.175,0,0,0,34.937,46.44ZM33.629,61.375c-.778-.7.093-4.561,1.339-9.285.335,1.557.607,3.113.9,4.67.249,1.409.506,2.856.778,4.3C34.462,61.718,33.808,61.554,33.629,61.375Z" transform="translate(-6.879 -10.327)"/></g></g><g transform="translate(955 4249)"><path class="a" d="M47.766,14.492A16.872,16.872,0,0,0,45.842,1.516c-1.3-2.137-5.483-2.132-5.9.771a23.642,23.642,0,0,0-.175,6.655,3.3,3.3,0,0,0,2.5,2.865,13.006,13.006,0,0,1-1.126,4.755c-1.691,3.815-5.645,5.934-8.15,9.176a7.194,7.194,0,0,0-3.762-6.15c-3.4-1.986-7.126-1.069-10.8-.774-7.067.567-13.566-1.933-14.666-9.682a1.519,1.519,0,0,0-2.752-.36c-2.752,6.311.375,13.073,6.528,15.862A22.293,22.293,0,0,0,17.54,26.311c2.418-.088,8.3-2.044,8.792,1.489a2.69,2.69,0,0,0,3.393,2.272l.8,2.8c-2.645-1.029-5.033-3.14-7.7-4.1-3.055-1.1-7.836-1.95-10.7.014-.568.389-.776,1.456,0,1.792,1.746.756,3.674.816,5.49,1.43A17.66,17.66,0,0,1,23.546,35.5c3.176,2.664,6.388,5.112,10.752,4.31a2.658,2.658,0,0,0,2.094-1.68.8.8,0,0,0,1.184-.44c.559-2.055.768-3.889,1.972-5.732A25.9,25.9,0,0,1,43.9,27.229c2.893-2.659,5.618-5.3,6.8-9.162.7-2.28-1.124-3.665-2.936-3.575ZM34.9,33.841h0a2.915,2.915,0,0,0-1.284-.373,1.394,1.394,0,0,0,.249-1.5L32.45,28.245a2.873,2.873,0,0,0,.2-.445c.05-.149.088-.3.128-.446a.659.659,0,0,0,.788.04,51.554,51.554,0,0,1,6.187-3.232c-2.423,3.143-4.732,6.492-4.848,9.68Z" transform="translate(2.292 6.902)"/><path class="c" d="M30.176,0a55.486,55.486,0,0,0-7.142.512,27.443,27.443,0,0,1-3.463.176c-.837,0-1.7-.018-2.565-.036-.9-.019-1.8-.038-2.7-.038C4.612.613,0,3.131,0,17.439c0,16.634,10.524,18,27.887,18.077a25.161,25.161,0,0,0,9.382,8.069A.868.868,0,0,0,38.5,42.561a29.688,29.688,0,0,1-1.213-7.513c9.935-1.532,14.972-7,14.972-16.274C52.254,6.141,45.032,0,30.177,0Zm6.107,33.437h0a.868.868,0,0,0-.756.872,32.6,32.6,0,0,0,.778,6.749,22.58,22.58,0,0,1-7.218-6.877.868.868,0,0,0-.728-.4c-17-.051-26.623-.835-26.623-16.343,0-12.994,3.7-15.09,12.566-15.09.888,0,1.782.019,2.668.038s1.753.037,2.6.037a29.094,29.094,0,0,0,3.683-.19,53.863,53.863,0,0,1,6.922-.5c13.878,0,20.341,5.414,20.341,17.038,0,8.736-4.523,13.4-14.235,14.663Z" transform="translate(0 0)"/><path class="c" d="M29.783.41c-3.153,0-6.407-.1-9.553-.2C17.036.105,13.733,0,10.484,0,6.838,0,3.665.135.785.414A.868.868,0,0,0,.867,2.146c.028,0,.056,0,.085,0,2.824-.273,5.942-.406,9.532-.406,3.222,0,6.511.1,9.691.206,3.16.1,6.427.2,9.608.2a.868.868,0,1,0,0-1.736Z" transform="translate(8.126 9.63)"/><path class="c" d="M27.937,0H.868a.868.868,0,0,0,0,1.736H27.937a.868.868,0,0,0,0-1.736Z" transform="translate(8.742 16.5)"/><path class="c" d="M25.136.607c-.7.027-1.451.041-2.219.041C20.251.648,17.5.484,14.831.326,12.127.166,9.331,0,6.584,0A50.471,50.471,0,0,0,.769.3a.868.868,0,1,0,.2,1.725,48.687,48.687,0,0,1,5.616-.293c2.7,0,5.466.165,8.145.323s5.471.325,8.189.325c.79,0,1.559-.014,2.285-.042A.868.868,0,1,0,25.136.607Z" transform="translate(9.049 22.661)"/></g></g></svg>