<svg xmlns="http://www.w3.org/2000/svg" viewBox="0 0 276.43 77.1"><defs><style>.cls-1{fill:#0140be;}.cls-2{isolation:isolate;}</style></defs><g id="Layer_2" data-name="Layer 2"><g id="Layer_1-2" data-name="Layer 1"><g id="arrow-left-img"><path id="Path_6114" data-name="Path 6114" class="cls-1" d="M275.46,15.66c.34,1.27,1.61,3.84.57,4.95-1.41,1.5-2.62-.33-3.41-1.51-1.54-2.3-2.28-6.64-4.4-8.29A87.55,87.55,0,0,1,232.8,61.24C215.15,73.32,191.63,81.05,170.34,75c-10.43-3-20-8.73-25.55-18.29-.48-.82-3-4.76-1.11-5.08,1-.17,4.23,4.92,4.95,5.74a42.71,42.71,0,0,0,13.08,10.19c17.24,8.7,38.59,5.67,55.4-2.37a91.12,91.12,0,0,0,29.4-22.64,78.9,78.9,0,0,0,10.82-15.91c2.42-4.83,6.58-12.68,6.22-18.23-4.47,1.94-7.19,8.29-11.36,10.89-2.21,1.37-5.28.94-4.33-2.22.76-2.56,4.76-5.12,6.66-6.9,2.11-2,4.28-3.87,6.58-5.65,1.68-1.3,4.75-4.78,7-4.52,3.94.47,6.4,12.43,7.38,15.65C275.81,17,275.05,14.32,275.46,15.66Z"/><g id="Kliknij_tutaj_" data-name="Kliknij tutaj " class="cls-2"><g class="cls-2"><path class="cls-1" d="M2,32.05c1-.1,1.56-.15,1.66-.14a.29.29,0,0,1,.2.08l.13.19a.69.69,0,0,1,.09.34A9.22,9.22,0,0,1,4,34.05a3.64,3.64,0,0,0,.15,1.71,19.1,19.1,0,0,0,.27,3.58l.09.4c.3-1.07.47-1.66.52-1.76a21.22,21.22,0,0,0,.87-2.2l.73-1.22a2.34,2.34,0,0,0,.11-.32,2,2,0,0,0,.08-.41c.93-1.67,1.71-2.61,2.34-2.84a3.55,3.55,0,0,1,1.24-.32c.52,0,.83.17.91.56a2,2,0,0,1-.44,1.47L9.64,35.4a1.77,1.77,0,0,1-.28.75c-.06.13-.19.37-.4.72s-.45,1-.91,2.18L7.51,40a3.25,3.25,0,0,0-.28.76,2.8,2.8,0,0,0-.32,1.34,1.73,1.73,0,0,0,.4.58A9.53,9.53,0,0,1,8.83,44,7,7,0,0,1,10.3,45.2l.88.42a2.14,2.14,0,0,1,.62.38c1,.61,1.58,1,1.85,1.13a3,3,0,0,0,.74.31l.73.39a1.8,1.8,0,0,1,.73.52c.08.14,0,.35-.14.66-.11,0-.63.24-1.56.65l-.84.19a1.82,1.82,0,0,0-.46,0,3.64,3.64,0,0,1-1.46.08l-1.22-.61L9.37,49a5,5,0,0,0-.7-.76l-.32-.38a3.56,3.56,0,0,1-.75-.55A13.66,13.66,0,0,0,6.07,46l-.48-.52c-.1-.06-.27-.2-.52-.4L4.89,45a2.7,2.7,0,0,1,.08.9c0,.25-.06.45-.08.61a4.37,4.37,0,0,0,.25,1.12,4,4,0,0,0,.09.84,1,1,0,0,0,.15.62,10.6,10.6,0,0,0,0,1.2,1.83,1.83,0,0,0,.16,1,1.24,1.24,0,0,1-.8,1.49q-.5.15-1,.27a3.52,3.52,0,0,1-1.32-.45,1.19,1.19,0,0,1-.78-.68,2.12,2.12,0,0,1-.17-1c0-.19-.1-.56-.19-1.11a1.69,1.69,0,0,1-.12-.95,2.22,2.22,0,0,0,0-1.14,6.28,6.28,0,0,0-.35-1.09,2.39,2.39,0,0,1-.32-1.4l-.11-.77a5.13,5.13,0,0,1-.17-1.57,15.67,15.67,0,0,1-.22-3.1l0-.49a3.4,3.4,0,0,1,.09-1.44c.07,0,.08-.08,0-.27a4.09,4.09,0,0,1,0-1.35A2.57,2.57,0,0,0,.05,35a2.26,2.26,0,0,1,0-1.09A3.43,3.43,0,0,1,.36,33l.11-.14a1,1,0,0,1,.17-.15,1.11,1.11,0,0,0,.16-.16v0C.9,32.39,1.29,32.23,2,32.05Z"/><path class="cls-1" d="M14.67,31.87,14.47,30l-.19-1a1,1,0,0,1,0-.66l.21-.51a5.76,5.76,0,0,1,.92-1,1.35,1.35,0,0,1,.73-.15,1.57,1.57,0,0,1,.63.07l.4.2a.52.52,0,0,1,.4.43c.13.1.19.19.16.26A19.57,19.57,0,0,0,18,31.47l.73,4.3,0,.88a2.34,2.34,0,0,0,.14.46l.13.56a4.35,4.35,0,0,1,.06.81,1.05,1.05,0,0,1,0,.36,1.06,1.06,0,0,1,.18.47c.06.28.07.46,0,.53a8.92,8.92,0,0,0,.16,1,7.45,7.45,0,0,0,.29.92,4.08,4.08,0,0,1,.27.93l.4,1.16.11.47c.12.36.21.66.27.89l.53,1.58.32.82a2.21,2.21,0,0,1,.16,1,1,1,0,0,1-.37.75,2.14,2.14,0,0,1-2.25,0l-.25.05a1.81,1.81,0,0,1-.5-.6.43.43,0,0,1-.32-.39.85.85,0,0,0-.25-.53.93.93,0,0,1-.26-.4,3.38,3.38,0,0,0-.23-.7l0-.26a.4.4,0,0,1-.16-.26L17,45.69l-.06-.25c0-.16-.07-.28-.09-.34a.59.59,0,0,1,0-.33,2.14,2.14,0,0,1-.24-.89c-.24-1.63-.43-2.75-.57-3.35l-.15-.76-.2-.9c-.1-.51-.23-1.14-.4-1.91a4.6,4.6,0,0,1-.18-1.28L15,35.41a11.72,11.72,0,0,1-.24-2.1C14.72,32.41,14.69,31.94,14.67,31.87Z"/><path class="cls-1" d="M22.18,27.12a4.23,4.23,0,0,1,3.13.16,7.64,7.64,0,0,1-.22,2.32,2,2,0,0,1-.22.94l-.31.49a.55.55,0,0,1-.29.17,1.67,1.67,0,0,1-1.85,0,.86.86,0,0,0-.36-.22c-.12,0-.26-.2-.39-.5a1.2,1.2,0,0,1-.42-.56,2.23,2.23,0,0,1,.84-2.75Zm1.45,7.41c.18-.15.7-.16,1.54,0a1.7,1.7,0,0,0,.43.16l.59.29a.56.56,0,0,1,.22.38L27,38.08a8.08,8.08,0,0,1,.2,1.14l0,.18c.14.87.63,2.78,1.49,5.74.2.56.14,1-.16,1.15a1.06,1.06,0,0,1-.72,0,.62.62,0,0,0-.23,0l-.22,0-.18.11a1.13,1.13,0,0,1-.37-.06.8.8,0,0,1-.4-.23.32.32,0,0,0-.3-.12.55.55,0,0,1-.49-.38,4.86,4.86,0,0,1-.68-.9,1,1,0,0,0-.19-.31l-.78-2.68A3,3,0,0,1,24,41l-.18-.75c0-.23-.1-.66-.22-1.28a14.92,14.92,0,0,1-.25-1.5c-.17-.53-.27-.89-.32-1.08a2.1,2.1,0,0,1-.06-.41c-.28-.17-.34-.49-.18-.94a1.26,1.26,0,0,1,.7-.49Z"/><path class="cls-1" d="M28.51,26.25a.85.85,0,0,1,0-.23l-.24-1a.94.94,0,0,0,0-.27.66.66,0,0,1,0-.31,1.07,1.07,0,0,1,.17-.83.56.56,0,0,1,.27-.39,2.89,2.89,0,0,1,1.62-.11h.08a.43.43,0,0,0,.15,0c.21,0,.43.12.66.44.05.23.27,1,.64,2.22a21.87,21.87,0,0,1,.75,3.11l.07.31c.31,1.6.58,2.93.83,4a.69.69,0,0,0,.1.41,13.83,13.83,0,0,0,.35,1.82l.17-.4.09-.35a.33.33,0,0,1,.07-.26,1,1,0,0,0,.1-.25.64.64,0,0,1,.06-.18,1.34,1.34,0,0,0,.07-.18,1.23,1.23,0,0,1,.27-.34c0-.07.07-.23.25-.49l1-2.14.69-.75c0-.14.24-.3.56-.47a3.06,3.06,0,0,1,.93-.33c.26-.26.75-.26,1.44,0,.38.22.47.58.28,1.08-.34.89-.55,1.41-.62,1.56l-.91,2.18-.24.68c-.51,1.1-.84,1.76-1,2a.56.56,0,0,0-.13.5,2.49,2.49,0,0,0,.81.37l.29.22a.45.45,0,0,1,.15.11l1.84,1.15a22.39,22.39,0,0,1,2.19,1.66l1.8,1.26c.4.13.63.31.68.53s-.1.48-.46.73c-.09.16-.47.28-1.13.36a1.65,1.65,0,0,1-1,.2,3.22,3.22,0,0,1-1.82-.21c-.42-.19-.64-.34-.67-.47a3.2,3.2,0,0,0-.4-.3l-.42-.39a2.25,2.25,0,0,1-.81-.67c-.21-.08-.33-.14-.33-.17s-.09-.09-.24-.16a2.25,2.25,0,0,0-.29-.13,2.82,2.82,0,0,0-.71-.66.78.78,0,0,1-.36-.19c-.1-.1-.14-.15-.11-.16l-.77-.61L35,39.43a26.18,26.18,0,0,0,1.57,4.67c.12.32.19.51.22.57s.05.12.07.17a.49.49,0,0,1,0,.1l-.24,0a.73.73,0,0,1,.27.3.89.89,0,0,1,.15.36l-.27.49c0,.07-.16.14-.38.22s-.34.06-.38,0a3.87,3.87,0,0,1-.74-.22,3.59,3.59,0,0,1-.82-.14.36.36,0,0,0-.13-.16,1.53,1.53,0,0,1-.55-.37c-.09,0-.22-.15-.38-.37a2.56,2.56,0,0,1-.55-1.09.89.89,0,0,0-.16-.26.67.67,0,0,1-.08-.24l-.29-.79a1.19,1.19,0,0,1-.16-.59l-.27-.46-.32-1.08,0-.45a1,1,0,0,1-.22-.8l0-.19a3.08,3.08,0,0,1-.19-.54,2.94,2.94,0,0,1-.14-.6.58.58,0,0,0,0-.22,5.1,5.1,0,0,1-.24-.77l-.08-.34-.89-3.14-.2-.88a6.34,6.34,0,0,1-.19-1,10,10,0,0,0-.24-1.32,1.77,1.77,0,0,1-.1-.64,2.69,2.69,0,0,1-.06-.57l-.08-.34a4.6,4.6,0,0,0-.08-.61Z"/><path class="cls-1" d="M47.67,38c.09-.48.17-1,.24-1.67l.28-1.9.16-.59q-4.6,8.94.09-.19l.42-1.87a.81.81,0,0,0,.06-.44l.53-1.4.5-.71a1.63,1.63,0,0,0,.33-.41s.21,0,.47-.23a11.34,11.34,0,0,1,1.15-.17l.67.07,1.6.52a1.18,1.18,0,0,1,.59.85c0,.25.08,1,.13,2.14,0,.93,0,2,0,3.25a7.14,7.14,0,0,0,.32,2.06c.16.4.24.64.26.7l.29.49c.13.21.17.33.13.36.15,0,.25.08.29.26a1.61,1.61,0,0,1,.38.85,1.32,1.32,0,0,1-.29.61,1.84,1.84,0,0,1-1.1.55q-.51.06-.81.12a1.67,1.67,0,0,1-.78-.05,2.33,2.33,0,0,1-1.34-1.1,3.79,3.79,0,0,1-.34-.61,1.31,1.31,0,0,1-.1-.31,5.6,5.6,0,0,1-.42-1.94,14.41,14.41,0,0,1-.07-1.59,12.84,12.84,0,0,1,.07-2,4.86,4.86,0,0,0-.2-.71l-.67,2.66a4.24,4.24,0,0,1-.17.82.54.54,0,0,0-.07.41A2.54,2.54,0,0,0,50,37.9a.83.83,0,0,1,0,.32,3.24,3.24,0,0,1-.13.5,2.64,2.64,0,0,0-.12.74,1.89,1.89,0,0,1-.23.77,10.52,10.52,0,0,1-.11,1.38c0,.08-.21.21-.61.37l-.6.07L47.15,42a7.57,7.57,0,0,0-.94,0,.23.23,0,0,1-.16,0c-.37,0-.65-.24-.85-.72l-.12-.5c.08-.15,0-.39-.13-.72a7.3,7.3,0,0,0-.07-.74c-.08,0-.1-.1-.09-.21-.11-.68-.2-1.15-.26-1.42l-.17-.75c-.12-.69-.23-1.44-.35-2.25s-.21-1.32-.26-1.55l-.15-.62a2.31,2.31,0,0,1-.19-.71,2.35,2.35,0,0,0-.33-.7.65.65,0,0,1-.16-.4L43,30a2.08,2.08,0,0,1,1.64-.55,5.2,5.2,0,0,1,1.61.29l.41.33c.12,0,.24.13.34.48a3.47,3.47,0,0,0,.08.47s0,.53,0,1.52c.2,3,.34,4.61.4,4.86A1.45,1.45,0,0,0,47.67,38Z"/><path class="cls-1" d="M56.77,18.47a3.48,3.48,0,0,1,.57-.22,1.75,1.75,0,0,1,1.29-.19,1.72,1.72,0,0,1,.65.46,10.17,10.17,0,0,1,.31,2.65,12.77,12.77,0,0,1-.24,1.67l-.2.54a1.44,1.44,0,0,1-.28.62c-.17.24-.3.36-.39.37a1.35,1.35,0,0,1-.52-.11,1.32,1.32,0,0,1-.46-.21,1.2,1.2,0,0,1-.11-.2l-.3-.59-.81-.63a1.77,1.77,0,0,1-.36-.71,2.14,2.14,0,0,1-.09-1.39,1.53,1.53,0,0,1,0-.33A2.85,2.85,0,0,1,56.77,18.47Zm2.3,14.22A3.28,3.28,0,0,1,59,31.9a1.7,1.7,0,0,0-.09-.68,5.63,5.63,0,0,1-.26-1.06,2.29,2.29,0,0,0-.17-.85,1.86,1.86,0,0,1-.35-1,2.1,2.1,0,0,1,.24-.79,1.48,1.48,0,0,1,1.69-.93,2.58,2.58,0,0,1,.77.48,1.9,1.9,0,0,1,.4.66,8.32,8.32,0,0,1,.5,1.31q.21.72.57,2.1c.23.92.56,2.15,1,3.68s.65,2.5.71,2.88a1.17,1.17,0,0,1-.21,1c-.19.25-.39.34-.59.27a1.59,1.59,0,0,0-.6-.11,1.19,1.19,0,0,1-1-.2,3.89,3.89,0,0,1-.66-.16,1.38,1.38,0,0,1-.82-.85,6.58,6.58,0,0,1-.56-2l-.26-1.13-.09-1.09Z"/><path class="cls-1" d="M64.57,16.77a3.36,3.36,0,0,1,.8-.31,5.34,5.34,0,0,1,1.26,0c.63,0,1,.16,1,.37a1,1,0,0,1-.06.31,1.45,1.45,0,0,0,0,.89,4.19,4.19,0,0,1,.1.81,4.62,4.62,0,0,0,0,.54,6.4,6.4,0,0,1,0,.77,2.4,2.4,0,0,1-.7,1.54c-.21.29-.36.44-.45.46s-.29,0-.33-.15a.84.84,0,0,1-.67-.37,2.14,2.14,0,0,0-.36-.28l-.82,0a2.85,2.85,0,0,1-.7-.92,4.38,4.38,0,0,1,0-1.44,4.47,4.47,0,0,1,.5-1.69C64.08,17.12,64.25,16.94,64.57,16.77Zm.93,12.76c-.06,0-.13-.18-.22-.46s-.18-.48-.23-.63-.13-.34-.2-.57l-.24-1a1.49,1.49,0,0,1,.3-1.12A3.49,3.49,0,0,1,66.14,25a2.61,2.61,0,0,1,1.22.11l.59.13a13.49,13.49,0,0,1,.86,2.46l.22.94q1.8,7.79,1.46,11.71l0,.49a9,9,0,0,1-.47,2.07l-.07.28a3.82,3.82,0,0,1-.91,1.33,1.64,1.64,0,0,1-1.19.67,3.76,3.76,0,0,1-2.15.07l-.33-.15a2.25,2.25,0,0,0-.88-.26,1.4,1.4,0,0,1-.36-.41c-.13-.21-.23-.35-.29-.43a3.69,3.69,0,0,1-.33-.58v-.85c.07-.52.27-.82.59-.89a.54.54,0,0,1,.69.33,1.08,1.08,0,0,0,.25.5,1.5,1.5,0,0,0,1.11.43c.39-.13.67-.57.85-1.31a.64.64,0,0,0,.14-.41,1.28,1.28,0,0,1,.09-.56,2.4,2.4,0,0,0,.16-1.45.21.21,0,0,0-.05-.09,3.25,3.25,0,0,1,.08-.67,1.07,1.07,0,0,0,.05-.77l-.2-2.12-.19-1-1.25-3.85a4.22,4.22,0,0,0-.28-.79Z"/><path class="cls-1" d="M82.06,14.15c.07.53.13.91.18,1.15a4.8,4.8,0,0,1,.12.65l.19.81,0,.23.15.65c0,.19.07.38.1.57l1-.47a8.9,8.9,0,0,0,.87-.37,6.76,6.76,0,0,1,1.38-.46,1.27,1.27,0,0,1,.94.06,1.09,1.09,0,0,1,.4.66.88.88,0,0,1-.06.77l-.08.22a1.18,1.18,0,0,1-.59.69l-1.06.41-1.32.67-.77.5c.14.52.31,1.08.5,1.69s.33,1.05.38,1.29L84.81,25c.7,1.76,1.48,3.55,2.36,5.36a4.73,4.73,0,0,1,.7,1.19l.4.6c.25.68-.11,1.14-1.06,1.36-.17,0-.6.09-1.28.16a1.8,1.8,0,0,1-.94-.37,1.69,1.69,0,0,0-.44-.33l-.92-1.3a2.09,2.09,0,0,1-.29-.55,3.19,3.19,0,0,1-.92-1.43,2.6,2.6,0,0,0-.14-.3l-.1-.44a2.32,2.32,0,0,1-.59-1.14c-.22-.65-.44-1.26-.65-1.82a14.72,14.72,0,0,0-.73-2.3L80,23l-.07-.28c0-.21,0-.31-.07-.31l-.37.09a2.68,2.68,0,0,1-.78.18,2.18,2.18,0,0,1-2.08-.34c-.38-.51-.48-.87-.29-1.09a5.44,5.44,0,0,1,1.57-.89,4.15,4.15,0,0,0,1.44-.75,2.06,2.06,0,0,1-.11-.9,3.32,3.32,0,0,1,0-1,1.46,1.46,0,0,0,0-.46,9,9,0,0,1,0-2.33,4.67,4.67,0,0,1,.12-1.05c.18-.46.71-.71,1.6-.76a1.23,1.23,0,0,1,.87.22C81.93,13.37,82,13.62,82.06,14.15Z"/><path class="cls-1" d="M97,26a.31.31,0,0,1,0-.23c0-.08.09-.21.15-.4a14.21,14.21,0,0,1,0-1.63c0-.77.06-1.67.11-2.69a.52.52,0,0,0,0-.36l0-1.54c-.12-.52,0-.86.19-1a.87.87,0,0,1,.84-.35,2.81,2.81,0,0,1,1.31.42.61.61,0,0,0,.27,0l.52.27a6,6,0,0,0,.23,1.28c.17.76.29,1.22.35,1.38l.12.53a3,3,0,0,0,.16.52l.08.38.11.6a7,7,0,0,1,.45,1.8l.22,1a.69.69,0,0,0,.07.3c.05.13.1.27.16.41a.84.84,0,0,0,0,.25l.06.25a1.68,1.68,0,0,1,.15.49l.28.93a5.85,5.85,0,0,1,.45,1,3.39,3.39,0,0,0,.14.59q-.08.41-.63.54a1.45,1.45,0,0,1-.92-.15,1.6,1.6,0,0,1-.45-.09.92.92,0,0,1-.3,0,1,1,0,0,0-.37-.18A4.41,4.41,0,0,1,99.11,28a.24.24,0,0,1-.1-.14,16.9,16.9,0,0,1-.69,2.4c-.15.29-.25.52-.31.67a1.65,1.65,0,0,1-.12.31c-.08.33-.51.46-1.29.4a2.32,2.32,0,0,0-.63,0l-1-.06A4,4,0,0,1,93.66,31a.43.43,0,0,1-.31-.07.62.62,0,0,1-.25-.22l-.51-.51a2.68,2.68,0,0,1-.87-.92q-.12-.36-.24-.63l0-.19-.08-.21-.12-.79-.11-1.78a.68.68,0,0,0,0-.5l0-.61a1,1,0,0,0,0-.57,1.42,1.42,0,0,0,0-.46.69.69,0,0,0,0-.36,4,4,0,0,1,0-.82,2.44,2.44,0,0,0,0-1.09,5.66,5.66,0,0,1-.11-1.6,1.51,1.51,0,0,1,1.74-.86,1.42,1.42,0,0,1,.74.14,4.66,4.66,0,0,0,.76.23,2.66,2.66,0,0,1,.4.3.54.54,0,0,0-.08.38,31.15,31.15,0,0,0,.08,5.47c0,.23,0,.54.06.91s0,.75,0,1.13c.06,1,.38,1.51,1,1.43a1,1,0,0,0,.56-.27.52.52,0,0,0,.22-.47C96.78,26.84,97,26.13,97,26Z"/><path class="cls-1" d="M102.38,16.32a3.35,3.35,0,0,0-.25-.5,1.3,1.3,0,0,1-.28-.53q-.06-.24-.09-.24a1.4,1.4,0,0,1,.31-1.2,1.77,1.77,0,0,1,1.37-.5l1.08.14,1.51,0,.25-2.23a2.09,2.09,0,0,0,.13-.75,1.28,1.28,0,0,1,0-.43,2.78,2.78,0,0,1,.1-.71V8.86a1.16,1.16,0,0,1,.75-.73.71.71,0,0,1,.65-.15,1.61,1.61,0,0,1,1.42.32,1.85,1.85,0,0,1,0,.52,5.52,5.52,0,0,0,0,.94l-.06,3.3.25-.06.77-.21a2.21,2.21,0,0,0,.35,0c.43-.21.77-.36,1-.45l.49-.19a2.71,2.71,0,0,0,.53-.13,1.47,1.47,0,0,1,1,.06.85.85,0,0,1,.63.61q.1.42-.42.87l-.19.44a4.28,4.28,0,0,0-.78.63,19.4,19.4,0,0,1-3.39,1.67l.15,1.64a.66.66,0,0,1,.12.24c.06.93.19,2.07.4,3.42.13.48.21.8.25,1l.2.84a1.23,1.23,0,0,0,.06.42,10.48,10.48,0,0,0,.61,1.78l.51,1.21a3.7,3.7,0,0,1,.14.49.73.73,0,0,1-.27.79,3.81,3.81,0,0,1-1.77,0c-.39,0-.57,0-.55-.13a2.18,2.18,0,0,1-.64-.48c0-.16-.07-.25-.1-.27s-.27-.18-.33-.45a.52.52,0,0,1-.11-.2l-.4-.73a1.35,1.35,0,0,1-.42-1,.78.78,0,0,0-.16-.29l0-.22a1.69,1.69,0,0,1-.06-.38,6.42,6.42,0,0,1-.45-2.08c-.06-.83-.11-1.42-.15-1.79a.56.56,0,0,1,0-.42,5.13,5.13,0,0,1-.08-.9L106.34,17a1.64,1.64,0,0,0-.39,0,8,8,0,0,1-1.83-.07l-.42-.13a1.56,1.56,0,0,1-.68-.09A1.28,1.28,0,0,1,102.38,16.32Z"/><path class="cls-1" d="M123.53,21.16l-.19,1.32a15.86,15.86,0,0,1-.59,1.55,1.21,1.21,0,0,1-.89.9,4,4,0,0,1-1.52.18,4.15,4.15,0,0,1-1.65-.47,4.72,4.72,0,0,1-1.35-1.35,5.81,5.81,0,0,1-.94-1.7,10.92,10.92,0,0,1-.45-1.28l-.18-.74a5.24,5.24,0,0,1-.21-1.34c0-.08,0-.31,0-.69a7.7,7.7,0,0,1,.17-2.66c.42-1.7,1-2.66,1.83-2.89l.16,0a.47.47,0,0,0,.19,0l.41-.09a7.16,7.16,0,0,1,1.38-.12,3,3,0,0,0,.84-.07l.85,0a3,3,0,0,1,1-.07,1.65,1.65,0,0,1,.71.13,4.12,4.12,0,0,1,.33.65c.18.37.3.65.38.82s.13.34.2.52a25.62,25.62,0,0,0,1.79,4.06c0,.06.08.14.13.26a5.69,5.69,0,0,0,.38.69c.21.33.37.62.5.85a8.48,8.48,0,0,0,.57.92,9.42,9.42,0,0,0,.81,1c.61.54.48,1.09-.37,1.66a2,2,0,0,1-.64.22,2.64,2.64,0,0,1-.66-.18.82.82,0,0,1-.68-.2h-.26a.58.58,0,0,0-.42-.13c-.06,0-.62-.79-1.71-2.27A2.6,2.6,0,0,0,123.53,21.16Zm-2.34-5.73a1.9,1.9,0,0,0-.55-1,1.49,1.49,0,0,0-1.13-.18,3.07,3.07,0,0,0-.34,1.18,7,7,0,0,0,0,2,14.81,14.81,0,0,0,.38,3.06,4.39,4.39,0,0,0,1,2.13c.06.08.11.1.15.07s.22-.27.36-.74A12.2,12.2,0,0,0,121.19,15.43Z"/><path class="cls-1" d="M128.49,2a3.46,3.46,0,0,1,.8-.32,5.29,5.29,0,0,1,1.26,0c.63,0,1,.16,1,.37,0,0,0,.12-.06.31a1.35,1.35,0,0,0,0,.89,4.57,4.57,0,0,1,.11.82c0,.1,0,.28,0,.54a4.74,4.74,0,0,1,0,.76,2.38,2.38,0,0,1-.7,1.54c-.22.29-.37.45-.45.47s-.3,0-.33-.16a.86.86,0,0,1-.68-.37,1.36,1.36,0,0,0-.36-.27l-.81,0a2.83,2.83,0,0,1-.71-.92,4.7,4.7,0,0,1,0-1.44A4.46,4.46,0,0,1,128,2.56C128,2.36,128.16,2.18,128.49,2Zm.92,12.76a1.43,1.43,0,0,1-.22-.46c-.09-.28-.17-.49-.23-.64s-.12-.34-.19-.56l-.24-1a1.42,1.42,0,0,1,.3-1.12,3.33,3.33,0,0,1,1.22-.74,2.53,2.53,0,0,1,1.23.11l.59.12a14.28,14.28,0,0,1,.86,2.47l.22.93q1.8,7.8,1.45,11.72l0,.48a9.69,9.69,0,0,1-.47,2.08l-.07.28a4.07,4.07,0,0,1-.91,1.32,1.6,1.6,0,0,1-1.19.67,3.67,3.67,0,0,1-2.15.07l-.33-.15a2.5,2.5,0,0,0-.88-.26,1.16,1.16,0,0,1-.36-.41q-.21-.32-.3-.42a5.1,5.1,0,0,1-.33-.58V27.8c.08-.52.28-.82.6-.89a.56.56,0,0,1,.69.34,1.22,1.22,0,0,0,.24.5,1.63,1.63,0,0,0,1.12.43c.39-.14.67-.57.85-1.31a.63.63,0,0,0,.13-.41,1.39,1.39,0,0,1,.1-.57,2.38,2.38,0,0,0,.16-1.45.25.25,0,0,0,0-.08,2.91,2.91,0,0,1,.07-.68,1,1,0,0,0,0-.76l-.19-2.13-.19-1L129.79,16a4.48,4.48,0,0,0-.28-.79Z"/><path class="cls-1" d="M138.37,16.29h0a1.77,1.77,0,0,1,.81-.19c.1.05.38.22.84.53,0,.08.21.17.5.28a.55.55,0,0,1,0,.6l.12.23c.17.07.36.33.57.76a11.26,11.26,0,0,1,.28,2.23.29.29,0,0,1,0,.34c-.17.28-.61.39-1.3.33,0,0,0,0,0,0h-.58l-.32,0a3.57,3.57,0,0,1-.67,0c-.29,0-.45-.09-.46-.16-.28-.17-.44-.33-.47-.48a1.3,1.3,0,0,1-.33-.58,9.49,9.49,0,0,0,.06-1.13l.16-.6a3.31,3.31,0,0,1,.13-1,1.09,1.09,0,0,1,0-.54A6,6,0,0,1,138.37,16.29Zm5.92-1.37h0a1.73,1.73,0,0,1,.81-.18c.1,0,.38.22.85.52,0,.08.2.17.49.28a.55.55,0,0,1,0,.6l.12.24q.25.11.57.75a11.23,11.23,0,0,1,.29,2.23.31.31,0,0,1,0,.34c-.17.28-.61.39-1.3.33,0,0,0,0,0,0h-.57l-.33,0a3.63,3.63,0,0,1-.66,0c-.3,0-.45-.09-.47-.15-.28-.18-.44-.34-.47-.49a1.53,1.53,0,0,1-.33-.58c.05-.53.07-.91.07-1.13l.15-.59a4.2,4.2,0,0,1,.13-1,1,1,0,0,1,0-.53A7.36,7.36,0,0,1,144.29,14.92Zm5.92-1.37h0a1.65,1.65,0,0,1,.81-.19,4.86,4.86,0,0,1,.84.53,1.16,1.16,0,0,0,.49.28.55.55,0,0,1,0,.59l.12.24c.17.07.35.32.56.75a10.55,10.55,0,0,1,.29,2.24.27.27,0,0,1,0,.33c-.18.28-.61.39-1.3.33,0,0,0,0-.05,0h-.57l-.32,0a3.72,3.72,0,0,1-.67-.05c-.29,0-.45-.09-.46-.15q-.42-.27-.48-.48a1.6,1.6,0,0,1-.33-.58,10.32,10.32,0,0,0,.07-1.14l.16-.59a3.36,3.36,0,0,1,.13-1,.94.94,0,0,1,0-.53A7.54,7.54,0,0,1,150.21,13.55Z"/></g></g></g></g></g></svg>