<svg xmlns="http://www.w3.org/2000/svg" width="292.404" height="110.409" viewBox="0 0 292.404 110.409"><defs><style>.a,.b{fill:#0140be;}.b{font-size:32px;font-family:CaveatBrush-Regular, Caveat Brush;}</style></defs><g transform="translate(0 -1.02)"><path class="a" d="M.123,17.186c0,1.313-.567,4.129.731,4.931,1.752,1.082,2.444-1.005,2.9-2.341.892-2.626.477-7.006,2.1-9.145A87.582,87.582,0,0,0,53.118,50.163c20.175,7.094,44.892,8.467,63.892-2.889,9.3-5.557,17.022-13.6,19.934-24.274.25-.916,1.7-5.386-.242-5.2-1.01.1-2.811,5.852-3.293,6.83a42.811,42.811,0,0,1-9.991,13.225c-14.4,12.871-35.8,15.467-54.122,12.058a91.062,91.062,0,0,1-34.26-14.251A78.939,78.939,0,0,1,20.47,23.092C16.887,19.056,10.837,12.556,9.749,7.1c4.814.72,9.086,6.146,13.784,7.572,2.489.755,5.34-.457,3.611-3.263-1.4-2.276-5.925-3.715-8.217-4.935C16.37,5.112,13.783,3.84,11.109,2.722,9.148,1.9,5.284-.67,3.2.164-.492,1.639.233,13.821.123,17.186.123,18.559.169,15.782.123,17.186Z" transform="matrix(0.966, 0.259, -0.259, 0.966, 14.403, 22.038)"/><text class="b" transform="translate(230.718 44.948) rotate(-13)"><tspan x="-60.64" y="0">Albo tutaj!</tspan></text></g></svg>