<svg xmlns="http://www.w3.org/2000/svg" viewBox="0 0 278.95 91.3"><defs><style>.cls-1{fill:#0140be;}.cls-2{isolation:isolate;}</style></defs><g id="Layer_2" data-name="Layer 2"><g id="Layer_1-2" data-name="Layer 1"><g id="arrow-right-img"><path id="Path_6114" data-name="Path 6114" class="cls-1" d="M1,29.86c-.34,1.27-1.61,3.84-.57,5,1.42,1.5,2.63-.33,3.41-1.51C5.35,31,6.09,26.66,8.21,25A87.55,87.55,0,0,0,43.63,75.44C61.28,87.52,84.8,95.25,106.09,89.2c10.43-3,20-8.73,25.55-18.29.48-.82,3-4.76,1.11-5.08-1-.17-4.23,4.92-5,5.74a42.59,42.59,0,0,1-13.08,10.19c-17.24,8.7-38.58,5.67-55.4-2.37a91,91,0,0,1-29.4-22.64A78.9,78.9,0,0,1,19.1,40.84C16.68,36,12.52,28.16,12.89,22.61c4.46,1.94,7.18,8.29,11.35,10.89,2.21,1.37,5.28.94,4.33-2.22-.76-2.56-4.76-5.12-6.66-6.9-2.11-2-4.28-3.87-6.58-5.65-1.68-1.3-4.74-4.78-7-4.52C4.41,14.68,2,26.64,1,29.86.62,31.19,1.38,28.52,1,29.86Z"/><g id="Albo_tutaj_" data-name="Albo tutaj " class="cls-2"><g class="cls-2"><path class="cls-1" d="M162.52,41.87l-.13-1.42a2.92,2.92,0,0,1-.07-.84,4.24,4.24,0,0,1,.17-1.71,7.37,7.37,0,0,1,.09-.87c0-.05,0-.71.17-2l.16-1a1.61,1.61,0,0,1,.05-.52,4.08,4.08,0,0,0,.07-.77,4.71,4.71,0,0,1,0-.75c.16-.63.31-1.17.45-1.61a2.33,2.33,0,0,1,2.17-1.69l1-.14a6.89,6.89,0,0,1,1.55.2,2.32,2.32,0,0,1,1.11.39,1.73,1.73,0,0,1,.47,1c.08.25.39,1.32.93,3.2s.83,2.85.83,2.87l.46,1.3q0,.19,1.73,4.33l1.19,2c.68,1.07,1.05,1.62,1.09,1.67a6.92,6.92,0,0,1,.42.61,1,1,0,0,1-.28,1.5,1.79,1.79,0,0,1-1.28.14,2.64,2.64,0,0,1-.78-.12.75.75,0,0,0-.43-.21,1.42,1.42,0,0,1-.44-.15c-.25,0-.53-.28-.85-.82a2.42,2.42,0,0,1-.46-.42,1,1,0,0,1-.29-.69,2,2,0,0,1-.48-1.1,3,3,0,0,1-.62-1.4,3.34,3.34,0,0,0-.67-1.49A9.12,9.12,0,0,1,166.69,43c-.23.05-.34.12-.32.2a4.57,4.57,0,0,1,0,1l.26,3.55c.56,1.49.56,2.35,0,2.57a4,4,0,0,0-.8.31,1,1,0,0,1-1,0,3.19,3.19,0,0,1-1.2-.59,1.44,1.44,0,0,1-.49-.89c-.05-.3-.14-.93-.27-1.91a1.94,1.94,0,0,0-.12-.71,3.65,3.65,0,0,1-.15-1l0-2a2.42,2.42,0,0,0,0-1,1,1,0,0,1-.11-.31Zm4-1.88a2.5,2.5,0,0,1,.7-.31,4.84,4.84,0,0,0,1.45-.91,3.73,3.73,0,0,0-.21-.74c-.26-.86-.46-1.47-.59-1.83s-.28-.84-.36-1a14.44,14.44,0,0,0-1-2.36l-.3,5a8.68,8.68,0,0,0,.2,2.45Z"/><path class="cls-1" d="M175.68,29.17l-.21-1.89-.19-1a1.12,1.12,0,0,1,0-.66l.21-.51a6.21,6.21,0,0,1,.92-1,1.39,1.39,0,0,1,.74-.15,1.51,1.51,0,0,1,.62.07l.41.2a.55.55,0,0,1,.4.43c.13.1.18.19.15.26a20.24,20.24,0,0,0,.23,3.83l.73,4.29,0,.88a1.62,1.62,0,0,0,.14.46L180,35a4,4,0,0,1,.05.81,1,1,0,0,1,0,.36s.11.19.17.47.08.46,0,.53a6.81,6.81,0,0,0,.15,1,5.79,5.79,0,0,0,.3.92A4.53,4.53,0,0,1,181,40l.4,1.15.11.47a7.33,7.33,0,0,1,.27.89l.53,1.58.32.82a2.11,2.11,0,0,1,.16,1,1,1,0,0,1-.37.74,2.1,2.1,0,0,1-2.24,0l-.25,0a1.7,1.7,0,0,1-.5-.6.41.41,0,0,1-.32-.39.86.86,0,0,0-.26-.53.9.9,0,0,1-.25-.4,4.1,4.1,0,0,0-.23-.7l0-.26a.42.42,0,0,1-.16-.26L178,43l-.06-.25a3,3,0,0,0-.09-.34.73.73,0,0,1,0-.33c-.09-.06-.17-.36-.24-.89-.25-1.63-.44-2.75-.58-3.35l-.14-.76-.21-.9c-.1-.5-.23-1.14-.39-1.91A3.82,3.82,0,0,1,176.1,33l-.1-.27a13.93,13.93,0,0,1-.24-2.09C175.72,29.72,175.69,29.24,175.68,29.17Z"/><path class="cls-1" d="M183.45,22a.75.75,0,0,1,.77.47,11,11,0,0,1,.43,1.71l.35,1.53c0,.17.28,1.12.78,2.86s.93,3.17,1.3,4.31h.1a8.92,8.92,0,0,1,.23-1.07,2.64,2.64,0,0,0,.13-.46.85.85,0,0,1,.33-.5,1.27,1.27,0,0,1,.23-.46,3.76,3.76,0,0,1,.37-.53l.19-.19a1.21,1.21,0,0,1,.22-.17c.11-.07.17-.11.18-.14a4,4,0,0,1,.51-.25l.37-.22.19,0a.49.49,0,0,1,.42.1.65.65,0,0,0,.43-.13,2.19,2.19,0,0,1,1.08,0,1.93,1.93,0,0,1,.81.42,1.88,1.88,0,0,0,.71.45.74.74,0,0,0,.27.25,1.31,1.31,0,0,1,.4.51,17.8,17.8,0,0,1,1.16,3.64s0,.11,0,.23a4,4,0,0,1,.12.55l.12.58.07.87.17.71a1.87,1.87,0,0,0,0,.65l-.07,1.72-.14,1.35a3.38,3.38,0,0,1-.17.7,1.36,1.36,0,0,0-.6.69,10.81,10.81,0,0,0-1,.92,2.24,2.24,0,0,1-1.44,1c-.08,0-.36.12-.84.32a3,3,0,0,1-1.92.22.52.52,0,0,1-.6-.33,2.25,2.25,0,0,0-.75-.12.35.35,0,0,1-.38,0,.76.76,0,0,1-.32-.32.52.52,0,0,1-.44-.32,2.19,2.19,0,0,0-.47-.88,1.46,1.46,0,0,1-.35-.77,2.68,2.68,0,0,0-.27-.88,1.82,1.82,0,0,1-.23-.78,5.85,5.85,0,0,1-.47-1l0-.1a3,3,0,0,1,0-.38l-.11-.5a4.35,4.35,0,0,0-.16-.82,1.41,1.41,0,0,1-.23-.57.24.24,0,0,1-.1-.14l-.12-.37c-.23-.14-.27-.43-.13-.86a2,2,0,0,0-.24-1.06l-.9-2.05s0-.08,0-.2l0-.35a12,12,0,0,1-.94-2.61,1.29,1.29,0,0,1-.1-.34l-.13-.52a6.18,6.18,0,0,1-.28-1.29,8.44,8.44,0,0,0-.33-1.5,3.69,3.69,0,0,1-.15-1.64,1.17,1.17,0,0,1,.11-.69,2,2,0,0,1,.52-.57A2.25,2.25,0,0,1,183.45,22Zm8.2,10.88c-.18-.77-.38-1.13-.61-1.08a1.6,1.6,0,0,0-.41.1l-.34.34,0,0a5.45,5.45,0,0,0-.37.81h0a6.53,6.53,0,0,1-.28.91,1.42,1.42,0,0,0-.18.64,1.94,1.94,0,0,1,0,.49,4.64,4.64,0,0,1-.08.51,6.16,6.16,0,0,0-.06,1,8.68,8.68,0,0,0,0,1.13l0,.4.11,1.75a2.39,2.39,0,0,0,.25,1,6.7,6.7,0,0,0,.47,1c.32.34.6.5.83.47a1,1,0,0,1,.3-.3s.1,0,.23,0a.4.4,0,0,0,.26-.16h0a11.72,11.72,0,0,0,.74-1.49,3.11,3.11,0,0,0,0-1.55l-.07-.74A3.73,3.73,0,0,0,192.4,37L192,34.76a3.63,3.63,0,0,0-.22-1.27l0-.15Z"/><path class="cls-1" d="M198.41,34.89l-.24-1.61a7.72,7.72,0,0,1,.46-4,3.88,3.88,0,0,1,2.69-2l.19,0a3.75,3.75,0,0,1,2.8.18A4.93,4.93,0,0,1,206,28.62a10.4,10.4,0,0,1,.81,1.06,4.25,4.25,0,0,1,.41,1.06c.25.88.19,1.43-.17,1.65a7.64,7.64,0,0,1,.55,4.83A10.14,10.14,0,0,1,207,39a2.11,2.11,0,0,1-1.42,1,13.5,13.5,0,0,1-2,.32,4.68,4.68,0,0,1-2-.37,3.71,3.71,0,0,1-1.91-1.87A14.08,14.08,0,0,1,198.41,34.89Zm5-4.24c-.34-.8-.83-1.09-1.48-.88a1.28,1.28,0,0,0-.8,1,5.82,5.82,0,0,0,.17,2.94,16.55,16.55,0,0,0,.83,2.43,3.31,3.31,0,0,0,.91,1.19.77.77,0,0,0,.84.23c.59-.13.9-.72.94-1.76l.08-.81a.23.23,0,0,0,0-.32,5.52,5.52,0,0,0-.08-1.92,1,1,0,0,1-.47-.32,3.08,3.08,0,0,1-.35-.67.78.78,0,0,1-.39-.54A4.47,4.47,0,0,0,203.44,30.65Z"/><path class="cls-1" d="M214.59,24.89a3.78,3.78,0,0,0-.25-.51,1.27,1.27,0,0,1-.28-.52q-.06-.25-.09-.24a1.43,1.43,0,0,1,.31-1.21,1.79,1.79,0,0,1,1.36-.49l1.09.14h1.51l.24-2.22a2,2,0,0,0,.14-.76,1.29,1.29,0,0,1,0-.43,2.85,2.85,0,0,1,.1-.71v-.53a1.2,1.2,0,0,1,.75-.73.74.74,0,0,1,.65-.15,1.59,1.59,0,0,1,1.42.33,1.82,1.82,0,0,1,0,.52,5.57,5.57,0,0,0,.05.94l-.06,3.3.25-.06.77-.21a1.48,1.48,0,0,0,.35-.05,9.13,9.13,0,0,1,1-.44,4.88,4.88,0,0,0,.49-.2,1.77,1.77,0,0,0,.52-.12,1.5,1.5,0,0,1,1,.06.84.84,0,0,1,.63.6c.07.29-.07.57-.42.87l-.19.44a4.68,4.68,0,0,0-.78.64,21.15,21.15,0,0,1-3.39,1.67l.15,1.64a.59.59,0,0,1,.12.24c.06.92.19,2.06.4,3.42.13.47.21.79.25,1l.2.84a1.18,1.18,0,0,0,.06.41,10.19,10.19,0,0,0,.61,1.78l.51,1.22a3.7,3.7,0,0,1,.14.49.71.71,0,0,1-.27.78,3.83,3.83,0,0,1-1.77,0c-.39,0-.57,0-.56-.13a2.31,2.31,0,0,1-.63-.48c0-.17-.07-.26-.1-.28s-.27-.17-.33-.44a.6.6,0,0,1-.11-.21l-.4-.73a1.27,1.27,0,0,1-.42-1,.78.78,0,0,0-.16-.29l-.05-.22a1.78,1.78,0,0,1-.06-.38,6.48,6.48,0,0,1-.45-2.08c-.06-.83-.11-1.43-.15-1.79a.56.56,0,0,1,0-.42,4.63,4.63,0,0,1-.07-.9l-.13-1.84a1,1,0,0,0-.39,0,8.78,8.78,0,0,1-1.83-.07l-.42-.13a1.56,1.56,0,0,1-.68-.09A1.46,1.46,0,0,1,214.59,24.89Z"/><path class="cls-1" d="M230.46,20.63a1.59,1.59,0,0,1,.77,1,3.53,3.53,0,0,1,.2,1c0,.2,0,.86.18,2a1.68,1.68,0,0,0,0,.61L232,28.1c.26,1.1.41,1.74.48,1.92a1.2,1.2,0,0,0,.22.41q.06.12.33.12a.26.26,0,0,0,.31-.2.56.56,0,0,1,.09-.48,8.25,8.25,0,0,1,.2-1,.85.85,0,0,1,0-.37,2.61,2.61,0,0,0,.07-.42,1.21,1.21,0,0,1,0-.25,1.89,1.89,0,0,0,.16-.76,1,1,0,0,1,.21-.81,3.78,3.78,0,0,1,.13-.82v-.29a4.37,4.37,0,0,0,.15-1.78l-.2-1.56,0-1.32a2,2,0,0,1,1-1.5,1.38,1.38,0,0,1,1.05-.11,1.93,1.93,0,0,1,.93.36.92.92,0,0,1,.29.47l.13.56.05.35.39,1.69c.29,1.24.53,2.19.72,2.82a13.88,13.88,0,0,0,2.2,4.55,1.13,1.13,0,0,1,0,1.61,2,2,0,0,1-1,.57,1.56,1.56,0,0,1-1.66-.47,4.26,4.26,0,0,1-.6-.75c-.2-.33-.34-.54-.41-.63a3.18,3.18,0,0,0-.4-.63l-.39-.54a20.71,20.71,0,0,1-.85,4.14,1.87,1.87,0,0,1-.72.89q-.59,0-1.29-.06c-.29,0-.77-.09-1.44-.13-.43.06-.68,0-.77,0a1.37,1.37,0,0,0-.18-.15.1.1,0,0,1-.06-.07.36.36,0,0,0-.35-.08,1.18,1.18,0,0,0-.48-.38,3,3,0,0,0-.17-.29c-.26-.09-.55-.49-.86-1.18a6.5,6.5,0,0,1-.7-2,22.66,22.66,0,0,1-.57-2.32c0-.31-.08-.58-.13-.79a1,1,0,0,1-.1-.56,1.86,1.86,0,0,0-.07-.61l-.18-1.34V22.76a1.91,1.91,0,0,1,.09-1,2.68,2.68,0,0,1,.3-.69c0-.19.3-.39.78-.61a2.63,2.63,0,0,0,.41-.05,4.23,4.23,0,0,1,.48,0A2.86,2.86,0,0,1,230.46,20.63Z"/><path class="cls-1" d="M243.4,19.52l0-.29c-.45.06-.77.09-1,.1l-.88.09a4.22,4.22,0,0,1-1,0,1.22,1.22,0,0,1-1-1c-.2-.59-.1-1,.33-1.27a4.4,4.4,0,0,1,.84-.36c.16,0,.47-.13.92-.28a2.19,2.19,0,0,1,.88-.43l.44-.23s.08,0,.24-.12V15.1a2.07,2.07,0,0,1,.05-1.07,5.62,5.62,0,0,1,.13-1.31,17.49,17.49,0,0,1,.14-1.94,6.55,6.55,0,0,1,.77-.93c.29-.24.79-.23,1.48,0a1.33,1.33,0,0,1,.82.44,1.38,1.38,0,0,0,0,.91c0,.15,0,1,.09,2.41l.21.87c.17,0,.45,0,.86,0l1.45,0a2.53,2.53,0,0,1,2.25.79c.21.44.27.76.16,1a1.72,1.72,0,0,1-1,.65c-.46.13-1,.28-1.79.45a6.67,6.67,0,0,0-1.6.53c.05.39.09.68.14.89l.08.47c0,.15.11.94.25,2.38a12,12,0,0,0,.36,3l.52,2.27a6,6,0,0,0,.34,1,2.86,2.86,0,0,0,.38.93,9.21,9.21,0,0,0,.43,1.15,1.31,1.31,0,0,1-1,1.19,2.21,2.21,0,0,1-1.66-.27l-.46-.42a2.69,2.69,0,0,0-.22-.31l-.13-.2a2.92,2.92,0,0,0-.52-.7.78.78,0,0,1-.27-.34,3,3,0,0,1-.07-.31c-.13-.34-.25-.63-.37-.87-.13-.08-.26-.42-.4-1a12.53,12.53,0,0,0-.44-1.9,3.16,3.16,0,0,0-.24-1.19l-.07-.71c0-.08,0-.41-.09-1a1.8,1.8,0,0,1-.18-.66,4.43,4.43,0,0,1-.09-.78A5,5,0,0,0,243.4,19.52Z"/><path class="cls-1" d="M253.87,27a9.54,9.54,0,0,1-.45-2.07c.08-1.85.15-3.27.2-4.25,0,0,0-.3,0-.83a4.8,4.8,0,0,1,.3-1.58,1.58,1.58,0,0,1,.13-.55c0-.19.11-.56.46-1.13l.26-.45a2.39,2.39,0,0,1,1.47-.87,2.75,2.75,0,0,1,.88-.17,13.06,13.06,0,0,1,2.34.74l.36.12a2.73,2.73,0,0,1,.5.05,2.42,2.42,0,0,1,.56,0l.48.22a.78.78,0,0,1,.46.45A2.34,2.34,0,0,0,262,18a12.5,12.5,0,0,0,.91,3.1,21,21,0,0,0,1.41,3.42,4.93,4.93,0,0,0,.43.79,2.74,2.74,0,0,1,.41.83q.18.78-1.29,1.11a2.25,2.25,0,0,1-2.28-.78,2.8,2.8,0,0,0-.34-.45,1.32,1.32,0,0,1-.55-.53L260.5,25a.41.41,0,0,1-.21-.22,8.81,8.81,0,0,1-.69,1.31l-.41,1.18-.19.31c0,.08-.2.23-.59.44a1.51,1.51,0,0,1-.89.26,2.52,2.52,0,0,1-.46,0l-1.5-.25a1.18,1.18,0,0,1-.78-.27,2,2,0,0,1-.47-.19C254,27.33,253.87,27.13,253.87,27ZM258.7,18l-.22-.24c-.25.06-.59.67-1.05,1.85a11.69,11.69,0,0,0-1,3.67,6.89,6.89,0,0,0,0,1.68c.14.61.35,1,.64,1.1.11,0,.21-.12.31-.3a1.12,1.12,0,0,0,.16-.36,2.13,2.13,0,0,0,.4-.85l.29-.73.15-.65.32-1s0-.24,0-.76a2.67,2.67,0,0,0,.17-1.09Z"/><path class="cls-1" d="M265.48,9.33a2.7,2.7,0,0,1-.73.1.52.52,0,0,1-.51-.08,3.94,3.94,0,0,0-.89-.42l-.15-.23a1.24,1.24,0,0,1-.35-.54,4.51,4.51,0,0,1,.37-2.09,2.25,2.25,0,0,1,1.24-1.86l.07,0a2.43,2.43,0,0,1,1.34.15,1.08,1.08,0,0,1,.78.51l.11,1.78A4.39,4.39,0,0,1,266,9.21Zm.35,2.78a3.3,3.3,0,0,1,1.52-.36,1.83,1.83,0,0,1,.82.11,3.21,3.21,0,0,1,.42.82,14.71,14.71,0,0,1,.67,1.9c.28.95.5,1.68.67,2.19,1.06,3.39,1.65,5.34,1.77,5.83l.19,1.24a8.24,8.24,0,0,1,.33,2.85,1.72,1.72,0,0,1,0,.61,5.16,5.16,0,0,1-.05.66.46.46,0,0,0,0,.18c0,.23-.06.43-.08.59s0,.32,0,.46-.12.46-.2.7a2.12,2.12,0,0,1-.3.69c0,.34-.37.8-1,1.39A4.7,4.7,0,0,1,267,33.15c-.1,0-.16.06-.19,0a3.09,3.09,0,0,0-1-.13,1.7,1.7,0,0,0-.89-.42l-.36-.11a1.39,1.39,0,0,0-.36-.57q-.46-.75-.48-.81l0-.52c-.06-.14,0-.33.15-.56a1,1,0,0,1,.59-.44,1.69,1.69,0,0,1,1.09.38,2.11,2.11,0,0,0,.79.57c.46-.06.75-.11.85-.13l1-.12a2.36,2.36,0,0,0,.85-1.45c0-.15,0-.26,0-.33a6.7,6.7,0,0,0-.07-1.14,7.77,7.77,0,0,1-.16-1.86,4.84,4.84,0,0,0-.15-1.51v-.33a9,9,0,0,1-.18-.91,5.57,5.57,0,0,0-.65-1.82,1.44,1.44,0,0,0-.1-.43,3.17,3.17,0,0,1-.32-.69l-.28-.89-.79-1.75-.6-1.73a11.22,11.22,0,0,1-.42-2A1.42,1.42,0,0,1,265.83,12.11Z"/><path class="cls-1" d="M274.62.55l.26,2.4q.24,1.62.78,6.1t.91,6a7.23,7.23,0,0,0,.65,2,1,1,0,0,1-.73.8,1.41,1.41,0,0,1-.48,0h-.27l-.12,0h-.13a5,5,0,0,1-1.28-1.8,9.54,9.54,0,0,1-.95-1.51,1.24,1.24,0,0,0-.25-.45c-.27-.86-.4-1.32-.42-1.38l-.3-1.31A10.81,10.81,0,0,0,272,9.85l-.11-.47a10.67,10.67,0,0,1-.17-1.88,10.7,10.7,0,0,0-.21-2,4.74,4.74,0,0,1,.05-2c.16-.78.26-1.33.31-1.65s.08-.54.09-.67a1.51,1.51,0,0,1,.08-.38.48.48,0,0,1,.35-.35A2,2,0,0,1,273,.1C274-.12,274.5,0,274.62.55Zm-.56,21.84a1.53,1.53,0,0,1,.32-.78,1.17,1.17,0,0,1,.71-.54,2,2,0,0,0,.69-.29,1.66,1.66,0,0,1,.54-.26,4,4,0,0,1,.88-.05H278l.36,0a.59.59,0,0,1,.33.15A.79.79,0,0,1,279,21a3.87,3.87,0,0,1-.88,3l-.9.38a1.51,1.51,0,0,1-1-.23q-1,.13-1.11-.24a2.08,2.08,0,0,0-.45-.39,1.27,1.27,0,0,1-.5-.57A3.3,3.3,0,0,1,274.06,22.39Z"/></g></g></g></g></g></svg>