<svg xmlns="http://www.w3.org/2000/svg" width="22.324" height="15" viewBox="0 0 22.324 15"><defs><style>.a{fill:#293644;fill-rule:evenodd;}</style></defs><path class="a" d="M1887.043,424.489A12.345,12.345,0,0,0,1892,425.5a12.634,12.634,0,0,0,9.934-4.86,1.011,1.011,0,0,0,0-1.279,13.288,13.288,0,0,0-3.977-3.36Zm9.914-8.978A12.345,12.345,0,0,0,1892,414.5a12.631,12.631,0,0,0-9.934,4.861,1.011,1.011,0,0,0,0,1.279,13.318,13.318,0,0,0,3.977,3.36Zm4.438-2.818a.5.5,0,0,1-.088.7l-2.5,1.941a14.348,14.348,0,0,1,3.906,3.4,2.01,2.01,0,0,1,0,2.522A13.631,13.631,0,0,1,1892,426.5a13.273,13.273,0,0,1-5.847-1.319l-2.846,2.214a.5.5,0,1,1-.614-.79l2.5-1.941a14.348,14.348,0,0,1-3.906-3.4,2.01,2.01,0,0,1,0-2.522A13.631,13.631,0,0,1,1892,413.5a13.273,13.273,0,0,1,5.847,1.319l2.846-2.214A.5.5,0,0,1,1901.4,412.693Z" transform="translate(-1880.838 -412.5)"/></svg>