<svg xmlns="http://www.w3.org/2000/svg" width="180" height="56.525" viewBox="0 0 180 56.525"><defs><style>.a{fill:#fff;}</style></defs><path class="a" d="M342.238,46.822a22.39,22.39,0,0,0-7.3,5.675c-3.936,4.349-6.2,9.207-4.513,10.5.645.493,2.143.576,4.866-1.874a21.563,21.563,0,0,0,5.748-7.991c1.759-4.291,1.2-6.255,1.2-6.306M363.722,54.6c-4.364-2.236-7.547-4.969-10.866-6.673-3.168-1.629-5.213-2.3-7.766-1.96a7.4,7.4,0,0,0-1.06.264s1.323,4.5-3.914,12.072c-5.308,7.67-10.125,7.633-11.49,5.512-1.435-2.226.41-6.763,3.5-10.8,3.237-4.219,8.924-7.726,8.924-7.726s-1.816-1.109-6.271,1.419c-4.34,2.464-11.833,8.323-18.755,18.209s-8.308,15.328-9.309,19.61-.084,8.863,4.66,8.863,10.26-7.242,11.812-9.764c2.892-4.689,4.778-11.882.839-10.893-1.94.49-3.511,2.645-4.5,4.715a19.913,19.913,0,0,0-1.428,4.16,16.369,16.369,0,0,0-3.839,2.237,28.52,28.52,0,0,0-3.639,3.229s.011-3.419,2.734-8.959,7.727-8.076,10.556-8.31c2.553-.212,5.874,1.959,3.064,9.971s-11.108,17.726-19.835,17.854c-8.045.119-13.324-10.169-2.127-28.124,12.387-19.857,26.942-25.952,31.666-26.632s6.257,1.4,6.257,1.4a20.262,20.262,0,0,1,8.98-1.49c5.769.392,10.234,4.474,16.118,7.344-1.539,1.493-3,3.022-4.315,4.463m25.907-6.695c-3.99,2.571-9.526,4.9-14.839,4.389-1.345,1.4-2.785,3.007-4.23,4.766,9.22,1.82,17.286-3.9,21.581-8.771a28.9,28.9,0,0,0,4-5.752,35.916,35.916,0,0,1-6.513,5.368m-12.256,26.01a1.938,1.938,0,0,0,.171-.382.933.933,0,0,0-.846-.812c-.876-.039-2.079.128-5.215,3.609a47.161,47.161,0,0,0-6.666,9.487c-1.8,3.291-2.521,5.743-1.489,6.372a1.541,1.541,0,0,0,1.088.11c.7-.172,1.491-.823,2.7-2.221.565-.653,1.192-1.584,1.943-2.613,2.068-2.835,7.279-11.755,8.315-13.55m-32.621,3.8c.526-1.37,1.19-4.067-.2-5.119-1.489-1.13-5.288,1.511-5.3,4.211-.02,2.769,2.674,4.018,3.325,4.193.37.1.5.086.676-.213a23.167,23.167,0,0,0,1.506-3.072m-2.866,5.033a11.74,11.74,0,0,1-2.614-1.667,8.615,8.615,0,0,1-1.969-2.38c-.049-.093-.106-.022-.162.054s-.289.283-2.318,3.266-5.13,9.132-2.309,10.179c1.8.666,4.8-2.494,6.44-4.59a38.948,38.948,0,0,0,3.023-4.6c.078-.179.007-.221-.092-.257m31.939,7.1c-.768,1.229-1.629,3.572.9,2.107,3.075-1.78,7.454-8.438,7.454-8.438h1.979a66.285,66.285,0,0,1-6.015,7.913c-3.118,3.461-6.919,6.6-9.6,6.295-3.129-.364-2.149-4.477-2.149-4.477s-4.491,4.773-7.577,4.432c-4.179-.461-2.908-5.639-2.908-5.639s-4.724,5.825-7.947,5.639c-5.052-.288-3.786-6.465-2.382-10.781.751-2.314,1.448-4.139,1.448-4.139s-.5.133-1.576.292c-.561.081-1.588.136-1.588.136a68.272,68.272,0,0,1-3.782,5.956c-1.681,2.238-8.831,9.934-13.044,8.394-3.89-1.422-2.609-7.389-.343-12.13,3.306-6.91,12.6-16.847,17.963-15.546,5.557,1.346.13,11.511.13,11.511a.09.09,0,0,0,.06.057,2.3,2.3,0,0,0,1.071-.056,11.482,11.482,0,0,0,2.036-.607s5.585-11.722,11.757-19.393S378.191,40.5,383.032,43.69c1.185.779.645,3.488-.943,6.772-.7.221-1.435.419-2.184.577a17.71,17.71,0,0,0,1.979-4.707c.723-3.964-8.512,4.389-15.109,13.379a124.744,124.744,0,0,0-10.556,17.132,28.556,28.556,0,0,0,3.4-2.429,98.581,98.581,0,0,0,8.384-7.842,91.6,91.6,0,0,0,7.135-8.248,18.84,18.84,0,0,0,2.1-.217,90.437,90.437,0,0,1-7.871,9.318c-2.625,2.667-5.477,5.536-7.958,7.628a66.21,66.21,0,0,1-6.982,5.2s-5.784,11.65-2.639,12.4c1.845.441,5.49-5.184,5.49-5.184A130.041,130.041,0,0,1,364.9,76.926c3.913-4.457,7.279-7.028,10.642-7.087,1.962-.033,3.12,2.061,3.12,2.061l.924-1.427h5.682s-10.6,18.018-11.444,19.375m15.8-41.94c-3.99,2.571-9.526,4.9-14.839,4.389-1.345,1.4-2.785,3.007-4.23,4.766,9.22,1.82,17.286-3.9,21.581-8.771a28.9,28.9,0,0,0,4-5.752,35.916,35.916,0,0,1-6.513,5.368m-9.481,46.745h.7a1.579,1.579,0,0,1,.55.073.5.5,0,0,1,.316.51.428.428,0,0,1-.2.395.738.738,0,0,1-.29.112.456.456,0,0,1,.346.191.592.592,0,0,1,.11.317V96.4c0,.047.007.094.007.147s0,.092.019.105l.007.028h-.331v-.019c-.013-.009-.013-.009-.013-.022l-.006-.07v-.159c0-.234-.059-.393-.191-.461a.8.8,0,0,0-.393-.069H380.5v.8h-.35Zm1.218.618a.32.32,0,0,0-.134-.3.962.962,0,0,0-.43-.077h-.3v.739h.324a1.3,1.3,0,0,0,.339-.039.343.343,0,0,0,.206-.321m1.365.4a1.838,1.838,0,1,1-1.845-1.844,1.8,1.8,0,0,1,1.305.54,1.764,1.764,0,0,1,.539,1.3m-1.845-1.591a1.583,1.583,0,0,0-1.582,1.591,1.586,1.586,0,0,0,.461,1.138,1.6,1.6,0,0,0,2.245,0,1.566,1.566,0,0,0,.461-1.138,1.525,1.525,0,0,0-.461-1.125,1.548,1.548,0,0,0-1.125-.466M309.9,56.794h-5.4l-3.051,4.946h5.4ZM284.334,73.9c2.3-3.154,8.633-14.206,8.633-14.206a.932.932,0,0,0-.846-.809c-.879-.038-2.331.253-5.245,3.9a68.424,68.424,0,0,0-6.8,9.56c-1.8,3.291-2.585,5.615-1.552,6.242a1.518,1.518,0,0,0,1.085.113,6.537,6.537,0,0,0,2.769-2.242c.563-.654,1.2-1.526,1.958-2.557M255.346,58.977c-1.491-1.128-5.289,1.514-5.307,4.212-.022,2.769,3.429,3.557,3.874,3.576a.471.471,0,0,0,.543-.222,23.662,23.662,0,0,0,1.09-2.444c.527-1.373,1.19-4.068-.2-5.122M253.1,68.5a12.511,12.511,0,0,1-2.93-1.34,6.259,6.259,0,0,1-2.092-2.317c-.049-.094-.106-.023-.165.056s-.354.463-2.382,3.446-5.037,9.09-2.216,10.134c1.8.669,4.83-2.5,6.468-4.6a52.3,52.3,0,0,0,3.41-5.12c.077-.178.006-.219-.093-.256m44.13,1.819h1.98s-9.911,14.348-15.515,13.7c-3.127-.361-2.2-4.229-2.2-4.229s-4.4,5.153-8.419,4.122c-3.659-.938-1.3-7.031-1.3-7.031-.416.171-8.331,9.113-13.891,6.967-5.82-2.245-2.8-9.729-1.695-11.978.934-1.9,1.97-3.745,1.97-3.745s-.891.254-1.446.383-1.4.291-1.4.291-2.754,4.481-4.436,6.72-8.831,9.926-13.046,8.393-3.174-7.432-.807-12.124c3.838-7.605,12.946-16.953,18.429-15.552,5.543,1.414.956,10.419.956,10.419s1.106.139,3.749-1.662c3.809-2.6,8.82-9.6,14.258-8.78,2.553.385,4.931,3.009,1.68,7.991-1.039,1.6-2.787,3.029-4.128,1.62-.828-.875-.107-2.48.765-3.58A3.444,3.444,0,0,1,275.67,60.9s.893-2.068-1.383-2.023c-1.852.034-6.53,4.354-9.172,8.713-2.426,4.007-6.093,10.83-2.406,12.314,3.385,1.367,9.812-6.284,12.792-10.289s9.754-13.093,15.451-13.466a3.8,3.8,0,0,1,3.128,1.661l.659-1.043h5.682S289.705,74.7,288.863,76.056c-.658,1.064-1.531,3.45.9,2.109s7.469-7.842,7.469-7.842m-3.09,28.721a23.6,23.6,0,0,0-14.315-4.178,8.778,8.778,0,0,0-6.979,3.8c-2.176-3.8-6.475-6.125-13.114-6.069-10.721.129-21.367,5.086-29.794,5.086-8.088,0-13.982-5.083-13.789-14.119.34-15.838,13.7-30.112,23.7-36.542,5.741-3.692,10.551-4.788,13.7-4.438,2.294.254,5.058,2.908,3.317,6.82-2.554,5.73-6.089,5.25-5.963,2.514a4.534,4.534,0,0,1,2.145-3.511,4.317,4.317,0,0,1,2.083-.514c.5-.429.887-3.563-3.224-2.529s-9.067,5.082-13.791,10.3-12.07,15.107-13.884,25.475c-.842,4.815-.277,13.579,11.1,13.478,9.649-.086,23.894-6.449,36.973-6.336a24.97,24.97,0,0,1,12.947,3.545c3.392,2.1,7.454,5.143,8.891,7.223" transform="translate(-216.142 -42.519)"/></svg>