<svg xmlns="http://www.w3.org/2000/svg" width="160" height="33.6" viewBox="0 0 160 33.6"><defs><style>.a{fill:#fff;}</style></defs><g transform="translate(-518.063 -719.05)"><g transform="translate(518.063 719.05)"><path class="a" d="M-14.547-22.349a7.841,7.841,0,0,1-4.088,1.167,5.546,5.546,0,0,1-3.993-1.354c-1.265-1.2-1.914-3.278-1.914-6.14,0-2.79.8-7.5,6.012-7.861.708-.052,2.606-.2,3.983-.236Zm0-25.917V-42.5h-3.685c-10.909,0-13.184,8.149-13.184,14.02,0,4.3,1.311,8.028,3.665,10.506a10.627,10.627,0,0,0,7.871,3.245,11.253,11.253,0,0,0,5.333-1.17l.039.59h7.2V-48.266h-7.238" transform="translate(31.416 48.266)"/></g><g transform="translate(546.757 724.095)"><path class="a" d="M-6.663-9.012A5.341,5.341,0,0,1-1.238-13.29,4.606,4.606,0,0,1,3.506-9.012Zm17.239.121a11.8,11.8,0,0,0-3.249-7.5c-2.062-2.036-4.953-3.075-8.566-3.075A12.211,12.211,0,0,0-11.167-15a16.264,16.264,0,0,0-3.222,10.2c0,6.664,3.77,13.817,14.335,13.817a24.648,24.648,0,0,0,10.27-2.386V-.05A20.647,20.647,0,0,1-.189,2.642C-4.06,2.576-6.145.494-6.8-3.174H10.645l.01-.269c.039-2.459-.01-4.534-.079-5.448" transform="translate(14.389 19.463)"/></g><g transform="translate(577.532 724.161)"><path class="a" d="M-11.35,0a18.747,18.747,0,0,0-5.92,1.249l-.033-.6h-7.208V27.844h7.241V7.477a8.433,8.433,0,0,1,5.946-.928c1.941.456,2.895,1.685,2.895,5.206V27.844h7.222V10.687C-1.207,3.5-4.518,0-11.35,0" transform="translate(24.511)"/></g><g transform="translate(654.766 724.806)"><path class="a" d="M-13.852,0V20.367a8.4,8.4,0,0,1-5.94.941c-1.937-.456-2.888-1.678-2.888-5.219V0h-7.235V17.164c0,7.186,3.321,10.68,10.142,10.68a18.369,18.369,0,0,0,5.92-1.249l.043.6h7.192V0h-7.235" transform="translate(29.914)"/></g><g transform="translate(606.95 719.05)"><path class="a" d="M-6.236,0h-7.231V23.6c0,3.245.564,5.52,1.767,7.127,1.416,1.9,3.73,2.816,7.064,2.816A23.8,23.8,0,0,0,2.13,32.479v-6.51a29.3,29.3,0,0,1-5.458.852,3.081,3.081,0,0,1-2.249-.675c-.659-.672-.659-1.816-.659-2.917V11.742c2.836,0,6.386.2,8.366.41V5.763H-6.236V0" transform="translate(13.467)"/></g><g transform="translate(627.841 724.142)"><path class="a" d="M-11.232-9.373a18.456,18.456,0,0,1-4.868-1.3,1.41,1.41,0,0,1-.856-1.226,1.417,1.417,0,0,1,.826-1.164c1.052-.583,2.963-.865,5.868-.334a39.386,39.386,0,0,1,6.841,1.98v-6.563a20.04,20.04,0,0,0-9.67-2.255A13.37,13.37,0,0,0-20.87-17.9a8.363,8.363,0,0,0-3.376,6.507c-.213,4.514,2.619,7.215,9.146,8.484a30.151,30.151,0,0,1,4.173,1.023c.846.334,1.347.892,1.347,1.524a1.65,1.65,0,0,1-1.1,1.465,10.5,10.5,0,0,1-4.478.3,31.387,31.387,0,0,1-8.6-2.272v6.74a21.336,21.336,0,0,0,9.828,2.357C-9.2,8.138-3.329,6.729-2.27.487A7.832,7.832,0,0,0-3.463-5.577c-1.449-2-3.681-3.029-7.769-3.8" transform="translate(24.257 20.243)"/></g></g></svg>