<svg xmlns="http://www.w3.org/2000/svg" width="22" height="13" viewBox="0 0 22 13"><defs><style>.a{fill:#293644;fill-rule:evenodd;}</style></defs><path class="a" d="M1840.389,420a3.45,3.45,0,1,1,3.449,3.5A3.475,3.475,0,0,1,1840.389,420Zm3.449-2.5a2.5,2.5,0,1,0,2.464,2.5A2.482,2.482,0,0,0,1843.838,417.5Zm-10.562,1.239a13.265,13.265,0,0,1,21.123,0,2.033,2.033,0,0,1,0,2.522,13.265,13.265,0,0,1-21.123,0A2.033,2.033,0,0,1,1833.276,418.739Zm10.562-4.239a12.4,12.4,0,0,0-9.79,4.861,1.022,1.022,0,0,0,0,1.279,12.29,12.29,0,0,0,19.58,0,1.023,1.023,0,0,0,0-1.279A12.4,12.4,0,0,0,1843.838,414.5Z" transform="translate(-1832.838 -413.5)"/></svg>