<svg xmlns="http://www.w3.org/2000/svg" xmlns:xlink="http://www.w3.org/1999/xlink" width="310" height="318" viewBox="0 0 310 318">
  <defs>
    <clipPath id="clip-path">
      <rect id="Rectangle_1029" data-name="Rectangle 1029" width="310" height="318" transform="translate(0.435 5)" fill="none" stroke="#fff" stroke-width="5"/>
    </clipPath>
  </defs>
  <g id="Logo" transform="translate(-0.906 -5)">
    <g id="Group_10344" data-name="Group 10344" transform="translate(0.471)" clip-path="url(#clip-path)">
      <path id="Path_14911" data-name="Path 14911" d="M595.564,430.879c84.672,0,157.656-51.264,190.995-125.145l-55.657-25.9c-23.808,51.815-75.457,87.708-135.338,87.708-60.283,0-112.223-36.378-135.813-88.753,30.244.716,83.663-7.209,127.334-26.44,57.091-25.143,104.521-36.858,151.706-39.527,9.442-.534,18.875-.707,28.374-.551,10.96.179,21.833.469,32.6,1.278C798.784,95.437,706.373,0,592.516,0,492.992,0,409.855,72.922,389.847,170.169a249.48,249.48,0,0,0,60.288,10.17c15.242-67.082,73.2-117,142.381-117,59.226,0,110.231,36.591,133.245,89.216-48.58,2.23-90.955,12.237-145.687,36.856-42.328,19.041-76.533,26.54-118.758,26.54-57.356,0-110.9-17.761-156.057-47.422q-.855-.563-1.707-1.129A317.337,317.337,0,0,0,300,208.447a294.162,294.162,0,0,0,93.058,65.3c24.822,90.654,106.086,157.13,202.506,157.13" transform="translate(-276.061 -136.234)" fill="none" stroke="#fff" stroke-width="5"/>
    </g>
  </g>
</svg>
