<svg id="Group_10441" data-name="Group 10441" xmlns="http://www.w3.org/2000/svg" xmlns:xlink="http://www.w3.org/1999/xlink" width="162.81" height="199.107" viewBox="0 0 162.81 199.107">
  <defs>
    <clipPath id="clip-path">
      <rect id="Rectangle_1085" data-name="Rectangle 1085" width="162.81" height="199.107" fill="none" stroke="#707070" stroke-width="5"/>
    </clipPath>
  </defs>
  <g id="Group_10440" data-name="Group 10440" clip-path="url(#clip-path)">
    <path id="Path_15187" data-name="Path 15187" d="M10.01,42.626S21.058,1.269,69.637,2.01s72.119,49.656,69.8,73a90.967,90.967,0,0,1-2.251,12.9c-6.174,24.886-27.267,43.94-52.891,44.9C9.163,135.617,1.886,82.255,4.311,65.276" transform="translate(0.837 0.426)" fill="none" stroke="#013fb5" stroke-linecap="round" stroke-linejoin="round" stroke-width="5"/>
    <path id="Path_15188" data-name="Path 15188" d="M28.652,66.139a32.4,32.4,0,0,0,7.425.244l7.334-.124a2.426,2.426,0,1,0,0-4.851l-7.051.119-3.385.058c-.542.008-1.085.029-1.628.019-.3-.006-.6-.021-.9-.049-.173-.018-.173-.017,0,0-.169-.027-.336-.061-.5-.1a2.426,2.426,0,0,0-1.289,4.678" transform="translate(5.723 13.065)" fill="#013fb5"/>
    <path id="Path_15189" data-name="Path 15189" d="M26.369,57.228c-.885,1.991-2.069,4.077-1.475,6.33a5.488,5.488,0,0,0,4.217,3.727,2.544,2.544,0,0,0,1.87-.244,2.427,2.427,0,0,0-.58-4.434,5.965,5.965,0,0,1-.884-.286l.58.245a3.837,3.837,0,0,1-.758-.438l.491.38a2.913,2.913,0,0,1-.478-.477q.191.246.38.491a2.671,2.671,0,0,1-.3-.52q.122.289.245.578a2.826,2.826,0,0,1-.164-.6q.044.324.086.645a3.353,3.353,0,0,1,.008-.81c-.029.215-.058.429-.086.644a6.606,6.606,0,0,1,.451-1.488l-.244.58c.266-.629.551-1.25.828-1.875a2.642,2.642,0,0,0,.245-1.869,2.478,2.478,0,0,0-1.116-1.45,2.446,2.446,0,0,0-1.869-.244,2.353,2.353,0,0,0-1.449,1.115" transform="translate(5.263 11.92)" fill="#013fb5"/>
    <path id="Path_15190" data-name="Path 15190" d="M27.182,41.93c.309-.774.422-1.07.691-1.668a20.821,20.821,0,0,1,1.044-2.047c.192-.329.4-.644.615-.959.021-.029.274-.36.08-.114.1-.132.215-.261.326-.386a8.738,8.738,0,0,1,.676-.682c.112-.1.228-.2.346-.295-.363.279.233-.137.253-.15.26-.163.528-.3.8-.44-.353.179-.034.008.05-.021.141-.049.283-.1.427-.142.118-.034.954-.2.446-.137a6.392,6.392,0,0,1,1.1-.015c-.477-.022.253.085.429.13.644.164-.2-.129.121.049.121.065.243.131.359.2.063.038.4.3.172.108s.092.1.143.144c.122.12.235.247.353.374-.227-.247-.063-.092.056.086.155.233.266.492.417.724.2.315-.159-.507.047.1.046.135.1.267.137.4.085.273.143.551.206.828.024.1.056.468.01-.012.021.212.039.422.046.635.01.327-.008.652-.028.979a3.616,3.616,0,0,1-.11.731,16.866,16.866,0,0,1-.7,2.413c-1.078,2.941-2.669,6.152-4.024,9.2q-2.4,5.4-4.8,10.791a2.49,2.49,0,0,0,.87,3.318,2.454,2.454,0,0,0,3.319-.87L35.977,54.14l2.46-5.534A49.729,49.729,0,0,0,40.725,43c1-3.277.962-7.058-1.172-9.9a7.388,7.388,0,0,0-4.441-2.935A8.821,8.821,0,0,0,29.564,31c-3.835,1.833-5.574,5.929-7.06,9.64A2.432,2.432,0,0,0,24.2,43.624a2.5,2.5,0,0,0,2.985-1.694" transform="translate(4.763 6.388)" fill="#013fb5"/>
    <path id="Path_15191" data-name="Path 15191" d="M44.4,34a12.792,12.792,0,0,1,.023,2.177c-.006.082-.108.974-.069.709-.065.454-.15.9-.236,1.353-.3,1.572-.642,3.128-.845,4.717a11.787,11.787,0,0,0,1.414,7.548,7.192,7.192,0,0,0,6.5,3.8,9.458,9.458,0,0,0,6-3.273c.783-.8,1.522-1.654,2.354-2.412.087-.08.176-.159.267-.236.056-.049.446-.378.165-.146-.258.212.034-.024.1-.073.12-.08.239-.163.361-.239a7.146,7.146,0,0,1,.756-.4c-.078.036-.5.164-.1.059.167-.042.331-.1.5-.137l-2.983-2.983Q56.439,56.252,54.264,68.04a2.426,2.426,0,1,0,4.678,1.29q2.174-11.788,4.349-23.576a2.459,2.459,0,0,0-2.983-2.985,10.953,10.953,0,0,0-5.164,3.374c-.632.655-1.237,1.335-1.893,1.965-.148.143-.3.284-.454.421s-.62.473-.177.165c-.37.258-.748.464-1.139.685.383-.216.19-.075-.113.011-.08.023-.161.038-.24.062-.475.144.164-.024.148,0-.068.082-.629.017-.724.016s-.31-.093-.045,0c.348.121-.122-.057-.209-.073-.129-.024-.411-.186.078.056-.08-.039-.163-.074-.239-.119-.182-.106-.354-.218-.531-.33.488.309-.079-.1-.2-.22-.086-.09-.166-.183-.25-.275-.183-.2-.063-.119.032.042-.247-.422-.491-.834-.722-1.267-.129-.24.041.089.052.121-.041-.127-.093-.251-.136-.377-.1-.287-.178-.578-.246-.873-.053-.228-.1-.46-.133-.691.081.495,0-.053-.006-.247a11.5,11.5,0,0,1,.075-1.839c.049-.45-.044.274.022-.173.033-.228.072-.455.112-.68.063-.364.133-.725.206-1.087.153-.768.318-1.532.458-2.3A18.663,18.663,0,0,0,49.253,34a2.48,2.48,0,0,0-2.426-2.426A2.453,2.453,0,0,0,44.4,34" transform="translate(9.184 6.718)" fill="#013fb5"/>
    <path id="Path_15192" data-name="Path 15192" d="M73.237,33.806C71.746,42.367,70,50.871,68.067,59.342c-1.925,8.429-3.961,16.847-5.578,25.342a55.841,55.841,0,0,0-1.255,14.477,2.426,2.426,0,0,0,4.851,0,39.068,39.068,0,0,1,.12-6.436q.071-.793.163-1.585c.032-.279.065-.559.1-.838.015-.118.029-.235.045-.353.052-.4-.049.343.007-.053.138-.968.289-1.933.458-2.9.791-4.476,1.817-8.921,2.8-13.358,1.71-7.7,3.564-15.359,5.181-23.074Q76.579,42.86,77.915,35.1a2.482,2.482,0,0,0-1.694-2.983,2.456,2.456,0,0,0-2.983,1.694" transform="translate(13.009 6.82)" fill="#013fb5"/>
    <path id="Path_15193" data-name="Path 15193" d="M81.041,47.328l16.91.961q-1.213-1.213-2.426-2.426a271.634,271.634,0,0,1-2.223,34.4,2.429,2.429,0,0,0,2.426,2.426,2.5,2.5,0,0,0,2.426-2.426,271.631,271.631,0,0,0,2.223-34.4,2.475,2.475,0,0,0-2.426-2.426l-16.91-.961A2.441,2.441,0,0,0,78.615,44.9a2.481,2.481,0,0,0,2.426,2.426" transform="translate(16.727 9.038)" fill="#013fb5"/>
    <path id="Path_15194" data-name="Path 15194" d="M85.953,63.77A74.414,74.414,0,0,0,104.46,61.7a2.448,2.448,0,0,0,1.694-2.983,2.475,2.475,0,0,0-2.983-1.694,67.67,67.67,0,0,1-17.218,1.9,2.426,2.426,0,1,0,0,4.851" transform="translate(17.773 12.117)" fill="#013fb5"/>
    <path id="Path_15195" data-name="Path 15195" d="M2,124.765s39.611-11.054,49.283-6.448a79.078,79.078,0,0,1,15.661,9.672" transform="translate(0.426 24.937)" fill="none" stroke="#0140be" stroke-linecap="round" stroke-linejoin="round" stroke-width="5"/>
    <path id="Path_15196" data-name="Path 15196" d="M66.619,128.5s27.175-2.764,31.32,2.764,2.3,10.594-3.225,12.436-47.9,0-47.9,0" transform="translate(9.961 27.194)" fill="none" stroke="#0140be" stroke-linecap="round" stroke-linejoin="round" stroke-width="5"/>
    <path id="Path_15197" data-name="Path 15197" d="M2,154.291s18.536-5.17,30.859-.922c13.358,4.606,35.926,16.581,46.059,16.581s77.839-26.714,80.6-35-8.291-11.053-12.9-8.291-30.4,12.9-30.4,12.9" transform="translate(0.426 26.729)" fill="none" stroke="#0140be" stroke-linecap="round" stroke-linejoin="round" stroke-width="5"/>
    <path id="Path_15198" data-name="Path 15198" d="M115.611,123.571s-5.987-4.145-19.8,6.909" transform="translate(20.386 26.131)" fill="none" stroke="#0140be" stroke-linecap="round" stroke-linejoin="round" stroke-width="5"/>
  </g>
</svg>
