<svg xmlns="http://www.w3.org/2000/svg" width="164.622" height="142.349" viewBox="0 0 164.622 142.349">
  <g id="Group_10432" data-name="Group 10432" transform="translate(2.478 2.5)">
    <g id="Group_10431" data-name="Group 10431" transform="translate(14.313)">
      <g id="Group_10351" data-name="Group 10351" transform="translate(0 0)">
        <path id="Path_14920" data-name="Path 14920" d="M109.683,8.176c.125,4.878,3.972,39.6-5.555,41.081s-58.033-.153-66.844,0c-7.648.134-38.3,2.785-38.3-6.963-.122-.877.092-21.98,0-23.674a208.592,208.592,0,0,1,0-22.978" transform="translate(1.321 87.518)" fill="none" stroke="#0140be" stroke-linecap="round" stroke-linejoin="round" stroke-width="5"/>
        <path id="Path_14921" data-name="Path 14921" d="M93.866,24.615c12.568.075,21.732-.116,25.227,4.564s1.813,21.7,1.813,21.7" transform="translate(-8.791 32.505)" fill="none" stroke="#0140be" stroke-linecap="round" stroke-linejoin="round" stroke-width="5"/>
        <path id="Path_14923" data-name="Path 14923" d="M76.957,26.823c8.039,2.356,15.866,4.666,20.26,5.984,12.037,3.614,20.885,6.012,22.919,11.487s-4.373,21.33-4.373,21.33" transform="translate(2.953 -1.099)" fill="none" stroke="#0140be" stroke-linecap="round" stroke-linejoin="round" stroke-width="5"/>
        <path id="Path_14924" data-name="Path 14924" d="M31.372,34.1s25.133.151,29.214.4" transform="translate(32.535 46.829)" fill="none" stroke="#0140be" stroke-linecap="round" stroke-linejoin="round" stroke-width="5"/>
        <path id="Path_14925" data-name="Path 14925" d="M8.783,42.855s61.488,1.477,68.1,1.338" transform="translate(13.619 62.041)" fill="none" stroke="#0140be" stroke-linecap="round" stroke-linejoin="round" stroke-width="5"/>
        <path id="Path_14926" data-name="Path 14926" d="M9.608,47.828S69.1,48.668,74.4,48.9" transform="translate(14.31 70.584)" fill="none" stroke="#0140be" stroke-linecap="round" stroke-linejoin="round" stroke-width="5"/>
        <path id="Path_14927" data-name="Path 14927" d="M58.292,55.042a8.625,8.625,0,0,0,4.525,1.042c5.464-.349,9.666-6.605,11.759-10.874" transform="translate(58.265 31.06)" fill="none" stroke="#0140be" stroke-linecap="round" stroke-linejoin="round" stroke-width="5"/>
        <path id="Path_14928" data-name="Path 14928" d="M32.993,6.1s1.488-3.809,10.629-.085c1.257.513,36.286,18.543,47.417,24.376s19.362,9.869,20.319,15.631-8.344,20.11-8.344,20.11" transform="translate(33.892 -4.385)" fill="none" stroke="#0140be" stroke-linecap="round" stroke-linejoin="round" stroke-width="5"/>
      </g>
    </g>
    <g id="Group_10430" data-name="Group 10430" transform="translate(0 7.864)">
      <g id="Group_10394" data-name="Group 10394" transform="translate(0 0)">
        <path id="Path_15039" data-name="Path 15039" d="M4.343,53.519S16.8,68.273,26.244,76.742c6.512,5.838,8.753,7.619,12.575,8.084S67.1,67.312,72.726,61.023s9.078-20.672,9.758-33.44S77.42,7.159,74.529,5.768s-27.066-8.773-52.2-4.4C12.506,3.082,1.571,3.27.88,14.305S-1.856,42.384,4.343,53.519" transform="translate(0 0)" fill="none" stroke="#0140be" stroke-width="5"/>
        <path id="Path_15041" data-name="Path 15041" d="M23.613,34.872a11.643,11.643,0,0,0-5.415,6.82C17.2,44.744,31.932,57.9,35.962,58.9S45.774,52.96,50.58,45.771,68.2,20.182,67.715,18.957s-4.018-3.444-6.1-3.087S39.835,42.781,38.606,44.12s-2.333,1.822-6.1-2.477-6.193-8.347-8.891-6.771" transform="translate(0.235 0.204)" fill="none" stroke="#0140be" stroke-width="5"/>
      </g>
    </g>
  </g>
</svg>
