<svg xmlns="http://www.w3.org/2000/svg" xmlns:xlink="http://www.w3.org/1999/xlink" width="149" height="146" viewBox="0 0 149 146">
  <defs>
    <clipPath id="clip-path">
      <rect id="Rectangle_1072" data-name="Rectangle 1072" width="149" height="146" transform="translate(-0.412 0)" fill="none" stroke="#707070" stroke-width="5"/>
    </clipPath>
  </defs>
  <g id="Group_10429" data-name="Group 10429" transform="translate(0.412 0)">
    <g id="Group_10428" data-name="Group 10428" clip-path="url(#clip-path)">
      <path id="Path_15181" data-name="Path 15181" d="M55.383,31.1S25.4,37.377,21.648,69.291,60.2,118.47,91.8,96.5s9.1-57.55-13.387-65.4" transform="translate(5.988 7.38)" fill="none" stroke="#0140be" stroke-linecap="round" stroke-linejoin="round" stroke-width="5"/>
      <path id="Path_15182" data-name="Path 15182" d="M70.227,50.726c-3.57-3.837-18.92-7.674-24.632,2.79-3.926,7.193,1.98,9.613,8.925,10.463,4.775.585,11.158-1.189,13.922,2.79,6.783,9.767-7.5,18.137-26.061,11.162" transform="translate(11.85 11.297)" fill="none" stroke="#0140be" stroke-linecap="round" stroke-linejoin="round" stroke-width="5"/>
      <line id="Line_27" data-name="Line 27" x1="0.714" y2="8.023" transform="translate(67.083 91.669)" fill="none" stroke="#0140be" stroke-linecap="round" stroke-linejoin="round" stroke-width="5"/>
      <line id="Line_28" data-name="Line 28" y1="6.976" x2="1.071" transform="translate(69.582 50.511)" fill="none" stroke="#0140be" stroke-linecap="round" stroke-linejoin="round" stroke-width="5"/>
      <path id="Path_15183" data-name="Path 15183" d="M126.893,26.758C88.518-9.383,32.167-.264,12.807,26.758" transform="translate(3.581 0.337)" fill="none" stroke="#0140be" stroke-linecap="round" stroke-linejoin="round" stroke-width="5"/>
      <path id="Path_15184" data-name="Path 15184" d="M3.383,2S2.692,24.293,2,38.48c0,0,16.6.675,31.115-4.73" transform="translate(0.559 0.099)" fill="none" stroke="#0140be" stroke-linecap="round" stroke-linejoin="round" stroke-width="5"/>
      <path id="Path_15185" data-name="Path 15185" d="M3.345,97.1c24.2,25,78.132,33.777,125.839.675" transform="translate(0.935 23.895)" fill="none" stroke="#0140be" stroke-linecap="round" stroke-linejoin="round" stroke-width="5"/>
      <path id="Path_15186" data-name="Path 15186" d="M91.421,88.456s20.051-2.7,26.965-2.7c0,0,4.148,8.106,2.074,27.7" transform="translate(25.562 21.056)" fill="none" stroke="#0140be" stroke-linecap="round" stroke-linejoin="round" stroke-width="5"/>
    </g>
  </g>
</svg>
