<svg xmlns="http://www.w3.org/2000/svg" xmlns:xlink="http://www.w3.org/1999/xlink" width="178.842" height="168.566" viewBox="0 0 178.842 168.566">
  <defs>
    <clipPath id="clip-path">
      <rect id="Rectangle_1071" data-name="Rectangle 1071" width="178.842" height="168.566" fill="none" stroke="#707070" stroke-width="5"/>
    </clipPath>
  </defs>
  <g id="Group_10427" data-name="Group 10427" transform="translate(0 0)">
    <g id="Group_10426" data-name="Group 10426" transform="translate(0 0)" clip-path="url(#clip-path)">
      <path id="Path_15175" data-name="Path 15175" d="M3.824,69.437,14.961,85a14.072,14.072,0,0,1,2.658,12.926c-1.231,4.542-2.4,6.188-2.4,6.188" transform="translate(154.619 40.558)" fill="none" stroke="#0140be" stroke-linecap="round" stroke-linejoin="round" stroke-width="5"/>
      <path id="Path_15176" data-name="Path 15176" d="M127.889,138.139c-24.2-35.348-74.331-107.782-74.331-107.782s-2.4-2.872,1.308-13.7l2.615-3.314a20.192,20.192,0,0,1,9.075-2.926C79.2,9.3,126.593,2.071,126.593,2.071s4.578-.442,6.539.884a23.754,23.754,0,0,1,5.015,4.862l6.688,9.62" transform="translate(-49.626 1.168)" fill="none" stroke="#0140be" stroke-linecap="round" stroke-linejoin="round" stroke-width="5"/>
      <path id="Path_15177" data-name="Path 15177" d="M68.952,109.163c-1.152.331-2.01.554-2.508.648-5.662,1.061-10.458.846-17.949-8.136-.884-1.057-2.748-3.6-5.356-7.263" transform="translate(41.553 55.146)" fill="none" stroke="#0140be" stroke-linecap="round" stroke-linejoin="round" stroke-width="5"/>
      <path id="Path_15178" data-name="Path 15178" d="M138.355,104.41c6.87,9.983,11.542,16.787,11.943,17.406,1.657,2.565,1.112,3.594-.375,3.965s-52.906,13.2-52.906,13.2-3.3.988-5.38-1.4S12.682,19.506,12.682,19.506s-2.569-4.063,2.931-5c0,0,49.711-6.9,52.046-7.268s4,.247,5.14,1.98c.165.25,1.861,2.72,4.651,6.772" transform="translate(8.388 4.167)" fill="none" stroke="#0140be" stroke-linecap="round" stroke-linejoin="round" stroke-width="5"/>
      <line id="Line_24" data-name="Line 24" y1="11.31" x2="38.22" transform="translate(120.619 149.317)" fill="none" stroke="#0140be" stroke-linecap="round" stroke-linejoin="round" stroke-width="5"/>
      <path id="Path_15179" data-name="Path 15179" d="M48.541,7.093s38.481,0,38.481,38.481S40.845,99.446,17.757,84.053-5.331,22.486,33.148,7.093" transform="translate(88.652 4.143)" fill="none" stroke="#0140be" stroke-linecap="round" stroke-linejoin="round" stroke-width="5"/>
      <path id="Path_15180" data-name="Path 15180" d="M16.963,0S-6.125,0,1.57,15.393s15.393,0,23.088,7.7-7.7,15.393-15.391,7.7" transform="matrix(-0.799, -0.602, 0.602, -0.799, 133.544, 72.927)" fill="none" stroke="#0140be" stroke-linecap="round" stroke-linejoin="round" stroke-width="5"/>
      <line id="Line_25" data-name="Line 25" x1="3.518" y2="8.318" transform="translate(123.63 69.564)" fill="none" stroke="#0140be" stroke-linecap="round" stroke-linejoin="round" stroke-width="5"/>
      <line id="Line_26" data-name="Line 26" x1="4.798" y2="12.796" transform="translate(138.026 22.537)" fill="none" stroke="#0140be" stroke-linecap="round" stroke-linejoin="round" stroke-width="5"/>
    </g>
  </g>
</svg>
