<svg xmlns="http://www.w3.org/2000/svg" xmlns:xlink="http://www.w3.org/1999/xlink" width="438.797" height="416.988" viewBox="0 0 438.797 416.988">
  <defs>
    <clipPath id="clip-path">
      <rect id="Rectangle_1111" data-name="Rectangle 1111" width="262.204" height="367.684" fill="#0140be"/>
    </clipPath>
    <clipPath id="clip-path-2">
      <rect id="Rectangle_1112" data-name="Rectangle 1112" width="87.15" height="37.163" fill="#0140be"/>
    </clipPath>
  </defs>
  <g id="Group_10529" data-name="Group 10529" transform="translate(0)" style="mix-blend-mode: multiply;isolation: isolate">
    <g id="Group_10501" data-name="Group 10501" transform="translate(0 0)">
      <path id="Path_15815" data-name="Path 15815" d="M1433.088,1238.61c39.679,34.926,69.007,28.746,69.007,86.426s-10.351,88.58-20.7,129.78-18.977,84.46-75.907,86.52-55.205-37.08-106.96-16.48-131.112,43.26-189.768,0-53.48-146.26-24.152-199.82,24.152-100.94,94.884-96.821,150.089-18.54,201.844,0" transform="translate(-1063.298 -1220.818)" fill="#e5ebf9"/>
      <path id="Path_15816" data-name="Path 15816" d="M1437.742,1256.217c-1.98,31.966-.99,31.691,3.961,50.507.386,1.468-.694-1.732,0,0,6.84,17.108,20.425,27.526,27.729,48.526,7.923,22.778,9.9,101.014,0,137.657s-9.9,83.188-35.652,56.449-48.526-35.652-48.526-35.652l-170.337,35.652s-5.942-44.565-6.932-63.381-2.971-89.13,0-108.937,39.613-64.372,57.439-65.363,22.778-70.313,22.778-91.111,6.932-42.584,43.575-44.565S1439.723,1224.251,1437.742,1256.217Z" transform="translate(-1114.686 -1140.291)" fill="#fff"/>
      <g id="Group_10498" data-name="Group 10498" transform="translate(97.818 41.738)">
        <g id="Group_10497" data-name="Group 10497" clip-path="url(#clip-path)">
          <path id="Path_15772" data-name="Path 15772" d="M167.711,202.341a1.434,1.434,0,0,1-1.264-.753l-6.33-11.706a54.422,54.422,0,0,1-3.144-6.5c-1.717-4.532-2.206-9.405-2.593-14.417-.493-6.391-.869-12.878-1.118-19.282a1.436,1.436,0,0,1,2.87-.111c.246,6.367.621,12.818,1.111,19.173.384,4.978.831,9.439,2.415,13.619a52.086,52.086,0,0,0,2.985,6.152l6.33,11.707a1.436,1.436,0,0,1-1.262,2.119Z" transform="translate(-57.768 -55.859)" fill="#0140be"/>
          <path id="Path_15773" data-name="Path 15773" d="M193.228,157.072a1.428,1.428,0,0,1-.7-.185q-.27-.152-.543-.3a1.424,1.424,0,0,1-.654.04,55,55,0,0,1-10.654-3.337l-9.207-3.591a1.436,1.436,0,0,1,.995-2.694l5.59,1.95a29.058,29.058,0,0,0,4.459,1.294c.379.066.76.117,1.141.167.633.084,1.287.171,1.953.324a17.728,17.728,0,0,1,2.875.981,52.309,52.309,0,0,1,5.454,2.664,1.436,1.436,0,0,1-.706,2.688Z" transform="translate(-64.286 -55.38)" fill="#0140be"/>
          <path id="Path_15774" data-name="Path 15774" d="M232.388,163.471a4.287,4.287,0,0,1-1.176-.162,1.847,1.847,0,0,1,.15-3.29,77.954,77.954,0,0,1,25.093-2.9,1.436,1.436,0,0,1,.032,2.867l-13.566.945a19.118,19.118,0,0,0-6.148,1.1c-.277.118-.555.251-.836.384a8.4,8.4,0,0,1-3.549,1.06" transform="translate(-86.796 -59.188)" fill="#0140be"/>
          <path id="Path_15775" data-name="Path 15775" d="M182.418,165.514a17.372,17.372,0,0,1-6.452-1.234c-.212-.085-.423-.174-.636-.264a6.455,6.455,0,0,0-2.2-.66,1.436,1.436,0,0,1,.029-2.872h.031a8.79,8.79,0,0,1,3.263.887c.194.082.389.164.583.242a14.6,14.6,0,0,0,11.06-.118,1.436,1.436,0,1,1,1.128,2.641l0,0a17.394,17.394,0,0,1-6.8,1.376" transform="translate(-64.726 -60.491)" fill="#0140be"/>
          <path id="Path_15776" data-name="Path 15776" d="M175.032,166.629a13.1,13.1,0,0,1-2.583-.238c-.317-.064-.638-.141-.961-.22a4.18,4.18,0,0,0-2.606-.158,1.437,1.437,0,0,1-2.105-1.262,3.149,3.149,0,0,0-.16-.973,1.436,1.436,0,0,1,2.727-.9v0c.012.037.024.073.035.11a9.914,9.914,0,0,1,2.786.391c.286.069.57.139.85.2a18,18,0,0,0,5.757-.145,1.436,1.436,0,0,1,.372,2.848,31.671,31.671,0,0,1-4.112.351" transform="translate(-62.775 -61.021)" fill="#0140be"/>
          <path id="Path_15777" data-name="Path 15777" d="M249.007,170.731q-.278,0-.558-.012a22.392,22.392,0,0,1-4.173-.707l-5.565-1.316a1.436,1.436,0,1,1,.657-2.8h0l5.565,1.316a20,20,0,0,0,3.642.632c2.869.131,5.808-1.108,8.4-2.2a1.436,1.436,0,0,1,1.113,2.647c-2.722,1.145-5.787,2.436-9.088,2.436" transform="translate(-89.559 -62.395)" fill="#0140be"/>
          <path id="Path_15778" data-name="Path 15778" d="M261.582,171.257a1.436,1.436,0,0,1-.089-2.869,55.967,55.967,0,0,0,7.262-.941,1.436,1.436,0,0,1,.557,2.818h0a58.862,58.862,0,0,1-7.636.989c-.031,0-.062,0-.092,0" transform="translate(-98.057 -63.105)" fill="#0140be"/>
          <path id="Path_15779" data-name="Path 15779" d="M201.566,207.843a4.046,4.046,0,0,1-3.548-2,3.376,3.376,0,0,1,1.219-4.534,1.436,1.436,0,1,1,1.388,2.515.581.581,0,0,0-.086.642,1.226,1.226,0,0,0,1.136.5,1.436,1.436,0,1,1,.232,2.862h0c-.112.009-.224.014-.336.014" transform="translate(-74.478 -75.811)" fill="#0140be"/>
          <path id="Path_15780" data-name="Path 15780" d="M211.674,211.216q-.313,0-.627-.021a11.552,11.552,0,0,1-6.3-2.559,1.436,1.436,0,0,1,1.774-2.259,8.8,8.8,0,0,0,4.725,1.952,5.788,5.788,0,0,0,4.437-1.512,1.437,1.437,0,0,1,2-.021,1.978,1.978,0,0,0,3.331-1.6,1.436,1.436,0,1,1,2.863-.231h0a4.842,4.842,0,0,1-7.1,4.669,8.862,8.862,0,0,1-5.1,1.578" transform="translate(-76.967 -76.76)" fill="#0140be"/>
          <path id="Path_15781" data-name="Path 15781" d="M189.427,221.461a1.436,1.436,0,0,1-.63-2.728,2.171,2.171,0,0,0,1.084-1.227,1.436,1.436,0,0,1,2.718.927,5.038,5.038,0,0,1-2.545,2.883,1.441,1.441,0,0,1-.627.145" transform="translate(-70.858 -81.619)" fill="#0140be"/>
          <path id="Path_15782" data-name="Path 15782" d="M246.771,221.172a1.435,1.435,0,0,1-1.428-1.305.691.691,0,0,0-.417-.543,1.436,1.436,0,1,1,.992-2.7A3.574,3.574,0,0,1,248.2,219.6a1.435,1.435,0,0,1-1.3,1.561c-.044,0-.089.006-.133.006" transform="translate(-91.964 -81.62)" fill="#0140be"/>
          <path id="Path_15783" data-name="Path 15783" d="M214.006,244.944c-.225,0-.428-.007-.6-.014l-4.709-.177a1.436,1.436,0,0,1,.107-2.87l4.709.176c.376.015,1.522.057,1.8-.29a1.436,1.436,0,0,1,2.245,1.791,4.363,4.363,0,0,1-3.552,1.383" transform="translate(-78.145 -90.927)" fill="#0140be"/>
          <path id="Path_15784" data-name="Path 15784" d="M340.238,258.291a1.435,1.435,0,0,1-1.237-.706c-8.335-14.1-9.638-30.926-10.258-46.952-.531-13.742-.71-27.858-.545-43.153l.014-1.285c.087-7.689.178-15.64-1.238-23.229-1.157-6.2-3.922-14.893-10.522-21.077a1.436,1.436,0,1,1,1.953-2.105l.01.01c7.169,6.715,10.147,16.02,11.384,22.645,1.467,7.867,1.375,15.961,1.286,23.789l-.014,1.284c-.164,15.248.014,29.317.543,43.012.606,15.657,1.867,32.076,9.861,45.6a1.436,1.436,0,0,1-1.235,2.167" transform="translate(-119.106 -45.005)" fill="#0140be"/>
          <path id="Path_15785" data-name="Path 15785" d="M317.214,431.689a6.63,6.63,0,0,1-.531-.584c-6.192-7.711-12.235-15.545-18.348-23.319L287.814,394.4a1.565,1.565,0,0,0-2.2,0,1.6,1.6,0,0,0,0,2.2l19.13,24.333c3.042,3.869,6.068,7.752,9.129,11.606,1.085,1.366,2.188.675,3.335-.352,0-.168,0-.336.008-.5" transform="translate(-107.488 -148.49)" fill="#0140be"/>
          <path id="Path_15786" data-name="Path 15786" d="M391.255,497.609c-.267-.627-.5-1.266-.751-1.942-.158-.427-.315-.854-.481-1.278A36.329,36.329,0,0,0,370,474.21a1.388,1.388,0,0,0-.227-.057,1.05,1.05,0,0,1-.193.363c-1.7,2.036,2.426,3.685,3.779,4.4a1.009,1.009,0,0,1,.464.462,33.389,33.389,0,0,1,13.524,16.06c.159.406.31.816.46,1.226.25.68.509,1.383.806,2.077a1.436,1.436,0,1,0,2.641-1.127" transform="translate(-139.152 -178.721)" fill="#0140be"/>
          <path id="Path_15787" data-name="Path 15787" d="M266.342,410.591a4.908,4.908,0,0,1-1.415-.21,1.436,1.436,0,0,1,.826-2.751h0c1.344.4,2.862-.75,3.5-2.054.807-1.66.768-3.783.733-5.655l-.3-16.2a8.42,8.42,0,0,0-2.809-7.33l-7.164-8.115a1.436,1.436,0,0,1,2.151-1.9l0,0,7.164,8.115a11.107,11.107,0,0,1,3.528,9.178l.3,16.2c.038,2.086.086,4.682-1.021,6.962a6.489,6.489,0,0,1-5.494,3.759" transform="translate(-97.757 -137.915)" fill="#0140be"/>
          <path id="Path_15788" data-name="Path 15788" d="M226.565,422.335a5.237,5.237,0,0,1-1.226-.14,5.039,5.039,0,0,1-3.259-2.612,6.514,6.514,0,0,1-.4-5.248c.869-2.372,2.978-4.323,6.1-5.641,1.061-.449,2.146-.8,3.2-1.143a29.215,29.215,0,0,0,3.657-1.37,29.537,29.537,0,0,0,4.659-3.044l9.561-7.132a1.436,1.436,0,0,1,1.718,2.3l-9.562,7.133a24.209,24.209,0,0,1-9.144,4.841c-1.039.338-2.019.657-2.967,1.058-1.652.7-3.776,1.956-4.52,3.985a3.7,3.7,0,0,0,.23,2.9A2.221,2.221,0,0,0,226,419.4a5.689,5.689,0,0,0,2.987-.505,172.614,172.614,0,0,0,26.1-11.647,1.436,1.436,0,0,1,1.384,2.516,175.5,175.5,0,0,1-26.539,11.842,10.274,10.274,0,0,1-3.375.727" transform="translate(-83.417 -149.158)" fill="#0140be"/>
          <path id="Path_15789" data-name="Path 15789" d="M259.867,428.153a1.436,1.436,0,0,0-2.031-.012c-4.8,4.748-12.049,6.434-18.508,7.457a4.737,4.737,0,0,1-2.937-.122.965.965,0,0,1-.389-.87,1.436,1.436,0,0,0-1.532-2.429,2.9,2.9,0,0,0-1.35,2.555,3.828,3.828,0,0,0,1.79,3.206,5.284,5.284,0,0,0,2.786.7,13.4,13.4,0,0,0,2.082-.2,58.519,58.519,0,0,0,10.4-2.469c-.007.014-.009.029-.016.042a12.42,12.42,0,0,1,1.212-.439,4.437,4.437,0,0,1,.847-.34c-.022-.011-.04-.029-.064-.038a24.39,24.39,0,0,0,7.7-5.009,1.436,1.436,0,0,0,.011-2.029" transform="translate(-87.868 -161.221)" fill="#0140be"/>
          <path id="Path_15790" data-name="Path 15790" d="M244.74,383.442a15.631,15.631,0,0,1-8.654-3.113,7.014,7.014,0,0,1-1.846-1.665,5.325,5.325,0,0,1-.528-4.92,8.055,8.055,0,0,1,2.775-3.527,1.436,1.436,0,0,1,1.748,2.279l0,0a5.269,5.269,0,0,0-1.831,2.251,2.466,2.466,0,0,0,.171,2.238,4.51,4.51,0,0,0,1.127.966c3.043,2.067,5.808,2.917,8.209,2.524a1.436,1.436,0,0,1,.464,2.834h0a10.059,10.059,0,0,1-1.631.131" transform="translate(-87.952 -139.433)" fill="#0140be"/>
          <path id="Path_15791" data-name="Path 15791" d="M237.673,372.039a1.436,1.436,0,0,1-.587-2.747,22.66,22.66,0,0,1,14.887-1.241,1.436,1.436,0,1,1-.722,2.78,19.775,19.775,0,0,0-12.992,1.083,1.434,1.434,0,0,1-.585.125" transform="translate(-89.044 -138.457)" fill="#0140be"/>
          <path id="Path_15792" data-name="Path 15792" d="M249.916,360.984a1.452,1.452,0,0,1-.279-.027,7.163,7.163,0,0,1-4.724-3.35c-.1-.165-.187-.335-.277-.5a5.215,5.215,0,0,0-.353-.607,5.317,5.317,0,0,0-1.507-1.169l-5.54-3.39a1.436,1.436,0,0,1,1.5-2.45l5.54,3.39a6.116,6.116,0,0,1,2.9,2.885c.07.131.139.263.214.391a4.251,4.251,0,0,0,2.8,1.988,1.436,1.436,0,0,1-.276,2.845Z" transform="translate(-89.162 -131.651)" fill="#0140be"/>
          <path id="Path_15793" data-name="Path 15793" d="M256.921,391.709a1.435,1.435,0,0,1-1.233-.7,3.6,3.6,0,0,0-3.634-1.644,1.436,1.436,0,0,1-.522-2.824h0a6.489,6.489,0,0,1,6.615,2.994,1.436,1.436,0,0,1-1.231,2.174" transform="translate(-94.366 -145.663)" fill="#0140be"/>
          <path id="Path_15794" data-name="Path 15794" d="M154.543,384.4a1.435,1.435,0,0,1-1.092-2.367,54.638,54.638,0,0,1,20.709-15.027q.425-.176.855-.346a16.6,16.6,0,0,0,4.549-2.378c1.158-.969,2.2-2.708,1.735-4.234s-2.27-2.389-3.825-2.474a14.039,14.039,0,0,0-5.771,1.388c-8.67,3.464-17.181,7.723-25.411,11.842l-9,4.506A1.436,1.436,0,0,1,136,372.744l9-4.505c8.283-4.146,16.849-8.433,25.631-11.941a16.478,16.478,0,0,1,6.991-1.588,6.975,6.975,0,0,1,6.42,4.511,7.057,7.057,0,0,1-2.64,7.266,19,19,0,0,1-5.323,2.841c-.278.112-.556.223-.832.337A51.758,51.758,0,0,0,155.637,383.9a1.433,1.433,0,0,1-1.094.5" transform="translate(-50.964 -133.695)" fill="#0140be"/>
          <path id="Path_15795" data-name="Path 15795" d="M174.219,410.634a1.436,1.436,0,0,1-.589-2.746,168.156,168.156,0,0,1,36.207-11.526c2.512-.5,5.457-1.327,5.931-3.377a2.591,2.591,0,0,0-.41-1.96,4.774,4.774,0,0,0-2.893-1.993c-2.228-.481-4.69.264-7.074.984l-.047.015a256.667,256.667,0,0,1-37.368,8.315,1.436,1.436,0,1,1-.412-2.842,253.83,253.83,0,0,0,36.949-8.221l.047-.014c2.607-.789,5.562-1.682,8.514-1.043a7.571,7.571,0,0,1,4.71,3.262,5.432,5.432,0,0,1,.782,4.145c-.953,4.124-6.013,5.122-8.173,5.549a165.263,165.263,0,0,0-35.587,11.329,1.432,1.432,0,0,1-.587.126" transform="translate(-62.696 -145.496)" fill="#0140be"/>
          <path id="Path_15796" data-name="Path 15796" d="M243.608,407.749a1.435,1.435,0,0,1-1.4-1.766,1.887,1.887,0,0,0-1.413-2.123,1.436,1.436,0,1,1,.467-2.834h0a4.747,4.747,0,0,1,3.746,5.572c0,.014-.006.029-.008.043a1.439,1.439,0,0,1-1.4,1.107" transform="translate(-90.309 -151.15)" fill="#0140be"/>
          <path id="Path_15797" data-name="Path 15797" d="M178.557,434.059a1.656,1.656,0,0,1-1.6-1.066,1.5,1.5,0,0,1,.612-1.811,1.6,1.6,0,0,1,1.546-.094,60.13,60.13,0,0,0,6.41-1.444c1.965-.556,3.956-1.231,5.882-1.883a59.738,59.738,0,0,1,12.956-3.325,1.436,1.436,0,0,1,.293,2.857,56.714,56.714,0,0,0-12.328,3.189c-1.96.663-3.986,1.35-6.02,1.926a63.1,63.1,0,0,1-7.388,1.621,2.28,2.28,0,0,1-.363.029m-1.256-2.412v0Z" transform="translate(-66.662 -159.979)" fill="#0140be"/>
          <path id="Path_15798" data-name="Path 15798" d="M181.038,441.475a1.436,1.436,0,0,1-.624-2.73l9.543-4.593c3.557-1.712,7.588-3.653,10.1-6.871a1.436,1.436,0,1,1,2.263,1.768c-2.928,3.746-7.28,5.841-11.121,7.689l-9.542,4.593a1.423,1.423,0,0,1-.622.143" transform="translate(-67.696 -160.846)" fill="#0140be"/>
          <path id="Path_15799" data-name="Path 15799" d="M136.486,371.252a1.437,1.437,0,0,1-1.409-1.165c-.488-2.535.136-5.4,1.856-8.512.534-.964,1.124-1.892,1.7-2.79a32.9,32.9,0,0,0,2.254-3.918c.086-.187.169-.378.253-.569a8.168,8.168,0,0,1,2.236-3.369,4.139,4.139,0,0,1,3.583-.716,3.033,3.033,0,0,1,2.075,1.855,1.436,1.436,0,0,1-2.694,1h0c-.011-.029-.088-.064-.158-.084a1.276,1.276,0,0,0-1.023.2,5.888,5.888,0,0,0-1.388,2.269c-.09.206-.18.412-.273.614a35.46,35.46,0,0,1-2.443,4.266c-.573.9-1.114,1.75-1.6,2.636-1.387,2.509-1.908,4.722-1.55,6.58a1.437,1.437,0,0,1-1.412,1.708" transform="translate(-50.854 -131.952)" fill="#0140be"/>
          <path id="Path_15800" data-name="Path 15800" d="M237.349,386.932a1.432,1.432,0,0,1-1.138-.56,6.349,6.349,0,0,1-.877-4.31l0-.1a1.436,1.436,0,1,1,2.869.135l0,.1a4.449,4.449,0,0,0,.283,2.421,1.437,1.437,0,0,1-1.137,2.312" transform="translate(-88.692 -143.457)" fill="#0140be"/>
          <path id="Path_15801" data-name="Path 15801" d="M206.716,351.81l-.07,0a1.435,1.435,0,0,1-1.366-1.5h0c.232-4.853.619-9.768.994-14.521q.215-2.724.422-5.448c.052-.71.143-1.459.237-2.253.347-2.884.74-6.153-.631-8.118-1.343-1.925-4.4-2.152-7.1-2.353-.528-.039-1.039-.077-1.519-.126l-26.643-2.7c-.594-.06-1.209-.138-1.836-.217-2.683-.34-5.456-.689-7.678.216-2.121.865-2.3,3.115-2.337,6.449-.006.543-.012,1.1-.037,1.636L157.9,349.945a1.436,1.436,0,0,1-2.869-.133l1.255-27.073c.022-.48.027-.992.033-1.533.032-3.135.077-7.428,4.125-9.079,2.918-1.191,6.213-.773,9.122-.406.6.077,1.193.151,1.765.209l26.643,2.7c.456.047.941.082,1.442.12,3.17.236,7.116.529,9.24,3.573,2,2.862,1.515,6.878,1.128,10.1-.091.76-.178,1.478-.226,2.123q-.2,2.73-.422,5.46c-.373,4.732-.758,9.625-.988,14.432a1.436,1.436,0,0,1-1.433,1.368" transform="translate(-58.435 -117.353)" fill="#0140be"/>
          <path id="Path_15802" data-name="Path 15802" d="M242.875,392.262h0Z" transform="translate(-91.545 -147.854)" fill="#0140be"/>
          <path id="Path_15803" data-name="Path 15803" d="M133.731,465.405h-.012l-8.729-.071a1.435,1.435,0,0,1-1.153-.6,2.059,2.059,0,0,1-.335-1.692,3.337,3.337,0,0,1,1.689-1.986c3.986-2.115,8.465-2.15,12.8-2.185,1.59-.013,3.234-.026,4.794-.148a32.052,32.052,0,0,0,17.44-6.918,1.436,1.436,0,0,1,1.8,2.238A34.943,34.943,0,0,1,143,461.588c-1.66.129-3.354.143-4.993.156a35.261,35.261,0,0,0-8.629.753l4.36.035a1.436,1.436,0,0,1-.011,2.872" transform="translate(-46.529 -170.179)" fill="#0140be"/>
          <path id="Path_15804" data-name="Path 15804" d="M30.892,492.239a15.6,15.6,0,0,1-9.937-3.963,34.017,34.017,0,0,1-6.82-8.572C5.531,465.431.692,460.423.072,443.769A197.016,197.016,0,0,1,1.036,420.6c.556-6.849,1.132-13.931,1.011-20.874a1.437,1.437,0,0,1,1.411-1.461h.026a1.436,1.436,0,0,1,1.436,1.411c.124,7.084-.457,14.239-1.019,21.157a194.731,194.731,0,0,0-.957,22.826c.6,16.167,5.3,20.7,13.652,34.556a31.429,31.429,0,0,0,6.215,7.863,12.494,12.494,0,0,0,8.621,3.27c3.642-.209,6.966-2.5,9.9-4.521,7.351-5.069,14.953-10.31,21.013-16.994,4.281-4.722,7.824-10.215,11.251-15.526l.263-.409a1.436,1.436,0,0,1,2.413,1.557l-.262.406c-3.49,5.411-7.1,11-11.538,15.9-6.282,6.93-14.024,12.268-21.51,17.429-3.082,2.125-6.919,4.769-11.364,5.024q-.35.02-.7.02" transform="translate(0 -150.118)" fill="#0140be"/>
          <path id="Path_15805" data-name="Path 15805" d="M262.726,199.662c-1.071-6.615-2.59-13.342-6.413-17.735a14.327,14.327,0,0,0-1.519-1.481,1.391,1.391,0,0,0-.173-1.215,132.2,132.2,0,0,0-11.378-15.591,1.321,1.321,0,0,0-.933-.44c-1.019-1.717-2.02-3.438-2.993-5.115-2.066-3.561-4.018-6.924-5.756-9.522-5.478-8.193-10.936-24.693-13.559-32.622a1.424,1.424,0,0,0-.568-.738,263.208,263.208,0,0,0,2.639-29.174A117.945,117.945,0,0,0,219.2,55.584a74.31,74.31,0,0,0-10.107-23.663,64.9,64.9,0,0,0-16.8-17.471,48.813,48.813,0,0,0-22.1-8.605q-.678-.08-1.358-.137a1.445,1.445,0,0,0-.584-.515c-8.168-4.1-17.369-5.525-26.446-5.13a82.556,82.556,0,0,0-26.466,5.623A58.851,58.851,0,0,0,93.479,20.069,44.042,44.042,0,0,0,82.154,42.093a48.125,48.125,0,0,0,.041,14.735c.7,5.128,1.722,10.215,2.638,15.308q.343,1.907.687,3.814a1.159,1.159,0,0,0,.1.3c-.2.152-.406.3-.607.454A90.927,90.927,0,0,1,80.606,92.12c-.705,2.011-1.434,4.09-2.094,6.148-1.594,4.977-2.864,10.129-4.091,15.112-2.067,8.388-4.2,17.061-7.922,24.92-.082.173-.169.348-.255.523a.9.9,0,0,1,.2-.013c-.917,1.357-1.833,2.715-2.784,4.046q-.09.125-.18.249c-.024.032-.075.1-.107.138-.153.188-.309.373-.475.548s-.325.319-.494.471c-.039.035-.037.038-.028.034l-.076.05c-.1.065-.2.131-.3.191s-.208.11-.312.166l-.026.011q-.15.051-.3.094a1.557,1.557,0,0,0-2.849-1.185,3.341,3.341,0,0,0-.28.541c-13.489-1.31-27.86,5.259-37.71,17.3-8.073,9.868-13.365,23.3-15.73,39.916a275.485,275.485,0,0,0-2.056,28.837c-.163,4.543-.332,9.24-.611,13.841a1.436,1.436,0,0,0,1.346,1.52c.03,0,.059,0,.088,0a1.436,1.436,0,0,0,1.432-1.349c.281-4.637.45-9.352.614-13.911a273.513,273.513,0,0,1,2.029-28.536c2.29-16.091,7.374-29.045,15.11-38.5,9.36-11.441,22.991-17.624,35.667-16.212a2.869,2.869,0,0,0,2.011.9,5.617,5.617,0,0,0,4.242-1.552,18.335,18.335,0,0,0,2.775-3.568l2.738-4a1.528,1.528,0,0,0-.042-1.625c3.209-7.467,5.175-15.427,7.078-23.152,1.216-4.936,2.474-10.04,4.038-14.923.647-2.021,1.37-4.081,2.069-6.073a102.285,102.285,0,0,0,4.268-14.439,12.067,12.067,0,0,1,.28-3.5c.11-.57.239-1.128.356-1.68-.8-4.408-1.614-8.814-2.368-13.23a58.075,58.075,0,0,1-1.032-14.663,39.242,39.242,0,0,1,9.068-21.231,53.665,53.665,0,0,1,19.84-14.619,78.661,78.661,0,0,1,24.692-6.3c9.289-.842,18.908.054,27.41,4.077a1.52,1.52,0,0,0,1.449,1.231,44.453,44.453,0,0,1,21.208,6.949,59.263,59.263,0,0,1,16.551,15.847A69.879,69.879,0,0,1,215.4,53.364,107.486,107.486,0,0,1,219,82.421a231.873,231.873,0,0,1-2.292,29.875q-.235,1.8-.485,3.59a1.612,1.612,0,0,0,1.089,1.917,1.367,1.367,0,0,0,.294.045c2.773,8.367,8.1,24.133,13.567,32.312,1.686,2.523,3.616,5.848,5.659,9.368,1.191,2.052,2.422,4.171,3.682,6.271a1.1,1.1,0,0,1,.155-.646,1.9,1.9,0,0,0,.371.692,126.085,126.085,0,0,1,8.671,11.532c-4.149-1.781-8.964-2.624-13.148-3.354l-.41-.072c-2.974-.52-6-.826-8.935-1.121a99.569,99.569,0,0,1-10.636-1.461h0a1.436,1.436,0,1,0-.593,2.81,101.8,101.8,0,0,0,10.944,1.509c2.88.29,5.858.591,8.729,1.092l.411.072c6.312,1.1,14.169,2.472,18.077,6.962,3.351,3.85,4.741,10.113,5.744,16.308s-2.963,87.039-2.985,87.058c.1,1.049-1.049-.6-1.117,1.067a1.061,1.061,0,0,1-.216.619c0,.056-.01.112-.014.169-.2,2.507-.027,4.984-.044,7.492-.017,2.323-.543,4.611-.5,6.932a1,1,0,0,1-.2.649c0,.014.006.028.009.042-.619,2.912-1.108,5.841-1.583,8.724-1.052,6.4-2.139,13.007-4.663,18.971a68.252,68.252,0,0,1-8.2,13.558c-3.048,4.13-6.456,8.4-10.709,11.636a46.281,46.281,0,0,1-14.488,7.02,9.884,9.884,0,0,1-4.99.625,9.4,9.4,0,0,1-3.962-2.543c-7.391-6.917-12.424-15.974-17.293-24.734a146.082,146.082,0,0,1-9.015-18.155c-1.314-3.415-2.388-7-3.4-10.542a46.066,46.066,0,0,0-3.162-10.1c-1.2-2.659-1.149-3.359-2.249-6.064q-.681-1.675-1.265-3.39c-2.848-1.523-2.041,3.372-2.053,3.408.256,1.526,2.589,6.041,3.006,6.951.06.13.122.261.184.393.738,2.37,1.412,4.757,2.076,7.117q.19.675.382,1.355c-.007.041-.009.083-.017.124a1.693,1.693,0,0,0,.51,1.609c.976,3.405,2.025,6.849,3.3,10.173a148.175,148.175,0,0,0,9.185,18.52l14.184,22.257c1.487,1.392,6.811,5.925,8.926,6.42a8.074,8.074,0,0,0,1.839.2,15.828,15.828,0,0,0,4.659-.885,49.068,49.068,0,0,0,15.374-7.476c4.54-3.457,8.1-7.914,11.279-12.215a70.834,70.834,0,0,0,8.533-14.145c2.657-6.279,3.773-13.063,4.852-19.624.439-2.671.894-5.38,1.45-8.066a2.488,2.488,0,0,1,.348-1.026,1.031,1.031,0,0,1-.057-.313,2.979,2.979,0,0,1,.251-1.134c.015-.067.029-.135.044-.2l.031.012c.037-.193.072-.386.092-.574.164-1.541.278-3.108.4-4.654.131-1.632.166-5.181.172-5.327,0-.035,0-.069-.007-.1-.173-2.019,2.173-25.23,2.855-40.742.605-13.754,1.921-46.309,1.072-51.548" transform="translate(-0.799 0)" fill="#0140be"/>
          <path id="Path_15806" data-name="Path 15806" d="M240.965,130.623c0-.228.006-.456-.005-.684-.006-.119-.02-.237-.028-.355-.012-.055-.019-.112-.031-.167-.024-.112-.052-.223-.085-.332-.019-.06-.04-.118-.06-.177-.06-.1-.1-.206-.164-.3-.029-.045-.059-.089-.088-.133l-.005-.007,0,0c-.091-.092-.173-.192-.268-.281-.055-.052-.115-.1-.171-.15l0,0h0c-.047-.013-.1-.023-.145-.034-.682-1.615-1.406-3.206-2.143-4.768-2.179-4.619-4.619-9.191-6.23-14.052a23.748,23.748,0,0,1-1.2-7.669c.007-2.683.169-5.37.272-8.05q.356-9.285.713-18.569c.022-2.011-3.039-2-3.115,0-.05,4.624-3.436,8.261-7.081,10.677a39.9,39.9,0,0,1-13.131,5.887,16.756,16.756,0,0,1-7.883-.04,1.436,1.436,0,0,0-1.609.571,44.673,44.673,0,0,0-39.68,13.249,1.64,1.64,0,0,0-.247-.021h-.014a1.792,1.792,0,0,0-1.674,1.386,1.631,1.631,0,0,0,.832,1.874,1.93,1.93,0,0,0,.874.209,2.447,2.447,0,0,0,1.829-.944,41.68,41.68,0,0,1,38.971-12.658l.011,0a1.432,1.432,0,0,0,1.279-.365c5.015.885,10.061-.46,14.677-2.5,4.558-2.015,9.279-4.592,12.507-8.484q-.145,3.78-.29,7.559c-.1,2.717-.219,5.433-.312,8.15a31.725,31.725,0,0,0,.492,7.742,40.684,40.684,0,0,0,2.576,7.428c1.014,2.371,2.123,4.7,3.237,7.026,1.555,3.245,3.121,6.5,4.431,9.847a90.23,90.23,0,0,1-17.549,43.036c-4.405,5.82-8.562,9.755-13.083,12.385-5.514,3.206-11.669,4.269-16.89,2.916-6.884-1.784-12.012-7.3-17.531-13.794a1.436,1.436,0,0,0-2.188,1.86c5.841,6.87,11.3,12.719,19,14.714a21.349,21.349,0,0,0,5.358.665,27.529,27.529,0,0,0,13.7-3.879c4.861-2.827,9.287-7,13.929-13.134a93.054,93.054,0,0,0,17.144-38.474,6.546,6.546,0,0,1,.346,2.264c.041,1.045,3.329,9.924.717,22.092-2.94,13.692-11.637,33.769-15.586,42.181l-.191.4a61.489,61.489,0,0,0-4.851,12.694,22.292,22.292,0,0,0,.6,12.716,1.436,1.436,0,0,0,1.019,2.434l1,.01h.016a1.436,1.436,0,0,0,1.274-2.1c-1.743-3.345-2.133-7.764-1.1-12.44a59.388,59.388,0,0,1,4.646-12.094l.191-.406C234,192.67,240.529,178,244.308,162.272a.542.542,0,0,0,.023-.117c1.11-5.82-1.105-25.636-3.366-31.532" transform="translate(-59.113 -27.66)" fill="#0140be"/>
          <path id="Path_15807" data-name="Path 15807" d="M148.1,123.89a3.53,3.53,0,0,1-2.8-1.881,22.664,22.664,0,0,1-3.13-7.816l-.014-.075c-.028-.144-.064-.331-.106-.483a1.436,1.436,0,0,1-1.3-2.461,2.175,2.175,0,0,1,1.64-.544,2.618,2.618,0,0,1,1.794.943,4.312,4.312,0,0,1,.8,2l.013.072a19.739,19.739,0,0,0,2.729,6.815,3,3,0,0,0,.361.476,3.308,3.308,0,0,0,.4-.8l6.432-17.082a1.436,1.436,0,1,1,2.688,1.01v0l-6.432,17.082c-.682,1.814-1.709,2.736-3.051,2.74Zm-5.432-10.584h0Z" transform="translate(-52.872 -38.493)" fill="#0140be"/>
          <path id="Path_15808" data-name="Path 15808" d="M27.33,466.339a2.246,2.246,0,0,1,.29-1.778,26.18,26.18,0,0,1,15.024-12.019,1.436,1.436,0,0,1,.839,2.747h0a23.3,23.3,0,0,0-12.991,10.061c.24.425-.727,1.237-.955,1.669-.287.541-1.986.009-2.2-.682m.636-.952h0Z" transform="translate(-10.275 -170.552)" fill="#0140be"/>
          <path id="Path_15809" data-name="Path 15809" d="M98.4,376.7a1.589,1.589,0,0,0-1.916,1.088c-3.879,10.77-13.154,18.246-22.122,24.973,2.1-10.924,3.193-32.243,1.5-42.99v0a1.436,1.436,0,0,0-2.837.447c1.669,10.6.515,32.134-1.587,42.542a1.431,1.431,0,0,0,.809,1.584l-1.212.905L60.211,413.33a1.607,1.607,0,0,0-.559,2.132,1.569,1.569,0,0,0,2.132.559c6.135-4.586,12.349-9.086,18.372-13.82A73.444,73.444,0,0,0,94.28,388.322a38.229,38.229,0,0,0,5.206-9.709A1.572,1.572,0,0,0,98.4,376.7" transform="translate(-22.406 -135.148)" fill="#0140be"/>
          <path id="Path_15810" data-name="Path 15810" d="M86.494,371.021a1.436,1.436,0,0,1-1.244-2.153l3.114-5.41a1.436,1.436,0,0,1,2.491,1.429l0,0L87.74,370.3a1.437,1.437,0,0,1-1.246.72" transform="translate(-32.061 -136.725)" fill="#0140be"/>
          <path id="Path_15811" data-name="Path 15811" d="M209.162,325.53a.574.574,0,0,1-.458-.227,3.642,3.642,0,0,0-2.644-.93c-11.269-.964-22.682-2.171-33.921-3.591-3.173-.4-6.213-.636-8.5.862a.574.574,0,0,1-.629-.961c2.832-1.854,6.555-1.384,9.274-1.041,11.223,1.417,22.62,2.623,33.875,3.586a4.585,4.585,0,0,1,3.461,1.379.574.574,0,0,1-.457.922Z" transform="translate(-61.345 -120.362)" fill="#0140be"/>
          <path id="Path_15812" data-name="Path 15812" d="M210.318,229.577c-.194,0-.389,0-.583-.014-7.924-.381-13.506-7.3-13.74-7.592a1.486,1.486,0,0,1,1.523-2.366c.219.054,5.379,1.341,7.454,1.978a20.4,20.4,0,0,0,5.66.558h.2c1.228,0,8.762-1.561,13.23-2.546a1.486,1.486,0,0,1,1.382,2.49c-.307.313-7.424,7.49-15.121,7.49m-7.58-5.543a14.342,14.342,0,0,0,7.139,2.561c3.041.144,6.122-1.234,8.569-2.768a67.237,67.237,0,0,1-7.626,1.288h-.2a22.663,22.663,0,0,1-6.52-.689c-.364-.111-.836-.246-1.363-.391" transform="translate(-73.754 -82.759)" fill="#0140be"/>
          <path id="Path_15813" data-name="Path 15813" d="M132.081,247.641a10.344,10.344,0,0,1-4.7-1.281c-8.663-4.448-16.854-8.819-24.346-12.992l-.622-.346a1.558,1.558,0,1,1,1.493-2.734l.645.358c7.462,4.156,15.622,8.511,24.253,12.942,2.2,1.13,3.979,1.226,5.437.3,5.571-3.552,6.172-20.293,5.933-26.444a1.558,1.558,0,0,1,3.113-.121c.1,2.446.7,24.043-7.37,29.192a7.01,7.01,0,0,1-3.839,1.13" transform="translate(-38.297 -81.35)" fill="#0140be"/>
          <path id="Path_15814" data-name="Path 15814" d="M165.313,281.6a104.5,104.5,0,0,1-23.627-3.018c-16.41-3.826-38.135-12.582-49.625-17.46-7.238-3.074-14.339-6.267-19.993-8.99-8.72-4.2-8.865-4.7-9.084-5.446a1.558,1.558,0,0,1,2.723-1.4c3.349,2.586,48.82,23.762,76.685,30.258,27.55,6.423,39.281.219,39.4.156a1.558,1.558,0,0,1,1.523,2.718c-.336.189-5.848,3.178-18,3.178m-99.34-35.794v0m0,0v0" transform="translate(-23.717 -92.23)" fill="#0140be"/>
        </g>
      </g>
      <g id="Group_10500" data-name="Group 10500" transform="translate(39.744 167.838) rotate(-47)">
        <g id="Group_10499" data-name="Group 10499" transform="translate(15.706 0) rotate(25)" clip-path="url(#clip-path-2)">
          <path id="Path_15817" data-name="Path 15817" d="M19.883,33.446q-3.219,0-9.168-5.681l-6.331-6.4v.3L4.362,32.808q0,2.106-1.842,2.106A2.222,2.222,0,0,1,.593,33.85,3.3,3.3,0,0,1,0,31.957q0-4.979.3-14.893t.3-14.872A2.179,2.179,0,0,1,1.2.638,1.973,1.973,0,0,1,2.689,0,2,2,0,0,1,4.2.638a2.177,2.177,0,0,1,.6,1.553q0,2.064-.254,6.426-.254,4.212-.233,6.447,2.837-2.7,6.416-6.787l6.077-7.085A2.027,2.027,0,0,1,19.925,1a2.086,2.086,0,0,1,.656,1.553q0,1.4-5.463,7.489Q11.35,14.191,7.326,18.17q2.541,2.68,7.961,7.7l2.223,1.872a8.765,8.765,0,0,0,2.6,1.4,2.111,2.111,0,0,1,1.673,2.106,2.436,2.436,0,0,1-.445,1.383,1.692,1.692,0,0,1-1.461.808" transform="translate(0 2.249)" fill="#0140be"/>
          <path id="Path_15818" data-name="Path 15818" d="M19.565,31.936a31.627,31.627,0,0,1-7.517,2.021,46.444,46.444,0,0,1-7.707.83,5.455,5.455,0,0,1-3.07-.66A3.743,3.743,0,0,1,0,30.851l.423-7.043q.55-9.744.55-21.617a2.179,2.179,0,0,1,.6-1.553A1.972,1.972,0,0,1,3.07,0,2,2,0,0,1,4.584.638a2.178,2.178,0,0,1,.6,1.553q0,12.021-.572,21.872L4.341,27.3a25.011,25.011,0,0,0-.127,3.128q5.527.064,13.975-2.617a2.4,2.4,0,0,1,.677-.106,1.922,1.922,0,0,1,1.525.723,2.349,2.349,0,0,1,.529,1.511,2.1,2.1,0,0,1-1.355,2" transform="translate(26.333 1.658)" fill="#0140be"/>
          <path id="Path_15819" data-name="Path 15819" d="M4.366,16.035q0-5.541.471-11.619c-.126-.774-.128-1.564-.22-2.342A3,3,0,0,0,3.974.319,1.418,1.418,0,0,0,3.668.112,1.412,1.412,0,0,0,3.225.007,3.246,3.246,0,0,0,1.8.253,1.871,1.871,0,0,0,.664,1.98C.6,2.636.632,3.3.61,3.955c0,.027,0,.054,0,.082H.64Q.046,11.4.047,16.312q0,1.447.137,3.564t.138,3.585c0,1.193-.68,7.651-.064,7.607C1.725,32.485,3.7,31.2,3.8,31.037c.873-1.348.229-3.11.632-4.62.066-.928.1-1.932.1-3.021q0-1.489-.084-3.681t-.085-3.681" transform="translate(51.071 3.189)" fill="#0140be"/>
          <path id="Path_15820" data-name="Path 15820" d="M19.883,33.446q-3.219,0-9.168-5.681l-6.331-6.4v.3L4.362,32.808q0,2.106-1.842,2.106A2.222,2.222,0,0,1,.593,33.85,3.3,3.3,0,0,1,0,31.957q0-4.979.3-14.893t.3-14.872A2.179,2.179,0,0,1,1.2.638,1.973,1.973,0,0,1,2.689,0,2,2,0,0,1,4.2.638a2.177,2.177,0,0,1,.6,1.553q0,2.064-.254,6.426-.254,4.212-.233,6.447,2.837-2.7,6.416-6.787l6.077-7.085A2.027,2.027,0,0,1,19.925,1a2.086,2.086,0,0,1,.656,1.553q0,1.4-5.463,7.489-3.769,4.149-7.792,8.128,2.541,2.68,7.961,7.7l2.223,1.872a8.765,8.765,0,0,0,2.6,1.4,2.111,2.111,0,0,1,1.673,2.106,2.436,2.436,0,0,1-.445,1.383,1.692,1.692,0,0,1-1.461.808" transform="translate(65.361 0)" fill="#0140be"/>
        </g>
      </g>
    </g>
  </g>
</svg>
