<svg xmlns="http://www.w3.org/2000/svg" width="432.913" height="421.7" viewBox="0 0 432.913 421.7">
  <g id="icon2" transform="translate(-1279.052 -1374.563)">
    <path id="Path_15840" data-name="Path 15840" d="M326.82,26.661c15.724,27.587,30.575,91.956,20.092,137.934s-.874,93.27-20.092,111.661-55.036,45.978-80.369,60.428-14.851,43.351-63.771,45.978S5.343,352.448,7.09,269.688-13,117.3,12.331,94.971,123.276-6.181,198.4.387,311.1-.926,326.82,26.661Z" transform="translate(1333.87 1796.263) rotate(-99)" fill="#e5ebf9"/>
    <path id="Path_15836" data-name="Path 15836" d="M7.923,2.429S4.041,0,30.675,0c6.859,4.961,28.3,12.881,28.3,12.881L100.1,14.067,112.732.517,132.308,5.26c7.675,0,2.022,18.955,2.022,26.629v240a13.9,13.9,0,0,1-13.9,13.9H13.9A13.9,13.9,0,0,1,0,271.889v-240C0,24.215.249,2.429,7.923,2.429Z" transform="translate(1347.099 1464.777) rotate(-24)" fill="#fff"/>
    <path id="Path_15822" data-name="Path 15822" d="M0,55.165c.246-1.364,1.967.009,3.3.383a7.4,7.4,0,0,1,3.269,2.476,7.856,7.856,0,0,0,3.234,2.529c2.524.8,5.034-1.093,7.01-2.855L56.239,22.546c2.137-1.906,4.45-4.2,4.348-7.064a9.715,9.715,0,0,0-2.1-4.886A10.293,10.293,0,0,1,56.3,5.736C56.182,3.941,56.119.037,57.918,0" transform="translate(1394.149 1394.283) rotate(19)" fill="none" stroke="#0140be" stroke-linecap="round" stroke-linejoin="round" stroke-width="3"/>
    <path id="Path_15821" data-name="Path 15821" d="M205.9,110.017c20.946,24.539,56.857,64.427,78.033,89.025,3.4,4.877,5.747,11.771,5.142,17.5-.279,2.646-3.876,8.555-6.067,10.531-26.459,26.822-51.486,46.008-80.36,69.05-1.523,1.023-10.516,9.269-17.887,5.9-13.565-6.205-29.022-27.5-34.424-34.2C139.473,255.76,19.427,124.128,2.775,101.926c-3.7-5.551-3.7-11.1,0-18.5,9.251-14.8,70.306-70.306,88.808-81.407,7.4-3.7,12.951-1.85,18.5,1.85,33.3,31.453,59.205,66.606,88.46,97.147" transform="translate(1380.541 1376.299) rotate(19)" fill="none" stroke="#0140be" stroke-linecap="round" stroke-linejoin="round" stroke-width="3"/>
    <path id="Path_15824" data-name="Path 15824" d="M18.461,61.5C4.765,73.839-5.576,82.823,3.312,92.683c4.644,5.155,5.576,5.963,10.307,11.036,15.469,16.585,56.909,63.409,56.909,63.409l98.6,110.031c3.317,3.7,7.143,7.665,12.1,8.045,5.112.39,9.588-3.166,13.471-6.514l59.592-51.4c6.017-5.19,15.976-11.168,18.23-18.788,2.707-9.147-4.909-18.864-11.351-25.9-6.08-6.64-135.547-154.644-157.181-175.022a57.649,57.649,0,0,1-4.222-4.44c-3.362-3.922-11.66-7.2-27.288,9.915" transform="translate(1384.039 1387.126) rotate(19)" fill="none" stroke="#0140be" stroke-linecap="round" stroke-linejoin="round" stroke-width="3"/>
    <g id="Group_10600" data-name="Group 10600">
      <rect id="Rectangle_1114" data-name="Rectangle 1114" width="121.623" height="39.603" rx="19" transform="matrix(0.934, -0.358, 0.358, 0.934, 1393.996, 1548.994)" fill="#0140be"/>
      <g id="Group_10502" data-name="Group 10502" transform="translate(1438.12 1506.299) rotate(19)">
        <path id="Path_15828" data-name="Path 15828" d="M5.689,13.961c3.541-.052,7.464-6.487.968-4.4-8.944,3.3-8.435-8.071-1.1-9.563C7.177,3.345,6.814,1.9,3.9,3.979c-2.356,2.344-.275,3.732,2.7,2.3,9.675-2.848,7.846,8.756.341,10.226L5.689,13.961" transform="translate(0 41.676)" fill="#fff" stroke="#fff" stroke-width="1"/>
        <path id="Path_15829" data-name="Path 15829" d="M11.018,8.457c-.063-.009-.843-.8-.887-.654-1.65,7.889-12.043,2.289-4.165-4.608C4.929,1.572,2.043,4.578,1.844,5.9L0,4.647c.947-3.284,6.883-6.9,9.147-2.859a59.227,59.227,0,0,0,4.168,4.749l-2.3,1.92M7.479,4.835C5.088,6.147,5.6,9.6,8,8.248c1.3-1.091.414-2.507-.518-3.413" transform="translate(10.556 38.376)" fill="#fff" stroke="#fff" stroke-width="1"/>
        <path id="Path_15830" data-name="Path 15830" d="M8.425,15.821,3.141,9.5l-1.074.9L.5,8.517C2.838,7.136-.414,6.773.045,3.682A5.1,5.1,0,0,1,3.122,0L4.661,2.046c-1.3.439-2.027,1.882-.892,3.023.3,1.025,1.6-.816,1.994-.954L7.334,5.995,5.707,7.354l5.284,6.323Z" transform="translate(17.626 27.27)" fill="#fff" stroke="#fff" stroke-width="1"/>
        <path id="Path_15831" data-name="Path 15831" d="M4.517,7.708c1.811,1.811,4.637-1,5.6-2.6,2.835,1.615,1.132,2.583-.769,4.432C4.046,14.658-3.66,6.071,1.965,1.18,5.017-1.409,8.291.7,9.8,3.292L4.517,7.708M6.061,3.455c-1.625-2.311-4.779.379-3.019,2.523L6.061,3.455" transform="translate(26.017 26.054)" fill="#fff" stroke="#fff" stroke-width="1"/>
        <path id="Path_15832" data-name="Path 15832" d="M0,1.219,1.459,0,9.883,10.079l4.829-4.037,1.025,1.224-6.29,5.257Z" transform="translate(30.977 18.555)" fill="#fff" stroke="#fff" stroke-width="1"/>
        <path id="Path_15833" data-name="Path 15833" d="M2.129.457C3.184,1.53,1.256,3.237.3,1.983-.744.825,1.185-.8,2.129.457M9.177,12.228,2.393,4.112,3.869,2.877,10.653,11Z" transform="translate(39.113 12.276)" fill="#fff" stroke="#fff" stroke-width="1"/>
        <path id="Path_15834" data-name="Path 15834" d="M1.9,6.653C1.2,5.815.611,5.141,0,4.512c1.457-1.318,1.238-1.224,2.513.178-.5-3.338,3.54-7.056,7.2-2.739L13.762,6.8,12.286,8.031C10.464,6.539,7.49-.02,4.493,2.525,1.3,5.183,7.082,9.261,8.328,11.34L6.852,12.573Z" transform="translate(45.363 8.652)" fill="#fff" stroke="#fff" stroke-width="1"/>
        <path id="Path_15835" data-name="Path 15835" d="M7.739,7.831c0-1.018-.006-5.218.024-6.345L9.54,0C8.623,8.738,9.5,5.352,16.76,7.753l-1.8,1.5L8.912,7.7l-.054,1.47,2.551,3.052-1.459,1.22L0,1.536,1.457.317Z" transform="translate(51.571 0)" fill="#fff" stroke="#fff" stroke-width="1"/>
      </g>
      <path id="Path_16070" data-name="Path 16070" d="M20.983,8.725l.388.041c-1.259-.039-2.577-.17-3.876-.313,2.8.842,6.12,1.628,8.387.189.2.829,2.94,1.323,3,1.124q.869-.187,1.756-.3c-.406.042-.81.09-1.212.15.4-.06.806-.109,1.212-.15a52.888,52.888,0,0,1,11.924.376c1.158.107,3.313.232,5.478.371,2.167.115,4.345.231,5.538.36l1.043.072-1.161-.139c1.458-.226,2.777-.453,4.052-.6a2.6,2.6,0,0,0-.8-.386l.651.073a13.035,13.035,0,0,1,2.594-.51c-.135.182.373.2.821.217L60.6,9.187c1.7.021,3.66-.156,5.176-.23a.86.86,0,0,1,.472.1L67.7,8.849c-.1.243,1.219.147.534.332,1.071-.324,2.188-.251,3.2-.621l2.811-.277c.946-.121,1.9-.274,2.854-.427a54.94,54.94,0,0,0,5.681-1.209l-.108-.073c.33-.089.626-.193.958-.307a3.127,3.127,0,0,0,.54-.2l.476-.327a7.562,7.562,0,0,1,1.893-1.019c.893-.771,2.295-1.615,2.488-2.257,1.171-.624,1.539-1.074,2.663-1.744-.413-.084,1.018-.8.353-.708-.934.055-.849.341-1.637.4l.057.065q-2.452.841-4.87,1.789l-2.357.941c-.086.027-.085-.008-.635.059l-1.268.141a62.941,62.941,0,0,1-7.048.979c-2.543.3-5.293.7-7.491.988a3.269,3.269,0,0,1-1.368-.18c-2.02.228-4.614.181-6.9.38l.113.007c-1.221.052-2.139-.193-3.329-.141.006.07-.179.076-.268.113C54.832,5.259,48,6.2,47.575,6c-.124.013-.253.024-.385.03-2.524-.194-5.116-.886-7.285-.9-.475.139-1.01.257-1.413.418-.378-.152-.462.117-.923.065-1.149-.7-1.846-.45-1.25-.2-.97.052-1.937-.042-2.8-.052l-1.2.109a.753.753,0,0,1-.695-.226c-.877.056-.612-.095-1.525-.2-.211-.238-2.313.266-2.568.186l.151-.027c-1.056-.084-1.74-.558-2.774-.622-2.868-.295-6.023-.261-8.689-.454-.037.238.591-.028.608.29-1.571-.11-3.15-.464-4.739-.569a3.563,3.563,0,0,1-.759-.29c-.5-.109-.3.1-.676.057L10.613,3.4c-.552.158-.788-.266-1.305-.194-.03.086-.218.092-.4.079,0-.229-.563,0-.528-.21l-.006.017a1.057,1.057,0,0,1-.321-.039c-.212.074-2.192.638-2.406.729l-.1-.041c-.292,0-.423.163-.253.21l-.361-.022.042-.015-.359-.021a.131.131,0,0,1-.033-.229,1.169,1.169,0,0,1-.639.068,14.514,14.514,0,0,1,1.844.621,6.185,6.185,0,0,1-.945-.045,8.054,8.054,0,0,0-1.455-.419c-.111.011-.194.265-.442.146-.118-.179-.284,0-.49-.132a1.7,1.7,0,0,1,.72-.026c-.037-.209-.589-.155-.78-.218-.092.063-.56-.015-.857.035.133-.2-.236-.133-.408-.245-.2-.028-.328.049-.248.122-.069.216.789.149.507.37C1.321,3.834.93,3.862.72,3.867c0,.119.142.093,0,.2C.491,4.039.241,4.176.11,4.05c.044-.032.14-.008.208,0-.3-.019,1.662-.738,1.268-.678.1.108-1.745.665-1.543.677.184.063-.136.212.054.257l.216-.139c.26.05.364.26.27.34-.438-.029,1.262-.782.885-.671l.151.059a.96.96,0,0,1-.748,0c0,.117-.218.154-.4.193L.412,4.066c-.185.055-.441.022-.325.179,1.075.006-.728,1.177.31,1.269-.431-.27.152-.263.61-.282a.912.912,0,0,0,.571.3c.285-.014.17-.091.226-.156.156.062.457.118.414.253.226-.158.352.112.619.062.236-.069-.014-.071.155-.145.351.025.844.059,1.123.1.1.13.428.365.182.558-.532-.039.212-.319-.344-.289.231.3-.493.069-.6.288a1.316,1.316,0,0,0,.831.116l-.058-.04A2.028,2.028,0,0,1,5.2,6.357c-.071.1.052.181-.143.2l.362.03c.047-.031.1-.062-.008-.089a.556.556,0,0,1,.474.041c.035.11,1.947-.394,1.886-.327.262.005.32.17.579.069a15.393,15.393,0,0,0-2.168.266c.219.126,2.985-.447,3.14-.235.195,0,.43-.018.388-.129.326.064-.106.206.123.317.006-.017-.017-.055.058-.049l.219.146c.515-.155,1.252.1,1.794-.106a1.9,1.9,0,0,1-.691.41l-.058-.06c-.05.032-.333.059-.33.169a1.7,1.7,0,0,0,.95-.018c.062.032.135.065.183.1a.185.185,0,0,1,0-.043c.109.073.1.083.054.125a.072.072,0,0,1-.025.024c.191.33,1.287-.154,1.874.037.177-.039.019-.055.24-.108a16.741,16.741,0,0,0,1.648.367c.209-.13.228-.185-.011-.34l.478.066c-.453.35.881.391.383.739a1.075,1.075,0,0,0,.694.072c.031-.092.081-.24.418-.225.465.144.355.094.739.229.087.125-.058.166-.046.264.608-.129.512.286,1.08.286.357-.02,1.058,0,1.085-.216.478.03.47.186.415.356" transform="translate(1427.596 1564.905) rotate(-23)" fill="#a7cdff"/>
    </g>
    <g id="Group_10601" data-name="Group 10601">
      <path id="Path_15837" data-name="Path 15837" d="M5.068,11.487c2.7-2.084,6.358-.314,7.91-4.02s3.04-3.011,3.706-2.548S21.956-.639,25.725.056s20.84,17.684,21.062,25.1-3.529,8.024-4.859,12.656-10,11.663-16.2,11.894S12.514,47.3,6.261,41.744.934,36.418.934,34.1.229,23.762.007,22.141s4.578-2.316,5.06-1.853S2.368,13.571,5.068,11.487Z" transform="translate(1487.55 1559.213) rotate(19)" fill="#e5ebf9"/>
      <g id="Group_10599" data-name="Group 10599" transform="translate(1470.66 1551.76) rotate(19)">
        <path id="Path_15826" data-name="Path 15826" d="M15.665,22.032,3.959,10.72,0,5.151V1.378L1.18,0,7.669,3.621l11.323,9.713,4.037,3.924Z" transform="translate(1.853 2.456)" fill="#e5ebf9"/>
        <path id="Path_15827" data-name="Path 15827" d="M58.105,43.968c-6.157,5.952-11.232,8.64-16.459,8.712-6.242.087-12.675-3.525-20.25-11.36-5.027-5.2-3.536-10.109-2.3-13.5-3.082-2.833-6.133-5.758-9.058-8.786C2.554,11.292-2.39,6.176,1.19,2.715,3.181.791,8.819,4.559,22.706,17.107a7.043,7.043,0,0,1,1.536-5.369,4.59,4.59,0,0,1,5.523-.71,4.964,4.964,0,0,1,1.4-4.823c2.266-2.191,4.557-.89,5.954.307a6.318,6.318,0,0,1,2.063-4.986C41.165-.4,43.624-.5,46.488,1.211A35.893,35.893,0,0,1,53.08,7.031l.2.205a54.138,54.138,0,0,1,11.068,16.3c2.411,5.952,2.263,10.657-.418,13.247a7.15,7.15,0,0,1-.616.52c-.122.1-.239.187-.337.274a29.945,29.945,0,0,1-4.871,6.392M20.4,29.011C19.337,32.075,18.51,36,22.565,40.192c7.142,7.388,13.377,10.946,19.059,10.864,4.781-.067,9.519-2.611,15.356-8.252A28.159,28.159,0,0,0,61.6,36.7a1.064,1.064,0,0,1,.159-.213,6.832,6.832,0,0,1,.549-.461,6.027,6.027,0,0,0,.487-.407c4.84-4.677-1.619-17.865-10.687-27.249l-.2-.207A34.842,34.842,0,0,0,45.65,2.608C43.435,1.279,41.742,1.3,40.3,2.7a4.986,4.986,0,0,0-1.251,5.454c.109.376.294,1-.3,1.347-.607.352-.982-.039-1.806-.89-2.377-2.459-3.582-2.27-4.659-1.229-.992.958-1.769,2.749.165,5.832.424.677.117,1.06-.1,1.232-.586.455-1.093-.07-1.332-.324-.1-.105-.237-.246-.411-.427-1.412-1.46-3.525-2.433-5.242-.775a5.5,5.5,0,0,0,.15,6.7.812.812,0,0,1-1.09,1.2c-.44-.355-1.364-1.19-2.64-2.344-2.91-2.631-7.306-6.607-11.382-9.817-6.894-5.428-8.048-4.8-8.094-4.772C.019,6.108,3.993,10.437,11.211,17.9c6.429,6.653,13.484,12.833,20.165,18.59a.813.813,0,0,1-1.062,1.23c-3.258-2.8-6.6-5.7-9.915-8.712" transform="translate(0 0)" fill="#0140be" stroke="#0140be" stroke-width="1"/>
      </g>
    </g>
  </g>
</svg>
