<svg id="icon5" xmlns="http://www.w3.org/2000/svg" width="537.216" height="427.858" viewBox="0 0 537.216 427.858">
  <g id="Group_10545" data-name="Group 10545" transform="translate(0)">
    <path id="Path_16054" data-name="Path 16054" d="M355.349,2458.553c11.012-39.329-56.633-94.389-14.158-138.437s5.506-79.837,50.341-111.693,66.465,8.652,121.132,0,78.657-45.621,130.571-42.475S692,2202.131,754.927,2227.3s129,51.914,103.828,103.828-23.6,14.158-39.329,66.072,18.878,59.779,0,94.388-103.827,12.585-176.192,12.585-25.17,29.89-141.583,34.609S344.337,2497.882,355.349,2458.553Z" transform="translate(-327.025 -2165.759)" fill="#e5ebf9"/>
    <path id="Path_16055" data-name="Path 16055" d="M501.39,2213.086c-5.79,23.251-5.418,23.6-7.428,48.768s-28.754,53.487-41.339,69.218-22.024,72.365-20.451,77.084,11.012,102.254,12.585,116.413,131.477,39.758,133.05,28.746c.936-6.552-16.971-19.211,0-28.746,7.151-30.843-7.645-56.971,0-55.06,30.986,19.45,115.507,12.585,126.519,0s18.878-26.744,23.6-34.609,29.89,15.731,36.182,7.866,40.9-75.511,53.487-78.657,37.755-84.95,37.755-102.254-151.022-64.5-151.022-64.5-12.585,59.779-14.158,73.938-9.439,36.182-20.451,34.609-72.365,15.731-72.365,15.731,18.878-64.5,18.878-77.084-4.719-26.744-6.293-37.755-24.122-30.939-62.926-25.7S507.18,2189.835,501.39,2213.086Z" transform="translate(-375.969 -2128.134)" fill="#fff"/>
    <path id="Path_16010" data-name="Path 16010" d="M152.424,106c-5.574,19.365-11.382,38.654-17.251,57.924-.357,1.17-.633,1.3-1.76.825q-16.643-7.061-33.284-14.125L40.939,125.5q-14.227-6.04-28.453-12.077c-1.063-.451-1.148-.614-.917-1.763Q15,94.58,18.439,77.5q4.186-20.769,8.38-41.536c.293-1.452.525-1.606,1.855-1.169Q44.7,40.069,60.722,45.337L124.211,66.23l27.478,9.044q3.359,1.107,6.717,2.214a1.369,1.369,0,0,1,1.05,1.584,30.714,30.714,0,0,1-.627,3.29c-1.879,7.955-4.148,15.8-6.406,23.639m4.535-27.219q-11.97-3.905-23.923-7.867-12.194-4.016-24.391-8.029L52,44.251q-11.458-3.77-22.907-7.561c-.684-.227-.782.042-.9.606q-4.082,20.343-8.183,40.681-3.345,16.61-6.711,33.215c-.142.7.208.843.664,1.037q8.976,3.8,17.95,7.61L58.7,131.207a63.963,63.963,0,0,0,6.993,2.972q4.6,1.954,9.2,3.905c-.033.116,13.11,5.585,13.14,5.577q16.6,7.054,33.2,14.1,5.775,2.452,11.548,4.91c.937.4.931.4,1.229-.573q6.226-20.334,12.23-40.74c3.658-12.434,7.339-24.862,10.536-37.437.324-1.275.559-2.574.874-3.853.172-.7.011-1.051-.7-1.282" transform="translate(307.756 49.255)" fill="#0140be"/>
    <path id="Path_16011" data-name="Path 16011" d="M3.589,161.425c.355-.223.717-.452,1.078-.691,6.434-4.267,12.818-8.817,18.992-13.218,3.12-2.224,6.325-4.508,9.494-6.724l-.787-.66,1.126.422q1.115-.778,2.221-1.543,3.2-2.211,6.289-4.338c8.255-5.69,16.052-11.066,24.231-16.93.344-.246.709-.476,1.077-.707s.772-.485,1.137-.75a20.39,20.39,0,0,1,1.792-1.187,6.54,6.54,0,0,1,.155-1.959c.645-4.15,1.485-8.261,2.323-12.371q5.8-28.47,12.217-56.8c1.107-4.9,2.189-9.808,3.509-14.653a1.7,1.7,0,0,1,.772-1.166h4.513c3.046.911,6.1,1.8,9.138,2.735,15.156,4.671,30.255,9.535,45.354,14.4Q176.15,54.3,204.07,63.343q13.255,4.29,26.5,8.615a2.293,2.293,0,0,1,1.23.665v1.027c-.065.209-.138.416-.194.628-1.3,4.848-2.579,9.7-3.9,14.547q-7.136,26.055-14.457,52.055c-2.473,8.771-4.941,17.544-7.5,26.29a3.6,3.6,0,0,1-2.782,2.821c-.1.023-.194.046-.289.071l.024.256c.356,3.76-1.063,5.462-3.026,7.818-.249.3-.508.61-.773.937-4.439,5.477-8.756,11.125-12.931,16.588-4.316,5.646-8.779,11.484-13.483,17.283-3.514,4.33-7.03,8.795-10.429,13.112-4.317,5.481-8.781,11.15-13.423,16.784-1.026,1.246-2.053,2.6-3.046,3.914-.95,1.255-1.933,2.552-2.943,3.794-.153.189-.311.392-.474.6-1.017,1.3-2.282,2.928-4.152,3.3a7.5,7.5,0,0,1-1.456.142,13.017,13.017,0,0,1-4.415-1c-.624-.221-1.27-.45-1.909-.622l-.1-.044c-12.193-7.937-24.7-15.634-36.786-23.076-9.736-5.993-19.8-12.189-29.572-18.431-10.6-6.772-21.622-13.532-31.346-19.5-2.123-1.3-4.236-2.646-6.473-4.07-2.839-1.805-5.773-3.673-8.777-5.477-.923-.556-1.852-1.163-2.836-1.806l-.915-.6c-.993-.644-2.065-1.254-3.1-1.843C5.641,175.455.789,172.7,0,165.308c.105-1.685,1.8-2.752,3.589-3.883m194.246,5.759a.644.644,0,0,0-.1-.979,1.152,1.152,0,0,0-1.02.084c-.061.078-.035.242.068.448.091.053.179.112.267.171a1.071,1.071,0,0,0,.783.276M70.979,115.958a10.715,10.715,0,0,0-1.163.873c9.333,3.86,125.28,52.457,125.7,52.589,1.107.346,1.564-.157,2.482.789l.2.211.053-.069c.141-.19.518-.747.679-.931-5.585-2.332-127.653-53.293-127.956-53.462M182.3,161.174a1.8,1.8,0,0,0,.979-.153.329.329,0,0,0,.173-.485h0c-.229-.522-1.244-.726-1.918-.526-.374.111-.558.3-.551.566.025.031.059.055.087.084l1.229.514M58.456,129.252c2,.917,4.063,1.865,6.171,2.7.851-.54,1.653-1.138,2.43-1.718.7-.519,1.411-1.052,2.17-1.551a85.019,85.019,0,0,0-9.79-4.244,22.221,22.221,0,0,1-2.3,1.728,23.82,23.82,0,0,0-2.086,1.542c1.148.5,2.3,1.031,3.41,1.542m-4.1,5.075c1.976.9,4.016,1.833,5.951,2.88.485-.371.978-.735,1.471-1.1,1.131-.836,2.3-1.7,3.333-2.625-2.25-.9-4.439-1.916-6.561-2.9-1.494-.694-3.036-1.41-4.579-2.075l-.194.127a51.528,51.528,0,0,0-4.59,3.228c1.683.876,3.453,1.685,5.17,2.468m113.256,63.347a46.463,46.463,0,0,0-5.06-2.322c-.33.4-.672.783-1.013,1.17-.457.518-.927,1.05-1.362,1.6,1.571.662,3.108,1.413,4.6,2.142,1.7.828,3.445,1.684,5.246,2.408a12.23,12.23,0,0,1,.888-1.079,6.63,6.63,0,0,0,1.269-1.777c-1.589-.625-3.1-1.394-4.566-2.139M50.236,148.109a36.033,36.033,0,0,0,4.744,2.5c.6.278,1.2.558,1.789.847.709-.654,1.472-1.271,2.213-1.871a30.963,30.963,0,0,0,3-2.648c-.365-.186-.728-.374-1.093-.561-1.588-.819-3.23-1.664-4.937-2.353-1.2.979-2.519,1.882-3.8,2.757-.643.439-1.286.878-1.915,1.328m124.229,18.4c-1.978-.855-4.022-1.738-6.065-2.552a29.078,29.078,0,0,1-1.983,2.18,25.047,25.047,0,0,0-2.173,2.432c1.192.493,2.372,1.027,3.518,1.545a67.636,67.636,0,0,0,6.4,2.63c.359-.446.729-.884,1.1-1.322a27.1,27.1,0,0,0,2.613-3.45c-1.142-.481-2.277-.972-3.411-1.462M85.879,129.048c-1.907-.727-3.9-1.526-5.768-2.45a21.379,21.379,0,0,1-4.441,3.21l-.072.043a23.874,23.874,0,0,0,3.123,1.451,26.017,26.017,0,0,1,3.026,1.385c.332-.278.669-.552,1-.827a28.646,28.646,0,0,0,3.127-2.813M68.543,148.733c.411.179.838.366,1.294.576.287.132.648.344,1.031.568a6.082,6.082,0,0,0,2.309,1.017c.251-.019.654-.477.948-.812a6.258,6.258,0,0,1,.569-.6c.481-.415.971-.773,1.445-1.118a10.5,10.5,0,0,0,1.983-1.708,27.193,27.193,0,0,1-3-1.35,22.7,22.7,0,0,0-3.455-1.494,26.42,26.42,0,0,1-2.253,1.838,20.8,20.8,0,0,0-2.663,2.26c.583.294,1.172.551,1.789.82m71.377,18.491c-1.7-.8-3.454-1.625-5.251-2.325a20.032,20.032,0,0,1-1.981,2.068,14.5,14.5,0,0,0-2.39,2.659c1.587.652,3.145,1.386,4.654,2.1,1.312.617,2.666,1.255,4.034,1.837a44.069,44.069,0,0,0,4.284-4.8c-1.136-.5-2.259-1.025-3.35-1.538m-6.5-3c-1.3-.523-2.562-1.108-3.79-1.675-1.394-.644-2.832-1.31-4.3-1.877a12.784,12.784,0,0,1-2.537,2.531,15.452,15.452,0,0,0-2.049,1.914c.746.347,1.487.7,2.229,1.056,1.932.926,3.927,1.881,5.993,2.675q.481-.481.964-.96c1.185-1.176,2.407-2.388,3.492-3.664m-22.332-3.611c.985.449,1.962.927,2.91,1.39,1.747.853,3.551,1.734,5.43,2.451.681-.637,1.381-1.259,2.08-1.881.9-.8,1.822-1.62,2.69-2.463-1.2-.486-2.367-1.039-3.5-1.576a46.5,46.5,0,0,0-4.848-2.078c-.543.474-1.127.923-1.693,1.358a16.223,16.223,0,0,0-3.071,2.8m-4.6-8.432c-.566.544-1.168,1.069-1.752,1.578a27.9,27.9,0,0,0-2.8,2.675c.926.4,1.843.834,2.733,1.251,1.6.75,3.252,1.524,4.966,2.156a42.141,42.141,0,0,0,4.741-4.056c-2.416-1.2-5.113-2.526-7.889-3.6m-3.693,1.611a10.1,10.1,0,0,0,2.275-2.335c-1.107-.415-2.164-.911-3.189-1.391-1.132-.531-2.3-1.079-3.521-1.509-.516.419-1.042.832-1.568,1.244-1.076.845-2.185,1.715-3.193,2.637,2.386,1.229,4.78,2.343,7.127,3.315a16.091,16.091,0,0,1,2.069-1.961m-5.865-5.9a52.484,52.484,0,0,0-7.078-3.157,20.867,20.867,0,0,1-2.265,1.972,19.8,19.8,0,0,0-2.246,1.962c1.026.5,2.062.991,3.1,1.482,1.2.571,2.411,1.142,3.607,1.731.482-.381.978-.75,1.475-1.12a24.524,24.524,0,0,0,3.409-2.87m-8.4-3.805c-.758-.343-1.509-.7-2.238-1.054-1.343-.646-2.731-1.312-4.163-1.867a16.288,16.288,0,0,1-2.755,1.973,17.613,17.613,0,0,0-2.449,1.706l1.47.654c1.876.834,3.754,1.67,5.647,2.493.583-.539,1.218-1.041,1.835-1.528a19.071,19.071,0,0,0,2.653-2.377m5.334,1c.76.306,1.544.621,2.308.956a21.785,21.785,0,0,1,1.893-1.756,15.994,15.994,0,0,0,2.274-2.219c-1.179-.437-2.309-.955-3.406-1.458-1.125-.516-2.287-1.049-3.485-1.485-.54.4-1.06.805-1.579,1.215a32.165,32.165,0,0,1-3.19,2.3,32.995,32.995,0,0,0,5.186,2.444m7.77-2.362a33.539,33.539,0,0,0-2.968,2.769c-.422.426-.842.85-1.259,1.251q.91.409,1.815.824c1.744.794,3.544,1.615,5.38,2.339a28.773,28.773,0,0,1,2.175-2.285c.6-.588,1.224-1.194,1.782-1.827a16.213,16.213,0,0,0-2.989-1.551l-.519-.231a13.3,13.3,0,0,0-3.418-1.289m5.261,8.242c.845.353,1.718.717,2.695,1.169.337.156.731.378,1.148.614a6.408,6.408,0,0,0,2.738,1.108c.515-.064,1.128-.812,1.62-1.413a8.443,8.443,0,0,1,.663-.752c.251-.236.5-.45.739-.656a6.873,6.873,0,0,0,1.292-1.316l-.3-.141c-1.075-.507-2.186-1.031-3.454-1.566-.164-.069-.429-.19-.752-.34a18.061,18.061,0,0,0-3.533-1.382,45.49,45.49,0,0,0-3.819,4.27c.319.135.639.269.961.4m16.967,7.678q3.02,1.366,6.071,2.712l2.438,1.084c.6-.706,1.255-1.376,1.889-2.026a31.922,31.922,0,0,0,2.287-2.518c-1.092-.444-2.154-.942-3.184-1.425a41.975,41.975,0,0,0-5.065-2.108,19.367,19.367,0,0,1-2.272,2.2,19.357,19.357,0,0,0-2.163,2.081m12.205,1.781c-.775.823-1.573,1.671-2.413,2.48a61.3,61.3,0,0,0,7.976,3.676,42,42,0,0,0,4.353-4.5c-2.511-1.259-5.18-2.348-7.766-3.4l-.34-.138c-.617.618-1.222,1.262-1.81,1.885m6.93,6.929c1.458.547,2.864,1.2,4.227,1.837a51.9,51.9,0,0,0,4.908,2.081c.727-.672,1.414-1.391,2.08-2.089.766-.8,1.554-1.627,2.414-2.394a48.256,48.256,0,0,0-7.381-3.378c-.653-.256-1.3-.511-1.953-.773a23.79,23.79,0,0,1-2.115,2.309,21.767,21.767,0,0,0-2.18,2.408M130,175.3a15.632,15.632,0,0,0,2.862-3.22c-1.386-.676-2.813-1.324-4.2-1.952s-2.784-1.264-4.158-1.933a19.75,19.75,0,0,1-2.63,2.517,20.253,20.253,0,0,0-2.453,2.32,68.051,68.051,0,0,0,8.689,4.159c.588-.67,1.247-1.289,1.885-1.891m-16.6-12.29q-1.419-.657-2.834-1.32c-1.612-.754-3.224-1.506-4.844-2.244a24.968,24.968,0,0,1-2.506,2.193,21.719,21.719,0,0,0-2.7,2.417c1.034.477,2.055.991,3.047,1.49,1.623.817,3.3,1.66,5.05,2.348a21.009,21.009,0,0,1,2.146-2.1,14.718,14.718,0,0,0,2.645-2.786m-11.871-5.481a49.906,49.906,0,0,0-4.782-2.143c-.761.674-1.579,1.318-2.37,1.943-.977.771-1.982,1.564-2.883,2.414,1.126.573,2.3,1.111,3.436,1.633,1.38.633,2.8,1.286,4.166,2.011,1.786-1.382,3.561-2.894,5.282-4.5-.971-.433-1.923-.9-2.848-1.356m-8.619-4.02c-1.561-.72-3.172-1.464-4.793-2.139-1.727,1.416-3.422,2.884-5.018,4.282,1.2.479,2.341,1.066,3.445,1.635a34.776,34.776,0,0,0,3.749,1.749c.868-.787,1.8-1.535,2.71-2.261.838-.671,1.7-1.362,2.505-2.079-.871-.39-1.735-.789-2.6-1.187m-10.49-4.907c-.963-.418-1.957-.85-2.9-1.341-.847.665-1.675,1.366-2.478,2.046-.842.712-1.708,1.444-2.607,2.146a49.47,49.47,0,0,0,6.059,2.992c.408.179.816.358,1.224.54l.343-.268a57.212,57.212,0,0,0,4.683-3.934,28.084,28.084,0,0,0-4.326-2.18m1.472-10.872a22.535,22.535,0,0,0-2.22,1.855c.778.328,1.534.695,2.268,1.05a32.248,32.248,0,0,0,3.422,1.494c.677-.566,1.413-1.093,2.126-1.605a27.3,27.3,0,0,0,2.637-2.058c-.912-.409-1.844-.8-2.75-1.185-1.071-.452-2.176-.918-3.249-1.412a23.44,23.44,0,0,1-2.235,1.861m33.227,14.511a18.88,18.88,0,0,0-2.327,2.331c1.166.481,2.313,1.011,3.424,1.526,1.4.648,2.844,1.318,4.329,1.885.685-.672,1.413-1.321,2.118-1.95.838-.748,1.7-1.518,2.488-2.324-1.314-.474-2.574-1.044-3.8-1.6a45.219,45.219,0,0,0-4.275-1.76,24.389,24.389,0,0,1-1.962,1.888m38.879,17c-.858.861-1.743,1.749-2.518,2.695q1.344.61,2.682,1.233c2.15.993,4.371,2.02,6.615,2.954.668-.816,1.41-1.586,2.131-2.331a32.792,32.792,0,0,0,2.372-2.641c-3.462-1.374-6.5-2.692-9.262-4.019-.645.729-1.343,1.43-2.021,2.11m-1.865,4.335q-1.469-.651-2.934-1.306c-2.152-.96-4.3-1.917-6.455-2.852a41.513,41.513,0,0,0-4.317,4.82c2.739,1.439,5.652,2.725,8.473,3.97l.51.225a31.707,31.707,0,0,1,2.367-2.431,30.325,30.325,0,0,0,2.356-2.427m-10.81,3.371c-1.4-.563-2.749-1.229-4.054-1.874a46.439,46.439,0,0,0-4.952-2.21c-1.328,1.211-2.571,2.527-3.773,3.8-.4.42-.792.839-1.192,1.257,1.522.773,2.918,1.432,4.388,2.127l1.507.713c.179.086.5.264.873.474a14.373,14.373,0,0,0,2.2,1.1c.2-.062.713-.776.931-1.082a4.988,4.988,0,0,1,.4-.525c.267-.268.566-.561.882-.87a38.128,38.128,0,0,0,2.784-2.914M123.2,167.628c-3.016-1.445-5.976-2.8-8.516-3.947a32.306,32.306,0,0,1-2.528,2.566c-.79.744-1.6,1.51-2.319,2.328,1.579.654,3.105,1.416,4.586,2.155,1.173.586,2.383,1.191,3.611,1.737.727-.732,1.517-1.426,2.283-2.1a33.835,33.835,0,0,0,2.884-2.74M80.893,140.5c-1.02-.421-2.034-.864-3.019-1.295-1.3-.568-2.643-1.155-4-1.687-.695.562-1.427,1.105-2.136,1.631-.874.649-1.773,1.316-2.6,2.019.842.383,1.673.788,2.482,1.181,1.284.625,2.609,1.27,3.97,1.828a24.861,24.861,0,0,1,2.537-1.738,21.079,21.079,0,0,0,2.764-1.94m3.9-5.165c-.817-.345-1.613-.724-2.388-1.093a33.858,33.858,0,0,0-4.157-1.756c-.658.51-1.388.971-2.1,1.419a17.721,17.721,0,0,0-2.834,2.062c.936.392,1.867.793,2.8,1.194,1.38.594,2.806,1.207,4.231,1.785.574-.475,1.164-.938,1.754-1.4.9-.71,1.836-1.441,2.691-2.209m-.341-3.238c-.418.45-.82.882-1.226,1.267.72.3,1.433.61,2.147.921,1.317.573,2.675,1.167,4.067,1.674.513-.444,1.056-.872,1.581-1.286a23.707,23.707,0,0,0,2.633-2.288l-.731-.315c-.689-.295-1.391-.6-2.16-.935-.188-.083-.446-.211-.743-.359-.7-.352-2.567-1.285-2.95-1.055a13.221,13.221,0,0,0-2.618,2.376M96.8,139.214l.651.268c1.549-1.206,3.062-2.4,4.513-3.627-.966-.364-1.908-.77-2.824-1.164a43.609,43.609,0,0,0-4.3-1.671l-.489.45a29.278,29.278,0,0,1-3.591,2.969,54.462,54.462,0,0,0,6.039,2.775m1.981.911c.919.371,1.826.77,2.707,1.158,1.483.652,3.016,1.326,4.605,1.87.387-.305.779-.606,1.172-.906a33.773,33.773,0,0,0,3.282-2.736c-1.432-.571-2.844-1.187-4.216-1.784-1.031-.45-2.062-.9-3.1-1.331a16.988,16.988,0,0,1-2.45,2.093,20.548,20.548,0,0,0-2,1.636m43.854,19.052c.574-.6,1.207-1.162,1.822-1.705A19.428,19.428,0,0,0,147,154.919c-1.247-.462-2.46-.988-3.638-1.5-1.531-.665-3.112-1.351-4.753-1.887a18.979,18.979,0,0,1-2.039,1.985,16.69,16.69,0,0,0-2.139,2.123c2.659,1.206,5.4,2.444,8.2,3.536m17.18,7.5c.982.4,1.995.813,2.978,1.255a24.3,24.3,0,0,0,2.566-2.591c.547-.61,1.11-1.239,1.719-1.832a67.491,67.491,0,0,0-6.871-2.989c-.762-.3-1.525-.6-2.281-.9a42.222,42.222,0,0,1-4.112,4.246,42.881,42.881,0,0,0,6,2.814m1.281,10.042a51.907,51.907,0,0,0-5.727-2.46,28.308,28.308,0,0,1-2.333,2.385,26.414,26.414,0,0,0-2.4,2.476c1.606.641,3.175,1.374,4.7,2.085,1.7.794,3.449,1.612,5.251,2.3,1.49-1.8,2.837-3.452,4.067-5.156-1.213-.512-2.4-1.08-3.553-1.632m-7.764,5.193.157-.194c-1.089-.493-2.165-1-3.24-1.509-1.851-.875-3.762-1.778-5.7-2.58a27.343,27.343,0,0,1-2.272,2.38,21.653,21.653,0,0,0-2.679,2.926c1.972.827,3.883,1.8,5.736,2.736,1.039.527,2.111,1.071,3.185,1.584a46.64,46.64,0,0,0,4.81-5.342M68.8,150.172c-1.827-.878-3.714-1.785-5.656-2.545-.85.835-1.793,1.613-2.705,2.368-.838.693-1.7,1.406-2.489,2.16,1.363.625,2.68,1.337,3.958,2.029,1.41.763,2.866,1.55,4.379,2.217.621-.506,1.276-.993,1.911-1.467a25.617,25.617,0,0,0,3.816-3.249c-1.089-.491-2.166-1.009-3.213-1.512m38.632-6.252c.437.183.867.356,1.309.533.662.266,1.351.542,2.128.88.323.141.707.348,1.113.569a6.246,6.246,0,0,0,2.582,1.005c.513-.064,1.13-.749,1.626-1.3a8.456,8.456,0,0,1,.7-.718c.235-.2.469-.388.7-.568a7.5,7.5,0,0,0,1.33-1.237c-2.347-1.034-4.7-2.017-7-2.925a24.3,24.3,0,0,1-1.937,1.565,16.419,16.419,0,0,0-2.541,2.2m9.576,2.609a3.288,3.288,0,0,0-1.119,1.033c.966.407,1.92.832,2.875,1.259,1.552.692,3.155,1.409,4.793,2.025.408-.366.832-.72,1.255-1.075a17.3,17.3,0,0,0,3.021-2.976c-1.107-.418-2.187-.886-3.236-1.34-1.417-.613-2.88-1.247-4.4-1.749-.9.877-1.672,1.594-2.422,2.244a8.855,8.855,0,0,1-.771.577m7.93,4.981c1.085.451,2.165.927,3.215,1.388,1.612.71,3.276,1.442,4.966,2.09.526-.52,1.076-1.027,1.61-1.52.894-.826,1.815-1.676,2.622-2.582-1.3-.5-2.578-1.06-3.816-1.6-1.374-.6-2.792-1.217-4.231-1.756-1.62,1.34-3.1,2.74-4.366,3.98m21.3,6.093a19.187,19.187,0,0,0-2.26,2.225c.959.4,1.907.817,2.857,1.234,1.835.807,3.729,1.64,5.68,2.333.558-.634,1.177-1.225,1.778-1.8a19.15,19.15,0,0,0,2.423-2.616c-1.432-.5-2.807-1.115-4.14-1.708-1.358-.6-2.76-1.225-4.207-1.728a21.764,21.764,0,0,1-2.132,2.059M164,176.789c1.729.648,3.4,1.421,5.022,2.171,1.649.762,3.352,1.55,5.11,2.2a20.171,20.171,0,0,1,1.887-2.479,16.607,16.607,0,0,0,2.044-2.776c-1.1-.468-2.184-.95-3.271-1.432-2.039-.905-4.144-1.84-6.28-2.654a29.9,29.9,0,0,1-2.2,2.407A27.437,27.437,0,0,0,164,176.789m-14.718,16.224c1.583.639,3.116,1.39,4.6,2.118,1.623.8,3.3,1.619,5.04,2.291.275-.344.581-.659.879-.965a6.188,6.188,0,0,0,1.426-1.888c-1.483-.631-2.933-1.337-4.339-2.022-1.669-.813-3.392-1.653-5.159-2.359a8.764,8.764,0,0,1-1.163,1.292,6.364,6.364,0,0,0-1.287,1.534m-3.837-1.908q1.27.624,2.543,1.244a16.439,16.439,0,0,1,1.266-1.443,15.363,15.363,0,0,0,1.239-1.413c-1.481-.637-2.915-1.365-4.306-2.07a59.546,59.546,0,0,0-5.4-2.515c-.3.367-.619.715-.931,1.053a13,13,0,0,0-1.465,1.787c2.386,1.064,4.757,2.228,7.054,3.356m11.789,7c-2.878-1.44-5.852-2.928-8.919-4.142a12.373,12.373,0,0,1-1.2,1.414,10.434,10.434,0,0,0-1.24,1.487c3.05,1.679,6.2,3.4,9.487,4.835.313-.392.653-.763.982-1.123a11.275,11.275,0,0,0,1.639-2.1Zm-10.212-4.928c-1.467-.668-2.923-1.38-4.333-2.071-1.678-.82-3.411-1.668-5.157-2.438a8.387,8.387,0,0,1-1.058,1.169,5.2,5.2,0,0,0-1.291,1.637c1.314.629,2.618,1.309,3.88,1.968,1.776.928,3.611,1.886,5.5,2.71a13.388,13.388,0,0,1,.977-1.041,5.5,5.5,0,0,0,1.483-1.933m-16.575-13.339c-.889,1.075-1.893,2.08-2.867,3.053a41.109,41.109,0,0,0-2.991,3.21c1.268.591,2.511,1.247,3.717,1.884a57.72,57.72,0,0,0,5.6,2.7c1.978-2.1,3.845-4.327,5.652-6.49-2.649-1.3-5.489-2.663-9.112-4.358m-1.3-.578c-3.43-1.765-7.112-3.6-10.932-5.193l0,.2-.191.1a8.031,8.031,0,0,0-2.059,1.793c-.342.37-.7.754-1.074,1.1-.327.3-.694.568-1.048.83a5.05,5.05,0,0,0-1.682,1.666c2.128,1.023,4.248,2.125,6.3,3.191,1.568.814,3.188,1.654,4.805,2.458q.514-.518,1.03-1.032c1.642-1.64,3.337-3.333,4.844-5.11m-20.458-9.927c-12.112-5.873-23.555-11.423-35.23-16.862-.5.385-1.01.762-1.52,1.141a36.274,36.274,0,0,0-4.225,3.473c7.264,3.749,14.762,7.55,22.017,11.229,6.846,3.472,13.924,7.061,20.94,10.671a57.622,57.622,0,0,0,6.241-5.667q-4.124-2-8.223-3.985M43.012,144.523a26.536,26.536,0,0,1,2.705,1.356,21.054,21.054,0,0,0,3.363,1.6c.873-.722,1.84-1.381,2.777-2.019a34.2,34.2,0,0,0,2.884-2.114c-1.21-.536-2.4-1.111-3.559-1.668-.917-.441-1.833-.883-2.76-1.306a14.489,14.489,0,0,1-2.814,2.179,14.846,14.846,0,0,0-2.6,1.975m17.356.281a56.1,56.1,0,0,0,5.091,2.427,25.885,25.885,0,0,1,2.264-1.853,19.579,19.579,0,0,0,2.709-2.32c-.928-.36-1.812-.784-2.67-1.2a25.628,25.628,0,0,0-3.833-1.59,22.866,22.866,0,0,1-1.892,1.577,13.683,13.683,0,0,0-2.657,2.446c.33.169.658.341.988.511m5.978-10.677a54.18,54.18,0,0,1-4.652,3.585,25.216,25.216,0,0,0,3.327,1.621c.847.362,1.721.736,2.547,1.17a28.3,28.3,0,0,0,4.953-3.646c-.809-.341-1.592-.721-2.353-1.091a30.248,30.248,0,0,0-3.823-1.64m10.521-2.378c-1.529-.539-3-1.174-4.426-1.79-.621-.268-1.243-.536-1.869-.8a18.329,18.329,0,0,1-2.1,1.6,14.366,14.366,0,0,0-2.386,1.9,25,25,0,0,1,2.653,1.16,19.68,19.68,0,0,0,3.334,1.366,18.982,18.982,0,0,1,2.265-1.589,15.013,15.013,0,0,0,2.533-1.852m1.987-5.553a23.213,23.213,0,0,0-4.5-1.984c-.614-.222-1.229-.443-1.833-.68a21.979,21.979,0,0,1-1.832,1.386,14.574,14.574,0,0,0-2.413,1.963c.883.345,1.741.731,2.577,1.1,1.069.48,2.173.975,3.316,1.38q.8-.544,1.6-1.093c1-.689,2.029-1.4,3.087-2.077m-.335-1.543a27.513,27.513,0,0,0,3.107,1.287,10.523,10.523,0,0,1,.834-.822,8.611,8.611,0,0,0,.868-.869,33.938,33.938,0,0,1-3.159-1.3,32.866,32.866,0,0,0-3.109-1.276,4.8,4.8,0,0,1-1,.972,5.3,5.3,0,0,0-.752.682,27.572,27.572,0,0,1,3.212,1.324m30.754,13.056c1.436.636,2.919,1.292,4.47,1.8.2-.233.418-.446.631-.653a4.574,4.574,0,0,0,.993-1.207c-.875-.35-1.738-.725-2.577-1.089a49.227,49.227,0,0,0-4.964-1.945,6.2,6.2,0,0,1-1.035,1.086,8.332,8.332,0,0,0-.691.663c1.085.416,2.145.886,3.174,1.341m7.616,3.219c.474.2.98.409,1.512.636.313.134.674.309,1.052.492a7.168,7.168,0,0,0,2.6.938c.445-.079.706-.61.982-1.172a6.647,6.647,0,0,1,.448-.813c-1.137-.447-2.264-.921-3.358-1.382s-2.249-.947-3.391-1.395c-.193.216-.395.425-.6.632a9.2,9.2,0,0,0-1.1,1.271c.538.241,1.158.5,1.856.791m11.8,4.968c1.141.492,2.283.986,3.439,1.461a5,5,0,0,1,.9-1.15,5.1,5.1,0,0,0,.706-.848c-1.124-.451-2.233-.941-3.31-1.415-1.821-.8-3.7-1.631-5.658-2.276a6.624,6.624,0,0,1-.7.9,4.552,4.552,0,0,0-.783,1.082c1.838.7,3.654,1.486,5.412,2.246m7.3,3.128c1.616.671,3.286,1.364,4.889,2.128a7.6,7.6,0,0,0,1.892-2.066c-1.072-.4-2.115-.851-3.127-1.29a40.956,40.956,0,0,0-4.731-1.824,7.91,7.91,0,0,1-.845,1.019,7.524,7.524,0,0,0-.758.905c.887.384,1.783.756,2.68,1.128m11.063,4.633c1.421.594,2.888,1.207,4.372,1.756a10.534,10.534,0,0,0,1.62-2.1l-.8-.315c-1.015-.4-2.2-.87-3.487-1.415-.408-.173-.886-.405-1.385-.648a9.3,9.3,0,0,0-3.205-1.187c-.548.068-.89.638-1.252,1.241a7.488,7.488,0,0,1-.529.8c1.589.578,3.149,1.23,4.664,1.863m7.643,3.238c.633.285,1.314.591,2.039.9.344.146.768.35,1.222.567a10.544,10.544,0,0,0,3.105,1.176c.221-.025.511-.384.745-.671a5.807,5.807,0,0,1,.4-.455c.1-.094.194-.186.291-.278a4.7,4.7,0,0,0,.606-.639c-1.354-.5-2.675-1.061-3.957-1.608-1.576-.673-3.2-1.366-4.878-1.931a8.825,8.825,0,0,1-.837,1.13,9.14,9.14,0,0,0-.717.942c.6.243,1.25.536,1.985.868M165,161.212a63.577,63.577,0,0,0,6.91,2.732,7.589,7.589,0,0,1,.843-1.034,6.14,6.14,0,0,0,.85-1.07c-1.487-.525-2.924-1.147-4.318-1.75-1.6-.693-3.255-1.409-4.969-1.969a5.35,5.35,0,0,1-.986,1.022,4.516,4.516,0,0,0-.906.949c.864.364,1.719.743,2.575,1.121m14.807,6.305c.9.356,1.82.725,2.724,1.111a11.248,11.248,0,0,0,.7-.949,10.411,10.411,0,0,1,.879-1.153,46.809,46.809,0,0,0-5.939-2.657c-1.125-.442-2.287-.9-3.405-1.4-.074.1-.147.2-.219.3a9.645,9.645,0,0,1-1.4,1.663,45.2,45.2,0,0,0,6.658,3.079m-.592,1.113c-.437.592-.916,1.159-1.38,1.708a17.667,17.667,0,0,0-2.308,3.182c1.989.822,3.971,1.716,5.891,2.583,2.456,1.108,4.992,2.254,7.575,3.26.585-.829,1.218-1.632,1.831-2.41.656-.833,1.332-1.691,1.944-2.574-4.116-1.8-8.847-3.858-13.553-5.749m.068,7.945a18.4,18.4,0,0,1-1.989,2.661,17.734,17.734,0,0,0-1.935,2.588c1.5.6,2.956,1.281,4.372,1.945,1.333.625,2.71,1.27,4.108,1.838.617-.8,1.266-1.589,1.9-2.352.765-.927,1.554-1.882,2.279-2.86-2.777-1.325-5.722-2.693-8.731-3.82m-1.669,7.56c-3.825-1.779-7.778-3.617-11.851-5.093a23.6,23.6,0,0,1-1.9,2.51,21.384,21.384,0,0,0-1.968,2.63c3.16,1.556,6.437,3.057,9.611,4.511,2.358,1.081,4.794,2.2,7.183,3.335.494-.665,1.046-1.291,1.582-1.9a15.037,15.037,0,0,0,2.6-3.591c-1.769-.786-3.538-1.609-5.252-2.405m-10.08,4.041c-4.156-1.972-8.45-4.01-12.8-5.755-.637.828-1.351,1.609-2.044,2.364a26.846,26.846,0,0,0-2.593,3.135q2.5,1.2,5,2.409c5.844,2.821,11.884,5.736,17.943,8.531,1.464-1.556,2.785-3.254,4.065-4.9q.4-.518.805-1.034c-3.526-1.5-7-3.154-10.369-4.752m-8.244,10.982q-.611.75-1.233,1.5c-.489.59-.978,1.181-1.461,1.777,1.148.559,2.294,1.145,3.405,1.715,2.025,1.037,4.116,2.109,6.265,3.028a16.406,16.406,0,0,0,2.814-3.448,101.155,101.155,0,0,0-9.79-4.568M44.745,141.634c.257-.183.514-.356.766-.525a9.334,9.334,0,0,0,1.753-1.383,33.2,33.2,0,0,1-3.04-1.434c-.827-.426-1.682-.864-2.563-1.236-.82.615-1.7,1.2-2.545,1.764-1.015.676-2.058,1.371-3.007,2.121a13.141,13.141,0,0,1,2.319,1.287c1.155.741,2.354,1.51,3.264,1.444a4.884,4.884,0,0,0,2.212-1.357c.3-.254.578-.495.84-.681m8.578-.242.807.38c.3.139.69.353,1.119.588a9.027,9.027,0,0,0,2.774,1.209c.182-.015.675-.471.912-.69.107-.1.208-.193.3-.271l1.049-.9c.883-.752,1.66-1.416,2.428-2.119q-1.77-.842-3.53-1.69c-3.686-1.769-7.494-3.6-11.31-5.267-.407.3-.812.595-1.217.893-1.214.9-2.465,1.817-3.788,2.674,2.954,1.665,6.928,3.532,10.457,5.189m9.215-17.056c.389.144.793.294,1.214.466a12.018,12.018,0,0,1,1.133.573,4.856,4.856,0,0,0,2.1.813c.451-.044,1.09-.636,1.6-1.111.238-.22.46-.426.654-.574.247-.189.471-.384.691-.573a8.326,8.326,0,0,1,1.211-.925,39.332,39.332,0,0,0-5.866-2.513,16.323,16.323,0,0,1-2.339,1.674,17.314,17.314,0,0,0-2.1,1.474c.541.264,1.11.475,1.705.7m11.475-1.583a7.646,7.646,0,0,1,.889-.782,5.511,5.511,0,0,0,.978-.908q-1.365-.531-2.722-1.075c-1.516-.6-3.081-1.228-4.642-1.808a6.437,6.437,0,0,1-1.093.813,6.4,6.4,0,0,0-.919.664c2.36,1.051,4.823,2.066,7.508,3.1m9.642,3a3.95,3.95,0,0,0-.783.779c2.386,1.055,4.3,1.829,6.14,2.481a6.991,6.991,0,0,1,.776-.676,3.844,3.844,0,0,0,1-1.005c-.921-.336-1.811-.722-2.677-1.1a36.255,36.255,0,0,0-3.556-1.393,4.583,4.583,0,0,1-.905.912m6.757,3.918c.792.328,1.572.68,2.332,1.021,1.307.588,2.655,1.194,4.057,1.683.179-.186.353-.378.526-.57a13.347,13.347,0,0,1,1.153-1.172,18.285,18.285,0,0,0-2.386-1.064l-.53-.211c-.36-.144-.783-.348-1.218-.556a7.313,7.313,0,0,0-2.226-.836c-.507.046-.831.507-1.205,1.041a7.332,7.332,0,0,1-.5.664m8.56,2.3a6.518,6.518,0,0,0-.913,1c1.679.673,3.348,1.365,5.018,2.059l1.716.711c.2-.192.42-.377.635-.561a7.427,7.427,0,0,0,1.2-1.192c-.872-.359-1.736-.733-2.6-1.106-1.382-.6-2.809-1.216-4.252-1.761a9.123,9.123,0,0,1-.805.845m95.162,40.866a5.913,5.913,0,0,0,1.384-1.775c-1.743-.58-3.407-1.309-5.02-2.014-1.654-.724-3.362-1.472-5.137-2.049a5.824,5.824,0,0,1-.82,1.182,5.151,5.151,0,0,0-.741,1.062c1.554.584,3.071,1.265,4.54,1.923,1.7.764,3.465,1.553,5.283,2.193.166-.177.338-.35.511-.522m-47.51,60.981c-2.195,2.564-4.465,5.216-6.545,7.936-.258.337-.536.749-.831,1.185-.983,1.456-2.1,3.105-3.372,3.464a6.3,6.3,0,0,1-4.142-.308,4.806,4.806,0,0,0,4.2.606,7.382,7.382,0,0,0,2.266-2.078l.02-.138.036.071c.4-.491.8-1.008,1.174-1.487.317-.41.618-.8.9-1.141,1.444-1.771,2.757-3.433,3.916-4.9l.2-.249q2.461-3.114,4.933-6.2c-.89,1.06-1.8,2.13-2.749,3.234M56.244,197.767c.359.24.724.5,1.1.76A18.381,18.381,0,0,0,61,200.7a5.417,5.417,0,0,0-1.31-.794c-.295-.145-.584-.286-.833-.44-.344-.212-.686-.455-1.028-.7a10.631,10.631,0,0,0-1.587-1m109.809,12.072c-3.33,4.047-6.5,8.04-9.864,12.268l-.3.376.007.026q5.265-6.473,10.449-12.764a.245.245,0,0,0-.293.094M2.3,165.059c.134,1.1,1.454,1.8,2.729,2.481.274.146.544.289.8.435,3.486,1.987,6.668,3.96,9.743,5.869,10.436,6.471,25.588,15.758,39.008,23.57a.932.932,0,0,1,.229-.9c.632-.555,2.021.135,4.416,1.642,2.149,1.351,3.655,2.38,3.456,3.324a1.056,1.056,0,0,1-.738.725c4.272,2.6,8.67,5.287,13.14,8.017,9.626,5.88,19.58,11.959,29.35,17.846,6.3,3.8,13.443,8.164,22.48,13.748.346.214.707.447,1.081.687,2.406,1.551,5.394,3.48,7.948,2.452,3.072-3.777,6.143-7.616,9.113-11.331,6.481-8.1,13.18-16.481,20.034-24.359-28.847-14.931-57.036-29.271-84.3-43.141-16.31-8.3-31.715-16.134-47.138-24.031l-.083,0c-3.646,2.5-7.316,5.081-10.866,7.582-6.146,4.33-12.5,8.806-19.044,13.048a3.022,3.022,0,0,1-.773,1.13c-.413.433-.644.7-.584,1.2m195.334,5.721q-.932-.347-1.863-.7l1.251.541.418.181-3.525,4.427c-8.707,10.935-17.71,22.243-27.067,33.34l-.131.155q.136.118.266.245l.279-.34c8.747-10.647,17.008-20.7,25.173-31.177.77-.989,1.642-2.015,2.564-3.1.982-1.155,1.992-2.346,2.868-3.484Zm2.372-.5c-.242.311-.5.623-.764.943-.2.245-.411.493-.615.746-1.215,1.521-2.468,3.065-3.71,4.6-1.47,1.811-2.924,3.6-4.283,5.316-6.1,7.686-12.061,15.007-18.374,22.759-3.829,4.7-7.694,9.448-11.621,14.316-.271.334-.6.691-.953,1.069-.731.787-1.64,1.764-1.638,2.266v.16l-.659.481,0-.013v.009l.006.146-.19.206c-.048.051-.1.1-.143.157-.025.028-.049.06-.072.091s-.055.072-.085.108l-.278.35c-.1.117-.19.234-.281.356l-.061.085c-.17.238-.329.485-.488.731l-.046.065c-3,3.395-5.9,7.008-8.694,10.5-2.511,3.135-5.1,6.376-7.8,9.488l.009.031-.134.146c-.129.141-.26.282-.391.42l-.085.087c-.272.287-.547.57-.823.853l-.322.33a6.19,6.19,0,0,0-.623.555l-.351.266-.039-.068a2.144,2.144,0,0,1-.358.069l-.09.012c.028.108.058.217.089.327l.182.644-.627-.221c-.093-.032-.186-.061-.281-.089l-.194-.106-.056-.178c-.007-.022-.013-.045-.02-.067l-.426.018.018.162-1.784-.281-.025-.1a.721.721,0,0,1-.246-.066l.039.174-.677-.38q-.335-.189-.678-.355l-.017-.009a7.106,7.106,0,0,0-.66-.278l-.166-.06-.061-.215c-4.225-2.579-8.467-5.214-12.569-7.763-7.853-4.88-15.973-9.927-24.041-14.605-.445-.345-.813-.612-1.155-.842-.533-.359-1.1-.7-1.846-1.122l-.128-.072-.029-.109-.032-.009.024.094-1.275-.7,0,.017-.678-.395c-.112-.065-.225-.132-.335-.2l-.1-.06-.009-.022.029.224-.7-.657c-.083-.077-.169-.148-.256-.219l-.176-.146-.011-.042-.048-.024-.062-.039a10.323,10.323,0,0,0-1.995-1.2.759.759,0,0,0-.4-.1h-.1l-.085-.054c-16.345-10.449-33.613-21.177-51.323-31.886-.743-.448-1.476-.923-2.21-1.4A46.741,46.741,0,0,0,26.748,183c-.539-.356-1.122-.719-1.89-1.177l-.82-.486v0l-.684-.409c-.2-.121-.4-.241-.609-.369l-.091-.076-.046-.052-.023.037-1.624-.961-.064-.293c-2.927-1.606-5.755-3.4-8.493-5.128-2.37-1.5-4.817-3.039-7.34-4.476a2.969,2.969,0,0,1,.094.314c.19.809.011,1.41-.467,1.568l-.367.121-.582-2.84.012,0c-.1-.077-.194-.158-.294-.234a.883.883,0,0,0-.3-.138l-.2-.057-.05-.06a2,2,0,0,0-.234-.13l-.1-.071-.253-.012-.038-.345h0l-.032.358-.291.053-.1-.282c-.035-.1-.072-.2-.112-.286.047.182.1.363.146.541l.034.12-.049.115a.758.758,0,0,0,.239.907c.051.033.1.069.178.124l.1.109.133.266,0,.094a.8.8,0,0,0,.332.679l.073.086a5.756,5.756,0,0,0,.522.721l.055.09a2.762,2.762,0,0,0,.125.26l-.035-.173.82.841c.1.106.21.21.322.306l.09.077.044.213c5.827,4.175,12.2,7.96,18.362,11.621l.457.272-.114-.333.9.684c.113.086.23.169.347.25l.112.079.05.234a3.269,3.269,0,0,1,.754.433c.217.153.491.343.621.324l.14-.017.112.086c.179.137.359.271.539.4l.1.078.027.123a3.935,3.935,0,0,0,.6.367c.1.052.2.1.315.172l.149.1.081.057.207.131c.118.076.239.144.36.213l.345.2c.144.082.287.164.459.254l8.637,5.426c16.8,10.556,34.166,21.471,52,32.349.369.331.748.649,1.126.945a27.772,27.772,0,0,0,3.844,2.582c.285.155.59.309.9.448l.053.023c.206.09.417.17.628.241l.186.091.013.047c3.147,1.952,6.335,3.9,9.536,5.862,5.538,3.388,11.264,6.891,16.8,10.424.654.417,1.308.857,1.966,1.3a29.558,29.558,0,0,0,6.423,3.6l-.045-.158.708.368c.168.087.335.164.5.233l.187.134.007.035a2.114,2.114,0,0,0,1.05.314l-.053-.2.868-.105.076.348c1.058.352,2.445.322,2.881-.3l.048-.069.212-.109c.149-.076.3-.153.439-.238l.112-.042a1.109,1.109,0,0,0,.872-.588l.035-.075.065-.051a6.926,6.926,0,0,0,1.189-1.14,1.958,1.958,0,0,0,.405-.817l.018-.088.058-.068c1.859-2.178,3.544-4.3,5.329-6.548,1.3-1.637,2.644-3.33,4.089-5.083.522-.633,1.054-1.354,1.617-2.117.518-.7,1.052-1.428,1.647-2.179.262-.33.617-.719.993-1.129a11.124,11.124,0,0,0,2.049-2.687l.057-.148.148-.053c.12-.044.143-.1.153-.123.067-.159.145-.311.25-.518l.039-.059c6.514-8.132,14.186-17.73,21.71-27.27,2.043-2.589,4.081-5.239,6.052-7.8,3.159-4.107,6.425-8.355,9.725-12.366.466-.567.966-1.131,1.471-1.7,2.354-2.656,4.785-5.4,4.445-9.2a3.784,3.784,0,0,1-1.337-.133M226.1,73.244q-20.252-6.68-40.506-13.356-16.058-5.282-32.128-10.524-19.771-6.441-39.555-12.831c-6.932-2.235-13.863-4.474-20.85-6.518-.966-.283-1.907.106-2.859-.129-.322-.079-.33.405-.4.673-1.122,4.241-2.088,8.524-3.056,12.806Q80.879,69.3,75.492,95.353c-1.245,6.018-2.5,12.037-3.5,18.105q-.048.288-.1.577c-.072.54.329.661.671.809.408.178.816.352,1.224.529a1.253,1.253,0,0,1,1.663-.015l.109.079.028.133a3.646,3.646,0,0,0,.1.356c.031.1.062.2.087.307,1.1.476,2.2.955,3.3,1.427,1.18.507,2.362,1.008,3.542,1.514a1.98,1.98,0,0,1,1.281-.138l.127.022.081.1a2.148,2.148,0,0,1,.385.815q27.762,11.881,55.611,23.542,19.51,8.2,39.048,16.339a1.982,1.982,0,0,1,1.225-1.2h0c1.669-.647,4.055-.237,4.808,1.387a1.734,1.734,0,0,1-.093,1.859,1.827,1.827,0,0,1-.3.312l5.266,2.2q2.681,1.118,5.372,2.209a3.841,3.841,0,0,1-.169-.522l-.024-.1.034-.1a1.832,1.832,0,0,1,2.22-.947,2.225,2.225,0,0,1,1.863,2.372l-.018.087a1.108,1.108,0,0,1-.5.594l.733.3c.816.334.824.333,1.1-.569,3.163-10.188,6.067-20.459,9.013-30.716q5.864-20.409,11.527-40.878c1.96-7.093,3.933-14.183,5.71-21.329.3-1.2.3-1.2-.826-1.571M204.13,166.8c2.287-7.682,4.447-15.4,6.627-23.117q7.067-25.008,13.938-50.075c1.756-6.392,3.47-12.8,5.2-19.195.045-.164.077-.333.131-.572.012-.436-.411-.374-.687-.493-.437-.187-.45.166-.514.45-.73,3.211-1.582,6.389-2.435,9.566-4.019,14.972-8.228,29.886-12.477,44.788-3.768,13.216-7.483,26.448-11.533,39.575-.053.175-.216.378-.07.55s.348-.009.522-.04c.779-.138,1.077-.7,1.3-1.437" transform="translate(244.431 50.628)" fill="#0140be"/>
    <path id="Path_16012" data-name="Path 16012" d="M96.883,276.946l1-1.232v-.026l-1,1.258" transform="translate(302.143 -2.204)"/>
    <path id="Path_16013" data-name="Path 16013" d="M162.779,220.764l.288-.25c3.423-2.981,7.384-5.888,11.215-8.7,1.654-1.214,3.364-2.469,5-3.707.647-.489,1.289-1.051,1.911-1.594a22.046,22.046,0,0,1,3.389-2.6,9.836,9.836,0,0,1,4.876-.758l.241.007.213.114c5.229,2.806,11.495,5.932,17.555,8.956,2.167,1.082,4.325,2.158,6.428,3.215l.2.1c2.065,1.034,3.112,1.653,3.474,2.375a2.558,2.558,0,0,1-.318,2.954,1.672,1.672,0,0,0-.235.378l-.084.369-.3.229c-3.058,2.344-5.944,4.936-8.736,7.441-1.82,1.635-3.7,3.325-5.633,4.948l-.15.127-.016,0c-.214.2-.7.709-1.13,1.162a42.973,42.973,0,0,1-5.611,5.242,6.4,6.4,0,0,1-3.192.774,5.722,5.722,0,0,1-1.986-.329,9.718,9.718,0,0,1-2.139-1.318c-.415-.3-.844-.617-1.233-.852-3.455-2.081-7.344-4.307-11.1-6.462-3.993-2.287-8.122-4.651-11.615-6.776l-.17-.129a4.731,4.731,0,0,1-.6-.723,2.828,2.828,0,0,0-.347-.43l-.32-.281-.032-.427a11.576,11.576,0,0,1,.1-2.685Zm1.883,2.539c.125.149.234.3.333.44s.187.26.271.354c3.446,2.094,7.519,4.427,11.459,6.683,3.77,2.159,7.67,4.392,11.144,6.484.468.282.935.624,1.387.955a8.779,8.779,0,0,0,1.642,1.049,4.7,4.7,0,0,0,3.331-.236,42.841,42.841,0,0,0,5.25-4.942,13.438,13.438,0,0,1,1.543-1.518c1.876-1.58,3.718-3.234,5.5-4.835,2.746-2.465,5.582-5.011,8.61-7.352a3.867,3.867,0,0,1,.448-.737c.289-.4.314-.433.167-.73a15.337,15.337,0,0,0-2.571-1.495l-.207-.1c-2.1-1.057-4.257-2.132-6.422-3.213-5.991-2.988-12.182-6.078-17.394-8.868a7.907,7.907,0,0,0-3.55.492,20.239,20.239,0,0,0-3.059,2.361c-.648.567-1.319,1.153-2.024,1.686-1.646,1.247-3.363,2.508-5.023,3.726-3.684,2.7-7.491,5.5-10.783,8.335a9.545,9.545,0,0,0-.053,1.465" transform="translate(130.444 13.279)" fill="#0140be"/>
    <path id="Path_16014" data-name="Path 16014" d="M139.8,278.709c6.077,1.5,9.54-19.208,9.54-19.208a57.5,57.5,0,0,0,15.432-5.736c4.871-2.7,13.673-8.483,16.168-7.925,6.473,1.445,4.8.178,6.6,12.7s22.352,31.669,5.114,38.935-4.647-.992-15.715,6.256c-2.767,1.811-6.281-7.271-9.75-10.3-10.4-9.085-27.393-14.726-27.393-14.726" transform="translate(166.766 4.175)" fill="#fff"/>
    <path id="Path_16015" data-name="Path 16015" d="M207.091,171.992c5.1-1.292,14.715-.8,14.715-.8,2.641,5.674,20.463-14.268,20.463-14.268s8.08-4.152,16.3-.8c5.156,2.1,15.21,8.2,16.339,10.5,2.929,5.95,6.889,13.188-5.58,15.341-19.07,3.293-40.871,12.927-62.237,11.536" transform="translate(35.43 23.594)" fill="#fff"/>
    <path id="Path_16016" data-name="Path 16016" d="M66.314,20.091a21.531,21.531,0,0,0-3.506,2.68l-.084.079a4.758,4.758,0,0,0-2.771,2.371c-.13.219-.243.448-.357.674a3.362,3.362,0,0,0-.466.415c-2.463,2.622-5.106,5.034-8.538,6.317a.714.714,0,0,0-.54.929c.958,4.377-.159,8.486-1.578,12.554-.116.333-.237.67-.363,1.017a.372.372,0,0,0-.253.232,58.277,58.277,0,0,0-2.293,5.483,12.876,12.876,0,0,0-.43,1.908,10.671,10.671,0,0,0-.521,1.018,13.254,13.254,0,0,1-8.218,7.5,33.333,33.333,0,0,0-5.96.59c-.156-.029-.308-.057-.456-.082-.4-.067-.927-.077-1.105-.409-.582-1.09-1.175-.533-1.817-.128-2.8,1.765-5.687,3.375-8.584,4.966-.272.15-.547.315-1.071.62a17.592,17.592,0,0,0-2.565,1.461c.032-.041.065-.071.1-.113-1.414.482-2.618,1.115-3.825,1.65-4.55,1.266-6.339-.855-6.35-.857a2.642,2.642,0,0,1-.842-.607,3.409,3.409,0,0,1-.344-.919c-.09-.352-.164-.705-.255-1.053a1.163,1.163,0,0,0,.228-.571c.357-3.52,2.594-5.8,5.056-7.933.446-.385.934-.72,1.413-1.062.5-.357.353-.521-.135-.714A39.974,39.974,0,0,1,6.33,56.1a8.206,8.206,0,0,1-2.517-3.608C1.439,46.109-.181,39.562.016,32.675c.07-2.477.463-4.922,2.134-6.9A5.469,5.469,0,0,1,7.485,23.6,2.157,2.157,0,0,0,9.3,23.172c2.629-1.9,5.254-3.8,7.925-5.629.765-.523.854-.868.249-1.6A50.977,50.977,0,0,1,11.8,7.457c-.378-.7-1.008-1.543.039-2.112s1.377.444,1.757,1.138a54.876,54.876,0,0,0,12.99,15.885c4.24,3.543,8.779,6.59,14.092,8.256,4.542,1.423,8.827,1.022,12.729-1.906,3.278-2.461,5.86-5.685,9.128-8.507-2.3-.321-4.372-.433-6.394-.918a37.276,37.276,0,0,1-24-17.257A1.556,1.556,0,0,1,32.115,0h1.1c.315.455.637.906.943,1.367C41.677,12.7,52.129,18.277,65.586,17.96c.626-.015,1.211,0,1.454.69s-.181,1.114-.726,1.441m-18.206,14.2c-.112-.6-.32-.958-.992-.89-4.682.478-8.876-1.1-12.893-3.283A53.37,53.37,0,0,1,20.276,19.19c-.559-.61-.918-.668-1.614-.164-4.235,3.067-8.509,6.076-12.774,9.1-1.4.995-1.579.966-2.588-.359a8.844,8.844,0,0,0-1.2,4.689C1.832,39.084,3.373,45.388,5.64,51.524c1.328,3.6,4.289,4.875,7.8,5.162a3.608,3.608,0,0,0,1.174-.231c.319-.086.662-.288.959-.134,1.292.668,2.579.1,3.866.044.182-.008.363-.059.545-.055.615.009,1.1.254,1.168.929a.986.986,0,0,1-.961,1.134,17.766,17.766,0,0,1-3.7.4c-2.531-.19-4.461,1.024-6.271,2.5C8.3,62.824,6.433,64.471,5.769,67.055a3.01,3.01,0,0,0,.764,2.983,2.313,2.313,0,0,0,2.678.305,65.543,65.543,0,0,0,7.261-3.44,145.59,145.59,0,0,0,12.919-7.61c.654-.432,1.464-1.31,2.161-.222.669,1.046-.376,1.47-1.03,1.965-.171.13-.35.251-.644.459a6.415,6.415,0,0,0,3.633.308c3.816-.522,6.973-2.34,8.693-5.886a71.776,71.776,0,0,0,5.761-15.531,15.077,15.077,0,0,0,.144-6.1" transform="translate(357.796 325.652) rotate(-169)" fill="#0140be"/>
    <path id="Path_16017" data-name="Path 16017" d="M219.84,221.766a5.791,5.791,0,0,0-.846-1.31c.777-.114,1.553-.231,2.322-.385a67.923,67.923,0,0,0,37.218-20.575,1.371,1.371,0,0,0,.343-1.7,48.713,48.713,0,0,1-3.123-13.864c-.061-.708.089-1.387.949-1.432s1.057.614,1.106,1.323a45.64,45.64,0,0,0,.9,6.243,39.152,39.152,0,0,0,2.184,7.292c.636,1.5,1.505,1.857,3.054,1.41a9.18,9.18,0,0,0,2.172-1A58.712,58.712,0,0,1,283.4,190.74c1-.227,1.141-.519.631-1.421a74.236,74.236,0,0,1-6.779-16.247c-.282-.99-.613-1.15-1.572-.808-8.737,3.116-17.821,4.638-26.988,5.738-4.753.57-9.516,1.071-14.275,1.594q-9.682,1.062-19.365,2.111c-1.893.206-3.794.419-5.908.654a2.212,2.212,0,0,1-1.36-1.96c1.786-.208,3.579-.372,5.368-.563q6.654-.711,13.307-1.434c4.9-.532,9.805-1.089,14.713-1.6,5.918-.614,11.824-1.317,17.686-2.349a101.2,101.2,0,0,0,17.876-4.708c1.141-.425,1.588-.188,1.948.975.311,1.005.613,2.015.872,3.035.159.625.383.744.973.4q3.065-1.771,6.179-3.457a64.2,64.2,0,0,0,15.555-11.675,5.77,5.77,0,0,1,.921-1.745,4.478,4.478,0,0,1,2.12-1.2,15.708,15.708,0,0,1,5.4-.8c.069-.027.139-.048.208-.076a2.95,2.95,0,0,0,.728.029c1.652.178,3.256.742,4.926.806,1.292.05,2.608.275,3.914.341.31.039.619.082.929.121l.038-.108c.188,0,.375-.012.562-.028.9-.078,1.772-.31,2.669-.363a5.074,5.074,0,0,1,1.94.322l1.854.785a10.023,10.023,0,0,1,2.822,2.158,14.715,14.715,0,0,0,3.263,3.153.466.466,0,0,0,.109.037c1.955,2.141,4.2,3.975,6.211,6.032a21.135,21.135,0,0,1,2.029,3.381c.212.492.465,1.018.654,1.559a.469.469,0,0,0,.006.2,6.334,6.334,0,0,1,.145,1.214,1.415,1.415,0,0,1-.577.622c-.673.36-1.9.2-1.895.374l-.017.012c-.045-.024-.094-.042-.14-.064,1.053,3.2.366,3.7.149,4.066a.846.846,0,0,1-.512.365c-.769-.149-3.429-.122-3.658-.393a4.726,4.726,0,0,1-2.184,2.669,42.1,42.1,0,0,1-4.7,1.4,40.816,40.816,0,0,1-8.164.91,23.871,23.871,0,0,0-12.325,3.033,23.8,23.8,0,0,1-10.075,3.586,45.234,45.234,0,0,1-10.2-.436c-.252-.036-.5-.087-.754-.113-.685-.075-1.46-.369-1.594.772-.024.2-.259.384-.437.573a6.1,6.1,0,0,0-1.353.686,2.293,2.293,0,0,1,.206-.518,52.8,52.8,0,0,0-9.422,2.744,61.158,61.158,0,0,0-8.69,4.272,10.451,10.451,0,0,1-3.808,1.548,2.845,2.845,0,0,1-1.712-.112c-1.126-.606-1.769-.1-2.479.717-.667.768-.923,1.037-.683,1.387a11.289,11.289,0,0,0-1.051,1.8c-.617-.479-.959-.472-1.558.076a70.312,70.312,0,0,1-30.786,16.5c-1.718.433-3.46.757-5.248,1.067a2.44,2.44,0,0,0-.2-.6m65.653-33.981a1.222,1.222,0,0,0,.931.667c5.1.811,10.2,1.592,15.355.536a23.444,23.444,0,0,0,7.085-3.024c4.289-2.516,9-2.981,13.819-3.326,3.4-.242,6.882-.215,10.153-1.469,1.082-.415,2.189-.877,2.2-2.238a2.83,2.83,0,0,0-2.046-2.68,9.106,9.106,0,0,0-3.295-.643c-2.031-.044-8.46,1.033-9.182,1.029a25.216,25.216,0,0,1-9.661-1.874c-.688-.286-1.328-.662-.975-1.519.367-.887,1.11-.612,1.77-.345a24.072,24.072,0,0,0,3.459.983.386.386,0,0,1,.221-.3,2.285,2.285,0,0,0,.956-1.116,1.62,1.62,0,0,1,.173-.246c-.383-.224,2.564-.262,3.044-.308,2.208-.212,2.232-.087,3.775-.337a.259.259,0,0,1,.217.11c.027.007.045.016.069.024l.128.006a.452.452,0,0,1,.373.245c.4.2,3.683,1.852,3.685,1.852.278.087,4.617.265,5.08.22a5.967,5.967,0,0,1,3.7,2.729c.385.643,1.148.519,1.672.912.4.3,2.145,1.31,1.7-.429a4.617,4.617,0,0,0-.96-2.451c-.112-.082-.224-.163-.337-.238-3.069-2.064-6.1-4.186-9.2-6.208-5.42-3.538-8.832-1.653-9.768-2.19-.547-1.063-2.826-2,6.736-2.022a22.042,22.042,0,0,1,3.633,2.019,3.633,3.633,0,0,0,.75.637c3.225,2.228,6.492,4.4,9.753,6.573.409.273.934.643,1.369.138a1.161,1.161,0,0,0-.1-1.512,7.786,7.786,0,0,0-1.232-1.219,63.731,63.731,0,0,1-7.98-7.392,13.367,13.367,0,0,0-9.1-4.558c-3.1-.322-6.183-.785-9.544-1.232a.422.422,0,0,0-.28-.1c-1.314-.024-2.705-.583-3.973-.064a23.524,23.524,0,0,0-3.278.51c-.066.045-.134.089-.2.134-.315.216-.626.436-.942.651-.025.062-.053.123-.076.186a1.259,1.259,0,0,0-.336.279,62.651,62.651,0,0,1-17.22,13.339c-2.2,1.195-4.379,2.436-6.591,3.61-.474.252-.519.479-.355.934a76.777,76.777,0,0,0,4.814,10.719m40.123-13.735a16.1,16.1,0,0,0-2.556-1.363,20.373,20.373,0,0,1-3.024.384,22.211,22.211,0,0,1-2.3,0c-.108.12-.336,1.168-.61,1.223.931.2,2.3.393,2.379.39.706-.025,3.367-.322,5.482-.562l.629-.072" transform="translate(-30.911 23.511)" fill="#0140be"/>
    <path id="Path_16018" data-name="Path 16018" d="M389.913,67.66c-.793,13.243-1.563,26.545-4.3,39.571-.879,4.055-1.907,8.1-3.169,12.09-1.912,6.033-9.9,20.092-12.242,25.944-2.346,5.649-2.673,5.316-7.3,9.5-5.56,3.864-17.023.558-15.485.968-6-.519-27.3-10.1-31.13-14.477" transform="translate(-162.461 42.195)" fill="none" stroke="#0140be" stroke-linecap="round" stroke-linejoin="round" stroke-width="3"/>
    <path id="Path_16019" data-name="Path 16019" d="M375.064,140.572a73.833,73.833,0,0,1-27.859-3.9c-2.216-.732-5.023-1.513-6.676.153-1.309,1.259-1.094,3.31-.6,4.977,2.279,7.247,9.991,12.408,17.837,11.944" transform="translate(-165.91 27.645)" fill="none" stroke="#0140be" stroke-linecap="round" stroke-linejoin="round" stroke-width="3"/>
    <path id="Path_16020" data-name="Path 16020" d="M375.211,141.289c-1.058.836-1.893,3.668-3.085,3.993a58.029,58.029,0,0,1-11.736-.4c-5.276-.867-12.106-4.352-15.275-6.126" transform="translate(-170.437 27.021)" fill="none" stroke="#0140be" stroke-linecap="round" stroke-linejoin="round" stroke-width="3"/>
    <path id="Path_16021" data-name="Path 16021" d="M366.7,148.08c-1.157.719-4.573,5.051-4.572,6.359" transform="translate(-175.301 25.032)" fill="none" stroke="#0140be" stroke-linecap="round" stroke-linejoin="round" stroke-width="3"/>
    <path id="Path_16022" data-name="Path 16022" d="M369.981,147.33a12.946,12.946,0,0,0,7.725,4.262,33.4,33.4,0,0,1-11.373-3.687,24.6,24.6,0,0,0,7.7,5.509" transform="translate(-189.622 25.192)" fill="none" stroke="#0140be" stroke-linecap="round" stroke-linejoin="round" stroke-width="2"/>
    <path id="Path_16023" data-name="Path 16023" d="M360.333,120.522a8.16,8.16,0,0,1-.077,8.013,7.308,7.308,0,0,1-7.3,3.559c-2.14-.348-3.892-1.741-5.9-2.486a53.761,53.761,0,0,1-5.137-1.814c-1.608-.828-3.047-2.341-2.936-4.1" transform="translate(-151.744 30.913)" fill="none" stroke="#0140be" stroke-linecap="round" stroke-linejoin="round" stroke-width="3"/>
    <path id="Path_16024" data-name="Path 16024" d="M379.867,97.544a16.318,16.318,0,0,0-10.179-2.632,39.941,39.941,0,0,0-10.59,2.275" transform="translate(-186.092 36.383)" fill="none" stroke="#0140be" stroke-linecap="round" stroke-linejoin="round" stroke-width="3"/>
    <path id="Path_16025" data-name="Path 16025" d="M377.287,96.518c.654.024,1,.924.661,1.535a3.273,3.273,0,0,1-1.6,1.235,7.381,7.381,0,0,1-2.98,1.007,2.471,2.471,0,0,1-2.492-1.453" transform="translate(-193.566 36.036)" fill="none" stroke="#0140be" stroke-linecap="round" stroke-linejoin="round" stroke-width="3"/>
    <path id="Path_16026" data-name="Path 16026" d="M338.75,99.637a11.164,11.164,0,0,0-7.636-3.47,12.277,12.277,0,0,0-8.154,2.648" transform="translate(-116.55 36.114)" fill="none" stroke="#0140be" stroke-linecap="round" stroke-linejoin="round" stroke-width="3"/>
    <path id="Path_16027" data-name="Path 16027" d="M337.938,98.276a5.57,5.57,0,0,1-3.927,3.021,3.44,3.44,0,0,1-3.609-1.207" transform="translate(-121.591 35.661)" fill="none" stroke="#0140be" stroke-linecap="round" stroke-linejoin="round" stroke-width="3"/>
    <path id="Path_16028" data-name="Path 16028" d="M376.233,88.744a19,19,0,0,0-19.741.831" transform="translate(-180.408 38.202)" fill="none" stroke="#0140be" stroke-linecap="round" stroke-linejoin="round" stroke-width="3"/>
    <path id="Path_16029" data-name="Path 16029" d="M323.443,89.777a6.544,6.544,0,0,1,7.642-.249" transform="translate(-109.264 37.765)" fill="none" stroke="#0140be" stroke-linecap="round" stroke-linejoin="round" stroke-width="3"/>
    <path id="Path_16030" data-name="Path 16030" d="M316.511,42.5a17.851,17.851,0,0,0,5.047,5.5c3.3,2.244,7.294,3.326,10.748,5.235s6.723,5.2,6.513,9.132" transform="translate(-111.555 47.566)" fill="none" stroke="#0140be" stroke-linecap="round" stroke-linejoin="round" stroke-width="3"/>
    <path id="Path_16031" data-name="Path 16031" d="M363.54,53.54c3.49-1.546,10.1.072,10.085-17.906.283.923-4.82,6.124-7.035.838a2.22,2.22,0,0,1-.467-2.711,12.7,12.7,0,0,1,1.712-2.446,3.162,3.162,0,0,0,.647-2.795c-1.325,1.4-3.865.381-4.572-1.274s-.244-3.622.288-5.409c-1.051,1.366-3.2,1.365-4.683.489s-2.331-2.34-3.344-3.673a7.4,7.4,0,0,0-3.892-3.048,16.67,16.67,0,0,1-2.942-.385c-1.259-.481-2.015-1.7-2.788-2.784-4.4-6.227-12.055-9.758-19.776-10.649-7.806-.927-15.7.521-23.326,2.689" transform="translate(-136.089 56.316)" fill="none" stroke="#0140be" stroke-linecap="round" stroke-linejoin="round" stroke-width="3"/>
    <path id="Path_16032" data-name="Path 16032" d="M358.313,37.86a8.19,8.19,0,0,1-7.048-5.486,8.318,8.318,0,0,1,2.588-8.563" transform="translate(-158.121 51.554)" fill="none" stroke="#0140be" stroke-linecap="round" stroke-linejoin="round" stroke-width="3"/>
    <path id="Path_16033" data-name="Path 16033" d="M366.458,33.011a8.379,8.379,0,0,1-3.055-9.082" transform="translate(-175.801 51.529)" fill="none" stroke="#0140be" stroke-linecap="round" stroke-linejoin="round" stroke-width="3"/>
    <path id="Path_16034" data-name="Path 16034" d="M376.377,29.458a4.741,4.741,0,0,1-1.9-6.083" transform="translate(-194.345 51.647)" fill="none" stroke="#0140be" stroke-linecap="round" stroke-linejoin="round" stroke-width="3"/>
    <path id="Path_16035" data-name="Path 16035" d="M385.572,26.07a18.1,18.1,0,0,1-3.315-6.024" transform="translate(-210.013 52.358)" fill="none" stroke="#0140be" stroke-linecap="round" stroke-linejoin="round" stroke-width="3"/>
    <path id="Path_16036" data-name="Path 16036" d="M391.847,17.754a8.907,8.907,0,0,1-2.648-6.9A9.47,9.47,0,0,1,392.735,4.2" transform="translate(-222.623 55.74)" fill="none" stroke="#0140be" stroke-linecap="round" stroke-linejoin="round" stroke-width="3"/>
    <path id="Path_16037" data-name="Path 16037" d="M407.637,6.356A7.39,7.39,0,0,0,399.33,1.7" transform="translate(-245.507 56.303)" fill="none" stroke="#0140be" stroke-linecap="round" stroke-linejoin="round" stroke-width="3"/>
    <path id="Path_16038" data-name="Path 16038" d="M414.226,6.229a13.442,13.442,0,0,0-9.338-.064" transform="translate(-256.468 55.492)" fill="none" stroke="#0140be" stroke-linecap="round" stroke-linejoin="round" stroke-width="3"/>
    <path id="Path_16039" data-name="Path 16039" d="M418.185,7.893c-.772.227-1.545.455-2.278.6" transform="translate(-269.094 54.951)" fill="none" stroke="#0140be" stroke-linecap="round" stroke-linejoin="round" stroke-width="3"/>
    <path id="Path_16040" data-name="Path 16040" d="M402.127,27.791a11.474,11.474,0,0,1-2.88,11.91,28.589,28.589,0,0,0-3.187,3.081c-.887,1.236-1.233,2.95-.311,4.043A21.945,21.945,0,0,0,389.9,58.842" transform="translate(-233.204 50.705)" fill="none" stroke="#0140be" stroke-linecap="round" stroke-linejoin="round" stroke-width="3"/>
    <path id="Path_16041" data-name="Path 16041" d="M410.808,64.6c.365,1.512,2,2.4,3.37,3.18,1.4.841,2.807,2.089,2.627,3.673-.223,2.219-3.171,2.937-5.357,3.776-4.41,1.761-7.131,6.246-7.975,10.768s-.083,9.117.631,13.591a11.727,11.727,0,0,1-4.141.97,3.525,3.525,0,0,1-3.314-2.1c-.467-1.4.414-2.843,1.107-4.21a13.526,13.526,0,0,0,1.79-7.844,7.626,7.626,0,0,0-4.481-6.264" transform="translate(-251.335 42.849)" fill="none" stroke="#0140be" stroke-linecap="round" stroke-linejoin="round" stroke-width="3"/>
    <path id="Path_16042" data-name="Path 16042" d="M435.023,11.461a54.632,54.632,0,0,0-15.8,11.275c1.967-.461,3.959-.858,5.927-1.32a14.126,14.126,0,0,0-7.7,7.874l3.036,1.037" transform="translate(-287.148 54.19)" fill="none" stroke="#0140be" stroke-linecap="round" stroke-linejoin="round" stroke-width="3"/>
    <path id="Path_16043" data-name="Path 16043" d="M438.933,35.446a5.24,5.24,0,0,0-3,3.134Z" transform="translate(-305.592 49.071)" fill="none" stroke="#0140be" stroke-linecap="round" stroke-linejoin="round" stroke-width="3"/>
    <path id="Path_16044" data-name="Path 16044" d="M438.383,74.051a24.742,24.742,0,0,0,.919-8.136l-.732-1.261a7.41,7.41,0,0,0,.927-4.247l-.325-4.5c.25-1.711.4-3.459.654-5.17,0,0,1.376-5.489-1.282-3.987l2.508-4.854" transform="translate(-309.642 47.694)" fill="none" stroke="#0140be" stroke-linecap="round" stroke-linejoin="round" stroke-width="3"/>
    <path id="Path_16045" data-name="Path 16045" d="M438.125,81.675a5.931,5.931,0,0,0-8.356-1.611,9.53,9.53,0,0,0-3,4.868,23.25,23.25,0,0,0,10.572,26.431" transform="translate(-296.849 39.776)" fill="none" stroke="#0140be" stroke-linecap="round" stroke-linejoin="round" stroke-width="3"/>
    <path id="Path_16046" data-name="Path 16046" d="M430.521,87.9c-.154-.216-.309-.432-.44-.588a1.769,1.769,0,0,1,2.215.732,5.086,5.086,0,0,1,.5,2.423q.144,3.455.287,6.909a15.331,15.331,0,0,1-.62,6.226" transform="translate(-295.19 38.038)" fill="none" stroke="#0140be" stroke-linecap="round" stroke-linejoin="round" stroke-width="3"/>
    <path id="Path_16047" data-name="Path 16047" d="M443.961,113.484c1.217,2.209,0,11.367-6.716,17.58" transform="translate(-312.07 32.415)" fill="none" stroke="#0140be" stroke-linecap="round" stroke-linejoin="round" stroke-width="3"/>
    <path id="Path_16048" data-name="Path 16048" d="M381.953,183.112l3.225-2.825a6.894,6.894,0,0,0,1.867-.466c.941-.392,1.75-1.494,1.5-2s.665-1.654.665-1.654" transform="translate(-213.408 19.036)" fill="none" stroke="#0140be" stroke-linecap="round" stroke-linejoin="round" stroke-width="3"/>
    <path id="Path_16049" data-name="Path 16049" d="M497.281,202.245l-.459-17.743-4.13-6.164s-27.028-24.054-34.4-29.469-12.748-14.791-14.543-17.416S436.5,136.79,429.293,142.4l3.093,5.078-3.093-1.738s-14.178,14.366-21.407,23.935-25.438,49.543-25.438,68.747,2.444,39.649,8.736,73.209-1.049,15.731,0,20.975" transform="translate(-321.872 28.69)" fill="none" stroke="#0140be" stroke-linecap="round" stroke-linejoin="round" stroke-width="3"/>
    <path id="Path_16050" data-name="Path 16050" d="M365.009,178.7c48.492,4.953,56.822,43.62,69.073,48.685" transform="translate(-244.956 18.497)" fill="none" stroke="#0140be" stroke-linecap="round" stroke-linejoin="round" stroke-width="3"/>
    <path id="Path_16051" data-name="Path 16051" d="M315.087,240.069c29.747,6.183,11.7,14.739,23.758,18.3s23.5.621,12.078,9.746-7.66,12.823-10.214,15.25" transform="translate(-127.245 5.399)" fill="none" stroke="#0140be" stroke-linecap="round" stroke-linejoin="round" stroke-width="3"/>
    <path id="Path_16052" data-name="Path 16052" d="M229.389,275.729s-5.3,9.326-7.009,11.933,1.62,9.271,7.187,2.776.145-11.014,5.567-6.5,12.8,14.142,12.8,14.142,31.337,1.609,37.762,1.731a86.268,86.268,0,0,0,14.224-1.288" transform="translate(1.748 -2.212)" fill="none" stroke="#0140be" stroke-linecap="round" stroke-linejoin="round" stroke-width="3"/>
    <path id="Path_16053" data-name="Path 16053" d="M212.293,301.582c27.848-3.434,39.814,30.382,55.666,34.6s22.33,10.3,34.189,13.859,29.367,3.475,45.031,1.047,40.358-14.906,28.487-5.32" transform="translate(-69.542 5.694)" fill="none" stroke="#0140be" stroke-linecap="round" stroke-linejoin="round" stroke-width="3"/>
    <path id="Path_16056" data-name="Path 16056" d="M682.368,2413.561c6.645,1.132,46.76,16.077,55.412,28.662s14.945,20.451,0,22.024-42.475-.787-51.127-11.012-33.823-13.371-28.317-22.81S682.368,2413.561,682.368,2413.561Z" transform="translate(-444.819 -2177.932)" fill="#e5ebf9"/>
    <path id="Path_16057" data-name="Path 16057" d="M784.305,2538.667a54,54,0,0,1,6.107,22.765c.2,4.307-6.107,6.152-6.107,6.152v5.538s10.044,2.461,6.107,5.537-11.269,2.154-12.8,3.692,6.689,2.461,6.689,2.461" transform="translate(-583.652 -2193.621)" fill="none" stroke="#0140be" stroke-width="3"/>
  </g>
</svg>
