<svg xmlns="http://www.w3.org/2000/svg" xmlns:xlink="http://www.w3.org/1999/xlink" width="306" height="306" viewBox="0 0 306 306">
  <defs>
    <clipPath id="clip-path">
      <rect id="Rectangle_1029" data-name="Rectangle 1029" width="306" height="306" transform="translate(-0.24 0)" fill="#0140be"/>
    </clipPath>
  </defs>
  <g id="Logo" transform="translate(0.24 0)" clip-path="url(#clip-path)">
    <path id="Path_14911" data-name="Path 14911" d="M591.023,408.138c83.371,0,155.233-48.558,188.06-118.54l-54.8-24.532c-23.442,49.08-74.3,83.079-133.258,83.079-59.357,0-110.5-34.458-133.727-84.069,29.779.678,82.378-6.829,125.378-25.045,56.213-23.816,102.915-34.912,149.376-37.441,9.3-.506,18.585-.669,27.938-.522,10.792.17,21.5.444,32.094,1.211C791.12,90.4,700.13,0,588.022,0c-98,0-179.855,69.073-199.555,161.187a254.489,254.489,0,0,0,59.362,9.633A144.09,144.09,0,0,1,719.221,144.5c-47.833,2.113-89.558,11.591-143.448,34.911-41.678,18.036-75.357,25.139-116.933,25.139-56.475,0-109.193-16.824-153.659-44.919q-.842-.533-1.681-1.07a289.455,289.455,0,0,0-3.5,38.884A289.963,289.963,0,0,0,391.628,259.3c24.44,85.869,104.456,148.837,199.395,148.837" transform="translate(-276.333 -129.043)" fill="#0140be"/>
  </g>
</svg>
