<svg xmlns="http://www.w3.org/2000/svg" width="250.712" height="21.413" viewBox="0 0 250.712 21.413">
  <path id="Path_16068" data-name="Path 16068" d="M57.015,17.547l1.055.082c-3.423-.077-7.008-.342-10.541-.629,7.612,1.694,16.644,3.274,22.809.381.538,1.666,8,2.661,8.172,2.261q2.363-.376,4.775-.6c-1.1.084-2.2.181-3.3.3,1.094-.121,2.192-.218,3.3-.3,10.159-.963,21.083-.118,32.428.756,3.149.215,9.011.466,14.9.746,5.892.231,11.815.465,15.06.723l2.835.146-3.158-.28c3.966-.454,7.553-.911,11.02-1.213a8.284,8.284,0,0,0-2.181-.776l1.772.147c1.6-.689,5.315-.683,7.054-1.025-.366.366,1.015.409,2.231.437l-.488-.226c4.618.042,9.954-.313,14.077-.463a3.025,3.025,0,0,1,1.284.208l3.933-.426c-.266.489,3.314.3,1.453.668,2.911-.652,5.949-.5,8.706-1.25q3.766-.276,7.644-.558c2.574-.243,5.165-.551,7.762-.86,5.2-.57,10.388-1.462,15.45-2.432l-.294-.147c.9-.18,1.7-.389,2.6-.616a10.539,10.539,0,0,0,1.469-.407l1.294-.658a23.592,23.592,0,0,1,5.147-2.049c2.428-1.55,6.241-3.248,6.766-4.539,3.184-1.254,4.186-2.161,7.241-3.506-1.122-.169,2.77-1.612.959-1.423C247.71.129,247.943.7,245.8.825l.155.132q-6.668,1.691-13.243,3.6L226.3,6.447c-.233.054-.231-.017-1.728.119l-3.45.283c-6,1.163-12.779,1.31-19.166,1.968-6.914.6-14.393,1.406-20.373,1.987a11.82,11.82,0,0,1-3.72-.362c-5.494.458-12.548.364-18.778.765l.307.014c-3.321.1-5.816-.389-9.054-.283.017.141-.486.153-.728.228-.547-.59-19.129,1.312-20.283.9-.338.026-.689.048-1.048.06-6.864-.39-13.914-1.781-19.811-1.817-1.292.279-2.746.517-3.842.841-1.029-.305-1.255.235-2.51.132-3.125-1.4-5.021-.9-3.4-.393-2.637.1-5.267-.085-7.6-.105l-3.269.22a2.506,2.506,0,0,1-1.889-.454c-2.384.113-1.665-.19-4.147-.4-.573-.479-6.289.534-6.984.373l.41-.054c-2.872-.169-4.731-1.121-7.544-1.251-7.8-.593-16.378-.525-23.631-.914-.1.479,1.608-.056,1.654.584-4.273-.221-8.566-.934-12.887-1.145a11.936,11.936,0,0,1-2.064-.584c-1.373-.22-.828.206-1.837.115l-.113-.438c-1.5.317-2.142-.536-3.55-.39-.083.173-.593.184-1.09.158,0-.46-1.53,0-1.436-.423l-.017.034a3.84,3.84,0,0,1-.874-.079c-.577.149-5.96,1.284-6.542,1.465l-.266-.082c-.8-.006-1.151.328-.689.423L13.369,7.9l.115-.029-.976-.042c-.179-.043-.375-.262-.089-.46a4.23,4.23,0,0,1-1.737.136A49.7,49.7,0,0,1,15.7,8.755a22.7,22.7,0,0,1-2.569-.091A28.035,28.035,0,0,0,9.17,7.821c-.3.022-.527.533-1.2.294-.32-.361-.771,0-1.331-.266A6.194,6.194,0,0,1,8.593,7.8c-.1-.421-1.6-.311-2.12-.438-.251.127-1.523-.031-2.33.071.362-.4-.641-.268-1.109-.493-.54-.057-.891.1-.676.245-.187.435,2.146.3,1.379.745-.192-.215-1.255-.16-1.826-.15-.013.239.386.187.009.41C1.288,8.123.608,8.4.251,8.145a1.456,1.456,0,0,1,.567-.008C-.011,8.1,5.337,6.653,4.265,6.774,4.535,6.991-.481,8.111.07,8.136c.5.127-.37.426.148.517L.8,8.374c.708.1.989.523.734.685C.347,9,4.971,7.485,3.944,7.71l.412.119a3.466,3.466,0,0,1-2.035,0c-.009.235-.593.31-1.079.387l-.17-.043c-.5.112-1.2.043-.883.361,2.924.012-1.981,2.368.843,2.552-1.172-.542.414-.528,1.658-.567a2.784,2.784,0,0,0,1.552.6c.776-.028.462-.183.615-.313.425.124,1.242.237,1.127.51.615-.317.957.225,1.684.124.643-.139-.037-.142.421-.291.954.05,2.295.119,3.055.2.285.262,1.164.734.495,1.121-1.447-.079.577-.641-.935-.581.628.6-1.34.139-1.63.579a4.71,4.71,0,0,0,2.26.234l-.159-.081a7.369,7.369,0,0,1,2.924.164c-.192.2.142.364-.388.406l.985.06c.129-.062.261-.125-.022-.18a1.989,1.989,0,0,1,1.288.082c.1.221,5.3-.791,5.13-.658.713.011.869.342,1.576.138a55.978,55.978,0,0,0-5.895.536c.595.254,8.117-.9,8.54-.472.53,0,1.168-.036,1.055-.259.887.129-.288.415.336.638.015-.034-.046-.112.157-.1l.595.294c1.4-.311,3.406.2,4.879-.214a5.71,5.71,0,0,1-1.878.825l-.157-.121c-.135.063-.907.118-.9.339a6.19,6.19,0,0,0,2.582-.036c.168.065.366.13.5.2a.279.279,0,0,1-.009-.087c.3.147.261.167.146.251a.18.18,0,0,1-.068.048c.519.664,3.5-.31,5.1.074.482-.079.052-.11.652-.217,1.637.305,2.765.536,4.483.737.569-.262.619-.372-.031-.685l1.3.133c-1.231.7,2.395.787,1.042,1.487a3.867,3.867,0,0,0,1.887.146c.085-.186.22-.482,1.138-.452,1.264.29.965.189,2.009.462.235.251-.159.335-.126.531,1.654-.26,1.392.575,2.937.576.97-.04,2.876-.009,2.951-.434,1.3.06,1.279.373,1.129.716" transform="translate(-0.028)" fill="#ffffff"/>
</svg>
