<svg id="Group_10369" data-name="Group 10369" xmlns="http://www.w3.org/2000/svg" xmlns:xlink="http://www.w3.org/1999/xlink" width="126.912" height="97.223" viewBox="0 0 126.912 97.223">
  <defs>
    <clipPath id="clip-path">
      <rect id="Rectangle_1045" data-name="Rectangle 1045" width="126.912" height="97.223" fill="none" stroke="#fff" stroke-width="3"/>
    </clipPath>
    <clipPath id="clip-path-2">
      <rect id="Rectangle_1046" data-name="Rectangle 1046" width="126.912" height="97.223" fill="none" stroke="#0140be" stroke-width="3"/>
    </clipPath>
  </defs>
  <g id="Group_10366" data-name="Group 10366" transform="translate(0 0)">
    <g id="Group_10365" data-name="Group 10365" clip-path="url(#clip-path)">
      <path id="Path_14998" data-name="Path 14998" d="M146.679,54.619,153,50.984l2.243,3.778-7.062,2.671Z" transform="translate(-30.943 -11.845)" fill="#e5ebf9" stroke="#fff" stroke-width="3"/>
    </g>
  </g>
  <g id="Group_10368" data-name="Group 10368" transform="translate(0 0)">
    <g id="Group_10367" data-name="Group 10367" clip-path="url(#clip-path-2)">
      <path id="Path_15001" data-name="Path 15001" d="M71.108,79.231A26.868,26.868,0,0,0,86.884,92.583c19.381,6.6,32.921-1.417,39.01-15.173,5.728-12.941.13-34.431-18.685-38.827" transform="translate(-15.001 -8.964)" fill="none" stroke="#0140be" stroke-linecap="round" stroke-linejoin="round" stroke-width="3"/>
      <path id="Path_15002" data-name="Path 15002" d="M95.449,35.97s-12.682-2.5-22.579,10.859A30.625,30.625,0,0,0,67.177,63.3" transform="translate(-14.171 -8.314)" fill="none" stroke="#0140be" stroke-linecap="round" stroke-linejoin="round" stroke-width="3"/>
      <path id="Path_15003" data-name="Path 15003" d="M112.121,9.737s.6-3.685,2.633-3.643c2.118.043,12.255,3.075,12.854,4.2s-1.773,7.661-2.857,8.031-12.981-3.065-12.981-3.065" transform="translate(-23.578 -1.416)" fill="none" stroke="#0140be" stroke-linecap="round" stroke-linejoin="round" stroke-width="3"/>
      <path id="Path_15004" data-name="Path 15004" d="M148.151,56.473c.484-.007,6.239-2.873,6.239-2.873-.27-3.953-4.229-6.141-4.229-6.141L144.9,51.641" transform="translate(-30.568 -11.026)" fill="none" stroke="#0140be" stroke-linecap="round" stroke-linejoin="round" stroke-width="3"/>
      <path id="Path_15005" data-name="Path 15005" d="M107.933,59.286c-1.563,6.277-3.1,11.607-3.1,11.607a47.087,47.087,0,0,0,21.705-3.837" transform="translate(-22.115 -13.774)" fill="none" stroke="#0140be" stroke-linecap="round" stroke-linejoin="round" stroke-width="3"/>
      <line id="Line_8" data-name="Line 8" x1="0.701" y2="2.595" transform="translate(87.635 34.61)" fill="none" stroke="#0140be" stroke-linecap="round" stroke-linejoin="round" stroke-width="3"/>
      <line id="Line_9" data-name="Line 9" x1="1.168" y2="4.324" transform="translate(78.067 73.578)" fill="none" stroke="#0140be" stroke-linecap="round" stroke-linejoin="round" stroke-width="3"/>
      <line id="Line_10" data-name="Line 10" x2="4.296" y2="1.099" transform="translate(58.52 51.178)" fill="none" stroke="#0140be" stroke-linecap="round" stroke-linejoin="round" stroke-width="3"/>
      <line id="Line_11" data-name="Line 11" x2="4.741" y2="1.212" transform="translate(103.9 62.01)" fill="none" stroke="#0140be" stroke-linecap="round" stroke-linejoin="round" stroke-width="3"/>
      <path id="Path_15006" data-name="Path 15006" d="M97.79,28.349s-5.481-.44-9.566,1.74" transform="translate(-18.611 -6.578)" fill="none" stroke="#0140be" stroke-linecap="round" stroke-linejoin="round" stroke-width="3"/>
      <path id="Path_15007" data-name="Path 15007" d="M75.4,34.748A33.262,33.262,0,0,0,60.515,57.926" transform="translate(-12.766 -8.073)" fill="none" stroke="#0140be" stroke-linecap="round" stroke-linejoin="round" stroke-width="3"/>
      <path id="Path_15008" data-name="Path 15008" d="M68.719,100.306s6.062,10,25.148,13.07,31.112-5.727,36.124-20.127" transform="translate(-14.497 -21.665)" fill="none" stroke="#0140be" stroke-linecap="round" stroke-linejoin="round" stroke-width="3"/>
      <path id="Path_15009" data-name="Path 15009" d="M148.7,59.57s2.433,3.877,1.39,14.968" transform="translate(-31.369 -13.84)" fill="none" stroke="#0140be" stroke-linecap="round" stroke-linejoin="round" stroke-width="3"/>
      <line id="Line_12" data-name="Line 12" x1="2.037" y2="6.251" transform="translate(94.389 16.927)" fill="none" stroke="#0140be" stroke-linecap="round" stroke-linejoin="round" stroke-width="3"/>
      <line id="Line_13" data-name="Line 13" y1="5.256" x2="1.712" transform="translate(90.571 15.338)" fill="none" stroke="#0140be" stroke-linecap="round" stroke-linejoin="round" stroke-width="3"/>
      <path id="Path_15010" data-name="Path 15010" d="M9.329,73.559S-.606,93.129,19.51,102.795s40.083-9.953,38-25.561S31.284,50.026,13.3,65.731" transform="translate(-1.451 -13.537)" fill="none" stroke="#0140be" stroke-linecap="round" stroke-linejoin="round" stroke-width="3"/>
      <path id="Path_15011" data-name="Path 15011" d="M42.2,78.671s-13.273-2.178-10.341,7.158,8.849,1.452,12.527,6.482-5.916,7.883-9.595,2.853" transform="translate(-6.632 -18.227)" fill="none" stroke="#0140be" stroke-linecap="round" stroke-linejoin="round" stroke-width="3"/>
      <line id="Line_14" data-name="Line 14" x2="1.217" y2="4.984" transform="translate(33.504 80.375)" fill="none" stroke="#0140be" stroke-linecap="round" stroke-linejoin="round" stroke-width="3"/>
      <line id="Line_15" data-name="Line 15" x2="1.518" y2="7.61" transform="translate(29.051 52.594)" fill="none" stroke="#0140be" stroke-linecap="round" stroke-linejoin="round" stroke-width="3"/>
      <path id="Path_15012" data-name="Path 15012" d="M126.52,32.648s7.213,3.809,11.128,9.022" transform="translate(-26.69 -7.585)" fill="none" stroke="#0140be" stroke-linecap="round" stroke-linejoin="round" stroke-width="3"/>
    </g>
  </g>
</svg>
