<svg xmlns="http://www.w3.org/2000/svg" width="99.267" height="68.122" viewBox="0 0 99.267 68.122">
  <g id="Group_10485" data-name="Group 10485" transform="translate(-1360.632 -1555.321)">
    <g id="Group_10375" data-name="Group 10375" transform="translate(1393.544 1556.82)">
      <g id="Group_10351" data-name="Group 10351" transform="translate(0 0)">
        <path id="Path_14919" data-name="Path 14919" d="M3.488,31.409s-.213,13.077-.009,15.022" transform="translate(-3.39 8.088)" fill="none" stroke="#0140be" stroke-linecap="round" stroke-linejoin="round" stroke-width="3"/>
        <path id="Path_14920" data-name="Path 14920" d="M4.123,51.8A5.2,5.2,0,0,0,9.179,54.94c3.876-.075,37.688,1.146,40.24-.27s3.022-5.18,2.967-7.57" transform="translate(-2.168 9.821)" fill="none" stroke="#0140be" stroke-linecap="round" stroke-linejoin="round" stroke-width="3"/>
        <path id="Path_14921" data-name="Path 14921" d="M3.786,27s-.2-1.945,4.5-2.369c.2-.018,2.2-.033,5.031-.045,6.186-.024,16.349-.029,20.474,0,6.012.036,10.4-.055,12.068,2.183s.868,10.38.868,10.38" transform="translate(2.242 2.742)" fill="none" stroke="#0140be" stroke-linecap="round" stroke-linejoin="round" stroke-width="3"/>
        <path id="Path_14923" data-name="Path 14923" d="M17.58,14.49s.353-1.924,4.985-1.006c.637.127,18.727,5.412,24.485,7.14s9.991,2.876,10.964,5.5-2.092,10.2-2.092,10.2" transform="translate(-3.797 -5.456)" fill="none" stroke="#0140be" stroke-linecap="round" stroke-linejoin="round" stroke-width="3"/>
        <path id="Path_14924" data-name="Path 14924" d="M31.372,34.1s12.023.072,13.975.193" transform="translate(-5.467 4.612)" fill="none" stroke="#0140be" stroke-linecap="round" stroke-linejoin="round" stroke-width="3"/>
        <path id="Path_14925" data-name="Path 14925" d="M8.783,42.855s29.414.707,32.579.64" transform="translate(-2.732 7.325)" fill="none" stroke="#0140be" stroke-linecap="round" stroke-linejoin="round" stroke-width="3"/>
        <path id="Path_14926" data-name="Path 14926" d="M9.608,47.828s28.458.4,30.994.511" transform="translate(-2.832 8.817)" fill="none" stroke="#0140be" stroke-linecap="round" stroke-linejoin="round" stroke-width="3"/>
        <line id="Line_1" data-name="Line 1" x1="1.572" y2="4.716" transform="translate(10.188 12.872)" fill="none" stroke="#0140be" stroke-linecap="round" stroke-linejoin="round" stroke-width="3"/>
        <path id="Path_14927" data-name="Path 14927" d="M58.292,49.913a4.126,4.126,0,0,0,2.165.5c2.614-.167,4.624-3.16,5.625-5.2" transform="translate(-7.2 -8.724)" fill="none" stroke="#0140be" stroke-linecap="round" stroke-linejoin="round" stroke-width="3"/>
        <path id="Path_14928" data-name="Path 14928" d="M32.993,5.207s.712-1.822,5.085-.04c.6.245,17.358,8.87,22.683,11.661s9.262,4.721,9.72,7.477-3.991,9.62-3.991,9.62" transform="translate(-5.663 -4.385)" fill="none" stroke="#0140be" stroke-linecap="round" stroke-linejoin="round" stroke-width="3"/>
        <line id="Line_2" data-name="Line 2" x1="2.439" y2="4.332" transform="translate(22.176 4.206)" fill="none" stroke="#0140be" stroke-linecap="round" stroke-linejoin="round" stroke-width="3"/>
      </g>
    </g>
    <g id="Group_10387" data-name="Group 10387" transform="translate(1362.045 1560.249)">
      <g id="Group_10394" data-name="Group 10394" transform="translate(0 0)">
        <path id="Path_15039" data-name="Path 15039" d="M2.078,25.6A139.594,139.594,0,0,0,12.554,36.712c3.115,2.793,4.187,3.645,6.016,3.867S32.1,32.2,34.79,29.192s4.343-9.889,4.668-16-2.423-9.77-3.806-10.436-12.948-4.2-24.969-2.1C5.983,1.475.751,1.564.421,6.843S-.888,20.276,2.078,25.6" transform="translate(0 0)" fill="none" stroke="#0140be" stroke-width="3"/>
        <path id="Path_15041" data-name="Path 15041" d="M20.763,24.94a5.57,5.57,0,0,0-2.59,3.262c-.475,1.46,6.57,7.755,8.5,8.233s4.694-2.842,6.993-6.282,8.427-12.241,8.2-12.827a3.667,3.667,0,0,0-2.917-1.477c-1,.17-10.419,12.874-11.008,13.514s-1.116.872-2.919-1.185-2.963-3.993-4.253-3.239" transform="translate(-9.355 -8.16)" fill="none" stroke="#0140be" stroke-width="3"/>
      </g>
    </g>
  </g>
</svg>
