<svg id="Group_10413" data-name="Group 10413" xmlns="http://www.w3.org/2000/svg" xmlns:xlink="http://www.w3.org/1999/xlink" width="82.988" height="86.08" viewBox="0 0 82.988 86.08">
  <defs>
    <clipPath id="clip-path">
      <rect id="Rectangle_1069" data-name="Rectangle 1069" width="82.988" height="86.08" fill="none" stroke="#707070" stroke-width="3"/>
    </clipPath>
  </defs>
  <g id="Group_10412" data-name="Group 10412" transform="translate(0 0)" clip-path="url(#clip-path)">
    <path id="Path_15149" data-name="Path 15149" d="M28.9,32.548S1.656,37.5,2,63.718C2.46,98.194,45.858,101.9,59.136,87.185c9.24-10.243,10.4-24.872,10.4-33.638l.408-13.455" transform="translate(-0.652 -10.61)" fill="none" stroke="#0140be" stroke-linecap="round" stroke-linejoin="round" stroke-width="3"/>
    <path id="Path_15150" data-name="Path 15150" d="M55.084,59.051c-3.13-3.443-16.587-6.885-21.595,2.5-3.442,6.454,1.736,8.626,7.824,9.389,4.187.525,9.783-1.067,12.205,2.5,5.946,8.763-6.572,16.274-22.846,10.015" transform="translate(-9.998 -18.086)" fill="none" stroke="#0140be" stroke-linecap="round" stroke-linejoin="round" stroke-width="3"/>
    <line id="Line_18" data-name="Line 18" x1="0.626" y2="7.198" transform="translate(31.941 67.568)" fill="none" stroke="#0140be" stroke-linecap="round" stroke-linejoin="round" stroke-width="3"/>
    <line id="Line_19" data-name="Line 19" y1="6.259" x2="0.939" transform="translate(34.132 30.638)" fill="none" stroke="#0140be" stroke-linecap="round" stroke-linejoin="round" stroke-width="3"/>
    <path id="Path_15151" data-name="Path 15151" d="M100.148,30.134s10.193.2,11.825-.611S98.109,7.708,93.42,2" transform="translate(-30.452 -0.652)" fill="none" stroke="#0140be" stroke-linecap="round" stroke-linejoin="round" stroke-width="3"/>
    <path id="Path_15152" data-name="Path 15152" d="M81.311,8.532,67.711,31.04c.816.816,13.047,1.019,13.047,1.019s1.223,14.067-1.223,24.261" transform="translate(-22.071 -2.781)" fill="none" stroke="#0140be" stroke-linecap="round" stroke-linejoin="round" stroke-width="3"/>
    <path id="Path_15153" data-name="Path 15153" d="M54.191,32.03a14.989,14.989,0,0,1,5.081.9" transform="translate(-17.664 -10.44)" fill="none" stroke="#0140be" stroke-linecap="round" stroke-linejoin="round" stroke-width="3"/>
  </g>
</svg>
