<svg id="Group_10359" data-name="Group 10359" xmlns="http://www.w3.org/2000/svg" xmlns:xlink="http://www.w3.org/1999/xlink" width="134.473" height="84.128" viewBox="0 0 134.473 84.128">
  <defs>
    <clipPath id="clip-path">
      <path id="Path_15144" data-name="Path 15144" d="M0,0H134.473V84.128H0Z" fill="none"/>
    </clipPath>
  </defs>
  <g id="Mask_Group_1" data-name="Mask Group 1" transform="translate(0 0)" clip-path="url(#clip-path)">
    <path id="Path_14944" data-name="Path 14944" d="M81.924,30.661" transform="translate(-22.77 -8.522)" fill="none" stroke="#0140be" stroke-width="3"/>
    <path id="Path_14955" data-name="Path 14955" d="M124.15,49.482a6.751,6.751,0,0,0-4.213-4.279,12.944,12.944,0,0,0-4.881-.685,8.69,8.69,0,0,0-4.146,1.389c-1.493.92-3.087,2.466-4.138,7-1.083,4.668-.577,9.87.618,12s3.4,5.5,7.637,5.372,7.1-.759,8.851-4.814a24.223,24.223,0,0,0,1.619-7" transform="translate(-21.154 -8.865)" fill="none" stroke="#0140be" stroke-linecap="round" stroke-linejoin="round" stroke-width="3"/>
    <path id="Path_14956" data-name="Path 14956" d="M119.549,52.855a1.568,1.568,0,0,0-1.69-.971c-.681-.019-1.549,0-2.352,3.117s-1.2,8.176.258,9.977,2.789.625,3.4-.07.388-2.878.388-2.878V57.336" transform="translate(-22.869 -10.336)" fill="none" stroke="#0140be" stroke-linecap="round" stroke-linejoin="round" stroke-width="3"/>
    <path id="Path_14958" data-name="Path 14958" d="M130.666,59.68c-.287.516,1.414-2.3-.638,1.167s-6.073,10.172-7.57,12.684-4.094,6.878-4.829,7.695c0,0-.6.4-.487.907s4.424.546,5.135.567,1.6-.415,2.619-2.187,4.126-6.542,5.322-8.812c.665-1.263,18.558-31.351,18.558-31.351l-6.86-2.166Z" transform="translate(-23.335 -5.264)" fill="none" stroke="#0140be" stroke-linecap="round" stroke-linejoin="round" stroke-width="3"/>
    <path id="Path_14959" data-name="Path 14959" d="M141.673,79.386a30.458,30.458,0,0,0,.064,5.405,10.519,10.519,0,0,0,2.7,6.822,8.3,8.3,0,0,0,7.117,2.827" transform="translate(-28.204 -15.816)" fill="none" stroke="#0140be" stroke-linecap="round" stroke-linejoin="round" stroke-width="3"/>
    <path id="Path_14960" data-name="Path 14960" d="M158.12,79.326s.982,6.289-1.132,7.551" transform="translate(-31.276 -15.804)" fill="none" stroke="#0140be" stroke-linecap="round" stroke-linejoin="round" stroke-width="3"/>
    <path id="Path_14961" data-name="Path 14961" d="M163.878,82.06s1.208,7.023-4.138,11.313" transform="translate(-31.825 -16.349)" fill="none" stroke="#0140be" stroke-linecap="round" stroke-linejoin="round" stroke-width="3"/>
    <path id="Path_14962" data-name="Path 14962" d="M161.683,73.219s-.814-4.558-3.052-5.567a16.48,16.48,0,0,0-5.831-.924" transform="translate(-30.442 -13.294)" fill="none" stroke="#0140be" stroke-linecap="round" stroke-linejoin="round" stroke-width="3"/>
    <path id="Path_14963" data-name="Path 14963" d="M146.015,68.445a11.868,11.868,0,0,0-3.362,4.711" transform="translate(-28.421 -13.636)" fill="none" stroke="#0140be" stroke-linecap="round" stroke-linejoin="round" stroke-width="3"/>
    <path id="Path_14965" data-name="Path 14965" d="M151.591,74.026s-1.047.316-1.327,5.5.617,7.159,1.6,7.49" transform="translate(-29.927 -14.748)" fill="none" stroke="#0140be" stroke-linecap="round" stroke-linejoin="round" stroke-width="3"/>
    <path id="Path_14966" data-name="Path 14966" d="M10.142,76.663s-6.69-14.347.352-27.976S56.621,35.955,68.24,37.39" transform="translate(-1.448 -7.295)" fill="none" stroke="#0140be" stroke-linecap="round" stroke-linejoin="round" stroke-width="3"/>
    <path id="Path_14967" data-name="Path 14967" d="M19.431,84.569s30.634,2.69,44.191-3.676c0,0-6.69-12.553-4.226-20.8s11-18.56,20.863-10.669" transform="translate(-3.871 -9.284)" fill="none" stroke="#0140be" stroke-linecap="round" stroke-linejoin="round" stroke-width="3"/>
    <path id="Path_14968" data-name="Path 14968" d="M28.256,59.416s-4.93.359-6.69,3.049-1.056,6.1,2.641,5.738,6.162-1.075,6.69,2.332-4.753,5.2-9.155,4.3" transform="translate(-4.113 -11.837)" fill="none" stroke="#0140be" stroke-linecap="round" stroke-linejoin="round" stroke-width="3"/>
    <line id="Line_5" data-name="Line 5" x2="0.704" y2="3.587" transform="translate(22.206 63.539)" fill="none" stroke="#0140be" stroke-linecap="round" stroke-linejoin="round" stroke-width="3"/>
    <line id="Line_6" data-name="Line 6" x1="0.529" y1="4.125" transform="translate(19.741 43.992)" fill="none" stroke="#0140be" stroke-linecap="round" stroke-linejoin="round" stroke-width="3"/>
    <path id="Path_14970" data-name="Path 14970" d="M69.339,66.582a89.726,89.726,0,0,0,25.379.013" transform="translate(-13.814 -13.265)" fill="none" stroke="#0140be" stroke-linecap="round" stroke-linejoin="round" stroke-width="3"/>
    <path id="Path_14971" data-name="Path 14971" d="M87.147,25.944s4.094-4.708,6.47-14.526c1.2-4.969,29.974-5.111,41.065-3.228,6.954,1.18,3.031,13.056-1.988,22.529a53.134,53.134,0,0,1-8.3,11.914" transform="translate(-17.362 -1.409)" fill="none" stroke="#0140be" stroke-linecap="round" stroke-linejoin="round" stroke-width="3"/>
    <path id="Path_14972" data-name="Path 14972" d="M36.36,48.773s7.659-1.614,21.391-1.345" transform="translate(-7.244 -9.443)" fill="none" stroke="#0140be" stroke-linecap="round" stroke-linejoin="round" stroke-width="3"/>
    <path id="Path_14973" data-name="Path 14973" d="M103.636,18.546a154.3,154.3,0,0,0,25.7,0" transform="translate(-20.647 -3.695)" fill="none" stroke="#0140be" stroke-linecap="round" stroke-linejoin="round" stroke-width="3"/>
    <path id="Path_14974" data-name="Path 14974" d="M100.559,28.176s12.94,4.035,25.352,1.614" transform="translate(-20.034 -5.613)" fill="none" stroke="#0140be" stroke-linecap="round" stroke-linejoin="round" stroke-width="3"/>
    <path id="Path_14975" data-name="Path 14975" d="M95.062,35.79s16.109,3.945,25.088,3.676" transform="translate(-18.939 -7.13)" fill="none" stroke="#0140be" stroke-linecap="round" stroke-linejoin="round" stroke-width="3"/>
    <path id="Path_14976" data-name="Path 14976" d="M46.583,64.635c1.056.269,7.659-.538,9.507-1.076" transform="translate(-9.281 -12.663)" fill="none" stroke="#0140be" stroke-linecap="round" stroke-linejoin="round" stroke-width="3"/>
    <path id="Path_14977" data-name="Path 14977" d="M46.253,72.417c1.056,0,7.659-1.076,9.243-.807" transform="translate(-9.215 -14.258)" fill="none" stroke="#0140be" stroke-linecap="round" stroke-linejoin="round" stroke-width="3"/>
    <path id="Path_14978" data-name="Path 14978" d="M46.913,78.743a55.536,55.536,0,0,0,8.451-1.076" transform="translate(-9.346 -15.473)" fill="none" stroke="#0140be" stroke-linecap="round" stroke-linejoin="round" stroke-width="3"/>
  </g>
</svg>
