<svg xmlns="http://www.w3.org/2000/svg" xmlns:xlink="http://www.w3.org/1999/xlink" width="137.78" height="107.733" viewBox="0 0 137.78 107.733">
  <defs>
    <clipPath id="clip-path">
      <rect id="Rectangle_1100" data-name="Rectangle 1100" width="98.572" height="107.733" fill="none" stroke="#707070" stroke-width="3"/>
    </clipPath>
  </defs>
  <g id="Group_10468" data-name="Group 10468" transform="translate(1.52)">
    <g id="Group_10458" data-name="Group 10458" transform="translate(12.157)">
      <g id="Group_10457" data-name="Group 10457" clip-path="url(#clip-path)">
        <path id="Path_15221" data-name="Path 15221" d="M173.936,26.755a.905.905,0,0,0-.995.324,1.051,1.051,0,0,0,.065,1.566c.67.565,1.638.482,1.784-.306a1.42,1.42,0,0,0-.855-1.584" transform="translate(-96.775 -14.974)" fill="#e5ebf9" stroke="#707070" stroke-width="3"/>
      </g>
    </g>
    <path id="Path_15248" data-name="Path 15248" d="M24.51,106.726s-.8,1.191-3.329-1.377c0,0-7.307-7.061-10.643-9.478-3.369-2.441-5.561,4.654-5.561,4.654" transform="translate(-3.742 -41.605)" fill="none" stroke="#0140be" stroke-linecap="round" stroke-linejoin="round" stroke-width="3"/>
    <path id="Path_15249" data-name="Path 15249" d="M2.108,97.065A2.794,2.794,0,0,0,2.346,99.2c2.741,4.41,15.486,15.536,19.131,18.486,4.028,3.261,5.973-1.346,5.973-1.346S43.738,89.58,41.722,86.425s-6.29-6.058-7.7-6-7.433,12.848-8.956,15.747" transform="translate(-2 -34.264)" fill="none" stroke="#0140be" stroke-linecap="round" stroke-linejoin="round" stroke-width="3"/>
    <path id="Path_15250" data-name="Path 15250" d="M107.531,58.256C95.447,56.427,59.823,45.321,52.5,62.7c0,0-3.318,11.187-2.488,15.255" transform="translate(-30.022 -20.824)" fill="none" stroke="#0140be" stroke-linecap="round" stroke-linejoin="round" stroke-width="3"/>
    <path id="Path_15251" data-name="Path 15251" d="M48.2,128.472s36.927,4.744,51.026-3.373c0,0-6.958-16.007-4.394-26.526s11.443-23.668,21.7-13.606" transform="translate(-29.039 -34.728)" fill="none" stroke="#0140be" stroke-linecap="round" stroke-linejoin="round" stroke-width="3"/>
    <path id="Path_15252" data-name="Path 15252" d="M160.64,75.082s23.07,4.8,41.471-5.145S226,40.781,229.3,27.06" transform="translate(-94.849 -8.036)" fill="none" stroke="#0140be" stroke-linecap="round" stroke-linejoin="round" stroke-width="3"/>
    <path id="Path_15253" data-name="Path 15253" d="M196.4,26.062s4.257-6,6.729-18.523C204.381,1.2,234.3,1.023,245.837,3.424" transform="translate(-115.779 4.281)" fill="none" stroke="#0140be" stroke-linecap="round" stroke-linejoin="round" stroke-width="3"/>
    <path id="Path_15254" data-name="Path 15254" d="M92.389,64.653s8.139-.083,22.082,3.722" transform="translate(-54.903 -26.513)" fill="none" stroke="#0140be" stroke-linecap="round" stroke-linejoin="round" stroke-width="3"/>
    <path id="Path_15255" data-name="Path 15255" d="M229.512,25.036s14.281,1.6,26.732,0" transform="translate(-135.158 -7.041)" fill="none" stroke="#0140be" stroke-linecap="round" stroke-linejoin="round" stroke-width="3"/>
    <path id="Path_15256" data-name="Path 15256" d="M223.332,44.373s13.458,5.145,26.366,2.058" transform="translate(-131.541 -16.545)" fill="none" stroke="#0140be" stroke-linecap="round" stroke-linejoin="round" stroke-width="3"/>
    <path id="Path_15257" data-name="Path 15257" d="M212.294,59.663s16.753,5.031,26.091,4.688" transform="translate(-125.081 -24.06)" fill="none" stroke="#0140be" stroke-linecap="round" stroke-linejoin="round" stroke-width="3"/>
  </g>
</svg>
