<svg id="Group_10470" data-name="Group 10470" xmlns="http://www.w3.org/2000/svg" xmlns:xlink="http://www.w3.org/1999/xlink" width="118.47" height="94.997" viewBox="0 0 118.47 94.997">
  <defs>
    <clipPath id="clip-path">
      <rect id="Rectangle_1102" data-name="Rectangle 1102" width="118.47" height="94.997" fill="none" stroke="#707070" stroke-width="3"/>
    </clipPath>
  </defs>
  <g id="Group_10469" data-name="Group 10469" transform="translate(0 0)" clip-path="url(#clip-path)">
    <path id="Path_15258" data-name="Path 15258" d="M24.9,62.721a58.78,58.78,0,0,0,11.349-2.2,7.593,7.593,0,0,0,3.572-1.867,9.124,9.124,0,0,0,1.654-3.764,36.082,36.082,0,0,1,10.4-16.646c7.038-6.365,16.815-10.213,21.176-18.64,2.189-4.231,2.7-9.109,4.194-13.632a6.949,6.949,0,0,1,1.369-2.637c1.653-1.767,4.569-1.6,6.757-.566,5.806,2.743,4.649,9.2,3.14,15.439s-2.525,12.353-7.579,16.314" transform="translate(-5.991 -0.481)" fill="none" stroke="#0140be" stroke-linecap="round" stroke-linejoin="round" stroke-width="3"/>
    <path id="Path_15259" data-name="Path 15259" d="M120.125,35.531c-9.777,1.556-14.007,2.909-23,7.062-3.17,1.464-5.136,5.449-4.873,6.973a6.667,6.667,0,0,0,.229,1.368,7.116,7.116,0,0,0,4.8,4.2,12.117,12.117,0,0,0,3.3.247,45.041,45.041,0,0,0,23.3-7.35" transform="translate(-22.19 -8.548)" fill="none" stroke="#0140be" stroke-linecap="round" stroke-linejoin="round" stroke-width="3"/>
    <path id="Path_15260" data-name="Path 15260" d="M109.108,62.078c-1.682,1.176-3.369,1.293-5.051,2.468-1.49,1.041-3.134,2.354-3.178,4.171a6.4,6.4,0,0,0,2,4.417c2.766,1.963,6.5,1.768,9.824,1.085a42.053,42.053,0,0,0,16.66-7.491" transform="translate(-24.269 -14.935)" fill="none" stroke="#0140be" stroke-linecap="round" stroke-linejoin="round" stroke-width="3"/>
    <path id="Path_15261" data-name="Path 15261" d="M113.149,80.845A14.309,14.309,0,0,0,109.356,83a5.112,5.112,0,0,0-1.91,3.786,5.388,5.388,0,0,0,2.418,4.052,11.669,11.669,0,0,0,8.028,1.855A32.87,32.87,0,0,0,126,90.479c3.505-1.3,7.128-2.734,9.651-5.494" transform="translate(-25.849 -19.45)" fill="none" stroke="#0140be" stroke-linecap="round" stroke-linejoin="round" stroke-width="3"/>
    <path id="Path_15262" data-name="Path 15262" d="M117.776,94.6c-1.739,1.861-.447,5.169,1.812,6.346s4.97.868,7.495.529l3.232-.434c2.977-.4,6.03-.825,8.669-2.261s4.812-4.128,4.745-7.131-3.078-5.855-5.968-5.038" transform="translate(-28.141 -20.802)" fill="none" stroke="#0140be" stroke-linecap="round" stroke-linejoin="round" stroke-width="3"/>
    <path id="Path_15263" data-name="Path 15263" d="M139.941,35.884a3.6,3.6,0,0,1,2.9,2.8,4.973,4.973,0,0,1-1.03,4.035,1.82,1.82,0,0,0-.516.99,1.494,1.494,0,0,0,.544,1.015c1.463,1.5,3.306,2.586,4.732,4.117s2.413,3.774,1.631,5.715a4.964,4.964,0,0,0-.74,2.164c.072.8.753,1.382,1.295,1.976a7.156,7.156,0,0,1-2.131,11.239" transform="translate(-33.667 -8.633)" fill="none" stroke="#0140be" stroke-linecap="round" stroke-linejoin="round" stroke-width="3"/>
    <path id="Path_15264" data-name="Path 15264" d="M90,109.051c-10.616,7.088-25.915,6.156-35.592-2.17a4.485,4.485,0,0,0-1.986-1.212,4.169,4.169,0,0,0-1.937.267l-16.409,5" transform="translate(-8.199 -25.413)" fill="none" stroke="#0140be" stroke-linecap="round" stroke-linejoin="round" stroke-width="3"/>
    <path id="Path_15265" data-name="Path 15265" d="M78.757,72.973a12.084,12.084,0,0,0,6.109-10.816" transform="translate(-18.947 -14.954)" fill="none" stroke="#0140be" stroke-linecap="round" stroke-linejoin="round" stroke-width="3"/>
    <path id="Path_15266" data-name="Path 15266" d="M13.744,74.283A84.608,84.608,0,0,1,21,99.824a30.922,30.922,0,0,1,.178,7.434,3.112,3.112,0,0,1-.589,1.694,3.245,3.245,0,0,1-1.593.843,37.568,37.568,0,0,1-12.087,1.529A4.491,4.491,0,0,1,3.5,110.14a4.529,4.529,0,0,1-.79-2.18,52.053,52.053,0,0,1-.52-13.046" transform="translate(-0.481 -17.871)" fill="none" stroke="#0140be" stroke-linecap="round" stroke-linejoin="round" stroke-width="3"/>
    <path id="Path_15267" data-name="Path 15267" d="M7.758,72.843,4.413,74.07a2.244,2.244,0,0,0-1.362.948,2.224,2.224,0,0,0-.128,1.066l.5,11.2" transform="translate(-0.701 -17.525)" fill="none" stroke="#0140be" stroke-linecap="round" stroke-linejoin="round" stroke-width="3"/>
  </g>
</svg>
