<svg id="Group_10472" data-name="Group 10472" xmlns="http://www.w3.org/2000/svg" xmlns:xlink="http://www.w3.org/1999/xlink" width="148.087" height="108.052" viewBox="0 0 148.087 108.052">
  <defs>
    <clipPath id="clip-path">
      <rect id="Rectangle_1103" data-name="Rectangle 1103" width="148.087" height="108.052" fill="none" stroke="#707070" stroke-width="3"/>
    </clipPath>
  </defs>
  <g id="Group_10471" data-name="Group 10471" clip-path="url(#clip-path)">
    <path id="Path_15272" data-name="Path 15272" d="M43.087,45.512s3.692,18,4.7,21.695" transform="translate(2.407 2.542)" fill="none" stroke="#0140be" stroke-linecap="round" stroke-linejoin="round" stroke-width="3"/>
    <path id="Path_15273" data-name="Path 15273" d="M49.514,72.982a9.061,9.061,0,0,0,9.538,4.389c6.568-1.209,64.437-8.3,68.355-11.608S131,55.4,130.192,51.023" transform="translate(2.766 2.85)" fill="none" stroke="#0140be" stroke-linecap="round" stroke-linejoin="round" stroke-width="3"/>
    <path id="Path_15274" data-name="Path 15274" d="M96.681,18.694c11.63-1.816,20.074-3.37,24.008.433s4.934,19.787,4.934,19.787" transform="translate(5.4 0.937)" fill="none" stroke="#0140be" stroke-linecap="round" stroke-linejoin="round" stroke-width="3"/>
    <path id="Path_15275" data-name="Path 15275" d="M89.921,32.553s23.26-3.633,27.07-4.011" transform="translate(5.023 1.594)" fill="none" stroke="#0140be" stroke-linecap="round" stroke-linejoin="round" stroke-width="3"/>
    <path id="Path_15276" data-name="Path 15276" d="M56.538,55.6s61.68-9.478,64.808-10.054" transform="translate(3.158 2.544)" fill="none" stroke="#0140be" stroke-linecap="round" stroke-linejoin="round" stroke-width="3"/>
    <path id="Path_15277" data-name="Path 15277" d="M58.6,63.494s60.626-9.931,63.186-10.079" transform="translate(3.273 2.984)" fill="none" stroke="#0140be" stroke-linecap="round" stroke-linejoin="round" stroke-width="3"/>
    <path id="Path_15278" data-name="Path 15278" d="M50.034,18.056s.227-12.3-12.381-15.042C27.667.846,7.337,1.727,3.231,9.874c-2.6,5.168-1.451,22.217,7.076,25.257S37.48,37.978,41.26,33.6" transform="translate(0.112 0.112)" fill="none" stroke="#0140be" stroke-linecap="round" stroke-linejoin="round" stroke-width="3"/>
    <path id="Path_15279" data-name="Path 15279" d="M25.276,13.38s.137,13.031,7.969,17.764,40.1,7.2,46.378,5.653c5.327-1.313,9.8-8.01,6.88-19C85.285,13.218,80.85,6.6,74.716,5.511c-6.188-1.1-19.536-.995-22.863-1.255" transform="translate(1.412 0.238)" fill="none" stroke="#0140be" stroke-linecap="round" stroke-linejoin="round" stroke-width="3"/>
    <path id="Path_15280" data-name="Path 15280" d="M55.226,11.388S74.65,12.716,77.174,16.1s6.309,8.467-.034,10.559S42.51,26.13,38.293,24s-5.047-6.773-4.615-9.728" transform="translate(1.875 0.636)" fill="none" stroke="#0140be" stroke-linecap="round" stroke-linejoin="round" stroke-width="3"/>
    <path id="Path_15281" data-name="Path 15281" d="M43.516,18.707s-1.66-9.3-7.571-10.161-24.071-.5-26.2,3.719C5.5,20.7,11.808,29.165,22.366,29.2" transform="translate(0.47 0.456)" fill="none" stroke="#0140be" stroke-linecap="round" stroke-linejoin="round" stroke-width="3"/>
  </g>
</svg>
