<svg id="Group_10456" data-name="Group 10456" xmlns="http://www.w3.org/2000/svg" xmlns:xlink="http://www.w3.org/1999/xlink" width="91.475" height="90.95" viewBox="0 0 91.475 90.95">
  <defs>
    <clipPath id="clip-path">
      <rect id="Rectangle_1099" data-name="Rectangle 1099" width="91.475" height="90.95" fill="none" stroke="#707070" stroke-width="3"/>
    </clipPath>
  </defs>
  <g id="Group_10455" data-name="Group 10455" clip-path="url(#clip-path)">
    <path id="Path_15211" data-name="Path 15211" d="M63.488,21.228c-1.97-2.576-17.88-18.41-20.3-18.865s-28.562-.454-38.79-.151" transform="translate(-1.057 -0.481)" fill="none" stroke="#0140be" stroke-linecap="round" stroke-linejoin="round" stroke-width="3"/>
    <path id="Path_15212" data-name="Path 15212" d="M2,9.362s2.424,66.367.455,76.367" transform="translate(-0.481 -2.252)" fill="none" stroke="#0140be" stroke-linecap="round" stroke-linejoin="round" stroke-width="3"/>
    <path id="Path_15213" data-name="Path 15213" d="M4.095,110.519s36.141,2.5,58.188.227c0,0,.227-12.046,0-18.183" transform="translate(-0.985 -22.269)" fill="none" stroke="#0140be" stroke-linecap="round" stroke-linejoin="round" stroke-width="3"/>
    <path id="Path_15214" data-name="Path 15214" d="M54.945,6.269s2.424,16.365-1.667,27.577a73.509,73.509,0,0,0,17.88-.681" transform="translate(-12.818 -1.508)" fill="none" stroke="#0140be" stroke-linecap="round" stroke-linejoin="round" stroke-width="3"/>
    <path id="Path_15215" data-name="Path 15215" d="M62.311,63.492l28.3-43.384s7.468,2.6,11.062,7.149L88.591,54.745,85.9,54.278" transform="translate(-14.991 -4.838)" fill="none" stroke="#0140be" stroke-linecap="round" stroke-linejoin="round" stroke-width="3"/>
    <path id="Path_15216" data-name="Path 15216" d="M91.811,12.322,94.3,8.6a12.4,12.4,0,0,1,9.747,6.306L67.433,71.227a34.45,34.45,0,0,1-8.851-6.151" transform="translate(-14.094 -2.069)" fill="none" stroke="#0140be" stroke-linecap="round" stroke-linejoin="round" stroke-width="3"/>
    <path id="Path_15217" data-name="Path 15217" d="M56.832,84.482l-3.409,5.341-1.591,8.864,8.523-3.523,4.546-6.25" transform="translate(-12.47 -20.325)" fill="none" stroke="#0140be" stroke-linecap="round" stroke-linejoin="round" stroke-width="3"/>
    <path id="Path_15218" data-name="Path 15218" d="M11.577,18.156s16.365-1.136,23.638-.227" transform="translate(-2.785 -4.229)" fill="none" stroke="#0140be" stroke-linecap="round" stroke-linejoin="round" stroke-width="3"/>
    <path id="Path_15219" data-name="Path 15219" d="M11.577,29.114s17.5.682,23.183.682" transform="translate(-2.785 -7.004)" fill="none" stroke="#0140be" stroke-linecap="round" stroke-linejoin="round" stroke-width="3"/>
    <path id="Path_15220" data-name="Path 15220" d="M13.074,43.315c1.136-.227,18.865-.909,21.365-.227" transform="translate(-3.145 -10.295)" fill="none" stroke="#0140be" stroke-linecap="round" stroke-linejoin="round" stroke-width="3"/>
  </g>
</svg>
