<svg xmlns="http://www.w3.org/2000/svg" xmlns:xlink="http://www.w3.org/1999/xlink" width="88.478" height="38.875" viewBox="0 0 88.478 38.875">
  <defs>
    <clipPath id="clip-path">
      <rect id="Rectangle_1115" data-name="Rectangle 1115" width="88.478" height="38.874" fill="#fff"/>
    </clipPath>
  </defs>
  <g id="TAK_" data-name="TAK!" clip-path="url(#clip-path)">
    <path id="Path_15883" data-name="Path 15883" d="M16.752,11.97a15.719,15.719,0,0,1-1.919.15,45.175,45.175,0,0,0-.89,5.29c-.859,3.748-1.858,12.132-2.731,15.818-1.072,2.282-.65,7.3-1.967,9.132-5.87.975-2.042-9.17-2.176-12.176,1.011-2.625.631-8.243,2.458-15.669.4-.218.14-1.325.424-1.8.163-.162.337.083.513-.2-1.832-.02-8.113,1.417-9.59.225-3.1-3.189,2.781-3.487,6.219-3.967,2.45-.182,7.4-1.2,11.755-.674,2.564.38,4.643.665,5.658,2.869.829,1.7-1.4,1.663-2.366,2.1a2.265,2.265,0,0,1-1.8-.549,12.308,12.308,0,0,0-3.592-.549" transform="translate(0 -5.367)" fill="#fff"/>
    <path id="Path_15884" data-name="Path 15884" d="M72.241,1.464c2.233-4.1,8.882,1.388,8.489,4.591.817,7.881,1.814,22.99,3.263,29.242-.319.725-4.377.044-4.435-.8a.717.717,0,0,1-.331-.449L77.575,22.422a65.371,65.371,0,0,0-8.733,1.1c-1.4-.146-2.238,3.439-2.655,4.641l-.627.948c.027,2.2-1.481,6.48-2.718,8.433-.628-.585-2.741-1.556-3.1-2.22-.3-3.574,3.635-9.957,2.791-13-.357-.857.372-1.009,1.05-1.647a5.538,5.538,0,0,0,1.585-2A83.689,83.689,0,0,1,68.584,9.4a49.943,49.943,0,0,1,3.656-7.934M77.253,18.43h.1c.066-2.444-.2-11.406-1.133-13.723-2.111,1.241-3.145,8.07-4.969,9.78-.1-.053-2.1,4.437-1.574,4.541,2.606-.193,6.145-1.707,7.577-.6" transform="translate(-40.3 0)" fill="#fff"/>
    <path id="Path_15885" data-name="Path 15885" d="M162.289,5.386c.442-.027.823.4,1.222.549,1.089,2.058,1.482,3.1-.935,4.491q-3.459,2.4-7.72,6.013c-6.521,6.01-5.3,4.108-1.005,8.658,1.242,1.56,19.8,16.333,6.952,11.827-2.715-1.487-4.193-3.967-6.785-5.788-2.916-2.1-5.192-5.314-7.112-7.186q-.478.4-.465,1.846-.128.4-.911,6.836a5.007,5.007,0,0,1-.451,1.647c.27,6.329-2.15,5.134-4.905,1.3,1.567-8.71,1.912-19.14,4.178-24.651-.123-.5,1.51-7.888,1.388-8.608.14-2.082,4.046-.967,4.831.224.26.945-.456,3.429-.767,4.591.143,1.832-2.572,10.023-1.9,10.479,4.026-3.886,9.087-11.1,14.383-12.226" transform="translate(-94.576 -0.778)" fill="#fff"/>
    <path id="Path_15886" data-name="Path 15886" d="M259.706,6.181c-.084-3.553-5.9-2.3-5.814,1.268.182,7.728.4,12.268-.072,19.983-.217,3.555,4.238,4.659,4.454,1.118.472-7.716,1.613-14.641,1.431-22.369" transform="translate(-171.248 -2.742)" fill="#fff"/>
    <path id="Path_15887" data-name="Path 15887" d="M253.417,104.807a2.425,2.425,0,0,0-2.156-1.451l-.627.084a2.359,2.359,0,0,0-1.041.607l-.369.478a2.347,2.347,0,0,0-.322,1.191v.532a2.425,2.425,0,0,0,2.359,2.359l.627-.084a2.358,2.358,0,0,0,1.041-.607l.369-.478a2.347,2.347,0,0,0,.322-1.191v-.532a1.78,1.78,0,0,0-.2-.909" transform="translate(-167.933 -69.733)" fill="#fff"/>
  </g>
</svg>
