<svg xmlns="http://www.w3.org/2000/svg" width="144.939" height="186.979" viewBox="0 0 144.939 186.979">
  <g id="Component_19_2" data-name="Component 19 – 2" transform="translate(3.15 3.118)">
    <path id="Path_15173" data-name="Path 15173" d="M91.461,26.475q1.052,5.506,1.959,11.03c.418,2.564,1.563,6.3-.784,8.486-2.125,1.983-5.623,1.186-8-.029A12.616,12.616,0,0,1,78.65,39.2c-1.837-4.786-.205-10.039-3.26-14.579-3.033-4.507-9.1-7.069-14.936-8.552A44.381,44.381,0,0,0,41.9,15.013a34.514,34.514,0,0,0-8.387,2.946,37.922,37.922,0,0,0-6.992,4.266,27.073,27.073,0,0,0-10.7,22.629A31.431,31.431,0,0,0,18.3,55.975a30.094,30.094,0,0,0,2.5,4.713A11.384,11.384,0,0,0,26.543,65.2,36.641,36.641,0,0,0,33.5,66.8c1.817.3,3.5.784,5.371.926,4.8.363,9.656-.234,14.462-.233A50.6,50.6,0,0,1,71.5,70.574a44.2,44.2,0,0,1,9.932,5.2,11.278,11.278,0,0,1,3.077,3.6c2.146,3.7,2.994,7.942,3.6,11.965a117.6,117.6,0,0,1,1.131,15.556c.06,3.469.058,6.943,0,10.731-.1,7.141-.43,14.6-.83,22.033a74.515,74.515,0,0,1-1.173,11.486c-.234,1.1.268,4.767-1.993,6.135s-61.023,1.9-72.058,2.17c-8.784.217-10.775-7-10.765-23.854-.2-5.3-.473-10.591-.754-15.885C1.043,107.8.4,95.891.139,83.976Q-.084,73.859.061,63.74C.172,56.758.7,49.778.742,42.8c.038-6.2-.47-12.827,2.453-18.7,2.326-4.675,6.729-8.645,11.339-11.946A70.721,70.721,0,0,1,31.88,3.171,49,49,0,0,1,49.652.016c5.762.17,32.87.258,38.756,20.357" transform="matrix(0.951, -0.309, 0.309, 0.951, 0, 29.069)" fill="none" stroke="#0140be" stroke-width="5"/>
    <g id="Group_10425" data-name="Group 10425" transform="translate(51.375 95.567) rotate(2)">
      <path id="Path_15171" data-name="Path 15171" d="M4.393,11.014S-.693,15.2.08,16.908,19.04,31.556,19.04,31.556,34.484,13.031,40.186,2.289c0,0-7.146-2.679-9.018-2.24" transform="translate(13.348 5.962)" fill="none" stroke="#0140be" stroke-linecap="round" stroke-linejoin="round" stroke-width="5"/>
      <path id="Path_15172" data-name="Path 15172" d="M17.8,0S10.564,13.479,9.129,13.136,0,7.822,0,7.822" transform="translate(22.861 10.545)" fill="none" stroke="#0140be" stroke-linecap="round" stroke-linejoin="round" stroke-width="5"/>
      <path id="Path_15174" data-name="Path 15174" d="M52.3,19.879l-.721,10.258a26.971,26.971,0,0,1-9.171,12.585C30.781,51.7,14.2,50.74,5.375,40.582S-1.172,14.912,10.46,5.935A29.539,29.539,0,0,1,24.226.087,26.225,26.225,0,0,1,37.667,2.64" transform="translate(0 0)" fill="none" stroke="#0140be" stroke-linecap="round" stroke-linejoin="round" stroke-width="5"/>
    </g>
  </g>
</svg>
