<svg xmlns="http://www.w3.org/2000/svg" xmlns:xlink="http://www.w3.org/1999/xlink" width="492.303" height="329.667" viewBox="0 0 492.303 329.667">
  <defs>
    <clipPath id="clip-path">
      <rect id="Rectangle_1056" data-name="Rectangle 1056" width="492.303" height="329.667" fill="#f74902" stroke="#fff" stroke-width="1"/>
    </clipPath>
  </defs>
  <g id="hotel_icon" data-name="hotel icon" transform="translate(-2285 -445)">
    <g id="Group_10398" data-name="Group 10398" transform="translate(2285 445)" clip-path="url(#clip-path)">
      <path id="Path_15095" data-name="Path 15095" d="M20.177,163.212h-.111a2.617,2.617,0,0,1-2.21-1.389C1.568,130.4.244,113.2.244,95.56c0-3.744.08-7.553.154-11.238s.166-7.541.166-11.338A51.969,51.969,0,0,1,10.586,44.591,38.136,38.136,0,0,1,41.8,27.931c25.689,0,28.656,17.7,28.656,31.006,0,30.983-21.281,62.837-38.413,88.433-3.478,5.163-6.716,10.037-9.628,14.641a2.641,2.641,0,0,1-2.235,1.2M41.8,32.923C17.825,32.923,5.791,58.614,5.791,73c0,3.844-.086,7.712-.166,11.438S5.47,91.922,5.47,95.572a118.705,118.705,0,0,0,14.984,59.964c2.259-3.479,4.672-7.064,7.184-10.814,16.75-25.049,37.594-56.238,37.594-85.749-.006-18.267-7.012-26.05-23.436-26.05" transform="translate(1.258 136.496)" fill="#f74902" stroke="#fff" stroke-width="1"/>
      <path id="Path_15096" data-name="Path 15096" d="M12.173,181.391a2.593,2.593,0,0,1-2.567-1.966,298.119,298.119,0,0,1-7.085-52.3,188.29,188.29,0,0,1,18.166-81.5c1.847-4.48,3.755-9.148,5.633-13.94a2.651,2.651,0,0,1,3.367-1.454,2.469,2.469,0,0,1,1.521,3.22c-1.9,4.874-3.811,9.531-5.663,14.029-9.566,23.171-17.8,43.175-17.8,79.709A298.456,298.456,0,0,0,14.7,178.4a2.5,2.5,0,0,1-1.995,2.943,2.354,2.354,0,0,1-.536.047" transform="translate(12.981 146.922)" fill="#f74902" stroke="#fff" stroke-width="1"/>
      <path id="Path_15097" data-name="Path 15097" d="M20.459,63.083a2.653,2.653,0,0,1-1.945-.83A200.648,200.648,0,0,1,.692,39.882a2.438,2.438,0,0,1,.843-3.438,2.69,2.69,0,0,1,3.5.677A195.864,195.864,0,0,0,22.423,58.932a2.421,2.421,0,0,1-.215,3.526,2.658,2.658,0,0,1-1.73.63Z" transform="translate(1.555 176.273)" fill="#f74902" stroke="#fff" stroke-width="1"/>
      <path id="Path_15098" data-name="Path 15098" d="M18.171,64.917a2.626,2.626,0,0,1-2.364-1.425c-4.6-9.307-9.382-19.356-13.365-29.717a2.479,2.479,0,0,1,1.588-3.191,2.649,2.649,0,0,1,3.337,1.525C11.245,42.282,15.985,52.2,20.553,61.391a2.449,2.449,0,0,1-1.231,3.326,2.745,2.745,0,0,1-1.151.2" transform="translate(11.821 148.765)" fill="#f74902" stroke="#fff" stroke-width="1"/>
      <path id="Path_15099" data-name="Path 15099" d="M10.151,133.294a2.559,2.559,0,0,1-2.635-2.473,2.149,2.149,0,0,1,.025-.347c3.078-22.082,38.339-94.332,50.78-94.332h.191c1.914.118,4.186,1.348,4.186,6.534,0,.93-.062,1.86-.129,2.785-.049.73-.1,1.466-.111,2.178.351,3.049,2.739,24.5,2.739,39.089a347.361,347.361,0,0,1-2.21,36.564,2.568,2.568,0,0,1-2.505,2.219,188.943,188.943,0,0,0-49.475,7.653,2.817,2.817,0,0,1-.856.13M57.465,41.6c-8.618,5.887-38.1,58.928-44,85.537a203.01,203.01,0,0,1,44.581-6.564C59.4,108.1,60.008,94.74,60.008,86.728c0-14.582-2.462-36.228-2.715-38.648a3.052,3.052,0,0,1,0-.336c0-.83.062-1.766.129-2.661s.111-1.625.111-2.437c-.025-.406-.043-.765-.074-1.048Z" transform="translate(38.752 176.622)" fill="#f74902" stroke="#fff" stroke-width="1"/>
      <path id="Path_15100" data-name="Path 15100" d="M21.149,128.633c-2.321,0-4.734-2.555-8.938-7.582a2.421,2.421,0,0,1,.246-3.52,2.7,2.7,0,0,1,3.687.235c.043.053.092.106.135.165,1.231,1.489,2.216,2.6,2.986,3.432-.086-.954-.2-2-.3-3a147.344,147.344,0,0,1-1-15.8,288.915,288.915,0,0,1,8.07-59.882,2.609,2.609,0,0,1,3.078-1.943,2.5,2.5,0,0,1,2.038,2.943,284.3,284.3,0,0,0-7.966,58.869,142.915,142.915,0,0,0,.973,15.306c.689,6.476,1,9.419-1.742,10.532a3.437,3.437,0,0,1-1.268.241" transform="translate(59.635 198.849)" fill="#f74902" stroke="#fff" stroke-width="1"/>
      <path id="Path_15101" data-name="Path 15101" d="M20.35,91.243a2.556,2.556,0,0,1-2.61-2.5,2.475,2.475,0,0,1,.382-1.3C30.575,67.89,51.247,57.334,64.384,57.334c4.974,0,8.434,3.826,10.022,10.814a12.88,12.88,0,0,1,8.618-4.492c.142-.006.277-.006.419,0,5.331,0,5.99,6.652,6.359,11.821a124.059,124.059,0,0,1,25.012-27.445,2.689,2.689,0,0,1,3.663.442,2.421,2.421,0,0,1-.394,3.45A127.251,127.251,0,0,0,90.928,83.219a2.633,2.633,0,0,1-2.272,1.272c-3.478,0-3.731-3.762-4.026-8.106a23.118,23.118,0,0,0-1.348-7.718c-4.451.5-7.387,5.339-7.917,9.69a2.579,2.579,0,0,1-2.752,2.361,2.546,2.546,0,0,1-2.469-2.637c0-7.818-1.785-15.7-5.768-15.7-10.028,0-29.629,8.6-41.8,27.721a2.642,2.642,0,0,1-2.228,1.148Z" transform="translate(91.466 232.166)" fill="#f74902" stroke="#fff" stroke-width="1"/>
      <path id="Path_15102" data-name="Path 15102" d="M24.3,64.717a2.57,2.57,0,0,1-2.746-2.361,2.538,2.538,0,0,1,2.469-2.631,1141.947,1141.947,0,0,1,119.148-5.487c8.126,0,16.7.059,25.51.177a2.556,2.556,0,0,1,2.61,2.5,2.612,2.612,0,0,1-2.61,2.5c-8.785-.118-17.341-.177-25.436-.177A1138.7,1138.7,0,0,0,24.684,64.688Z" transform="translate(111.092 264.949)" fill="#f74902" stroke="#fff" stroke-width="1"/>
      <path id="Path_15103" data-name="Path 15103" d="M53.512,61.38a2.5,2.5,0,1,1-.2-4.992c19.7-1.513,39.737-1.666,59.1-1.813,12.854-.1,26.144-.2,39.195-.7a2.63,2.63,0,0,1,2.715,2.4,2.545,2.545,0,0,1-2.505,2.584c-13.131.506-26.471.589-39.361.706-19.262.147-39.183.3-58.722,1.8Z" transform="translate(261.93 263.277)" fill="#f74902" stroke="#fff" stroke-width="1"/>
      <path id="Path_15104" data-name="Path 15104" d="M35.862,276.941a2.556,2.556,0,0,1-2.61-2.5c2.155-143.558,3.478-162.3,3.626-164.086,0-12.951-.616-25.273-1.114-35.18-.332-6.652-.616-12.363-.616-16.419,0-6.652.363-13.422.714-19.962s.714-13.251.714-19.809c0-1.507,0-3-.062-4.5a2.538,2.538,0,0,1,2.407-2.555c27.394-2,81.388-2.119,81.911-2.119,31.02,0,49.3,1.066,80.883,3.326a2.54,2.54,0,0,1,2.419,2.5v.589q-.046,5.537-.062,11.1a521.848,521.848,0,0,0,5.22,67.652,797.649,797.649,0,0,1,7.27,107.672c0,7.117-.08,14.229-.148,21.34s-.148,14.2-.148,21.316c0,11.874.043,20.163.616,26.833a2.542,2.542,0,0,1-2.4,2.7,2.587,2.587,0,0,1-2.819-2.3c-.585-6.852-.616-15.229-.616-27.227,0-7.135.068-14.258.148-21.364s.148-14.187.148-21.293a795.049,795.049,0,0,0-7.227-107.089,530.43,530.43,0,0,1-5.22-68.2V17.946c-29.986-2.131-48.016-3.138-78.076-3.138-.5,0-51.2.118-79.055,1.937v2.243c0,6.652-.363,13.493-.72,20.068s-.7,13.2-.7,19.727c0,3.915.277,9.6.616,16.183.5,10.008,1.114,22.411,1.114,35.522v.288c-.049.542-1.385,15.206-3.607,163.792a2.557,2.557,0,0,1-2.6,2.372" transform="translate(171.445 47.969)" fill="#f74902" stroke="#fff" stroke-width="1"/>
      <path id="Path_15105" data-name="Path 15105" d="M134.238,37.077a2.565,2.565,0,0,1-2.61-2.355c-.394-8.1-.5-16-.548-22.894q-9.853.221-19.7.383c-21.546.389-43.806.783-65.715,2.319-.142,5.887-.616,12.363-1.5,20.145A2.6,2.6,0,0,1,41.271,36.9a2.542,2.542,0,0,1-2.327-2.767,209.176,209.176,0,0,0,1.521-21.941,2.54,2.54,0,0,1,2.4-2.5c22.82-1.666,45.991-2.1,68.392-2.5q11.164-.185,22.328-.442a2.8,2.8,0,0,1,1.89.706,2.452,2.452,0,0,1,.794,1.766c0,7.412.111,16.2.548,25.225a2.54,2.54,0,0,1-2.462,2.614Z" transform="translate(200.713 23.03)" fill="#f74902" stroke="#fff" stroke-width="1"/>
      <path id="Path_15106" data-name="Path 15106" d="M47.408,23.723a2.573,2.573,0,0,1-2.61-2.16,11.983,11.983,0,0,1,1.391-10.008c2.3-2.5,5.916-2.5,11.906-2.437h2.53c10.465,0,13.734.624,15.359,2.9,1.471,2.06.523,4.35-.48,6.776-.363.883-.776,1.89-1.139,3a2.635,2.635,0,0,1-3.275,1.637A2.478,2.478,0,0,1,69.378,20.3c.425-1.283.868-2.355,1.268-3.326a21.22,21.22,0,0,0,.806-2.155,43.414,43.414,0,0,0-10.834-.706H58.051a19.665,19.665,0,0,0-7.96.742c-.394.424-.733,1.807-.142,5.981a2.52,2.52,0,0,1-2.235,2.8,2.612,2.612,0,0,1-.308.082" transform="translate(228.261 34.483)" fill="#f74902" stroke="#fff" stroke-width="1"/>
      <path id="Path_15107" data-name="Path 15107" d="M50.461,43.8a2.556,2.556,0,0,1-2.61-2.5c0-12.474-.616-24.4-1.231-36.976l-.055-1.713A2.546,2.546,0,0,1,49.051,0a2.572,2.572,0,0,1,2.733,2.378l.08,1.713C52.48,16.734,53.1,28.678,53.1,41.306a2.556,2.556,0,0,1-2.61,2.5h-.025" transform="translate(240.068 -19.998)" fill="#f74902" stroke="#fff" stroke-width="1"/>
      <path id="Path_15108" data-name="Path 15108" d="M46.238,101.544a2.556,2.556,0,0,1-2.61-2.5V97.958c0-13.822-.468-27.969-.93-41.644l-.228-6.97A2.549,2.549,0,0,1,45,46.772h.08c4.925,0,9.9,0,14.873.065,5.22,0,10.367.077,15.556.077,11.949,0,26.089-.165,40.457-1.336a2.572,2.572,0,0,1,2.819,2.266l.006.135c.1,2.885.142,5.946.142,9.637,0,3.326,0,6.593-.068,9.9s-.068,6.564-.068,9.831c0,9.525.529,18.249.616,19.892a1.579,1.579,0,0,1,0,.241v.93a2.613,2.613,0,0,1-5.22-.118v-.83c-.154-2.29-.653-10.7-.653-20.133,0-3.285,0-6.587.068-9.878s.068-6.57.068-9.849c0-2.537,0-4.774-.068-6.864-13.592,1.007-26.84,1.148-38.167,1.148-5.22,0-10.465-.041-15.605-.077L47.66,51.74l.148,4.392c.449,13.717.93,27.9.93,41.8v1.107a2.55,2.55,0,0,1-2.555,2.5Z" transform="translate(218.972 222.683)" fill="#f74902" stroke="#fff" stroke-width="1"/>
      <path id="Path_15109" data-name="Path 15109" d="M51.48,100.537a2.57,2.57,0,0,1-2.61-2.272C48.254,91.912,48,85.054,48,76.683c0-5.3.111-10.714.228-15.936.086-4.156.172-8.318.209-12.474a2.613,2.613,0,0,1,5.22.041c0,4.156-.123,8.377-.209,12.569-.111,5.2-.228,10.6-.228,15.8,0,8.242.277,14.929.868,21.134a2.528,2.528,0,0,1-2.364,2.7Z" transform="translate(247.495 223.82)" fill="#f74902" stroke="#fff" stroke-width="1"/>
      <path id="Path_15110" data-name="Path 15110" d="M49.409,58.644c-2.376,0-3.62-2.3-3.62-4.556a3.545,3.545,0,0,1,2.61-3.532,4.273,4.273,0,0,1,1.28-.2,3.261,3.261,0,0,1,3.472,3.026l.006.165c.006.83-.646,5.1-3.749,5.1m-1.367-4.568a1.746,1.746,0,0,0,2.025,1.242l-.572-1.666A2.49,2.49,0,0,0,48.042,54.076Zm1.453-.424.572,1.666a1.527,1.527,0,0,0,.868-.983,2.074,2.074,0,0,0-1.44-.683" transform="translate(236.067 246.062)" fill="#f74902" stroke="#fff" stroke-width="1"/>
      <path id="Path_15111" data-name="Path 15111" d="M54.58,58.848A4.14,4.14,0,0,1,50.1,55.121l-.006-.177v-.383a5.078,5.078,0,0,1,1.354-3.785,2.705,2.705,0,0,1,3.694,0,2.509,2.509,0,0,1,.714,1.3A3.127,3.127,0,0,1,58.9,55.1a3.97,3.97,0,0,1-4.155,3.756l-.16-.006" transform="translate(258.216 244.581)" fill="#f74902" stroke="#fff" stroke-width="1"/>
      <path id="Path_15112" data-name="Path 15112" d="M42.6,51.8a2.561,2.561,0,0,1-2.61-2.42c-.3-9.713-.653-22.623-.653-28.975v-.5a2.556,2.556,0,0,1,2.61-2.5h.08c6.2.177,12.515.247,18.628.324l10.865.147a2.559,2.559,0,0,1,2.555,2.443c.154,7.653.363,18.4.5,25.991l.043,1.972a2.536,2.536,0,0,1-2.253,2.5,144.123,144.123,0,0,1-19.194.912h-3.25c-2.856.024-5.263.053-7.326.106m1.964-29.317c.049,6.128.32,16.012.566,24.3h8.046a159.691,159.691,0,0,0,16.184-.589c-.129-6.793-.3-16.018-.449-23.289l-8.317-.106c-5.251-.13-10.662-.2-16.03-.312" transform="translate(202.799 85.066)" fill="#f74902" stroke="#fff" stroke-width="1"/>
      <path id="Path_15113" data-name="Path 15113" d="M51.723,53.595a2.556,2.556,0,0,1-2.61-2.5v-.047l.1-4.568c.111-4.839.228-9.855.228-14.764,0-4.121-.08-7.771-.246-11.156a2.418,2.418,0,0,1,.733-1.837,2.465,2.465,0,0,1,1.9-.765h5.386c9.012,0,17.618-.2,25.584-.589a2.6,2.6,0,0,1,1.958.706,2.442,2.442,0,0,1,.794,1.854c-.215,7.247-.259,14.57-.3,21.664L85.2,49.7a2.55,2.55,0,0,1-2.555,2.5c-9.819.206-20.284.5-30.675,1.389Zm2.795-30.612c.1,2.7.142,5.6.142,8.748,0,4.992-.111,10.008-.228,14.87v1.766c8.7-.659,17.341-.924,25.6-1.113V41.574c0-6.246.068-12.675.228-19.127-8.077.4-16.793.559-25.738.524Z" transform="translate(253.224 84.871)" fill="#f74902" stroke="#fff" stroke-width="1"/>
      <path id="Path_15114" data-name="Path 15114" d="M49.211,61.8H42.082a2.556,2.556,0,0,1-2.61-2.5V59.26c.166-9.731.185-19.2.185-29.664a2.556,2.556,0,0,1,2.6-2.5l.185.006c2.505.165,5.159.247,8.126.247,4.309,0,8.7-.177,12.964-.341,3.343-.124,6.772-.259,10.176-.306a2.562,2.562,0,0,1,2.61,2.4c.129,3.326.191,6.081.191,8.707A140.855,140.855,0,0,1,75.33,55.876c-.129,1.095-.259,2.172-.376,3.244a2.561,2.561,0,0,1-2.462,2.237c-8.317.389-16.436.441-23.282.441m-4.482-4.992h4.482c6.156,0,13.383-.041,20.875-.347l.129-1.177a135.475,135.475,0,0,0,1.139-17.514c0-1.89,0-3.862-.1-6.064-2.493.065-5.029.165-7.486.259-4.309.165-8.766.341-13.174.341-2.019,0-3.9,0-5.694-.106,0,8.565-.037,16.519-.154,24.584Z" transform="translate(203.515 130.48)" fill="#f74902" stroke="#fff" stroke-width="1"/>
      <path id="Path_15115" data-name="Path 15115" d="M79.892,59.792c-4.131,0-8.323-.082-12.386-.165-4.925-.1-10.053-.206-15.039-.147a2.56,2.56,0,0,1-2.61-2.384c-.419-8.948-.659-18.032-.72-26.98a2.541,2.541,0,0,1,2.382-2.5c7.6-.624,15.39-.671,22.888-.718,3.8,0,7.6,0,11.413-.141a2.516,2.516,0,0,1,1.921.742,2.441,2.441,0,0,1,.757,1.831c-.3,9.59-.363,19.085-.375,27.922a2.553,2.553,0,0,1-2.549,2.5c-1.884.029-3.78.047-5.682.041m-24.624-5.3c4.112,0,8.3.082,12.361.165,5.017.1,10.194.206,15.261.147,0-7.353.08-15.118.3-22.959-2.924.047-5.842.065-8.76.082-6.618.041-13.426.077-20.075.518.08,7.335.277,14.717.616,22.076Z" transform="translate(253.347 130.761)" fill="#f74902" stroke="#fff" stroke-width="1"/>
      <path id="Path_15116" data-name="Path 15116" d="M41.958,71.618a2.556,2.556,0,0,1-2.61-2.5v-.088c.111-3.167.271-6.346.419-9.525.3-6.364.616-12.951.616-19.309v-.836a2.552,2.552,0,0,1,2.61-2.5h.979c3.62.159,7.387.318,11.013.318a100.214,100.214,0,0,0,16.578-1.413l2.345-.347a2.546,2.546,0,0,1,2.936,2.013,2.3,2.3,0,0,1,.031.459V38.7a284.571,284.571,0,0,0,1.65,29.941,2.529,2.529,0,0,1-2.339,2.732c-.074.006-.142.012-.215.012-4.346.065-8.618.041-12.866,0H56.209c-6.642,0-10.995.082-14.1.265ZM45.6,42.024c-.049,5.922-.339,11.927-.616,17.749-.1,2.255-.209,4.515-.3,6.764,2.893-.094,6.6-.141,11.542-.141H73.095c-.868-8.772-1.324-17.349-1.391-25.555A101.231,101.231,0,0,1,54.99,42.224C51.82,42.224,48.674,42.113,45.6,42.024Z" transform="translate(202.876 172.959)" fill="#f74902" stroke="#fff" stroke-width="1"/>
      <path id="Path_15117" data-name="Path 15117" d="M52.577,70.753a2.556,2.556,0,0,1-2.61-2.5q.065-4.574.068-9.148c0-6.387-.1-12.951-.3-19.427a2.549,2.549,0,0,1,2.53-2.573h.7a231.908,231.908,0,0,0,29.271-2.5l1.047-.135A2.6,2.6,0,0,1,86.238,36.6l.018.177c.529,9.808.868,19.751.991,29.558a2.544,2.544,0,0,1-2.376,2.5c-6.088.53-12.429.83-18.049,1.083-5.22.235-10.09.459-13.986.83Zm2.462-28.716c.148,5.722.228,11.438.228,17.043v6.476c3.417-.247,7.295-.424,11.358-.589,5.042-.235,10.243-.477,15.39-.83-.129-8.095-.4-16.26-.806-24.342a238.961,238.961,0,0,1-26.175,2.237Z" transform="translate(256.445 168.367)" fill="#f74902" stroke="#fff" stroke-width="1"/>
      <path id="Path_15118" data-name="Path 15118" d="M26.629,44.913h-.154a2.54,2.54,0,0,1-2.462-2.631v-.006c.1-1.489.142-3.049.142-4.916,0-1.472,0-2.943-.049-4.409s0-2.943,0-4.474a67.63,67.63,0,0,1,.443-8.5,2.6,2.6,0,0,1,2.881-2.249,2.552,2.552,0,0,1,2.352,2.755l-.012.082a63.1,63.1,0,0,0-.443,7.918c0,1.454,0,2.908.049,4.374s.049,2.985.049,4.492c0,1.96-.043,3.62-.148,5.2a2.566,2.566,0,0,1-2.629,2.355Z" transform="translate(123.786 86.565)" fill="#f74902" stroke="#fff" stroke-width="1"/>
      <path id="Path_15119" data-name="Path 15119" d="M29.117,42.235a2.566,2.566,0,0,1-2.61-2.278c-.2-2.137-.277-4.4-.277-7.329v-7.8c0-1.425,0-2.837-.086-4.256a2.615,2.615,0,0,1,5.22-.218c.068,1.5.086,2.985.086,4.474V32.61c0,2.779.08,4.91.259,6.894a2.535,2.535,0,0,1-2.376,2.7Z" transform="translate(134.785 87.771)" fill="#f74902" stroke="#fff" stroke-width="1"/>
      <path id="Path_15120" data-name="Path 15120" d="M26.722,25.09a2.5,2.5,0,1,1,0-4.992,71.381,71.381,0,0,0,10.7-.524,2.61,2.61,0,0,1,3.121,1.878,2.5,2.5,0,0,1-1.964,2.991,3.582,3.582,0,0,1-.363.053,75.755,75.755,0,0,1-11.493.595" transform="translate(124.32 95.349)" fill="#f74902" stroke="#fff" stroke-width="1"/>
      <path id="Path_15121" data-name="Path 15121" d="M32.754,39.827a8.348,8.348,0,0,1-8.618-7.794,9.171,9.171,0,0,1,7.627-8.624,12.39,12.39,0,0,1,1.982-.165,7.512,7.512,0,0,1,7.695,7.312,7.081,7.081,0,0,1-.043.807,8.594,8.594,0,0,1-8.643,8.465m.966-11.591a6.5,6.5,0,0,0-1.12.1,4.1,4.1,0,0,0-3.269,3.7c0,2.5,3.392,2.8,3.429,2.8a3.535,3.535,0,0,0,3.4-3.479c0-3.22-1.779-3.126-2.438-3.126" transform="translate(124.444 113.591)" fill="#f74902" stroke="#fff" stroke-width="1"/>
      <path id="Path_15122" data-name="Path 15122" d="M27.854,43.814a2.566,2.566,0,0,1-2.61-2.319c-.049-.706-.068-1.413-.068-2.119a58.727,58.727,0,0,1,.449-6.411c.111-1.107.234-2.219.32-3.326a2.588,2.588,0,0,1,2.8-2.319A2.543,2.543,0,0,1,31.166,30c-.086,1.177-.209,2.355-.332,3.532a52.375,52.375,0,0,0-.425,5.887,16.932,16.932,0,0,0,.062,1.766,2.539,2.539,0,0,1-2.419,2.661Z" transform="translate(129.806 133.476)" fill="#f74902" stroke="#fff" stroke-width="1"/>
      <path id="Path_15123" data-name="Path 15123" d="M26.708,32.944A2.576,2.576,0,0,1,23.9,30.636a2.538,2.538,0,0,1,2.407-2.684,67.657,67.657,0,0,1,9.456-.559,70.1,70.1,0,0,0,7.03-.288,2.59,2.59,0,0,1,2.881,2.231A2.538,2.538,0,0,1,43.341,32.1c-2.61.265-5.085.288-7.516.324a63.166,63.166,0,0,0-8.7.5,1.976,1.976,0,0,1-.419.024" transform="translate(123.189 132.384)" fill="#f74902" stroke="#fff" stroke-width="1"/>
      <path id="Path_15124" data-name="Path 15124" d="M27.644,47.439a2.556,2.556,0,0,1-2.61-2.5c0-3.644-.259-7.117-.529-10.814v-.518a2.548,2.548,0,0,1,2.432-2.673,2.581,2.581,0,0,1,2.789,2.325v.53c.289,3.774.548,7.347.548,11.185a2.556,2.556,0,0,1-2.6,2.5h-.025Z" transform="translate(126.31 151.161)" fill="#f74902" stroke="#fff" stroke-width="1"/>
      <path id="Path_15125" data-name="Path 15125" d="M28.791,36.28c-.665,0-1.324-.029-1.982-.094a2.544,2.544,0,0,1-2.352-2.749,2.6,2.6,0,0,1,2.875-2.243,25.057,25.057,0,0,0,4.555-.1c1.157-.094,2.358-.194,3.644-.194a2.5,2.5,0,1,1,0,4.992c-1.071,0-2.105.082-3.207.177s-2.3.212-3.534.212" transform="translate(126.037 151)" fill="#f74902" stroke="#fff" stroke-width="1"/>
      <path id="Path_15126" data-name="Path 15126" d="M30.49,39.045H27.012a2.5,2.5,0,1,1,0-4.992H30.5a14.105,14.105,0,0,0,4.155-.477,2.665,2.665,0,0,1,3.453,1.248,2.52,2.52,0,0,1-1.8,3.462,19.211,19.211,0,0,1-5.817.759" transform="translate(125.815 163.005)" fill="#f74902" stroke="#fff" stroke-width="1"/>
      <path id="Path_15127" data-name="Path 15127" d="M27.386,37.618a2.5,2.5,0,1,1,0-4.992,9.353,9.353,0,0,0,1.342-.147,11.2,11.2,0,0,1,3.546-.082,2.5,2.5,0,0,1,2.044,2.938,2.607,2.607,0,0,1-3.072,1.96,5.246,5.246,0,0,0-1.742.118,15.081,15.081,0,0,1-2.118.206" transform="translate(127.744 157.815)" fill="#f74902" stroke="#fff" stroke-width="1"/>
      <path id="Path_15128" data-name="Path 15128" d="M32.193,50.77A7.969,7.969,0,0,1,26.321,49.1a4.924,4.924,0,0,1-1.33-3.891,21.09,21.09,0,0,1,.653-4.592,23.744,23.744,0,0,0,.511-2.779,2.582,2.582,0,0,1,2.758-2.372A2.548,2.548,0,0,1,31.393,38.1l-.018.188a27.046,27.046,0,0,1-.616,3.367,17.219,17.219,0,0,0-.542,3.532v.389a9.318,9.318,0,0,0,1.982.159,24.477,24.477,0,0,0,5.54-.889,2.609,2.609,0,0,1,3.09,1.925,2.489,2.489,0,0,1-1.822,2.914,29.614,29.614,0,0,1-6.815,1.083" transform="translate(128.717 173.321)" fill="#f74902" stroke="#fff" stroke-width="1"/>
      <path id="Path_15129" data-name="Path 15129" d="M52.6,178.125a22.841,22.841,0,0,1-18.468-8.748,45.761,45.761,0,0,1-7.824-28.846v-7.106a325.3,325.3,0,0,0-2.7-36.77,289.926,289.926,0,0,1-2.462-32.078c0-27.315,1.742-49.9,22.962-49.9,35.089,0,35.089,65.586,35.089,90.282,0,3.491-.111,7.005-.228,10.4s-.234,6.829-.234,10.231a88.806,88.806,0,0,0,1.89,20.163,2.407,2.407,0,0,1,.252,1.43l-.215,1.766a61.5,61.5,0,0,1-1.81,10.231A29.684,29.684,0,0,1,52.6,178.125M44.173,19.644c-15,0-17.741,15.129-17.741,44.911A284.819,284.819,0,0,0,28.839,96.1a328.841,328.841,0,0,1,2.733,37.3v7.105c0,20.716,7.676,32.6,21.053,32.6a24.708,24.708,0,0,0,21.22-15.347,56.47,56.47,0,0,0,1.742-9.484l.142-1.124a102.929,102.929,0,0,1-2.093-21.623c0-3.485.123-6.994.234-10.39s.228-6.835.228-10.249c-.049-21.034-.049-85.225-29.924-85.225Z" transform="translate(109.017 71.715)" fill="#f74902" stroke="#fff" stroke-width="1"/>
      <path id="Path_15130" data-name="Path 15130" d="M32.456,31.322a2.578,2.578,0,0,1-2.555-2l-.08-.4a2.5,2.5,0,0,1,2.038-2.943h.006a2.744,2.744,0,0,1,1.9.336c2.462-.059,4.925-.3,7.479-.542a73.347,73.347,0,0,1,12.244-.483,2.549,2.549,0,0,1,2.425,2.679,2.583,2.583,0,0,1-2.8,2.314,67.719,67.719,0,0,0-11.352.477c-3.016.247-6.094.565-9.308.565" transform="translate(153.484 123.227)" fill="#f74902" stroke="#fff" stroke-width="1"/>
      <path id="Path_15131" data-name="Path 15131" d="M55.145,35.819c-7.516,0-15.291,0-22.968-.489a2.537,2.537,0,0,1-2.395-2.7,2.578,2.578,0,0,1,2.746-2.3c7.5.477,15.193.477,22.611.477a2.5,2.5,0,1,1,0,4.992Z" transform="translate(153.511 148.241)" fill="#f74902" stroke="#fff" stroke-width="1"/>
      <path id="Path_15132" data-name="Path 15132" d="M115.413,98.319a2.577,2.577,0,0,1-2.61-2.1,530.623,530.623,0,0,1-3.817-59.052V33.9c-10.157.336-19.4.489-28.176.489-5.774,0-11.413-.065-16.756-.206a2.5,2.5,0,1,1,.148-4.992c5.306.141,10.89.206,16.621.206,9.5,0,19.576-.182,30.78-.589a2.82,2.82,0,0,1,1.945.73,2.439,2.439,0,0,1,.757,1.854q-.1,2.87-.1,5.757a538.334,538.334,0,0,0,3.786,58.216,2.513,2.513,0,0,1-2.161,2.861h-.006a2.373,2.373,0,0,1-.406.088" transform="translate(317.177 140.801)" fill="#f74902" stroke="#fff" stroke-width="1"/>
      <path id="Path_15133" data-name="Path 15133" d="M94.366,58.222a2.6,2.6,0,0,1-2.493-1.766,40.725,40.725,0,0,1-1.637-12.675V40.29H73.614a2.5,2.5,0,1,1,0-4.992H92.956a2.556,2.556,0,0,1,2.61,2.5l-.043,1.954c0,1.336-.049,2.679-.049,4a36.01,36.01,0,0,0,1.4,11.185,2.475,2.475,0,0,1-1.724,3.12l-.018.006a2.841,2.841,0,0,1-.763.159" transform="translate(366.092 172.498)" fill="#f74902" stroke="#fff" stroke-width="1"/>
      <path id="Path_15134" data-name="Path 15134" d="M114.979,75.7a2.566,2.566,0,0,1-2.61-2.319c-.751-10.008-1.231-20.2-1.6-29.941-3.078.206-6.156.506-9.166.83-5.7.642-11.438,1.007-17.175,1.095a72.566,72.566,0,0,1-10.36-.689,2.529,2.529,0,0,1-2.333-2.737A2.589,2.589,0,0,1,74.6,39.712l.234.035a67.516,67.516,0,0,0,9.566.63q8.347-.132,16.652-1.071c3.921-.377,8-.765,12.066-.965a2.635,2.635,0,0,1,1.9.648,2.443,2.443,0,0,1,.868,1.766c.4,10.414.868,21.523,1.687,32.3a2.539,2.539,0,0,1-2.407,2.673Z" transform="translate(369.783 187.34)" fill="#f74902" stroke="#fff" stroke-width="1"/>
      <path id="Path_15135" data-name="Path 15135" d="M121.882,83.459a2.565,2.565,0,0,1-2.61-2.355c-.511-7.341-.511-14.764-.511-21.94,0-3.326,0-6.776-.049-10.19q-9.049.812-18.148.742-3.167,0-6.359-.041c.154,8.165.468,16.218.954,24.519a2.531,2.531,0,0,1-2.3,2.62,118.564,118.564,0,0,1-24.944.306,2.545,2.545,0,0,1-2.339-2.755,2.6,2.6,0,0,1,2.887-2.237,111.976,111.976,0,0,0,21.349-.047c-.468-8.418-.757-16.6-.868-24.949a2.443,2.443,0,0,1,.757-1.8,2.567,2.567,0,0,1,1.89-.73c2.992.041,5.984.077,8.969.077a164.923,164.923,0,0,0,20.388-.983,2.6,2.6,0,0,1,2.918,2.166,1.671,1.671,0,0,1,.018.247c.1,4.356.1,8.772.1,13.051,0,7.094,0,14.429.5,21.623a2.538,2.538,0,0,1-2.432,2.655h-.031Z" transform="translate(338.053 213.458)" fill="#f74902" stroke="#fff" stroke-width="1"/>
      <path id="Path_15136" data-name="Path 15136" d="M86.181,46.665a10.156,10.156,0,0,1-9.536-10.826A10.268,10.268,0,0,1,86.476,26.7c.468.047.948.059,1.416.077a9.022,9.022,0,0,1,5.54,1.431A8.528,8.528,0,0,1,97.249,36.4,11.567,11.567,0,0,1,86.181,46.665m-.616-15.012c-2.733,0-4.42,3.085-4.42,5.3a5.033,5.033,0,0,0,5.029,4.71,6.645,6.645,0,0,0,5.836-5.3c0-2.867-.425-3.2-1.847-4.3a5.819,5.819,0,0,0-2.419-.341A10.767,10.767,0,0,1,86,31.629Z" transform="translate(394.98 130.49)" fill="#f74902" stroke="#fff" stroke-width="1"/>
      <path id="Path_15137" data-name="Path 15137" d="M74.841,46.408a2.556,2.556,0,0,1-2.61-2.5V15.337a2.613,2.613,0,0,1,5.22,0V43.912a2.556,2.556,0,0,1-2.61,2.5" transform="translate(372.419 62.811)" fill="#f74902" stroke="#fff" stroke-width="1"/>
      <path id="Path_15138" data-name="Path 15138" d="M90.367,21.365a149.432,149.432,0,0,1-17.914-1.4A2.535,2.535,0,0,1,70.2,17.144a2.609,2.609,0,0,1,2.869-2.166,146.188,146.188,0,0,0,17.274,1.354,60.119,60.119,0,0,0,6.907-.383,2.6,2.6,0,0,1,2.881,2.249,2.544,2.544,0,0,1-2.265,2.743,63.8,63.8,0,0,1-7.5.424" transform="translate(361.823 73.131)" fill="#f74902" stroke="#fff" stroke-width="1"/>
      <path id="Path_15139" data-name="Path 15139" d="M2.592,43.79A2.554,2.554,0,0,1,0,41.276a2.463,2.463,0,0,1,1.145-2.049,139.966,139.966,0,0,0,17-12.363c1.958-1.666,3.8-3.185,6.334-4.992a2.689,2.689,0,0,1,3.589.389A53.557,53.557,0,0,0,43.122,35.048C49,30.521,54.788,25.8,60.4,21.225l2.044-1.666a2.7,2.7,0,0,1,3.681.277l.074.088A63.743,63.743,0,0,0,81.911,33.67L84.275,31.9c4.512-3.42,9.185-6.947,14.208-10.037a2.682,2.682,0,0,1,3.577.877,2.432,2.432,0,0,1-.757,3.32c-4.808,2.943-9.166,6.252-13.8,9.755q-1.9,1.448-3.841,2.9a2.713,2.713,0,0,1-2.986.147A70.42,70.42,0,0,1,63.782,25C57.694,29.991,51.47,35.06,45.031,39.969a2.7,2.7,0,0,1-2.795.277A53.776,53.776,0,0,1,25.713,27.295c-1.477,1.148-2.764,2.219-4.106,3.326A144.553,144.553,0,0,1,4.038,43.378a2.708,2.708,0,0,1-1.447.412" transform="translate(0 92.662)" fill="#f74902" stroke="#fff" stroke-width="1"/>
    </g>
  </g>
</svg>
