<svg id="icon4" xmlns="http://www.w3.org/2000/svg" width="413.514" height="313.287" viewBox="0 0 413.514 313.287">
  <g id="Group_10526" data-name="Group 10526" transform="translate(0)">
    <path id="Path_15868" data-name="Path 15868" d="M677.6,1950.811c41.2,17.872,92.542,120.543,92.865,125.023,4.873,67.567-44.155,86.769-72.282,92.394-12.02,2.4-47.5,26.137-47.5,26.137s-19.963,6.239-59.889,0c-42.561-18.621-42.51,25.529-89.834,11.229-41.155-12.435-122.413-55.543-127.056-75.043-9.942-41.757-31.815-45.734,0-107.376s19.884-63.63,55.676-85.5,61.223-39.032,123.227-35.748S637.689,1933.5,677.6,1950.811Z" transform="translate(-357.285 -1901.52)" fill="#e5ebf9" style="mix-blend-mode: multiply;isolation: isolate"/>
    <path id="Path_15867" data-name="Path 15867" d="M629.211,2138.852c2.941-1.642,16.743,17.278,19.884,15.783,37.71-17.949,58.983-35.9,24.21-62.364-37.431-28.492-10.291-43.08-24.21-66.941s-19.884-41.758-19.884-51.7,1.988,4.554,0-7.376-1.988-2.566-9.942-14.5,0-41.757-19.885-41.757H519.847v53.688s-35.792-3.977-23.861,9.942,21.873,15.907,11.931,27.838-15.907,9.942,0,23.861-7.954,23.861,0,37.78,9.942,9.942,11.931,17.9-5.965,19.884,13.919,21.873,7.954-7.954,21.873,0,33.8-11.931,53.688,27.838S629.211,2138.852,629.211,2138.852Z" transform="translate(-355.786 -1841.432)" fill="#fff"/>
    <g id="Group_10519" data-name="Group 10519" transform="translate(175.701 131.838)">
      <path id="Path_15860" data-name="Path 15860" d="M67.495,20.89a1.047,1.047,0,0,0-.742-.406C53.471,19.5,41.42,11.518,36.754.627A1.038,1.038,0,0,0,34.981.4,37.414,37.414,0,0,1,5.217,15.066a36.668,36.668,0,0,1-3.9-.207,1.021,1.021,0,0,0-.77.241,1.061,1.061,0,0,0-.364.729C.063,18.1,0,19.951,0,21.7A46.659,46.659,0,0,0,11.084,52.171l.083,0a2.716,2.716,0,0,0,.376.5c.066.071.134.141.2.211l.441.571a5.875,5.875,0,0,0,.689.767h-.06A83.293,83.293,0,0,0,30.947,68.986a.982.982,0,0,0,.543.159,1.058,1.058,0,0,0,.584-.179c1.845-1.26,3.584-2.521,5.25-3.787a.523.523,0,0,0,.323-.244.633.633,0,0,0,.04-.132,1.6,1.6,0,0,0,.22-.109c.221-.145.425-.319.632-.483l.769-.61.008.02C58.9,48.1,65.611,32.522,67.694,21.708a1.029,1.029,0,0,0-.2-.817M37.845,62.175a4.124,4.124,0,0,0-.64.588,1.012,1.012,0,0,1,.146-.195Q34.6,64.725,31.47,66.883C11.682,54.392,2.063,39.612,2.063,21.727c0-1.415.042-2.923.13-4.693,1,.075,2.014.112,3.023.112A39.566,39.566,0,0,0,35.579,3C40.815,13.471,52.5,21.1,65.441,22.45c-2.263,10.444-9.025,25.077-27.6,39.725" transform="translate(0 0)" fill="#0040be" stroke="#0140be" stroke-width="2"/>
      <g id="Group_10518" data-name="Group 10518" transform="translate(17.618 18.411)">
        <path id="Path_15861" data-name="Path 15861" d="M46.073,30.929V27.975c0-3.167-3.7-11.873-15.583-11.873a24.6,24.6,0,0,0-5.585.687A14.922,14.922,0,0,0,13.6,31.582c0,9.132,7.475,16.841,16.333,16.841a15.657,15.657,0,0,0,10.993-5.139,17.712,17.712,0,0,0,5.146-12.355m-16.19,15.4c-7.736,0-14.271-6.768-14.271-14.779a12.876,12.876,0,0,1,9.715-12.787,22.687,22.687,0,0,1,5.112-.6c10.189,0,13.522,7.3,13.522,9.812v2.934c.051,8.7-7.537,15.426-14.076,15.426Z" transform="translate(-13.598 -16.102)" fill="#0040be" stroke="#0140be" stroke-width="2"/>
        <path id="Path_15862" data-name="Path 15862" d="M36.835,25.649c-1.374,1.643-2.893,3.26-4.385,4.81s-2.886,3.023-4.24,4.631c-.481-.508-.948-1.038-1.374-1.546a21.34,21.34,0,0,0-5.7-5.015,1.033,1.033,0,0,0-.976,1.821A19.087,19.087,0,0,1,25.3,34.919c.729.811,1.477,1.656,2.288,2.446a1.033,1.033,0,0,0,.687.3h.062a1.033,1.033,0,0,0,.742-.385c1.5-1.869,3.2-3.662,4.858-5.386,1.511-1.594,3.085-3.236,4.487-4.94a1.031,1.031,0,0,0-1.594-1.305Z" transform="translate(-12.849 -14.959)" fill="#0040be" stroke="#0140be" stroke-width="2"/>
      </g>
    </g>
    <path id="Path_15864" data-name="Path 15864" d="M69.535,509.027A77.058,77.058,0,0,0,91.4,523.84a109.946,109.946,0,0,0,11.463,4.98c10.456,3.562,17.675,10.844,23.739,19.671,9.594,13.967,7.1,19.873,0,7.086-2.474-4.456-5.887-8.414-9.055-12.456-3.752-4.789-8.854-7.692-14.435-9.944-9.9-4-19.687-8.268-28.425-14.532-3.543-2.54-6.841-5.421-10.4-7.941a8.454,8.454,0,0,0-4.407-1.624c-8.345-.155-16.7-.07-25.043-.08-7.275-.008-11.855-4.421-12.009-11.664-.086-4.059-.016-8.121-.016-11.866-3.459-.774-6.742-1.151-9.751-2.268-4.21-1.564-4.867-6.029-1.587-9.082,1.383-1.287,2.895-2.434,4.5-3.767-2.345-.667-4.413-1.072-6.337-1.841-4.412-1.763-5.047-6.228-1.269-9.088,4.175-3.16,8.532-6.081,12.7-9.252.965-.734,1.48-2.061,2.578-3.666-3.447-.217-6.047.055-8.367-.626a42.083,42.083,0,0,1-10.884-4.418c-4.234-2.715-3.448-8.035,1.134-10.184q7.505-3.521,15.117-6.813c1.644-.709,2.043-1.694,2.253-3.461.718-6.04-.7-9.868-7.073-12.581C7.991,405.091,2.141,398.939.319,389.988a15.631,15.631,0,0,1-.308-2.6c-.225-6.789,3.059-9.311,9.5-7.242,4.307,1.384,8.581,2.872,13.3,4.458v-3.595q.008-20.676.017-41.352c.006-8.108,4.418-12.657,12.519-12.672q35.965-.066,71.93,0c7.19.013,11.648,4.5,11.679,11.625q.059,13.4-.013,26.791c-.007,1.446.486,3.572-1.878,3.48-2.244-.088-1.782-2.154-1.789-3.635-.029-6.212-.083-12.426.028-18.637.048-2.7-.9-3.876-3.711-3.871q-40.624.075-81.249-.006c-2.61-.005-3.625.9-3.622,3.568q.076,71.629,0,143.259c0,2.837,1.056,3.712,3.775,3.7,20.188-.072,40.377-.044,60.566-.048.68,0,1.489-.232,2.01.057a14.678,14.678,0,0,1,2.345,1.986c-.81.634-1.6,1.775-2.435,1.815-4.262.2-8.538.129-12.809.13q-26.482.008-52.97,0c-.954,4.371,2.226,7.993,7.265,8.02,11.455.061,22.909.019,34.364.028,7.18.005,14.36.037,21.54.037,4.625,0,7.8-2.569,10.4-6.039a60.787,60.787,0,0,0,9.668-20.712c2.985-10.9,4.917-22.024,3.66-33.349-.746-6.721-2.67-13.3-3.635-20.01-2.006-13.939-2.618-27.883,2.722-41.316a27.486,27.486,0,0,1,5.191-7.943c3.037-3.373,7.13-3.981,11.523-3.114,2.456.484,3.305,1.65,3.066,4.24a93.041,93.041,0,0,0,7.479,46.6,102.691,102.691,0,0,0,7.763,14.283,41.772,41.772,0,0,1,6.262,18.51c1.058,9.433,2.631,18.811,4.058,28.2a27.651,27.651,0,0,0,8.877,16.24c7.882,7.474,15.545,15.178,23.3,22.783.139.135.394.229.428.38.259,1.16.476,2.33.706,3.5-1.1-.213-2.524-.057-3.23-.7-4.526-4.1-8.949-8.327-13.3-12.618s-8.494-8.792-12.879-13.045a22.547,22.547,0,0,1-6.82-12.579q-2.861-16.9-5.216-33.887c-.649-4.707-1.819-9.149-4.472-13.071-12.851-19-18.424-39.962-17.076-62.815.04-.666.005-1.337.005-1.966-3.829-1.23-7.008.013-9.734,3.885-3.394,4.821-4.661,10.413-5.429,16.11a88.24,88.24,0,0,0,1.846,34.4c4.58,17.427,3.027,34.384-2.54,51.219-2.26,6.836-4.982,13.447-9.33,19.286a16.833,16.833,0,0,1-14.707,7.3c-6.471-.15-12.948-.034-19.421-.034M27.013,338.94h87.961c.424-5.04-2.7-8.173-8.151-8.183q-19.641-.034-39.281-.006c-10.863,0-21.726-.024-32.589.008-5.3.016-8.434,3.228-7.939,8.182M22.8,407.882c0-6.191.065-11.908-.082-17.621a3.087,3.087,0,0,0-1.8-2.07c-3.709-1.411-7.463-2.733-11.273-3.838a26.874,26.874,0,0,0-5.172-.5c-.157,1.871-.337,3.741-.45,5.615a3.433,3.433,0,0,0,.338,1.106c2.865,8.975,10.121,13.279,18.435,17.3m-.009,19.785c-5.468,2.485-10.488,4.708-15.452,7.048-2.251,1.062-2.358,2.683-.284,4.1a21.034,21.034,0,0,0,15.495,3.328,7.232,7.232,0,0,0,.232-1.217c.015-4.251.009-8.5.009-13.256m-.079,26.214c-4.174,2.965-7.947,5.64-11.713,8.324-1.658,1.182-1.442,2.183.379,2.876a13.738,13.738,0,0,0,11.335-.171Zm.091,16.009c-2.949,2.389-5.387,4.247-7.667,6.281a10.148,10.148,0,0,0-1.577,2.688c2.434.687,4.847,1.486,7.321,1.968.518.1,1.276-.951,1.891-1.507.1-.09.031-.372.032-.565,0-2.7,0-5.39,0-8.865" transform="translate(139.673 -256.492)" fill="#0140be"/>
    <path id="Path_15866" data-name="Path 15866" d="M115.824,246.459c0,6.552,0,12.738,0,18.924a7.057,7.057,0,0,1-.095,2.59c-.316.741-1.189,1.742-1.8,1.727-.638-.016-1.52-1-1.8-1.745a8.487,8.487,0,0,1-.114-2.881c.009-6.4.076-12.807.01-19.209-.024-2.381.9-3.353,3.3-3.184,2,.141,4.023.03,6.891.03L105.8,224.6,89.33,242.665c2.7,0,4.776.046,6.849-.012,2.245-.063,3.42.753,3.4,3.2-.069,9.019.027,18.04-.127,27.056-.017.99-1.247,1.958-1.915,2.937-.642-1.03-1.821-2.05-1.841-3.093-.14-7.176-.038-14.356-.017-21.535,0-1.445,0-2.889,0-4.768-3.262,0-6.316.094-9.359-.053-1.017-.05-2.6-.5-2.848-1.164-.285-.77.369-2.2,1.047-2.965,5.547-6.223,11.127-12.419,16.85-18.481,1.867-1.978,1.835-3.205,4.433-3.7-.025-.222,2.229.156,3.119.994.822.771.69,2.486,2.519,4.281,5.32,5.217,10.2,10.89,15.167,16.458a14.438,14.438,0,0,1,1.706,3.409,17.4,17.4,0,0,1-3.86,1.173c-2.7.184-5.414.055-8.63.055" transform="translate(104.85 -208.44)" fill="#0140be"/>
  </g>
</svg>
