<svg id="icon1" xmlns="http://www.w3.org/2000/svg" xmlns:xlink="http://www.w3.org/1999/xlink" width="497.086" height="379.825" viewBox="0 0 497.086 379.825">
  <defs>
    <clipPath id="clip-path">
      <rect id="Rectangle_1162" data-name="Rectangle 1162" width="497.086" height="379.825" fill="none"/>
    </clipPath>
    <clipPath id="clip-path-2">
      <path id="Path_16198" data-name="Path 16198" d="M35.9,15.74A85.5,85.5,0,0,0,15.091,31.372V149.685a85.409,85.409,0,0,0,110.946,9.586V21.788a85.241,85.241,0,0,0-9.683-6.048Z" transform="translate(-15.091 -15.74)" fill="none"/>
    </clipPath>
  </defs>
  <g id="Group_10618" data-name="Group 10618">
    <g id="Group_10617" data-name="Group 10617" clip-path="url(#clip-path)">
      <path id="Path_16090" data-name="Path 16090" d="M460.633,26.454c21.92,27.373,42.632,91.24,28.02,136.86s-1.218,92.543-28.02,110.79-76.748,45.62-112.076,59.958-20.712,43.014-88.93,45.62S12.328,349.7,14.763,267.587s-28.018-151.2,7.31-173.356S176.787-6.133,281.553.385,438.7-.917,460.633,26.454" transform="translate(3.541 0)" fill="#e5ebf9"/>
      <path id="Path_16091" data-name="Path 16091" d="M158.334,155.916c.04-36.215.081-73.664-.918-110.5-.371-13.665-.5-27.455-.518-41.175h-2.473c.078,19.209.269,38.385.728,58.694.8,35.348.739,71.306.68,106.082-.024,14.055-.047,28.589-.014,42.881.01,4.488-.017,7.153-.715,8.778l1.493-.116c1.381-.107,2.762-.235,4.123-.4a11.918,11.918,0,0,1-2.306-7.128c-.123-19.041-.1-38.4-.079-57.12" transform="translate(112.113 3.08)" fill="#0140be"/>
      <path id="Path_16092" data-name="Path 16092" d="M170.849,163.825c-.045-27.459-.09-55.853-.661-83.785-.53-25.933-.863-50.889-1.086-75.8h-2.144c.143,15.991.247,31.777.345,48.558.2,32.949.409,67.026.9,100.536v14.41c0,15.574.01,31.672-.04,47.515.076-.048.155-.091.231-.142.782-.518,1.505.74.73,1.251-.3.2-.609.385-.92.564.017.331.033.671.04,1.011h.024c.894-.1,1.816-.209,2.746-.287.014-1.417.019-2.865.009-4.073-.136-16.589-.173-33.452-.19-49.761" transform="translate(121.212 3.08)" fill="#0140be"/>
      <path id="Path_16093" data-name="Path 16093" d="M144.786,77.9c-.406-24.509-.421-49.384-.394-73.657h-2.7c.083,29.306.25,59.112.791,88.544.357,19.433.59,39.565.711,61.551.029,5.188.092,10.465.154,15.569.188,15.695.383,31.922-.4,47.883-.009.2-.017.39-.024.583a8.18,8.18,0,0,1-.528,3.138q2.2-.184,4.4-.345a10.919,10.919,0,0,1-1.124-5.839c.148-46.8-.15-93.031-.884-137.428" transform="translate(102.871 3.08)" fill="#0140be"/>
      <path id="Path_16094" data-name="Path 16094" d="M132.993,210.7c.074-19.433.376-39.577.925-61.584.863-34.886-.173-70.352-1.165-104.649-.238-8.174-.485-16.627-.7-24.942-.136-5.221-.247-10.3-.335-15.279h-2.437c.378,25.79.937,51.72,1.85,82.584,1,33.969.173,68.522-.637,101.944l-.088,3.951c-.128,5.351.15,10.8.421,16.067.15,2.922.306,5.944.388,8.917a7.336,7.336,0,0,1-1.234,5.332c2.071-.059,4.154-.159,6.229-.29a11.94,11.94,0,0,1-3.169-8.181c-.05-1.294-.045-2.6-.04-3.859" transform="translate(93.857 3.08)" fill="#0140be"/>
      <path id="Path_16095" data-name="Path 16095" d="M335.481,222.414l-.471-.012c-4.7-.112-6.479-.3-6.479-.3s-.492-21.508-.7-28.86l-.126-4.5c-.482-17.295-.578-34.882-.673-51.892-.088-15.817-.173-32.171-.576-48.259-.609-24.6-.573-49.623-.539-73.823q0-5.23.012-10.529h-2.485c-.019.972-.04,1.938-.066,2.895-.369,50.4.268,82.158,1.013,108.975.392,14.112.345,28.479.3,42.358-.026,8.423-.053,17.131.017,25.693.057,6.788.305,13.691.547,20.367.129,3.592.264,7.3.368,10.958.012.414.06.863.112,1.332.173,1.622.081,5.836.081,5.836s-7.2.749-10.786.749c-1.9,0-2.265-.423-4.441-.359a24.144,24.144,0,0,1-5.1-.309s.278-7.657.266-8.242c-.563-28.274-.6-57.022-.64-84.824-.031-23.317-.066-47.427-.406-71.142-.255-18.026-.5-36.3-.746-54.272h-2.4c.292,24.9.509,52.362.69,77.594.248,33.462.447,60.065.69,62.114h.038v.173q0,9.794.012,19.587c.014,15.04.029,30.592-.036,45.886,0,1.6,0,3,.017,4.246.043,4.672.066,7.02-1.113,8.212s-3.367,1.174-7.777,1.187c-1.495,0-3.188.01-5.192.059h-.426a6.109,6.109,0,0,1-4.55-1.381,7.006,7.006,0,0,1-1.412-5.213c.451-58.166-.568-117.292-1.553-174.473-.2-12.467-.432-25.219-.637-37.991h-2.611c.036,6.1.1,12.344.212,18.865.23,13.665.592,27.557.942,40.994.737,28.229,1.5,57.417,1.062,86.14V210.7c0,6.386.009,9.583-1.6,11.2-1.257,1.257-3.481,1.5-7.146,1.5-1.16,0-2.46-.024-3.97-.052l-.483-.009a6.622,6.622,0,0,1-4.938-1.505,6.176,6.176,0,0,1-1.2-4.66c.466-12.189.031-24.575-.388-36.555-.48-13.668-.975-27.8-.14-41.738,1.117-18.608.5-37.546-.107-55.862-.345-10.3-.69-20.952-.725-31.429-.033-9.448.014-19.057.057-28.348.031-6.536.062-12.812.066-18.986h-2.656c.043,8.948.055,17.849.062,26.625.022,23.154.045,47.1.69,70.645.721,26.318.644,53.1.57,79-.028,9.269-.055,18.851-.047,28.277,0,1.134,0,2.178.014,3.14.035,6.051.623,8.725.024,10.651-.473,1.522.122.43-3.179.43l-6.775.273c-1.225,0-2.874,0-4.748.064h-.518c-2.351,0-5.59.43-5.912-.375a28.34,28.34,0,0,1-.518-6.647c.423-7.919.735-15.684.925-23.078.345-13.328.038-26.874-.257-39.974-.3-13.4-.613-27.254-.233-40.906.473-17.032-.147-34.382-.746-51.159-.369-10.356-.753-21.068-.873-31.6-.1-8.423-.143-16.9-.16-25.372h-2.446c.054,10.7.164,21.515.442,32.216l.211,7.984c.863,32.913,1.773,66.945.33,100.431a46.959,46.959,0,0,0,.148,5.05c.029.447.059.894.085,1.341a626.367,626.367,0,0,1-.04,66.708c-.173,3.706.7,5.4-2.729,5.4-.19,0-2.874-.05-3.074-.06-1.025-.05-2.03-.095-3.033-.095a23.285,23.285,0,0,0-2.71.143c-.668.079-5.975.23-6.529.333-1.286.242-1.339-2.416-1.438-8.062-.211-12.023,0-24.238.19-36.053.133-7.94.269-16.145.28-24.217.033-27.487-.471-55.425-.96-82.446-.407-22.531-.823-45.642-.932-68.678h-2.72c.128,16.822.5,34.347.891,52.508.29,13.558.59,27.576.784,41.453.211,15.125.14,30.505.071,45.38q-.034,6.853-.055,13.7c-.057,18.957-.183,38.231-.305,56.87l-.028,4.248a47.4,47.4,0,0,1-.566,5.107c-1.036.551-55.182.445-74.807.425a4.9,4.9,0,0,1-.4,2.2l75.183-.009q5.375,0,10.741.022l8.178.036c9.666.045,19.651.09,29.477.09,17.039,0,39.541-.117,62.481-1.036,7.344-.293,14.637-.447,21.563-.518,0-.863-.016-1.712-.022-2.568-3.279.143-6.878.287-7.8.264" transform="translate(98.497 3.074)" fill="#0140be"/>
      <path id="Path_16096" data-name="Path 16096" d="M120.525,210.752c.659-32.347.095-65.226-.449-97.02q-.137-8.034-.269-16.067c-.3-18.565-.224-37.454-.15-55.707.012-3,.045-16.04.079-32.409H117v2.643c.471,18.064.392,36.087.316,53.516-.088,20.179-.173,41.043.608,61.472.716,18.592.589,37.53.463,55.846-.057,8.5-.117,17.3-.091,25.944v.121a41.069,41.069,0,0,1-.411,8.285,51.186,51.186,0,0,1,5.085.863,11.208,11.208,0,0,1-2.446-7.48" transform="translate(84.945 6.933)" fill="#0140be"/>
      <path id="Path_16097" data-name="Path 16097" d="M107.72,110.415q-.135-9.807-.266-19.616c-.33-25.134-.309-50.641-.249-75.54h-2.762c0,22.94.04,46.307.326,69.366.545,43.825.994,83.324.953,122.938a39.6,39.6,0,0,1-.2,5.178c.331-.01.661-.028.992-.035q1.105-.023,2.214-.016a11.826,11.826,0,0,1-.221-2.515c.128-33.257-.345-67.067-.789-99.763" transform="translate(75.826 11.078)" fill="#0140be"/>
      <path id="Path_16098" data-name="Path 16098" d="M260.928,150.35c-2.416-18.192-9.521-38.291-18.166-47.81-7.432-8.183-9.148,1.381-21.542-5.254,2.951-47.536-5.577-79.588-58.106-56.33-15.451,8.5-7.872,23.208-6.64,36.336,2.3,24.533,11.77,34.244,6.64,34.244-3.887,0-13.309,43.348-21.9,60.583H71.8c1.453,4.574,14.153,45.824,15.663,45.984,4.293.456,65.467.086,68.153,0,17.02-.544,12.772-16.157,19.992-15.895,13.786.5,56.711,0,61.53-1.937,8.347,5.076,13.613,3.058,17.355-.549,9.749-9.4,10.284-20.325,6.435-49.364" transform="translate(52.127 24.104)" fill="#fff"/>
      <path id="Path_16099" data-name="Path 16099" d="M132.783,159.295a.858.858,0,0,1-.832-.639l-11.782-43.549-7.814-.2a.865.865,0,0,1-.841-.885.913.913,0,0,1,.884-.841l9.1.231,12.113,44.793a.859.859,0,0,1-.606,1.056.793.793,0,0,1-.226.031" transform="translate(80.96 82.171)" fill="#0140be"/>
      <path id="Path_16100" data-name="Path 16100" d="M160.627,166.877c-1.022,0-6.906-.2-15.052-.464-18.007-.594-48.162-1.586-52.94-1.339-5.116.262-6.2.226-6.429-2.449a10.911,10.911,0,0,0-.278-1.83,2.622,2.622,0,0,1,2.391-3.808c-.621-4.179-10.261-28.541-16.49-43.635l-.506-1.224,66.239,1.531a.863.863,0,0,1,.842.884.9.9,0,0,1-.884.842l-63.593-1.471c8.009,19.447,17.058,42.38,15.976,44.211l-.219.371-.518.112c-1.267.14-1.572.4-1.645.5-.173.247.019,1.011.081,1.263a12.726,12.726,0,0,1,.325,2.1,3.286,3.286,0,0,0,.121.808c.335.283,2.943.147,4.5.066,4.869-.247,33.885.706,53.087,1.339,7.824.259,14,.463,15,.463,2.548,0,3.131-3.452,3.155-3.6l.055-.345.28-.211L180.1,149.042a4.828,4.828,0,0,0,1.852-3.219.652.652,0,0,0-.04-.129c-.161-.211-1.174-.552-6.038-.494-.654.009-2.9-.029-5.566-.076-4.406-.074-11.071-.186-11.885-.09a.863.863,0,0,1-.2-1.714c.863-.1,5.78-.029,12.118.079,2.644.045,4.86.081,5.516.074,5.879-.078,7.745.254,7.817,2.434a6.578,6.578,0,0,1-2.527,4.508L165.42,162.177c-.388,1.805-1.781,4.7-4.793,4.7" transform="translate(51.78 81.405)" fill="#0140be"/>
      <path id="Path_16101" data-name="Path 16101" d="M168.42,57.75a4.871,4.871,0,0,1-4.232-2.51c-.5-.863-1.657-2.867-1.657-15.441s1.172-14.619,1.674-15.487a4.892,4.892,0,0,1,4.248-2.522,4.761,4.761,0,0,1,1.419.216,5.759,5.759,0,0,1,4.522,5.737c-.017.69-.035,1.313-.05,1.909-.043,1.583-.085,3.107-.083,4.28l.243-.021c1.49-.124,3.512-.3,6.065-.306-.242-4.634-.091-7.9,1.9-10.026a5.379,5.379,0,0,1,3.956-1.726,6.124,6.124,0,0,1,3.452,1.113c2.392,1.6,2.416,4.01,2.451,9.824.024,3.405-.038,7.594-.092,11.278-.04,2.693-.083,5.7-.059,6.873l.062.173v.8a5.812,5.812,0,0,1-5.825,5.737,5.667,5.667,0,0,1-4.12-1.748l-1.139-1.184-.128-1.638c-.276-3.531-.314-6.1-.345-7.981v-.047c-1.5.112-3.464.242-6.029.242h-.173c.221,5.661,0,8.689-1.956,10.731a5.218,5.218,0,0,1-2.9,1.564,4.731,4.731,0,0,1-1.186.15Z" transform="translate(117.998 15.82)" fill="#fff"/>
      <path id="Path_16102" data-name="Path 16102" d="M195.554,58.3a18.641,18.641,0,0,1-15.6-9.282,18.126,18.126,0,0,1-.095-18.375l.055-.1c3.39-5.794,8.535-8.986,14.488-8.986a18.642,18.642,0,0,1,15.608,9.276,18.106,18.106,0,0,1,.085,18.351l-.052.09c-3.39,5.82-8.537,9.025-14.5,9.025m.072-25.241a7.175,7.175,0,0,0-5.708,3.733,6.435,6.435,0,0,0,.036,6.754l.048.085a5.077,5.077,0,0,0,4.327,3.176,7.176,7.176,0,0,0,5.706-3.733,6.435,6.435,0,0,0-.036-6.754l-.047-.085a5.079,5.079,0,0,0-4.329-3.178" transform="translate(128.798 15.653)" fill="#fff"/>
      <path id="Path_16103" data-name="Path 16103" d="M208.444,57.623a4.75,4.75,0,0,1-3.452-1.474c-1.251-1.295-1.952-3.141-2.311-9.64-.2-3.576-.243-8.069-.142-13.176-1.208,0-2.163-.028-2.9-.074a5.935,5.935,0,0,1-5.012-2.477,5.179,5.179,0,0,1-.48-5.112c1.51-3.336,5.4-3.97,12.046-3.97,4.669,0,9.878.383,11.763.518l2.387-.545,1.762,2.589a5.581,5.581,0,0,1,.518,5.925c-1.714,3.24-5.746,3.24-7.265,3.24-.345,0-.68,0-1.018-.017.1,5.078.052,9.545-.145,13.1-.359,6.49-1.058,8.333-2.306,9.628a4.758,4.758,0,0,1-3.443,1.479" transform="translate(140.617 15.734)" fill="#fff"/>
      <path id="Path_16104" data-name="Path 16104" d="M218.342,57.867c-4.268,0-7.077-.419-8.775-2.565a5.093,5.093,0,0,1-1.07-3.813,102.231,102.231,0,0,0-.19-16.043c-.368-4.755-.632-8.192,1.869-10.893,2.427-2.622,6.1-2.839,9.971-2.839,2.035,0,4.488.088,7.594.2l1.743.062,1,.594c3.837,2.27,3.739,5.059,3.34,6.519-1.194,4.369-6.535,4.369-10.434,4.369-1.132,0-2.289-.026-3.354-.057v.266c1-.045,2.054-.083,3.077-.083,3.5,0,6.167.411,7.845,2.418A5.5,5.5,0,0,1,231,42.858c-1.85,2.244-5.043,2.416-7.891,2.416-1.053,0-2.135-.038-3.162-.083,0,.383-.01.749-.012,1.091.917-.083,2.007-.152,3.279-.152a38.184,38.184,0,0,1,6.547.587l1.42.245,1.025,1.015a5.7,5.7,0,0,1,1.25,6.234,5.634,5.634,0,0,1-5.218,3.518c-.123,0-.247,0-.373-.012l-1.189-.078-.047-.031c-.721.01-1.726.055-2.793.1-1.717.076-3.663.162-5.485.162" transform="translate(151.06 15.764)" fill="#fff"/>
      <path id="Path_16105" data-name="Path 16105" d="M234.75,57.834c-2.416,0-4.8-.138-6.386-.254-3.2-.235-4.417-.324-5.623-1.419-1.924-1.635-1.942-4.041-1.978-9.481-.024-3.4.038-7.574.091-11.257.04-2.722.085-5.763.06-6.93l-.036-.1-.021-.69a5.576,5.576,0,0,1,1.572-4.094,5.943,5.943,0,0,1,8.4-.022l.012.012a5.578,5.578,0,0,1,1.579,3.842,127.911,127.911,0,0,1-.173,17c-.041.608-.085,1.25-.116,1.823.69.022,1.474.035,2.218.045,1.8.028,4.039.062,6.859.211l1.85.1,1.263,1.355a5.373,5.373,0,0,1,1.194,5.915c-1.586,3.647-6.191,3.953-10.772,3.953" transform="translate(160.27 15.866)" fill="#fff"/>
      <path id="Path_16106" data-name="Path 16106" d="M186.118,24.785c.9.6.028,24.283.324,25.117a1.208,1.208,0,0,1-2.054.835c-1.369-17.45,3.326-11.007-15.783-12.168-.444.987,1.208,12.945-1.208,12.51-1.956,1.9-1.987-28.488.036-26.618a1.171,1.171,0,0,1,1.181,1.16v.019c-.4,15.867-.953,9.5,15.437,10.724.627-1.017-1.8-14.17,2.071-11.58" transform="translate(120.461 17.698)" fill="#0140be"/>
      <path id="Path_16107" data-name="Path 16107" d="M204.882,44.972c-9.188,15.777-30.493.891-22.205-14.108,9.188-15.707,30.5-.9,22.205,14.108m-2.111-12.945c-7.3-13.235-24.932-.159-17.985,11.827,7.3,13.235,24.93.159,17.985-11.827" transform="translate(131.261 17.531)" fill="#0140be"/>
      <path id="Path_16108" data-name="Path 16108" d="M217.113,24.838c2.284,3.354-7.7,1.35-8.689,1.864,1.144,32.48-3.509,32.378-2.358,0-.485-.057-8.556.242-8.689-.3-3.152-3.588,19.623-1.533,19.735-1.553" transform="translate(143.079 17.625)" fill="#0140be"/>
      <path id="Path_16109" data-name="Path 16109" d="M227.779,49.233a1.115,1.115,0,0,1-.818,1.9c-.906-.585-15.665,1.293-15.1-1.141,1.824-26.178-7.486-26.285,15.1-25.477,6.164,3.645-12.179,1.866-12.7,2.246v9.545c.982.485,12.545-1.208,12.13,1.139.433,2.27-11.219.635-12.13,1.1-.345,16.259-.747,8.219,13.518,10.684" transform="translate(153.518 17.641)" fill="#0140be"/>
      <path id="Path_16110" data-name="Path 16110" d="M239.782,49.1c3.21,3.452-15.068,1.762-15.21,1.617-.908-.668-.024-24.288-.324-25.156-.045-1.483,2.439-1.505,2.4,0,1.476,27.071-6.258,22.514,13.138,23.537" transform="translate(162.733 17.742)" fill="#0140be"/>
      <path id="Path_16111" data-name="Path 16111" d="M134.083,71.392a4.526,4.526,0,0,1-3.97-2.246,5.042,5.042,0,0,1-.052-4.91.863.863,0,1,1,1.514.83,3.3,3.3,0,0,0,.031,3.216,2.816,2.816,0,0,0,2.836,1.379,16.627,16.627,0,0,0,2.694-1.163.805.805,0,0,1,.164-.069,25.979,25.979,0,0,0,2.52-.891,1.547,1.547,0,0,0,.956-1.327.881.881,0,0,1,.915-.808.862.862,0,0,1,.808.917,3.279,3.279,0,0,1-2.025,2.815c-.844.349-1.717.659-2.6.923a17.5,17.5,0,0,1-3.064,1.282,5.31,5.31,0,0,1-.732.052" transform="translate(93.98 46.311)" fill="#0140be"/>
      <path id="Path_16112" data-name="Path 16112" d="M134.955,60.946a.863.863,0,0,1-.473-1.584,9.185,9.185,0,0,1,5.7-1.474,21.151,21.151,0,0,1,5.6,1.2.863.863,0,0,1-.587,1.624,19.436,19.436,0,0,0-5.138-1.1,7.449,7.449,0,0,0-4.62,1.2.851.851,0,0,1-.473.142" transform="translate(97.351 42.009)" fill="#0140be"/>
      <path id="Path_16113" data-name="Path 16113" d="M140.18,61.9a1.944,1.944,0,0,1-.2-.01,4.65,4.65,0,0,1-1.805-.6,2.508,2.508,0,0,1-1.146-.913A1.48,1.48,0,0,1,137,58.9a1.255,1.255,0,0,1,1.046-.649.877.877,0,0,1,.892.832c0,.026,0,.052,0,.076a.871.871,0,0,1,.254.112,2.128,2.128,0,0,0,1.847.214.862.862,0,0,1,1.079,1.163A2.12,2.12,0,0,1,140.18,61.9" transform="translate(99.327 42.284)" fill="#0140be"/>
      <path id="Path_16114" data-name="Path 16114" d="M126.609,61.653a.863.863,0,0,1-.627-1.457,6.481,6.481,0,0,1,4.46-2.028,7.133,7.133,0,0,1,4.7,1.529.862.862,0,0,1-1.072,1.351,5.331,5.331,0,0,0-3.559-1.156,4.764,4.764,0,0,0-3.279,1.491.856.856,0,0,1-.627.269" transform="translate(91.292 42.226)" fill="#0140be"/>
      <path id="Path_16115" data-name="Path 16115" d="M130.8,61.95a3.61,3.61,0,0,1-.637-.057,3.712,3.712,0,0,1-2.611-2,.863.863,0,1,1,1.552-.758,1.969,1.969,0,0,0,1.379,1.061,1.911,1.911,0,0,0,1.621-.476.863.863,0,1,1,1.17,1.269,3.668,3.668,0,0,1-2.473.961" transform="translate(92.54 42.58)" fill="#0140be"/>
      <path id="Path_16116" data-name="Path 16116" d="M144.364,59.255a.853.853,0,0,1-.478-.145,8.74,8.74,0,0,0-9.117-.385.863.863,0,0,1-.835-1.51,10.454,10.454,0,0,1,10.908.459.863.863,0,0,1-.478,1.581" transform="translate(96.913 40.582)" fill="#0140be"/>
      <path id="Path_16117" data-name="Path 16117" d="M130.594,58.79a.868.868,0,0,1-.528-.18,2.45,2.45,0,0,0-2.865-.093.862.862,0,0,1-.96-1.433,4.174,4.174,0,0,1,4.881.159.864.864,0,0,1-.528,1.547" transform="translate(91.373 40.928)" fill="#0140be"/>
      <path id="Path_16118" data-name="Path 16118" d="M145.53,39.361a.863.863,0,0,1-.306-1.671,7.692,7.692,0,0,1,5.33-.036.863.863,0,1,1-.587,1.622,5.931,5.931,0,0,0-4.132.029.86.86,0,0,1-.305.055" transform="translate(105.028 27.004)" fill="#0140be"/>
      <path id="Path_16119" data-name="Path 16119" d="M149.23,39.807a.929.929,0,0,1-.167-.016c-.4-.078-.815-.2-1.234-.323a.863.863,0,0,1,.49-1.655c.364.107.73.216,1.075.283a.863.863,0,0,1-.164,1.71" transform="translate(106.875 27.427)" fill="#0140be"/>
      <path id="Path_16120" data-name="Path 16120" d="M148.574,59.833a.864.864,0,0,1-.853-.74,10.206,10.206,0,0,0-2.732-5.616.862.862,0,0,1-.107-1.055A.854.854,0,0,0,144.8,51.4a13.27,13.27,0,0,0-1.512-1.453,6.728,6.728,0,0,1-1.728-6.983.863.863,0,1,1,1.635.552,4.977,4.977,0,0,0,1.241,5.145,14.423,14.423,0,0,1,1.662,1.6,2.577,2.577,0,0,1,.528,2.456,11.91,11.91,0,0,1,2.8,6.132.863.863,0,0,1-.732.977.752.752,0,0,1-.124.009" transform="translate(102.522 30.763)" fill="#0140be"/>
      <path id="Path_16121" data-name="Path 16121" d="M151.854,70.827h-.069a6.844,6.844,0,0,1-2.422-.564.861.861,0,0,1-.5-.977,19.288,19.288,0,0,0,.3-6.593,6.269,6.269,0,0,0-3.552-4.784l-.4-.145c-1.118-.4-2.651-.954-2.8-2.465-.079-.69.159-1.731,1.745-2.686.64-.371,1.225-.708,1.313-1.075a.863.863,0,0,1,1.678.407,3.651,3.651,0,0,1-2,2.09c-.706.423-1.049.8-1.018,1.08.045.438.948.763,1.672,1.024l.5.183a8.019,8.019,0,0,1,4.588,6.139,20.954,20.954,0,0,1-.181,6.454,5.159,5.159,0,0,0,1.146.186.866.866,0,0,0,.8-.447,2.055,2.055,0,0,0-.407-1.372,7.687,7.687,0,0,1-1.075-4.553,4.733,4.733,0,0,1,2.779-3.9.863.863,0,1,1,.7,1.576,3,3,0,0,0-1.764,2.466,5.93,5.93,0,0,0,.794,3.457,3.691,3.691,0,0,1,.668,2.677.8.8,0,0,1-.066.236,2.64,2.64,0,0,1-2.422,1.581" transform="translate(103.381 36.937)" fill="#0140be"/>
      <path id="Path_16122" data-name="Path 16122" d="M156.039,48.512a.862.862,0,0,1-.818-.585,5.187,5.187,0,0,0-2.857-3.1.863.863,0,0,1,.245-1.65,21.8,21.8,0,0,0-4.551-2.934.863.863,0,0,1,.749-1.555A23.433,23.433,0,0,1,155.963,44a.865.865,0,0,1,.11,1.017.874.874,0,0,1-.316.314,6.957,6.957,0,0,1,1.1,2.04.858.858,0,0,1-.818,1.137" transform="translate(107.135 28.026)" fill="#0140be"/>
      <path id="Path_16123" data-name="Path 16123" d="M153.347,46.812a.863.863,0,0,1-.827-.618,1.38,1.38,0,0,0-.8-.887.863.863,0,1,1,.658-1.595,3.1,3.1,0,0,1,1.8,1.992.861.861,0,0,1-.582,1.072.8.8,0,0,1-.245.036" transform="translate(109.761 31.688)" fill="#0140be"/>
      <path id="Path_16124" data-name="Path 16124" d="M153.572,49a.862.862,0,0,1-.78-.5l-1.06-2.254a.862.862,0,1,1,1.56-.735l1.06,2.254a.863.863,0,0,1-.412,1.15.874.874,0,0,1-.368.081" transform="translate(110.097 32.681)" fill="#0140be"/>
      <path id="Path_16125" data-name="Path 16125" d="M153,51.571a.864.864,0,0,1-.856-.763c-.048-.411-.085-.825-.119-1.239-.035-.4-.067-.794-.116-1.187a.863.863,0,0,1,1.716-.2c.048.407.085.822.119,1.236.033.4.069.8.114,1.187a.865.865,0,0,1-.758.958,1,1,0,0,1-.1.005" transform="translate(110.282 34.425)" fill="#0140be"/>
      <path id="Path_16126" data-name="Path 16126" d="M153.157,53.766a.86.86,0,0,1-.77-.473,4.4,4.4,0,0,1-.451-2.47.863.863,0,0,1,1.716.186,2.7,2.7,0,0,0,.274,1.5.863.863,0,0,1-.77,1.253" transform="translate(110.287 36.338)" fill="#0140be"/>
      <path id="Path_16127" data-name="Path 16127" d="M153.131,57.1a.862.862,0,0,1-.837-.656,12.924,12.924,0,0,1-.34-4.091.9.9,0,0,1,.927-.794.863.863,0,0,1,.8.925,11.163,11.163,0,0,0,.29,3.545.861.861,0,0,1-.628,1.044.883.883,0,0,1-.207.026" transform="translate(110.291 37.428)" fill="#0140be"/>
      <path id="Path_16128" data-name="Path 16128" d="M150.772,72.326a.863.863,0,0,1-.438-1.607,10.917,10.917,0,0,0,4.96-12.412,3.993,3.993,0,0,0-1.257-2.052,2.177,2.177,0,0,0-1.593-.287,2.128,2.128,0,0,0-1.355.923.863.863,0,1,1-1.443-.946A3.865,3.865,0,0,1,155,54.832c.033.021.136.093.166.119a5.665,5.665,0,0,1,1.793,2.908,12.634,12.634,0,0,1-5.749,14.348.86.86,0,0,1-.438.119" transform="translate(108.541 39.348)" fill="#0140be"/>
      <path id="Path_16129" data-name="Path 16129" d="M151.7,66.138a.864.864,0,0,1-.823-.6,8.573,8.573,0,0,1-.349-3.506l.14-3.447a3.372,3.372,0,0,1,.34-1.565,1.781,1.781,0,0,1,2.239-.791.862.862,0,0,1,.326,1.346c-.054.066-.119.157-.183.249a.866.866,0,0,1-.954.324,1.533,1.533,0,0,0-.041.438l-.145,3.571a7,7,0,0,0,.274,2.862.864.864,0,0,1-.564,1.082.843.843,0,0,1-.259.04" transform="translate(109.247 40.72)" fill="#0140be"/>
      <path id="Path_16130" data-name="Path 16130" d="M152.682,87.195a.872.872,0,0,1-.228-.031.861.861,0,0,1-.6-1.06c.875-3.21.033-6.585-.858-10.159-.915-3.657-1.859-7.441-.822-11.1a.864.864,0,0,1,1.662.469c-.913,3.221-.064,6.619.834,10.216.906,3.632,1.845,7.387.847,11.033a.862.862,0,0,1-.832.635" transform="translate(108.695 46.617)" fill="#050605"/>
      <path id="Path_16131" data-name="Path 16131" d="M155.228,79.016a.891.891,0,0,1-.211-.026,5.5,5.5,0,0,1-3.509-2.751.863.863,0,1,1,1.524-.809,3.762,3.762,0,0,0,2.406,1.887.863.863,0,0,1-.211,1.7" transform="translate(109.922 54.428)" fill="#050605"/>
      <path id="Path_16132" data-name="Path 16132" d="M182.767,116.411a1.254,1.254,0,0,1-.285-.354,62.561,62.561,0,0,0-5.045-9.776A36.972,36.972,0,0,1,174,98.514c-.333-1.129-.882-1.294-1.912-.544l-1.464-2.646A7.363,7.363,0,0,1,169.8,94.1a13.543,13.543,0,0,1-.894-2.107c-.081-.243-2.793-8.951-4.213-13.069a6.863,6.863,0,0,1-.941-3.1c-.494-.216-.979-.449-1.483-.64-.159-.06-.319-.112-.48-.157.09.288.173.576.273.863,1.5,4.679,2.945,9.377,4.488,14.044a40.738,40.738,0,0,0,3.934,8.759,71.508,71.508,0,0,1-11.091,6.243,1.458,1.458,0,0,1-.361.2l.054-.022c-.387.173-.73.411-1.1.606a3.389,3.389,0,0,1-1.643.445v.016c-.072.047-2.6,1.112-2.736,1.193a33.161,33.161,0,0,0-3.509,2.152,4.128,4.128,0,0,0-1.471,5.064c1.495,3.8,3.06,7.555,4.643,11.312a3.476,3.476,0,0,0,2.365,2.071,1.354,1.354,0,0,1,.754.431l.278-.043c1.015-.162,2.037-.264,3.05-.435,3.371-.566,14.238-6.172,15.066-6.819,1.883-1.476,4.914-2.126,6.9-2.934l.314.319c.257-.209.5-.43.739-.663l.107-.119c.076-.085.152-.171.226-.259.107-.126-.1-.832-.3-1.056m-4.075,1.024c-2.934,1.369-5.868,2.724-8.749,4.2a51.717,51.717,0,0,1-8.858,4.142,20.427,20.427,0,0,1-3.959.713,2.282,2.282,0,0,1-2.361-1.531c-1.495-3.588-2.989-7.177-4.425-10.789a2.5,2.5,0,0,1,.98-3.354,23.216,23.216,0,0,1,4.015-2.244,86.054,86.054,0,0,0,10.7-5.005c2.121-1.286,4.218-2.611,6.214-3.849,1.37,2.743,2.689,5.452,4.073,8.129,1.251,2.416,2.589,4.8,3.859,7.208.261.5.426,1.036.682,1.672a19.075,19.075,0,0,0-2.161.715" transform="translate(107.655 54.468)" fill="#0140be"/>
      <path id="Path_16133" data-name="Path 16133" d="M168.328,99.4a3.927,3.927,0,0,0-.656.2,3.141,3.141,0,0,0-.407.245c-.038.036-.076.074-.111.114l.2.29a1.207,1.207,0,0,1,.5.715l6.362,9.2c.787,1.141,1.564,2.29,2.356,3.43a.689.689,0,0,0,.939.266.6.6,0,0,0,.078-.05.711.711,0,0,0,.23-.979l-.031-.047a4.52,4.52,0,0,0-.266-.4c-2.2-3.257-4.425-6.5-6.611-9.774q-1.1-1.641-2.275-3.216h-.3" transform="translate(121.354 72.159)" fill="#0140be"/>
      <path id="Path_16134" data-name="Path 16134" d="M138.409,80.4s2.549,1.139,2.667,7.039" transform="translate(100.485 58.368)" fill="#4e4e4e"/>
      <path id="Path_16135" data-name="Path 16135" d="M140.37,87.782c-.1-5.157-2.156-6.265-2.178-6.277l.725-1.565c.312.14,3.055,1.543,3.179,7.808Z" transform="translate(100.327 58.036)" fill="#707070"/>
      <path id="Path_16136" data-name="Path 16136" d="M141.434,88.66a.864.864,0,0,1-.863-.846c-.1-5.157-2.156-6.267-2.178-6.277A.872.872,0,0,1,138,80.39a.851.851,0,0,1,1.118-.421c.312.14,3.055,1.545,3.179,7.81a.863.863,0,0,1-.846.88Z" transform="translate(100.127 58.004)" fill="#0140be"/>
      <path id="Path_16137" data-name="Path 16137" d="M189.593,170.213a22.932,22.932,0,0,1-7.864-1.716c-4.274-1.6-10.468-8.64-16.528-16.014-10.479-12.748-12.614-21.934-12.7-22.319a.863.863,0,0,1,1.685-.376c.021.09,2.159,9.2,12.351,21.6,5.62,6.844,11.894,14.034,15.8,15.493,9.709,3.632,11.73.359,13.066-1.809.117-.188.228-.368.337-.532.894-1.358,1.367-5.085,1.962-9.8.236-1.868.5-3.923.818-6.131a35.309,35.309,0,0,0,.079-12.351c-1.139-5.1-2.384-11.376-3.587-17.443-.987-4.973-1.962-9.89-2.872-14.129-8.406-27.832-13.447-28.293-28.415-29.661-1.388-.126-2.858-.261-4.417-.425a.863.863,0,0,1-.766-.949.848.848,0,0,1,.949-.768c1.55.164,3.01.3,4.391.425,14.97,1.367,21.168,1.935,29.927,30.947.929,4.317,1.907,9.243,2.894,14.224,1.2,6.058,2.444,12.322,3.588,17.446a37.048,37.048,0,0,1-.069,12.966c-.314,2.163-.575,4.208-.81,6.067-.673,5.323-1.118,8.841-2.233,10.535-.1.15-.2.314-.309.487a7.615,7.615,0,0,1-7.275,4.236" transform="translate(110.701 52.907)" fill="#0140be"/>
      <path id="Path_16138" data-name="Path 16138" d="M146.7,65.347l14.738-4.053-2.912,30.542a14.127,14.127,0,0,1-6.478,2.96c-4.533,1.036-7.895.494-7.895-.024S146.7,65.348,146.7,65.348" transform="translate(104.66 44.499)" fill="#fff"/>
      <path id="Path_16139" data-name="Path 16139" d="M147.418,96.3a6.267,6.267,0,0,1-3.295-.6.833.833,0,0,1-.34-.658c0-.52,2.125-24.649,2.549-29.48a.652.652,0,0,1,.473-.57l14.738-4.053a.649.649,0,0,1,.589.129.643.643,0,0,1,.228.558l-2.913,30.542a.632.632,0,0,1-.235.44,14.773,14.773,0,0,1-6.775,3.095,23.011,23.011,0,0,1-5.019.6m-2.32-1.54a16.161,16.161,0,0,0,7.084-.326,13.575,13.575,0,0,0,6-2.663l2.8-29.335-13.4,3.685c-.827,9.4-2.3,26.171-2.484,28.64" transform="translate(104.387 44.226)" fill="#0140be"/>
      <path id="Path_16140" data-name="Path 16140" d="M167.94,90.188a74.933,74.933,0,0,1-2.53-12.35c-.751-5.573.045-13.627-3.452-14.129-1.332-.192-1.036,9.148-1.248,11.785-.185,2.263-.129,4.408-.129,4.408s-3.452-14.9-4.441-16.052-5.093-.071-3.538,3.174a26.944,26.944,0,0,1,2.147,7.077c.107.6,1.923,7.981,2.006,8.506.145.923.029,4.488-1.036,1.89a17.114,17.114,0,0,1-2.3-6.233,43.7,43.7,0,0,0-2.22-6.876c-1.358-2.244-3.882-4.362-3.725-.59s.621,3.88,1.849,7.27,2.924,8.585,2.924,8.585-.345,5.1-1.2,3.2c-5.556-12.427-4.488-12.514-6.019-12.491-1.878.026-1.949,4.013.373,9.124s2.465,23.777,11.573,29.328" transform="translate(104.278 46.033)" fill="#fff"/>
      <path id="Path_16141" data-name="Path 16141" d="M157.33,117.046a.852.852,0,0,1-.449-.128c-6.778-4.13-8.766-14.821-10.22-22.628a38.141,38.141,0,0,0-1.691-7.078c-1.833-4.039-2.342-7.717-1.295-9.37a2,2,0,0,1,1.7-.973c1.476.033,1.7.506,2.674,3.05.625,1.628,1.631,4.251,3.538,8.582.059-.428.11-.9.145-1.374-.293-.9-1.774-5.392-2.862-8.4-.288-.792-.532-1.4-.74-1.924a13.229,13.229,0,0,1-1.16-5.6c-.067-1.653.356-2.63,1.258-2.9,1.857-.547,3.847,2.643,4.068,3.01a43.923,43.923,0,0,1,2.321,7.128A16.321,16.321,0,0,0,156.3,83.5a3.7,3.7,0,0,0-.036-.4c-.043-.268-.6-2.579-1.046-4.436-.559-2.328-.9-3.763-.956-4.053a26.038,26.038,0,0,0-2.08-6.866,3.11,3.11,0,0,1,.958-4.218c1.208-.791,3.114-.932,4.018.117.668.777,2,5.647,3.131,10.189.007-.352.014-.727.021-1.118.109-5.87.3-8.451,1.217-9.229a1.143,1.143,0,0,1,.92-.273c3.274.471,3.535,5.2,3.813,10.2.086,1.591.178,3.236.369,4.671a74.169,74.169,0,0,0,2.5,12.222.863.863,0,1,1-1.655.487,75.5,75.5,0,0,1-2.56-12.493c-.2-1.486-.3-3.167-.385-4.791-.2-3.63-.426-7.708-1.968-8.471-.411,1.288-.488,5.563-.53,7.714-.022,1.324-.045,2.479-.1,3.174-.178,2.189-.128,4.3-.128,4.317a.863.863,0,0,1-.754.879.875.875,0,0,1-.949-.661c-1.635-7.063-3.678-14.866-4.267-15.7a1.831,1.831,0,0,0-1.75.216c-.666.437-.78,1.122-.34,2.038a27.831,27.831,0,0,1,2.22,7.315c.043.242.514,2.2.932,3.935.637,2.651,1.027,4.282,1.074,4.57.005.035.463,3.381-.97,3.782-1.02.285-1.526-.961-1.717-1.431a17.462,17.462,0,0,1-2.358-6.424,42.951,42.951,0,0,0-2.164-6.68,5.852,5.852,0,0,0-1.975-2.094,3.26,3.26,0,0,0-.09,1.136,11.527,11.527,0,0,0,1.036,5.033c.214.535.466,1.163.761,1.98,1.219,3.362,2.917,8.558,2.934,8.609a.907.907,0,0,1,.04.326c-.285,4.2-1.025,4.329-1.519,4.417-.316.057-.911.012-1.329-.917-2.327-5.2-3.488-8.23-4.182-10.038a14.134,14.134,0,0,0-.837-1.983c.028.074-.266-.093-.463.212-.473.747-.511,3.507,1.408,7.731a38.592,38.592,0,0,1,1.816,7.475c1.393,7.489,3.3,17.743,9.419,21.473a.863.863,0,0,1-.447,1.6" transform="translate(103.918 45.668)" fill="#0140be"/>
      <path id="Path_16142" data-name="Path 16142" d="M175.294,135.313a.864.864,0,0,1-.551-.2c-1.241-1.029-.621-2.347-.167-3.31a3.631,3.631,0,0,0,.532-2.12.863.863,0,1,1,1.695-.324,5.051,5.051,0,0,1-.666,3.179c-.461.982-.447,1.117-.292,1.246a.863.863,0,0,1-.551,1.528" transform="translate(126.334 93.407)" fill="#0140be"/>
      <path id="Path_16143" data-name="Path 16143" d="M137.42,76.214a.863.863,0,0,1-.243-1.691,24.77,24.77,0,0,1,3.436-.744,7.552,7.552,0,0,0,2.779-1.253l-8.747,1.521a.855.855,0,0,1-.953-.542l-.39-1.017-1.954-.5a.864.864,0,0,1-.64-.96.876.876,0,0,1,.889-.739,46.427,46.427,0,0,0,7.1-.8c1.89-.3,3.673-.578,4.826-.639a9.98,9.98,0,0,0,3.231-.846.863.863,0,0,1,1.177,1.046,9.534,9.534,0,0,1-7.006,6.426,23.174,23.174,0,0,0-3.26.7.908.908,0,0,1-.242.035m-2.537-4.42.166.432,10.082-1.754a1.077,1.077,0,0,1,.235-.009c.045-.066.086-.133.126-.2a11.514,11.514,0,0,1-1.854.311c-1.093.057-2.831.331-4.674.621-1.384.217-2.794.44-4.08.6" transform="translate(94.888 49.318)" fill="#0140be"/>
      <path id="Path_16144" data-name="Path 16144" d="M143.365,69.3a.852.852,0,0,1-.469-.14,18.1,18.1,0,0,0-2.415-1.317.862.862,0,1,1,.7-1.574,19.409,19.409,0,0,1,2.649,1.445.863.863,0,0,1-.469,1.586" transform="translate(101.618 48.058)" fill="#0140be"/>
      <path id="Path_16145" data-name="Path 16145" d="M408.3,180.041H38.087a.864.864,0,0,1-.539-1.54l59.29-47.147a.86.86,0,0,1,.39-.174l6.271-1.08a.863.863,0,1,1,.293,1.7l-6.053,1.044L40.557,178.315H408.3a.863.863,0,0,1,0,1.726" transform="translate(27.025 94.443)" fill="#0140be"/>
      <path id="Path_16146" data-name="Path 16146" d="M337.95,182.187H38.088a.862.862,0,0,1-.863-.863v-18.8a.863.863,0,1,1,1.726,0v17.937h299a.863.863,0,0,1,0,1.726" transform="translate(27.025 117.366)" fill="#0140be"/>
      <path id="Path_16147" data-name="Path 16147" d="M144.593,99.25a12.459,12.459,0,0,1-8.138-3.031,22.264,22.264,0,0,1-5.036-8.352l-.513-1.274c-1-2.5-2.038-5.078-2.874-7.712-.6-1.905-1.136-3.934-1.626-6.2a138.482,138.482,0,0,1-2.2-20.206.867.867,0,0,1,.834-.892.835.835,0,0,1,.892.834A136.431,136.431,0,0,0,128.1,72.34c.475,2.189.994,4.167,1.579,6.02.816,2.572,1.842,5.123,2.831,7.589l.533,1.327a20.53,20.53,0,0,0,4.607,7.7,10.7,10.7,0,0,0,7.748,2.52,10.911,10.911,0,0,0,7.227-3.687.863.863,0,0,1,1.3,1.137,12.641,12.641,0,0,1-8.378,4.27c-.318.024-.633.036-.949.036" transform="translate(90.173 37.442)" fill="#0140be"/>
      <path id="Path_16148" data-name="Path 16148" d="M125.124,57.561c-.024,0-.045,0-.067,0a.863.863,0,0,1-.794-.929,6.343,6.343,0,0,1,3.818-5.352,24.668,24.668,0,0,1,2.311-1.074,17.189,17.189,0,0,0,2.993-1.5,8.132,8.132,0,0,0,2.3-2.511.863.863,0,1,1,1.486.877,9.879,9.879,0,0,1-2.8,3.052,18.774,18.774,0,0,1-3.307,1.672,23.633,23.633,0,0,0-2.223,1.032,4.672,4.672,0,0,0-2.858,3.939.86.86,0,0,1-.858.8" transform="translate(90.213 33.229)" fill="#0140be"/>
      <path id="Path_16149" data-name="Path 16149" d="M127.231,63.17a.862.862,0,0,1-.349-.074c-2.2-.97-4.871-6.826-5.515-8.551a.99.99,0,0,1-.1-.789.864.864,0,0,1,.82-.611h.005a.865.865,0,0,1,.746.428,9.054,9.054,0,0,0,2.372.5.443.443,0,0,0-.045-.166,5.557,5.557,0,0,0-.753-1.082,2.488,2.488,0,0,1-.52-2.2.864.864,0,0,1,1.465-.381.311.311,0,0,0,.283.055.883.883,0,0,0,.613-.447,3.284,3.284,0,0,0-.15-2.073.863.863,0,0,1,1.417-.93.993.993,0,0,0,1.27.133,5.5,5.5,0,0,0,1.439-1.59,4.62,4.62,0,0,1,2.434-1.926.9.9,0,0,1,.242-.043,7.66,7.66,0,0,0,1.217-.15,2.615,2.615,0,0,0,.963-1A15.111,15.111,0,0,1,145.8,36.419a31.161,31.161,0,0,1,12.155,1.4.863.863,0,0,1-.53,1.643,29.312,29.312,0,0,0-11.485-1.322,13.349,13.349,0,0,0-9.414,5.068,4.133,4.133,0,0,1-1.679,1.638.953.953,0,0,1-.224.085,9.349,9.349,0,0,1-1.509.207,2.885,2.885,0,0,0-1.412,1.156,7.2,7.2,0,0,1-1.914,2.1,2.83,2.83,0,0,1-1.712.476,4.954,4.954,0,0,1-.2,1.564,2.6,2.6,0,0,1-1.907,1.56,7.271,7.271,0,0,1,.716,1.093,1.979,1.979,0,0,1-.423,2.43,4.227,4.227,0,0,1-2.6.062c1.1,2.37,2.924,5.5,3.916,5.941a.863.863,0,0,1-.349,1.652" transform="translate(88.01 26.363)" fill="#0140be"/>
      <path id="Path_16150" data-name="Path 16150" d="M133.069,50.3A.863.863,0,0,1,133,48.576a3.282,3.282,0,0,0,2.827-2.2,3.352,3.352,0,0,0-1.06-3.405.863.863,0,0,1,1.127-1.308,5.1,5.1,0,0,1,1.579,5.228,5.02,5.02,0,0,1-4.329,3.4.534.534,0,0,1-.074,0" transform="translate(95.983 30.096)" fill="#0140be"/>
      <path id="Path_16151" data-name="Path 16151" d="M135.871,47.809a.863.863,0,0,1-.513-1.557,3.4,3.4,0,0,0,1.236-3.666.864.864,0,0,1,1.659-.483,5.126,5.126,0,0,1-1.869,5.537.857.857,0,0,1-.513.169" transform="translate(98.016 30.115)" fill="#0140be"/>
      <path id="Path_16152" data-name="Path 16152" d="M138.4,46.162a.862.862,0,0,1-.437-1.607,1.532,1.532,0,0,0,.616-1.976.865.865,0,0,1,1.569-.727,3.254,3.254,0,0,1-1.312,4.191.853.853,0,0,1-.437.119" transform="translate(99.854 30.022)" fill="#0140be"/>
      <path id="Path_16153" data-name="Path 16153" d="M140.3,45.362a.863.863,0,0,1-.663-1.415,8.262,8.262,0,0,0,1.522-2.765.863.863,0,1,1,1.641.532,9.958,9.958,0,0,1-1.838,3.338.859.859,0,0,1-.663.311" transform="translate(101.234 29.464)" fill="#0140be"/>
      <path id="Path_16154" data-name="Path 16154" d="M142.352,45.52a.863.863,0,0,1-.606-1.477,3.642,3.642,0,0,0,1.084-2.827,3.941,3.941,0,0,0-1.465-2.751.863.863,0,0,1,1.075-1.35,5.673,5.673,0,0,1,2.111,3.98,5.371,5.371,0,0,1-1.593,4.177.862.862,0,0,1-.606.249" transform="translate(102.395 26.808)" fill="#0140be"/>
      <path id="Path_16155" data-name="Path 16155" d="M144.246,40.47a.851.851,0,0,1-.3-.055.862.862,0,0,1-.5-1.112,4.6,4.6,0,0,1,5.178-2.9.864.864,0,0,1,.687,1.01.876.876,0,0,1-1.01.685,2.872,2.872,0,0,0-3.24,1.817.864.864,0,0,1-.808.559" transform="translate(104.096 26.365)" fill="#0140be"/>
      <path id="Path_16156" data-name="Path 16156" d="M129.82,161.966a.862.862,0,0,1-.842-.675,36.764,36.764,0,0,1-.668-10.573,37.8,37.8,0,0,0-1.457-13.956c-3.257-12.935-2.727-24.968-2.213-36.607.154-3.44.311-7,.359-10.47a.8.8,0,0,1,.875-.851.863.863,0,0,1,.851.875c-.048,3.5-.207,7.068-.361,10.522-.507,11.514-1.034,23.418,2.154,36.08a39.164,39.164,0,0,1,1.515,14.485,34.9,34.9,0,0,0,.628,10.12.863.863,0,0,1-.654,1.03.9.9,0,0,1-.188.021" transform="translate(90.209 64.488)" fill="#0140be"/>
      <path id="Path_16157" data-name="Path 16157" d="M140.772,114.567a.851.851,0,0,1-.281-.047.865.865,0,0,1-.533-1.1,8.826,8.826,0,0,0,.475-3.342,3.474,3.474,0,0,1,.461-2.088,38.16,38.16,0,0,0,2.591-10.006c.946-6.258.154-7.6-.029-7.81h-.01a7.614,7.614,0,0,1-2.263-.528c-2.82-.939-6.338-2.106-9.227,5.494a.943.943,0,0,1-.818.558.861.861,0,0,1-.8-.575,23.323,23.323,0,0,1-1.12-11.019c1.089-6.2,2.951-7.239,3.5-7.41a.863.863,0,0,1,.573,1.626c-.107.066-1.474.979-2.366,6.053a21.662,21.662,0,0,0,.385,7.953c3.381-6.659,7.729-5.214,10.423-4.318a7.657,7.657,0,0,0,1.657.438,1.509,1.509,0,0,1,1.186.4c1.21,1.07,1.414,4.142.62,9.391a39.825,39.825,0,0,1-2.7,10.415,4.179,4.179,0,0,0-.366,1.055.891.891,0,0,1,.031.188,10.546,10.546,0,0,1-.563,4.084.862.862,0,0,1-.816.582m2.9-24.423h0" transform="translate(93.648 55.654)" fill="#0140be"/>
      <path id="Path_16158" data-name="Path 16158" d="M116.159,132.774c-.022,0-.045,0-.067,0a.865.865,0,0,1-.8-.927c.785-10.339,6.624-33.1,9.365-41.011,2.962-8.545,14.348-12,14.833-12.146a.863.863,0,0,1,.49,1.655c-.112.031-11.024,3.354-13.692,11.055-2.715,7.841-8.5,30.367-9.274,40.578a.863.863,0,0,1-.86.8" transform="translate(83.703 57.101)" fill="#0140be"/>
      <path id="Path_16159" data-name="Path 16159" d="M142.153,154.151a96.641,96.641,0,0,0-1.828-13.24,38.838,38.838,0,0,0-2.5-7.9c-1.605-4.016-3.119-7.81-2.439-13.114a46.639,46.639,0,0,0-.178-10.979c-.34-3.378-.608-6.044.24-8.041l1.588.675c-.675,1.59-.413,4.186-.109,7.192a48.786,48.786,0,0,1,.171,11.373c-.625,4.86.811,8.452,2.33,12.255a40.364,40.364,0,0,1,2.587,8.217,98.513,98.513,0,0,1,1.855,13.451Z" transform="translate(97.928 73.234)" fill="#0140be"/>
      <path id="Path_16160" data-name="Path 16160" d="M81.6,15.879a79.37,79.37,0,1,1-79.37,79.37A79.37,79.37,0,0,1,81.6,15.879" transform="translate(1.622 11.528)" fill="#fff"/>
      <path id="Path_16161" data-name="Path 16161" d="M85.393,179.335a84.393,84.393,0,1,1,84.395-84.393,84.488,84.488,0,0,1-84.395,84.393m0-167.06a82.667,82.667,0,1,0,82.669,82.667A82.761,82.761,0,0,0,85.393,12.275" transform="translate(0.726 7.659)" fill="#0140be"/>
    </g>
  </g>
  <g id="Group_10620" data-name="Group 10620" transform="translate(26.047 27.167)">
    <g id="Group_10619" data-name="Group 10619" clip-path="url(#clip-path-2)">
      <path id="Path_16162" data-name="Path 16162" d="M39.566,50.631a1.28,1.28,0,0,1-.539-.119,8.206,8.206,0,0,1-4.044-4.465,29.4,29.4,0,0,1-1.935-5.837,8.418,8.418,0,0,1-.266-3.074,3.811,3.811,0,0,1,6.131-2.877,6.334,6.334,0,0,1,2.277,3.469,17.9,17.9,0,0,1,.418,3.873.864.864,0,0,1-.863.86h0a.862.862,0,0,1-.861-.865,16.125,16.125,0,0,0-.371-3.474,4.573,4.573,0,0,0-1.633-2.482,2.238,2.238,0,0,0-2.444-.095,2.29,2.29,0,0,0-.93,1.724,6.936,6.936,0,0,0,.217,2.525,28.4,28.4,0,0,0,1.855,5.594,6.539,6.539,0,0,0,2.762,3.331,1.047,1.047,0,0,1,.866.157,1.069,1.069,0,0,1,.326,1.141.989.989,0,0,1-.561.542,1.132,1.132,0,0,1-.4.072" transform="translate(-2.276 -2.841)" fill="#0140be"/>
      <path id="Path_16163" data-name="Path 16163" d="M38.32,42.932H38.3a.863.863,0,0,1-.847-.879,6.586,6.586,0,0,0-1.182-3.9.985.985,0,0,1-.136.34,1.023,1.023,0,0,1-.646.428.856.856,0,0,1-.992-.709.84.84,0,0,1,.043-.44c-.028-.107-.069-.233-.105-.362-.209-.725-.447-1.548.193-2.031a1.209,1.209,0,0,1,1.465.088,8.325,8.325,0,0,1,3.086,6.616.863.863,0,0,1-.863.847" transform="translate(-1.206 -1.627)" fill="#0140be"/>
      <path id="Path_16164" data-name="Path 16164" d="M54.8,76.989a11.552,11.552,0,0,1-3.739-.711,5.907,5.907,0,0,0-.728-.211,1.256,1.256,0,0,1-.311-.062c-7.253-2.9-10.713-7.662-11.942-16.428a.864.864,0,0,1,1.71-.24c1.122,8.012,4.241,12.372,10.75,15.016a5.907,5.907,0,0,1,1.06.287,7.832,7.832,0,0,0,6.54-.2c4.6-3.141,12.591-11.818,14.031-17.257a12.154,12.154,0,0,0,.024-3,17.261,17.261,0,0,1-.048-2.781,19.749,19.749,0,0,1,1.31-4.57,15.862,15.862,0,0,0,1.276-4.774c-.057-5.04-2.309-9.674-5.026-14.778a.863.863,0,0,1,1.524-.811C74.055,31.768,76.4,36.6,76.459,42.047a16.892,16.892,0,0,1-1.384,5.382,18.745,18.745,0,0,0-1.21,4.123,15.782,15.782,0,0,0,.052,2.5,13.649,13.649,0,0,1-.059,3.5c-1.609,6.084-9.988,15.065-14.835,18.368A8.981,8.981,0,0,1,54.8,76.989" transform="translate(1.594 -8.288)" fill="#0140be"/>
      <path id="Path_16165" data-name="Path 16165" d="M33.059,65a.851.851,0,0,1-.4-.1c-1.177-.614-2.522-1.481-2.477-2.741.054-1.49,1.869-2.277,4.382-3.367,2.8-1.213,6.283-2.725,6.5-5.168a14.136,14.136,0,0,0,.076-2.387,1.14,1.14,0,0,1-.632-.35c-.409-.438-.516-1.177-.418-2.822l.293-4.855a.839.839,0,0,1,.913-.81.863.863,0,0,1,.809.915l-.293,4.855a9.907,9.907,0,0,0-.012,1.4,1.161,1.161,0,0,1,.64.361c.409.454.576,1.174.342,3.84-.3,3.466-4.31,5.2-7.529,6.6-1.279.554-3.209,1.391-3.345,1.857.007,0,.138.4,1.55,1.137a.863.863,0,0,1-.4,1.628" transform="translate(-4.135 3.618)" fill="#0140be"/>
      <path id="Path_16166" data-name="Path 16166" d="M38.606,47.261a.862.862,0,0,1-.685-1.386,23.1,23.1,0,0,0,4.351-9.952,2.894,2.894,0,0,1,.772-1.823.921.921,0,0,1,.152-.133,4.072,4.072,0,0,1,1.07-.521c4.353-1.472,8.866-3.195,11.809-6.55a.865.865,0,0,1,1.165-.123,3.479,3.479,0,0,0,2.779.618c1.509-.1,2.91-.209,4.31-.319,1.421-.11,2.839-.221,4.246-.307a31.183,31.183,0,0,0,4.261-1.923.863.863,0,0,1,.827,1.515,32.974,32.974,0,0,1-4.619,2.075.885.885,0,0,1-.24.048c-1.439.086-2.891.2-4.341.312-1.41.11-2.82.221-4.22.306a5.042,5.042,0,0,1-3.371-.52c-3.205,3.314-7.712,5.033-12.07,6.509a2.327,2.327,0,0,0-.544.247,1.31,1.31,0,0,0-.274.763,24.845,24.845,0,0,1-4.693,10.824.857.857,0,0,1-.685.34" transform="translate(1.355 -9.208)" fill="#0140be"/>
      <path id="Path_16167" data-name="Path 16167" d="M72.278,62.887a.863.863,0,0,1-.853-.739c-.4-2.755.152-6.388.735-10.233.749-4.95,1.526-10.066.183-13.1C68.227,29.584,63.278,24.064,56.3,20.925a.864.864,0,0,1,.708-1.576c7.4,3.329,12.61,9.117,16.913,18.767,1.548,3.493.734,8.865-.054,14.057-.564,3.718-1.1,7.227-.734,9.728a.864.864,0,0,1-.732.979.739.739,0,0,1-.124.009" transform="translate(14.457 -13.175)" fill="#0140be"/>
      <path id="Path_16168" data-name="Path 16168" d="M50.956,52.446a.887.887,0,0,1-.095,0,.908.908,0,0,1-.754-.576.863.863,0,0,1,.331-1.024c.079-.124.178-.3.281-.48.518-.892.934-1.609,1.635-1.439a1.819,1.819,0,0,0,1.308-.718,1.044,1.044,0,0,0,.311-.683.807.807,0,0,1-.323-.418c-.091-.264-.214-.568-.345-.9-.747-1.887-2-5.042.071-7.166a.862.862,0,1,1,1.234,1.2c-1.291,1.324-.371,3.637.3,5.325.107.266.205.516.29.746a1.864,1.864,0,0,1,.366,2,3.681,3.681,0,0,1-3,2.328c-.114.176-.254.418-.35.585-.449.775-.708,1.219-1.258,1.219" transform="translate(10.29 0.987)" fill="#0140be"/>
      <path id="Path_16169" data-name="Path 16169" d="M54.791,54.406c-6.452,0-11.169-7.144-11.378-7.465a.958.958,0,0,1-.083-.162,1.328,1.328,0,0,1,.366-1.291c.04-.057.081-.11.116-.161a.863.863,0,0,1,1.588-.25c2.434,4.148,9.659,4.595,12.653,4.6h.216a.863.863,0,0,1-.052,1.726c-2.846,0-7.049-.318-10.349-1.952,1.98,1.812,4.764,3.581,7.853,3.171a.863.863,0,0,1,.23,1.71,8.846,8.846,0,0,1-1.16.078" transform="translate(5.365 5.249)" fill="#0140be"/>
      <path id="Path_16170" data-name="Path 16170" d="M51.1,52.474a1.1,1.1,0,0,1-.732-.318,6.459,6.459,0,0,0-1.724.136.863.863,0,0,1-.283-1.7c1.835-.3,2.722-.226,3.212.319a.849.849,0,0,1,.354.576.861.861,0,0,1-.723.982.681.681,0,0,1-.1.007" transform="translate(8.541 9.433)" fill="#0140be"/>
      <path id="Path_16171" data-name="Path 16171" d="M50.915,51.773a.893.893,0,0,1-.164-.016.862.862,0,0,1-.685-1.01,7.952,7.952,0,0,1,.711-2.083.863.863,0,1,1,1.54.78,6.217,6.217,0,0,0-.556,1.628.865.865,0,0,1-.846.7" transform="translate(10.289 7.819)" fill="#0140be"/>
      <path id="Path_16172" data-name="Path 16172" d="M53.7,41.3a.861.861,0,0,1-.839-1.06c.283-1.21.185-2.546-2.691-3.283a6.526,6.526,0,0,0-4.584.737,11.49,11.49,0,0,0,2.825,1.345.8.8,0,0,1,1.024.564.912.912,0,0,1-.616,1.1c-.29.095-1.172.387-5.266-2.227a.864.864,0,0,1-.095-1.384,8.255,8.255,0,0,1,7.1-1.814c4.089,1.046,4.415,3.49,3.977,5.356a.859.859,0,0,1-.839.666" transform="translate(5.283 -1.684)" fill="#0140be"/>
      <path id="Path_16173" data-name="Path 16173" d="M61.735,41.636a2.2,2.2,0,0,1-2.045-1.043l-.161-.214a3.706,3.706,0,0,0-4.458-1.063,1.789,1.789,0,0,0-1.139.837.862.862,0,1,1-1.512-.827A3.353,3.353,0,0,1,54.486,37.7a5.36,5.36,0,0,1,6.386,1.6c.074.09.143.183.209.273.245.331.343.469,1.748.221a.863.863,0,0,1,.3,1.7,8.179,8.179,0,0,1-1.395.145" transform="translate(11.932 -0.137)" fill="#0140be"/>
      <path id="Path_16174" data-name="Path 16174" d="M56.82,41.667a3.35,3.35,0,0,1-.7-.074,2.728,2.728,0,0,1-2.075-2.943.877.877,0,0,1,.946-.77.864.864,0,0,1,.77.948,1,1,0,0,0,.753,1.084,1.6,1.6,0,0,0,1.543-.545.864.864,0,0,1,1.319,1.117,3.355,3.355,0,0,1-2.553,1.184" transform="translate(13.177 0.332)" fill="#0140be"/>
      <path id="Path_16175" data-name="Path 16175" d="M49.024,39.865a3.331,3.331,0,0,1-.841-.107,3.473,3.473,0,0,1-2.223-1.11,2.39,2.39,0,0,1-.228-2.938.864.864,0,0,1,1.439.954.665.665,0,0,0,.06.818,1.757,1.757,0,0,0,1.165.561.989.989,0,0,1,.176.031,1.637,1.637,0,0,0,1.783-.62.863.863,0,1,1,1.4,1.006,3.366,3.366,0,0,1-2.736,1.4" transform="translate(6.864 -1.522)" fill="#0140be"/>
      <path id="Path_16176" data-name="Path 16176" d="M53.615,37.167a.856.856,0,0,1-.463-.135,13.2,13.2,0,0,0-2.617-1.156,14.3,14.3,0,0,1-3.193-1.46c-.083-.048-.2-.131-.326-.216-.178-.123-.4-.293-.507-.271a2.008,2.008,0,0,0-.414.074l-1.876.713a.886.886,0,0,1-.19.2.894.894,0,0,1-1.357-1.082,1.015,1.015,0,0,1,.621-.609l2.135-.809a2.192,2.192,0,0,1,.8-.183,2.362,2.362,0,0,1,1.769.551c.09.062.178.123.266.176a12.9,12.9,0,0,0,2.86,1.3,14.49,14.49,0,0,1,2.958,1.322.862.862,0,0,1-.463,1.591" transform="translate(4.883 -3.788)" fill="#0140be"/>
      <path id="Path_16177" data-name="Path 16177" d="M62.858,38.726a.859.859,0,0,1-.48-.145,9.807,9.807,0,0,0-6.847-1.572.863.863,0,1,1-.24-1.709,11.588,11.588,0,0,1,8.047,1.845.864.864,0,0,1-.48,1.581" transform="translate(13.554 -1.62)" fill="#0140be"/>
      <path id="Path_16178" data-name="Path 16178" d="M78,108.219a.857.857,0,0,1-.552-.2C75.2,106.148,68.4,89.323,66.56,83.051c-2.211-7.541-4.3-14.664-7.082-16.418-2.656-1.683-6-4.374-6.825-7.65-.35-1.388-.63-3.153.323-4.527.737-1.06,2.04-1.679,3.984-1.893a.863.863,0,1,1,.188,1.716A3.736,3.736,0,0,0,54.4,55.44c-.435.625-.454,1.588-.067,3.121.537,2.125,2.694,4.474,6.072,6.614,3.171,2,5.036,7.912,7.815,17.391,2.023,6.894,8.646,22.719,10.337,24.128A.862.862,0,0,1,78,108.219" transform="translate(11.942 10.989)" fill="#0140be"/>
      <path id="Path_16179" data-name="Path 16179" d="M63.652,68.184c-1.041,0-3.324-.5-8.763-2.428a.864.864,0,0,1,.58-1.628,62.066,62.066,0,0,0,7.7,2.311c.23-1.9,1.5-7.644,6.847-26.045a19.535,19.535,0,0,1-1.978-.728,18.984,18.984,0,0,0-3.067-1.046.863.863,0,1,1,.33-1.693,19.758,19.758,0,0,1,3.383,1.139,12.426,12.426,0,0,0,2.187.739.744.744,0,0,1,.885.095.879.879,0,0,1,.217.949c-2.789,9.565-7.165,25.25-7.154,27.026a.993.993,0,0,1-.216.97c-.143.155-.316.34-.953.34" transform="translate(13.386 -0.371)" fill="#0140be"/>
      <path id="Path_16180" data-name="Path 16180" d="M63.515,70.771a.863.863,0,0,1-.708-1.357c1.843-2.651,1.878-5.591,1.909-8.433a30.212,30.212,0,0,1,.14-3.128,11.486,11.486,0,0,1,2.121-4.9,6.817,6.817,0,0,0,1.471-3.359,16.442,16.442,0,0,0-1.54-6.146,7.285,7.285,0,0,0-.228,3.673c.411,2.411-1.219,4.721-2.658,6.757a13.976,13.976,0,0,0-1.79,2.974.863.863,0,1,1-1.631-.566,14.871,14.871,0,0,1,2.011-3.4c1.307-1.85,2.66-3.763,2.372-5.449a9,9,0,0,1,.856-5.88.868.868,0,0,1,.744-.464,1.488,1.488,0,0,1,1.084.483c1.295,1.265,2.51,5.594,2.506,8.024a8.2,8.2,0,0,1-1.745,4.293,9.954,9.954,0,0,0-1.857,4.167A29.1,29.1,0,0,0,66.442,61c-.033,2.958-.072,6.312-2.22,9.4a.861.861,0,0,1-.708.369" transform="translate(17.915 2.662)" fill="#0140be"/>
      <path id="Path_16181" data-name="Path 16181" d="M86.159,117.181c-13.718,0-25.322-15.075-25.854-15.774a.863.863,0,0,1,1.376-1.043c.135.178,13.673,17.781,27.935,14.726.11-.047.583-.514,1.08-1.937,1.3-3.718,1.971-12.092-1.757-18.739-5.423-9.674-16.292-22.636-22.131-29.6-1.414-1.686-2.572-3.067-3.345-4.032a.862.862,0,1,1,1.345-1.08c.77.958,1.919,2.328,3.323,4,5.875,7.008,16.811,20.051,22.315,29.865,4.17,7.436,3.369,16.972,1.514,21.074-.576,1.274-1.225,1.973-1.983,2.135a18.243,18.243,0,0,1-3.818.4" transform="translate(17.607 15.942)" fill="#0140be"/>
      <path id="Path_16182" data-name="Path 16182" d="M45.576,63.788a.862.862,0,0,1-.694-.35c-1.414-1.911.054-7.289.361-8.349a.864.864,0,0,1,1.659.483c-.773,2.655-1.232,6.025-.632,6.84a.863.863,0,0,1-.694,1.376" transform="translate(6.099 12.376)" fill="#0140be"/>
      <path id="Path_16183" data-name="Path 16183" d="M70.985,68.8a.888.888,0,0,1-.242-.035c-.171-.05-17.182-5.007-27.212-4.814-10.13.155-22.894.606-23.021.609a.863.863,0,1,1-.06-1.724c.128-.005,12.907-.456,23.054-.611,9.679-.152,25.1,4.134,27.443,4.8,5.131-1.99,5.452-3.405,5.427-3.8-.095-1.4-3.828-2.913-6.322-3.5a.863.863,0,1,1,.392-1.681c1.239.29,7.439,1.892,7.651,5.062.136,2.026-2.026,3.814-6.8,5.627a.858.858,0,0,1-.307.057" transform="translate(-11.806 14.962)" fill="#0140be"/>
      <path id="Path_16184" data-name="Path 16184" d="M59.472,137.8a.859.859,0,0,1-.647-.292c-6.49-7.351.3-32.811.594-33.89a.868.868,0,0,1,.274-.435c.066-.054,6.481-5.565,6.5-12.263.01-3.476-1.71-6.723-5.116-9.647-4-3.424-6.857-17.165-6.978-17.748a.863.863,0,1,1,1.691-.347c.784,3.813,3.464,14.26,6.409,16.787,3.811,3.269,5.736,6.961,5.72,10.97-.028,6.856-5.706,12.308-6.9,13.383-.692,2.665-6.466,25.745-.9,32.047a.863.863,0,0,1-.647,1.434" transform="translate(13.219 18.197)" fill="#0140be"/>
      <path id="Path_16185" data-name="Path 16185" d="M26.341,152.118a3.837,3.837,0,0,1-2.047-.639c-4.614-2.917-9.248-16.25-8.407-44.926.487-16.592,3.343-33.17,7.462-43.266,2.708-6.636,12.71-8.274,13.135-8.342a.872.872,0,0,1,.986.72.862.862,0,0,1-.718.986c-.093.016-9.465,1.559-11.806,7.289C20.9,73.856,18.093,90.2,17.613,106.6c-.877,29.925,4.369,41.372,7.6,43.418a1.724,1.724,0,0,0,1.805.2A22.02,22.02,0,0,1,34.26,148.2c3.48-.52,6-.894,7.6-4.931,1.887-4.731,3.889-17.726,5.216-26.323.772-5.012,1.187-7.667,1.458-8.5A11.445,11.445,0,0,1,51,104.919a18.515,18.515,0,0,0,2.025-2.567,14.03,14.03,0,0,0,1.522-4.974c.356-2.063.689-4.011,2.2-5.478.6-.587,1.98-.866,4.759-1.326A18.232,18.232,0,0,0,64.289,90c2.881-1.453,3.6-2.794,3.524-3.095-.055-.048-.608-.238-1.888.171a19.244,19.244,0,0,1-7.356.975.861.861,0,0,1-.809-.911.848.848,0,0,1,.913-.811,17.731,17.731,0,0,0,6.714-.892c3.033-.97,3.849.383,4.027.82.637,1.557-1.07,3.632-4.348,5.287a14.633,14.633,0,0,1-3.288.735,17.867,17.867,0,0,0-3.852.873c-1.087,1.061-1.362,2.663-1.683,4.52a15.613,15.613,0,0,1-1.738,5.559,19.632,19.632,0,0,1-2.214,2.831,10.722,10.722,0,0,0-2.109,2.913c-.243.742-.778,4.213-1.4,8.231-1.338,8.675-3.359,21.787-5.316,26.7-1.978,4.959-5.368,5.465-8.954,6a20.3,20.3,0,0,0-6.706,1.855,3.206,3.206,0,0,1-1.467.357" transform="translate(-14.585 12.717)" fill="#0140be"/>
      <path id="Path_16186" data-name="Path 16186" d="M44.008,78.85a.862.862,0,0,1-.323-1.662c1.98-.8,7.406-3.2,8.709-4.646,1.735-1.926,1.773-2.584,1.526-3.143a16.016,16.016,0,0,0-3.388,1.666c-.846.482-1.8,1.025-2.86,1.584a20.734,20.734,0,0,1-6.164,1.824c-1.695.3-3.293.589-3.583,1.284a.863.863,0,1,1-1.595-.659c.651-1.569,2.608-1.919,4.874-2.323a19.022,19.022,0,0,0,5.661-1.654c1.043-.549,1.981-1.084,2.813-1.557,2.432-1.383,3.775-2.14,4.829-1.819a1.469,1.469,0,0,1,.906.777c.87,1.747.022,3.221-1.735,5.175-1.809,2.007-8.582,4.781-9.35,5.09a.854.854,0,0,1-.323.064" transform="translate(0.281 21.962)" fill="#0140be"/>
      <path id="Path_16187" data-name="Path 16187" d="M22.312,130.319a.864.864,0,0,1-.8-.54,10.348,10.348,0,0,1-.469-6.291c.761-3.25,4.652-9.826,8.416-16.188,3.428-5.794,7.7-13.007,7.57-14.764-.036-.545-.1-1.276-.176-2.133-.706-8.085-1.219-16.157.887-18.327a92.553,92.553,0,0,1,7.891-6.932c1.983-1.593,3.918-2.993,5.456-2.643A2.206,2.206,0,0,1,52.6,63.8c.627,1.331-.15,2.57-1.966,5.244a11.017,11.017,0,0,1-3.773,3.022c-1.538.9-2.865,1.681-3,2.813-.033.273-.066.528-.095.766a29.742,29.742,0,0,1,8.828-4.662,30.52,30.52,0,0,1,8.223-1.719,2.4,2.4,0,0,1,2.517,1.013c.288.561.373,1.515-.861,2.886a10.807,10.807,0,0,1-5.622,2.658,76.814,76.814,0,0,0-7.819,3.768.863.863,0,1,1-.837-1.509,77.767,77.767,0,0,1,8.1-3.9.893.893,0,0,1,.209-.057,9.051,9.051,0,0,0,4.757-2.189c.537-.6.53-.9.528-.9a1.786,1.786,0,0,0-.537-.069,2.314,2.314,0,0,0-.276.016,28.851,28.851,0,0,0-7.819,1.633C48.7,74.087,44,77.02,43.266,78.777a.864.864,0,0,1-1.643-.511c0-.009.192-.911.523-3.6.245-1.978,2.073-3.052,3.844-4.089a9.825,9.825,0,0,0,3.217-2.5c1.458-2.145,2.035-3.11,1.835-3.538-.147-.311-.285-.342-.342-.354-.917-.221-3.065,1.562-4,2.313a91.351,91.351,0,0,0-7.739,6.794c-1.719,1.773-.754,12.807-.392,16.961.076.87.142,1.61.18,2.163.15,2.14-2.85,7.384-7.807,15.764-3.7,6.25-7.52,12.712-8.224,15.7a8.638,8.638,0,0,0,.394,5.25.865.865,0,0,1-.478,1.124.893.893,0,0,1-.323.062" transform="translate(-10.978 18.169)" fill="#0140be"/>
      <path id="Path_16188" data-name="Path 16188" d="M19.383,113.665a.889.889,0,0,1-.266-.041,4.308,4.308,0,0,1-2.3-2.568c-2.026-4.5-2.6-14.343-.378-19.426.879-2.014,3.44-3.4,6.407-5C27.7,84.009,33.752,80.745,35.485,73.4c1.6-6.775,1.26-12.8.934-18.629-.454-8.095-.882-15.743,4.054-23.995,4.5-7.531,15.486-13.012,21.49-14.348,10.617-2.363,21.09,1.484,22.309,2.67a.863.863,0,1,1-1.2,1.238c-1.01-.929-10.932-4.406-20.731-2.223-5.937,1.32-16.325,6.764-20.386,13.551-4.662,7.8-4.249,15.189-3.811,23.013.335,5.95.678,12.1-.977,19.119-1.911,8.105-8.611,11.72-13.5,14.36-2.684,1.448-5,2.7-5.644,4.168-2.018,4.624-1.476,13.932.369,18.028.585,1.294,1.077,1.574,1.262,1.633a.863.863,0,0,1-.266,1.685" transform="translate(-15.147 -15.79)" fill="#0140be"/>
      <path id="Path_16189" data-name="Path 16189" d="M43.461,47.681a.791.791,0,0,1-.2-.024.86.86,0,0,1-.64-1.037,7.555,7.555,0,0,1,1.108-2.513.862.862,0,1,1,1.426.97,5.886,5.886,0,0,0-.856,1.94.862.862,0,0,1-.839.665" transform="translate(4.879 4.58)" fill="#0140be"/>
      <path id="Path_16190" data-name="Path 16190" d="M51.925,46.908a.863.863,0,0,1-.526-.18l-.847-.651c-.359-.278-.58-.247-1.462.036l-.331.105a.863.863,0,1,1-.506-1.65l.314-.1a2.955,2.955,0,0,1,3.036.24l.849.652a.863.863,0,0,1-.526,1.547" transform="translate(8.541 4.893)" fill="#0140be"/>
      <path id="Path_16191" data-name="Path 16191" d="M53.053,40.817a.862.862,0,0,1-.8-1.194,4.718,4.718,0,0,1,3.381-2.7l.145-.04a.864.864,0,0,1,1.26,1.089,1.277,1.277,0,0,1-.942.614,3.024,3.024,0,0,0-2.249,1.7.866.866,0,0,1-.8.532" transform="translate(11.843 -0.498)" fill="#0140be"/>
      <path id="Path_16192" data-name="Path 16192" d="M59.229,41.953a.839.839,0,0,1-.131-.01.86.86,0,0,1-.723-.982c.183-1.21-.117-1.859-2.4-2.515a.863.863,0,1,1,.476-1.659c2.038.587,4.065,1.571,3.628,4.434a.863.863,0,0,1-.851.732" transform="translate(14.137 -0.484)" fill="#0140be"/>
      <path id="Path_16193" data-name="Path 16193" d="M48.292,38.887c-.041,0-.079,0-.116,0a1.644,1.644,0,0,1-1.3-.885,1.809,1.809,0,0,1,.2-2.118,1.685,1.685,0,0,1,1.937-.331,1.959,1.959,0,0,1,1.058,1.167A1.506,1.506,0,0,1,49.808,38a1.855,1.855,0,0,1-1.515.884m.128-1.667h0Z" transform="translate(7.803 -1.479)" fill="#0140be"/>
      <path id="Path_16194" data-name="Path 16194" d="M56.507,40.953a1.113,1.113,0,0,1-.112-.005,1.641,1.641,0,0,1-1.308-.882,1.808,1.808,0,0,1,.2-2.12,1.684,1.684,0,0,1,1.937-.331,1.958,1.958,0,0,1,1.058,1.158,1.5,1.5,0,0,1-.257,1.293,1.847,1.847,0,0,1-1.514.887m.129-1.669h0Z" transform="translate(13.765 0.021)" fill="#0140be"/>
      <path id="Path_16195" data-name="Path 16195" d="M56.531,41.7a1.33,1.33,0,0,1-.863-.292.863.863,0,0,1,.932-1.441,4.543,4.543,0,0,0,1.276-.716.863.863,0,0,1,1.058,1.364,4.522,4.522,0,0,1-2.4,1.086" transform="translate(14.137 1.2)" fill="#0140be"/>
      <path id="Path_16196" data-name="Path 16196" d="M44.306,39.124h-.045a3.446,3.446,0,0,1-1.458-.413.863.863,0,0,1,.822-1.517c.026.014.052.028.078.04a4.936,4.936,0,0,1,2.672-2.774.863.863,0,0,1,.678,1.588,3.211,3.211,0,0,0-1.9,2.37.863.863,0,0,1-.847.706" transform="translate(4.7 -2.199)" fill="#0140be"/>
      <path id="Path_16197" data-name="Path 16197" d="M37.33,43.559a1.12,1.12,0,0,1-.28-.036.864.864,0,0,1-.623-1.049.853.853,0,0,1,.231-.4.2.2,0,0,0-.133-.116,1.468,1.468,0,0,1-1.239-.991,2.9,2.9,0,0,1,.74-2.6.864.864,0,0,1,1.234,1.208,1.617,1.617,0,0,0-.33.706,1.957,1.957,0,0,1,1.384,1.279,1.656,1.656,0,0,1-.2,1.652,1.057,1.057,0,0,1-.791.352m-.407-3.14h0Z" transform="translate(-0.496 0.497)" fill="#0140be"/>
    </g>
  </g>
</svg>
