<svg xmlns="http://www.w3.org/2000/svg" width="100.74" height="86.986" viewBox="0 0 100.74 86.986">
  <g id="Group_10418" data-name="Group 10418" transform="translate(-76.362 29.453)">
    <g id="Group_10420" data-name="Group 10420" transform="translate(78.417 -27.616)">
      <g id="Group_10419" data-name="Group 10419" transform="translate(12.84 29.121)">
        <path id="Path_15157" data-name="Path 15157" d="M160.816,15.636c-3.569-4.09-18.916-8.179-24.627,2.974-3.925,7.668,1.979,10.248,8.923,11.154,4.775.624,11.157-1.268,13.92,2.975,6.781,10.41-7.5,19.333-26.055,11.9" transform="translate(-132.977 -5.779)" fill="none" stroke="#0140be" stroke-linecap="round" stroke-linejoin="round" stroke-width="3"/>
        <line id="Line_22" data-name="Line 22" x1="0.614" y2="5.983" transform="translate(12.896 41.502)" fill="none" stroke="#0140be" stroke-linecap="round" stroke-linejoin="round" stroke-width="3"/>
        <line id="Line_23" data-name="Line 23" y1="5.202" x2="0.92" transform="translate(15.434 0)" fill="none" stroke="#0140be" stroke-linecap="round" stroke-linejoin="round" stroke-width="3"/>
      </g>
      <path id="Path_15158" data-name="Path 15158" d="M136.7,63.932c-.385,12.637-8.569,24-20.816,27.144-5.224,1.339-25.912,6.908-37.471-12.619" transform="translate(-78.417 -9.189)" fill="none" stroke="#013fb5" stroke-linecap="round" stroke-linejoin="round" stroke-width="3"/>
      <path id="Path_15159" data-name="Path 15159" d="M0,26.453S1.018,5.371,24.508.671A33.169,33.169,0,0,1,34.989.226" transform="matrix(0.951, 0.309, -0.309, 0.951, 9.185, 10.76)" fill="none" stroke="#013fb5" stroke-linecap="round" stroke-linejoin="round" stroke-width="3"/>
      <g id="Group_10421" data-name="Group 10421" transform="translate(48.784)">
        <path id="Path_15163" data-name="Path 15163" d="M14.673,52.331c3.169-1.643,12.145,8.11,15.937,12.2" transform="translate(-7.095 -52.146)" fill="none" stroke="#0140be" stroke-linecap="round" stroke-linejoin="round" stroke-width="3"/>
        <path id="Path_15164" data-name="Path 15164" d="M13.415,72.77c-2.48-2.35-11.671-10.523-11.41-12.22s4.047-6.267,7.573-8.1" transform="translate(-2 -52.27)" fill="none" stroke="#0140be" stroke-linecap="round" stroke-linejoin="round" stroke-width="3"/>
        <path id="Path_15165" data-name="Path 15165" d="M16.107,90.577s1.121,1.4-1.948,3.943c0,0-5.721,5.761-8.824,9.3-3.134,3.574,3.28,7.491,3.28,7.491" transform="translate(-2.994 -67.597)" fill="none" stroke="#0140be" stroke-linecap="round" stroke-linejoin="round" stroke-width="3"/>
        <path id="Path_15166" data-name="Path 15166" d="M32.621,108.263c-3.691,3.81-8.282,9.859-13.191,12.323a2.327,2.327,0,0,1-2.134-.108" transform="translate(-8.149 -74.707)" fill="none" stroke="#0140be" stroke-linecap="round" stroke-linejoin="round" stroke-width="3"/>
        <path id="Path_15167" data-name="Path 15167" d="M60.13,52.662c-3.154-1.635-11.156,7.794-15.058,11.943" transform="translate(-19.316 -52.278)" fill="none" stroke="#0140be" stroke-linecap="round" stroke-linejoin="round" stroke-width="3"/>
        <path id="Path_15168" data-name="Path 15168" d="M74.41,66.115c2.48-2.35,3.677-3.535,3.417-5.232s-4.048-6.267-7.573-8.095" transform="translate(-29.44 -52.405)" fill="none" stroke="#0140be" stroke-linecap="round" stroke-linejoin="round" stroke-width="3"/>
        <path id="Path_15169" data-name="Path 15169" d="M70.7,105.944s5.092-3.917,2.775-6.5c-3.142-3.505-8.852-9.31-8.852-9.31-3.068-2.546-2.089-3.721-2.089-3.721s.1-1.4,5.581-6.75" transform="translate(-26.275 -63.208)" fill="none" stroke="#0140be" stroke-linecap="round" stroke-linejoin="round" stroke-width="3"/>
        <path id="Path_15170" data-name="Path 15170" d="M43.143,108.481c3.691,3.81,8.745,9.738,13.655,12.2a3.436,3.436,0,0,0,3.554-.542" transform="translate(-18.541 -74.795)" fill="none" stroke="#0140be" stroke-linecap="round" stroke-linejoin="round" stroke-width="3"/>
      </g>
    </g>
  </g>
</svg>
