<svg xmlns="http://www.w3.org/2000/svg" width="22.184" height="51.621" viewBox="0 0 22.184 51.621"><defs><style>.a{fill:#0140be;stroke:#0140bf;stroke-width:2px;}</style></defs><path class="a" d="M.045,6.2c0,.473-.2,1.488.263,1.777.632.39.881-.362,1.044-.844.322-.947.172-2.525.757-3.3A31.569,31.569,0,0,0,19.146,18.081c7.272,2.557,16.181,3.052,23.03-1.041a15.038,15.038,0,0,0,7.185-8.749c.09-.33.611-1.941-.087-1.875-.364.034-1.013,2.109-1.187,2.462a15.431,15.431,0,0,1-3.6,4.767c-5.192,4.639-12.9,5.575-19.508,4.346a32.823,32.823,0,0,1-12.349-5.137,28.453,28.453,0,0,1-5.25-4.53C6.087,6.869,3.906,4.526,3.514,2.56c1.735.26,3.275,2.215,4.968,2.729.9.272,1.925-.165,1.3-1.176-.505-.82-2.136-1.339-2.962-1.779C5.9,1.843,4.968,1.385,4,.982,3.3.686,1.9-.241,1.153.06-.177.591.084,4.982.045,6.2.045,6.69.061,5.689.045,6.2Z" transform="translate(0.977 50.633) rotate(-90)"/></svg>