<svg xmlns="http://www.w3.org/2000/svg" width="672.469" height="501" viewBox="0 0 672.469 501"><defs><style>.a,.b{fill:#e5ebf9;}.a{font-size:319px;font-family:OpenSans-Bold, Open Sans;font-weight:700;}.c,.e,.f{fill:#0140be;}.c{fill-rule:evenodd;}.d,.g{fill:#fff;}.e,.g,.h{stroke:#0140be;}.g,.h{stroke-width:6px;}.h,.j{fill:none;}.h{stroke-linecap:round;}.i{stroke:none;}</style></defs><g transform="translate(-598 -376)"><text class="a" transform="translate(933 717)"><tspan x="-273.128" y="0">404</tspan></text><path class="b" d="M124.656,181.231,93.607,137.677,54.412,98.28,42.856,84.711,38.575,68.732,3.467,29.123,0,16.185,2.248,5.646,23.321,0Z" transform="matrix(-0.259, 0.966, -0.966, -0.259, 882.255, 756.591)"/><path class="b" d="M65.585,164.118,34.535,120.564l14.7,17.814L37.681,124.81,33.4,108.831,3.467,67.151,0,54.213,2.248,43.675,9.368,0Z" transform="matrix(-0.259, 0.966, -0.966, -0.259, 1134.647, 787.969)"/><path class="c" d="M1828.172,1477.226c6.177,0,11.962,1.221,16.559,4.345a293.09,293.09,0,0,0,25.944,16.1c17.484-4.153,39.128-11.455,53.575-16.916l1.4-.533a118.56,118.56,0,0,1-11.934-6.909l-2.975-2.024c-2.678-1.85-7.668-5.27-9.23-5.575-10.024.532-14.622-2.4-24.777-8.732-3.123-1.937-6.848-4.258-11.559-7.006-6.648-3.847-6.63-3.838-17.9.2-3.718,1.343-9.336,3.542-15.827,6.081-12.2,4.763-26.7,10.416-37.949,14.106,6.386,2.661,13.706,5.427,21.785,8a4.022,4.022,0,0,1,.558.219A61.4,61.4,0,0,1,1828.172,1477.226Zm183.451,51.071h74.982a181.419,181.419,0,0,1-24.61-11.673c-10.714-5.819-19.961-10.844-33.212-11.935-13.8-1.159-36.781-13.016-50.5-20.117l-5.967-3.036c-11.892-5.959-22.927-1.78-42.967,5.827l-2.268.855c-12.283,4.66-29.7,10.609-45.531,14.919,15.407,7.066,31.957,11.759,49.483,11.48a4.259,4.259,0,0,1,.594.035c10.284-3.89,20.038-6.473,27.235-4.519a231.324,231.324,0,0,1,22.761,8.079c9.746,3.821,19.821,7.765,29.3,9.868A3.853,3.853,0,0,1,2011.624,1528.3Zm-252.747-75.35q1.728,1.008,3.429,2.086c2.234,1.378,4.511,2.792,6.979,4.048l1.274.637c2.81,1.44,6.744,3.42,11.646,5.7,10.966-2.773,31.4-10.765,46.334-16.6,6.569-2.556,12.266-4.79,16.018-6.133,13.087-4.755,15.128-5.13,24.638.4,4.78,2.783,8.584,5.148,11.76,7.137,9.754,6.071,12.738,7.894,20.485,7.538a2.488,2.488,0,0,1,.27-.01c3.2,0,7.294,2.661,13.558,6.971l2.844,1.937c1.84,1.2,3.586,2.295,5.26,3.263l7.616,4.047c1.649.8,3.263,1.554,4.85,2.3a1.708,1.708,0,0,1,.166.078c15.625-5.645,27.272-8.3,39.895-1.962l6.046,3.1c12.336,6.377,35.29,18.225,47.495,19.237,14.935,1.239,25.344,6.9,36.362,12.885,12.815,6.953,27.341,14.84,53.017,18.364a4.44,4.44,0,0,1,1.124.331h28.135a4,4,0,1,1,0,7.991H1964.74a4,4,0,1,1,0-7.991h20.789c-2.295-.88-4.562-1.761-6.822-2.643a226.889,226.889,0,0,0-21.959-7.809c-7.651-2.128-23.049,4.407-35.41,9.649-.637.262-1.274.542-1.9.8h19.916a4,4,0,0,1,0,7.991h-63.241a4,4,0,0,1,0-7.991h18.608a4.066,4.066,0,0,1,1.353-.383c4.414-.472,11.236-3.176,18.687-6.307-28.031-3.97-53.13-18.8-74.539-33.423-10.3-7.083-33.126.018-45.061,6.151-4.178,2.154-7.991,4.231-11.812,6.315-7.931,4.328-16.131,8.8-27.551,13.776a282.861,282.861,0,0,1-41.492,13.87h136.41a4,4,0,0,1,0,7.991H1617.6a4,4,0,0,1,0-7.991h56.384a4.328,4.328,0,0,1,.83-.191c26.635-3.761,57.168-12.005,77.792-20.99,11.105-4.842,19.141-9.231,26.914-13.489,3.874-2.1,7.755-4.221,12-6.412a101.013,101.013,0,0,1,10.984-4.763,312.339,312.339,0,0,1-35.559-15.6l-1.256-.637c-2.686-1.361-5.173-2.9-7.6-4.4-9.361-5.81-16.14-10.015-30.892-1.082-2.958,1.781-11.734,6.073-21.025,10.609-8.157,3.961-16.454,8.01-20.45,10.207-6.29,1.912-9.553,1.378-12.153.952a10.09,10.09,0,0,0-6.884.714c-5.5,2.295-15.389,7.948-29.085,15.792-5.775,3.3-12.214,6.988-19.3,10.984-8.934,5.016-26.635,12.614-44.266,18.3H1592.2a4,4,0,1,1,0,7.991H1483.6a4,4,0,1,1,0-7.991h53.33a4.484,4.484,0,0,1,1.37-.3c19.237-.629,59.42-15.581,76.082-24.986,7.066-3.979,13.5-7.652,19.246-10.94,13.958-7.992,24.035-13.75,29.993-16.227a17.827,17.827,0,0,1,11.238-1.221,14.962,14.962,0,0,0,7.834-.42c3.253-1.893,11.681-6,19.978-10.05,8.732-4.256,17.744-8.662,20.4-10.259,12.3-7.451,20.973-7.381,28.266-4.676Zm-138.11,103.433h-36.2a4,4,0,0,1,0-8h36.2a4,4,0,0,1,0,8Zm192.025,0H1646.171a4,4,0,0,1,0-8h166.621a4,4,0,0,1,0,8Zm96.812,0H1838.2a4,4,0,0,1,0-8H1909.6a4,4,0,0,1,0,8Zm188.937,0H1935a4,4,0,0,1,0-8h163.542a4,4,0,0,1,0,8Zm-387.951,20.092h-25.064a4,4,0,0,1,0-8h25.064a4,4,0,0,1,0,8Zm37.688,0h-12.293a4,4,0,0,1,0-8h12.293a4,4,0,0,1,0,8Zm118.4,0h-93a4,4,0,0,1,0-8h93a4,4,0,0,1,0,8Zm90.766,0h-65.369a4,4,0,0,1,0-8h65.369a4,4,0,0,1,0,8Zm40.132,0h-14.726a4,4,0,0,1,0-8h14.726a4,4,0,0,1,0,8Z" transform="translate(-881.602 -701.279)"/><g transform="translate(814.614 582.28)"><g transform="matrix(-0.259, 0.966, -0.966, -0.259, 236.437, 47.651)"><path class="d" d="M22.932,198.43c1.031.2,78.182-10.949,78.182-10.949l23.357-3.537,9.816-14.035L116.488,6.08,102.963,0,12.43,6.08l-10.5,9.3L0,36.617,11.561,183.943Z" transform="matrix(-0.259, -0.966, 0.966, -0.259, 34.756, 181.071)"/><path class="b" d="M4.813,175.592,0,30.129,5.527,5.768,26.135,0s13.631,143.613,2.918,160.01S4.813,175.592,4.813,175.592Z" transform="translate(47.802 184.107) rotate(-109)"/><path class="e" d="M170.375,134.322a400.958,400.958,0,0,0,39.567-14.142,3.441,3.441,0,0,0,1.509-1.32l1.651-2.593c3.3-5,7.451-11.266,5.423-17.772a13.51,13.51,0,0,0-.707-1.744c-3.207-6.458-14.808-31.112-15.327-32.385l-4.2-10.276-16.411-40.3C179.618,8.224,163.914-2.288,155.1.446l-.8.283-6.225,2.4L13.005,56.212C5.177,59.323-1.9,67.337.461,75.068h0C1.4,77.849,2.3,80.536,3.149,83.176q.755,2.4,1.556,4.714l12.026,36.675c5.895,18.054,10.186,31.065,13.346,40.352a23.16,23.16,0,0,0,25.041,9.428h.66c12.261-4.2,24.523-8.815,36.407-13.246,18.864-6.977,38.152-14.142,58.855-20.647l9.432-2.97,9.432-2.923ZM90.2,154.687h0c-11.837,4.384-24.051,8.957-36.218,13.152h-.519a17.5,17.5,0,0,1-16.883-5.28c-1.038-2.97-2.169-6.411-3.443-10.182l-1.038.377h0a3.317,3.317,0,1,1-2.169-6.27l1.368-.519-4.15-11.125-.99.33a3.349,3.349,0,0,1-4.15-2.216,3.3,3.3,0,0,1,2.169-4.148l.9-.283c-.66-1.98-1.32-3.96-1.981-6.081-4.386-13.293-9.668-29.509-16.27-49.449l-3.16,1.037L6.78,72.9c-1.085-3.488,3.867-8.627,8.677-10.512L150.285,9.308l6.178-2.4h.377c5.188-1.6,17.449,6.741,18.864,9.428l19.76,48.46.9-.33a3.309,3.309,0,1,1,2.122,6.27H198.1c1.509,3.347,3.773,8.155,6.366,13.623l2.264-1.178a3.316,3.316,0,1,1,3.3,5.751c-.707.424-1.65.9-2.688,1.414,1.462,3.017,2.971,6.175,4.716,9.428a5.24,5.24,0,0,1,.33.754c1.085,3.488-1.981,8.108-4.716,12.162-.424.613-.8,1.226-1.179,1.838a387.6,387.6,0,0,1-37.869,13.482l-9.432,2.923-9.432,2.923c-20.891,6.505-40.368,13.765-59.185,20.836Z" transform="translate(4.812 3.48)"/><path class="e" d="M54.2,11.9c-2.5-8.064-7.5-15.562-25.56-9.951,0,0-22.778,8.017-26.456,11.931A10.138,10.138,0,0,0,.248,17.228q.012.236,0,.472a3.4,3.4,0,0,0,0,2.547c.33,1.085.66,2.264.943,3.4s.707,2.641,1.132,3.914c3.82,12.356,14.808,16.977,29.38,12.45C56.7,32.13,57.122,21.378,54.2,11.9ZM29.3,33.687h0c-11.224,3.49-18.345.8-21.08-8.064C7.84,24.4,7.51,23.17,7.18,21.944s-.424-1.7-.66-2.5a2.737,2.737,0,0,1,.519-.99A148.6,148.6,0,0,1,30.618,8.268c14.148-4.386,15.657.472,17.26,5.612S51.84,26.707,29.3,33.687Z" transform="translate(69.686 74.436)"/><path class="f" d="M14.245,26.59,5.2,0,0,1.393,8.819,28.043Z" transform="translate(24.798 130.963)"/><path class="f" d="M13.615,36.025,3.5,0,0,8.652,7.12,37.887Z" transform="translate(198.163 59.91) rotate(-11)"/><g class="g" transform="translate(59.863 121.446)"><circle class="i" cx="11" cy="11" r="11"/><circle class="j" cx="11" cy="11" r="8"/></g><g class="g" transform="translate(39.005 78.376)"><circle class="i" cx="11" cy="11" r="11"/><circle class="j" cx="11" cy="11" r="8"/></g></g><path class="h" d="M-18906.7-16538.111l-5.924-53.664" transform="translate(19059.387 16742.348)"/><path class="h" d="M-18906.7-16504.346l-5.924-87.43" transform="translate(19071.387 16708.582)"/></g></g></svg>