<svg xmlns="http://www.w3.org/2000/svg" width="22" height="13" viewBox="0 0 22 13"><defs><style>.a{fill:#111;fill-rule:evenodd;}</style></defs><path class="a" d="M959.974,419.75a3.615,3.615,0,1,1,3.615,3.611A3.613,3.613,0,0,1,959.974,419.75Zm3.615-2.167a2.167,2.167,0,1,0,2.169,2.167A2.167,2.167,0,0,0,963.588,417.583Zm-10.519.8a13.341,13.341,0,0,1,21.039,0,2.177,2.177,0,0,1,0,2.729,13.341,13.341,0,0,1-21.039,0A2.177,2.177,0,0,1,953.069,418.385Zm10.519-3.691a11.939,11.939,0,0,0-9.387,4.589.731.731,0,0,0,0,.932,11.894,11.894,0,0,0,18.773,0,.731.731,0,0,0,0-.932A11.939,11.939,0,0,0,963.588,414.694Z" transform="translate(-952.588 -413.25)"/></svg>