<svg xmlns="http://www.w3.org/2000/svg" width="22.705" height="25.6" viewBox="0 0 22.705 25.6">
  <g id="flip-arrow" transform="matrix(-0.819, 0.574, -0.574, -0.819, 64.048, 3.724)">
    <path id="Path_5538" data-name="Path 5538" d="M43.563,14.4V27.083l9.106-6.342Z" transform="translate(6.384 0.246)" fill="#0140be"/>
    <path id="Path_5539" data-name="Path 5539" d="M47.524,16.947c-.209.055-.418.1-.625.161l-.62.216a14.664,14.664,0,0,0-4.595,2.42,11.253,11.253,0,0,0-3.206,3.938,9.466,9.466,0,0,0-1.007,4.738,8.939,8.939,0,0,1,1.918-4.17,9.624,9.624,0,0,1,3.447-2.7,12.012,12.012,0,0,1,4.156-1.091l.534-.059c.177-.016.366-.007.545-.011l1.086-.011c.727.02,1.463.109,2.182.157V16.245c-.859.132-1.707.227-2.552.4Z" transform="translate(0 2.349)" fill="#0140be"/>
  </g>
</svg>
