<svg xmlns="http://www.w3.org/2000/svg" width="33.5" height="25" viewBox="0 0 33.5 25"><defs><style>.a{fill:none;stroke:#0140be;stroke-linecap:round;stroke-width:2px;}.b{fill:#0140be;}</style></defs><g transform="translate(-629.5 -4743.668)"><path class="a" d="M-13623.52,14996.668h31.5" transform="translate(14254.02 -10252)"/><path class="a" d="M-13623.52,14996.668h31.5" transform="translate(14254.02 -10243.827)"/><path class="b" d="M-15.995-7.14V.5h1.469V-4.862h.02L-12.757.5h1.209L-9.8-4.915h.02V.5H-8.31V-7.14h-2.209L-12.1-1.888h-.02L-13.786-7.14Zm10.064,0V.5H-.515V-.915H-4.362V-2.787H-.9v-1.3H-4.362V-5.728H-.595V-7.14Zm7.475,0V.5H3.013V-4.616h.02L6,.5H7.57V-7.14H6.1v5.123h-.02L3.1-7.14ZM16-2.391V-7.14H14.436v4.749a2.008,2.008,0,0,1-.32,1.257,1.413,1.413,0,0,1-1.159.4,1.7,1.7,0,0,1-.765-.144,1.175,1.175,0,0,1-.445-.374,1.284,1.284,0,0,1-.21-.529,3.7,3.7,0,0,1-.05-.61V-7.14H9.919v4.749a3.036,3.036,0,0,0,.795,2.31,3.145,3.145,0,0,0,2.244.749A3.157,3.157,0,0,0,15.2-.086,3.006,3.006,0,0,0,16-2.391Z" transform="translate(645.995 4768)"/></g></svg>